<svg width="173" height="218" viewBox="0 0 173 218" fill="none" xmlns="http://www.w3.org/2000/svg">
<g filter="url(#filter0_d_7_271)">
<path d="M102.871 9.24491C119.015 12.5787 133.645 21.588 143.9 34.5066C170.21 67.6732 156.07 107.136 141.976 126.75C125.394 149.828 84.7392 161.91 70.1258 164.437C55.5247 166.963 53.8172 175.512 53.8172 175.512L35.6677 164.334L17.5181 153.156C17.5181 153.156 24.384 147.781 20.0665 133.608C15.7483 119.423 8.23546 77.6746 21.375 52.4846C32.5428 31.0707 61.4143 0.672777 102.871 9.24491Z" fill="#F3FFB1"/>
<path d="M53.8172 175.512L41.3089 195.818C35.9882 204.458 24.7121 207.19 16.1352 201.902L10.8884 198.672C2.31154 193.384 -0.335205 182.103 4.98482 173.452L17.4932 153.145L53.8172 175.512Z" fill="#B1D000"/>
<path d="M9.17206 164.053L49.3969 185.922C50.3176 186.423 51.4698 186.082 51.9704 185.161L52.8245 183.591C53.3251 182.67 52.9845 181.518 52.0637 181.017L11.8389 159.148C10.9182 158.647 9.76596 158.988 9.26538 159.909L8.4113 161.48C7.91072 162.4 8.25133 163.553 9.17206 164.053Z" fill="#5B9739"/>
<path d="M3.86933 174.224L42.4484 195.198C43.3691 195.699 44.5213 195.358 45.0219 194.437L45.876 192.866C46.3766 191.946 46.036 190.793 45.1152 190.293L6.53616 169.319C5.61542 168.818 4.46323 169.159 3.96265 170.079L3.10857 171.65C2.608 172.571 2.9486 173.723 3.86933 174.224Z" fill="#5B9739"/>
<path d="M0.11005 184.675L35.761 204.057C36.6817 204.558 37.8339 204.217 38.3345 203.297L39.1886 201.726C39.6891 200.805 39.3485 199.653 38.4278 199.152L2.77688 179.77C1.85615 179.269 0.703954 179.61 0.203378 180.531L-0.650705 182.102C-1.15128 183.022 -0.81068 184.174 0.11005 184.675Z" fill="#5B9739"/>
<path d="M46.6516 121.769C42.295 110.632 30.5901 71.5034 68.656 45.2259C70.088 44.2452 72.0521 44.7334 72.8088 46.2996C78.0966 57.0931 93.3458 96.4273 50.7827 123.112C49.2758 124.06 47.2794 123.428 46.6394 121.77L46.6516 121.769Z" fill="#B1D000"/>
<path d="M35.6677 164.334C35.6677 164.334 45.3387 140.968 48.829 121.271L70.5278 48.4481" stroke="#5B9739" stroke-width="0.5" stroke-miterlimit="10" stroke-linecap="round"/>
<path d="M73.0492 62.087C73.0492 62.087 64.2835 72.9761 61.4923 78.6737" stroke="#5B9739" stroke-width="0.5" stroke-miterlimit="10" stroke-linecap="round"/>
<path d="M54.214 68.2341C54.214 68.2341 59.9186 79.9548 57.5924 91.6327" stroke="#5B9739" stroke-width="0.5" stroke-miterlimit="10" stroke-linecap="round"/>
<path d="M73.676 89.0368C73.676 89.0368 60.204 93.0353 54.2859 103.206" stroke="#5B9739" stroke-width="0.5" stroke-miterlimit="10" stroke-linecap="round"/>
<path d="M47.7148 89.0364C47.7148 89.0364 53.4194 100.757 51.0932 112.435" stroke="#5B9739" stroke-width="0.5" stroke-miterlimit="10" stroke-linecap="round"/>
<path d="M54.147 129.529C60.1109 123.266 82.2071 103.623 111.068 120.567C112.15 121.201 112.425 122.648 111.639 123.618C106.178 130.389 85.0413 152.403 54.539 132.65C53.465 131.954 53.2602 130.455 54.1463 129.517L54.147 129.529Z" fill="#B1D000"/>
<path d="M109.521 122.772L55.1312 130.802C55.1312 130.802 49.329 131.184 41.1191 149.913" stroke="#5B9739" stroke-width="0.5" stroke-miterlimit="10" stroke-linecap="round"/>
<path d="M101.352 128.597C101.352 128.597 91.5329 126.18 86.9474 126.093" stroke="#5B9739" stroke-width="0.5" stroke-miterlimit="10" stroke-linecap="round"/>
<path d="M91.5615 118.114C91.5615 118.114 85.6196 125.435 77.2538 127.482" stroke="#5B9739" stroke-width="0.5" stroke-miterlimit="10" stroke-linecap="round"/>
<path d="M83.873 137.24C83.873 137.24 77.1285 129.621 68.656 128.86" stroke="#5B9739" stroke-width="0.5" stroke-miterlimit="10" stroke-linecap="round"/>
<path d="M75.9382 120.221C75.9382 120.221 69.9963 127.543 61.6305 129.59" stroke="#5B9739" stroke-width="0.5" stroke-miterlimit="10" stroke-linecap="round"/>
<path d="M135.624 113.896C132.212 118.946 127.829 124.049 122.275 129.132" stroke="#5B9739" stroke-width="0.5" stroke-miterlimit="10" stroke-linecap="round"/>
<path d="M145.196 91.3766C144.107 97.0165 142.069 102.892 138.721 108.876" stroke="#5B9739" stroke-width="0.5" stroke-miterlimit="10" stroke-linecap="round"/>
<path d="M135.543 45.093C135.543 45.093 146.025 56.6102 146.185 80.6377" stroke="#5B9739" stroke-width="0.5" stroke-miterlimit="10" stroke-linecap="round"/>
<path d="M132.458 63.0747C134.186 68.9972 134.918 75.8278 133.833 83.5141" stroke="#5B9739" stroke-width="0.5" stroke-miterlimit="10" stroke-linecap="round"/>
<path d="M113.518 35.8594C113.518 35.8594 121.322 41.275 127.368 51.454" stroke="#5B9739" stroke-width="0.5" stroke-miterlimit="10" stroke-linecap="round"/>
</g>
<defs>
<filter id="filter0_d_7_271" x="-6.88153" y="0.759277" width="179.535" height="216.839" filterUnits="userSpaceOnUse" color-interpolation-filters="sRGB">
<feFlood flood-opacity="0" result="BackgroundImageFix"/>
<feColorMatrix in="SourceAlpha" type="matrix" values="0 0 0 0 0 0 0 0 0 0 0 0 0 0 0 0 0 0 127 0" result="hardAlpha"/>
<feOffset dx="4" dy="3"/>
<feGaussianBlur stdDeviation="5"/>
<feComposite in2="hardAlpha" operator="out"/>
<feColorMatrix type="matrix" values="0 0 0 0 0 0 0 0 0 0 0 0 0 0 0 0 0 0 0.25 0"/>
<feBlend mode="normal" in2="BackgroundImageFix" result="effect1_dropShadow_7_271"/>
<feBlend mode="normal" in="SourceGraphic" in2="effect1_dropShadow_7_271" result="shape"/>
</filter>
</defs>
</svg>
