<svg width="173" height="218" viewBox="0 0 173 218" fill="none" xmlns="http://www.w3.org/2000/svg">
<g filter="url(#filter0_d_27_56099)">
<path d="M102.871 9.24495C119.015 12.5787 133.645 21.5881 143.9 34.5066C170.21 67.6733 156.07 107.136 141.976 126.75C125.394 149.828 84.7392 161.91 70.1258 164.437C55.5247 166.963 53.8172 175.512 53.8172 175.512L35.6677 164.334L17.5181 153.156C17.5181 153.156 24.384 147.781 20.0665 133.608C15.7483 119.423 8.23546 77.6747 21.375 52.4846C32.5428 31.0707 61.4143 0.672822 102.871 9.24495Z" fill="#F3FFB1"/>
<path d="M53.817 175.512L41.3087 195.819C35.988 204.458 24.7119 207.19 16.135 201.902L10.8882 198.672C2.31136 193.384 -0.335388 182.103 4.98464 173.452L17.493 153.145L53.817 175.512Z" fill="#55B76B"/>
<path d="M9.17249 164.053L49.3973 185.922C50.3181 186.423 51.4702 186.082 51.9708 185.161L52.8249 183.59C53.3255 182.67 52.9849 181.518 52.0641 181.017L11.8393 159.148C10.9186 158.647 9.76638 158.988 9.26581 159.909L8.41173 161.479C7.91115 162.4 8.25176 163.552 9.17249 164.053Z" fill="#4AA25D"/>
<path d="M3.86902 174.224L42.4481 195.198C43.3688 195.699 44.521 195.358 45.0216 194.437L45.8757 192.866C46.3763 191.946 46.0357 190.794 45.1149 190.293L6.53585 169.319C5.61512 168.818 4.46292 169.159 3.96235 170.079L3.10827 171.65C2.60769 172.571 2.94829 173.723 3.86902 174.224Z" fill="#4AA25D"/>
<path d="M0.109684 184.675L35.7606 204.057C36.6813 204.558 37.8335 204.217 38.3341 203.297L39.1882 201.726C39.6888 200.805 39.3482 199.653 38.4274 199.152L2.77651 179.77C1.85578 179.269 0.703587 179.61 0.203011 180.531L-0.651071 182.101C-1.15165 183.022 -0.811046 184.174 0.109684 184.675Z" fill="#4AA25D"/>
<path d="M46.6514 121.769C42.2949 110.632 30.59 71.5033 68.6559 45.2259C70.0879 44.2451 72.052 44.7334 72.8087 46.2996C78.0965 57.0931 93.3457 96.4273 50.7826 123.112C49.2757 124.06 47.2793 123.428 46.6393 121.77L46.6514 121.769Z" fill="#55B76B"/>
<path d="M35.6675 164.334C35.6675 164.334 45.3385 140.968 48.8288 121.271L70.5276 48.4481" stroke="#4AA25D" stroke-width="0.5" stroke-miterlimit="10" stroke-linecap="round"/>
<path d="M73.0492 62.0871C73.0492 62.0871 64.2835 72.9763 61.4923 78.6739" stroke="#4AA25D" stroke-width="0.5" stroke-miterlimit="10" stroke-linecap="round"/>
<path d="M54.2139 68.2342C54.2139 68.2342 59.9184 79.9549 57.5923 91.6328" stroke="#4AA25D" stroke-width="0.5" stroke-miterlimit="10" stroke-linecap="round"/>
<path d="M73.6763 89.0369C73.6763 89.0369 60.2043 93.0354 54.2862 103.207" stroke="#4AA25D" stroke-width="0.5" stroke-miterlimit="10" stroke-linecap="round"/>
<path d="M47.7148 89.0364C47.7148 89.0364 53.4194 100.757 51.0933 112.435" stroke="#4AA25D" stroke-width="0.5" stroke-miterlimit="10" stroke-linecap="round"/>
<path d="M54.1469 129.529C60.1108 123.266 82.207 103.622 111.068 120.567C112.15 121.201 112.425 122.648 111.638 123.617C106.178 130.389 85.0412 152.403 54.539 132.65C53.4649 131.954 53.2601 130.455 54.1462 129.517L54.1469 129.529Z" fill="#55B76B"/>
<path d="M109.52 122.772L55.1309 130.802C55.1309 130.802 49.3288 131.184 41.1189 149.913" stroke="#4AA25D" stroke-width="0.5" stroke-miterlimit="10" stroke-linecap="round"/>
<path d="M101.352 128.597C101.352 128.597 91.5328 126.18 86.9473 126.093" stroke="#4AA25D" stroke-width="0.5" stroke-miterlimit="10" stroke-linecap="round"/>
<path d="M91.5612 118.114C91.5612 118.114 85.6194 125.435 77.2536 127.482" stroke="#4AA25D" stroke-width="0.5" stroke-miterlimit="10" stroke-linecap="round"/>
<path d="M83.8733 137.24C83.8733 137.24 77.1288 129.621 68.6562 128.86" stroke="#4AA25D" stroke-width="0.5" stroke-miterlimit="10" stroke-linecap="round"/>
<path d="M75.9382 120.221C75.9382 120.221 69.9963 127.543 61.6305 129.59" stroke="#4AA25D" stroke-width="0.5" stroke-miterlimit="10" stroke-linecap="round"/>
<path d="M135.624 113.896C132.212 118.946 127.829 124.049 122.275 129.132" stroke="#4AA25D" stroke-width="0.5" stroke-miterlimit="10" stroke-linecap="round"/>
<path d="M145.195 91.3765C144.106 97.0164 142.068 102.892 138.72 108.876" stroke="#4AA25D" stroke-width="0.5" stroke-miterlimit="10" stroke-linecap="round"/>
<path d="M135.544 45.0929C135.544 45.0929 146.025 56.6101 146.185 80.6376" stroke="#4AA25D" stroke-width="0.5" stroke-miterlimit="10" stroke-linecap="round"/>
<path d="M132.458 63.0747C134.187 68.9973 134.918 75.8278 133.833 83.5142" stroke="#4AA25D" stroke-width="0.5" stroke-miterlimit="10" stroke-linecap="round"/>
<path d="M113.518 35.8595C113.518 35.8595 121.322 41.2751 127.367 51.4541" stroke="#4AA25D" stroke-width="0.5" stroke-miterlimit="10" stroke-linecap="round"/>
</g>
<defs>
<filter id="filter0_d_27_56099" x="-6.88184" y="0.759445" width="179.535" height="216.839" filterUnits="userSpaceOnUse" color-interpolation-filters="sRGB">
<feFlood flood-opacity="0" result="BackgroundImageFix"/>
<feColorMatrix in="SourceAlpha" type="matrix" values="0 0 0 0 0 0 0 0 0 0 0 0 0 0 0 0 0 0 127 0" result="hardAlpha"/>
<feOffset dx="4" dy="3"/>
<feGaussianBlur stdDeviation="5"/>
<feComposite in2="hardAlpha" operator="out"/>
<feColorMatrix type="matrix" values="0 0 0 0 0 0 0 0 0 0 0 0 0 0 0 0 0 0 0.25 0"/>
<feBlend mode="normal" in2="BackgroundImageFix" result="effect1_dropShadow_27_56099"/>
<feBlend mode="normal" in="SourceGraphic" in2="effect1_dropShadow_27_56099" result="shape"/>
</filter>
</defs>
</svg>
