<svg width="62" height="62" viewBox="0 0 62 62" fill="none" xmlns="http://www.w3.org/2000/svg">
<path d="M30.94 0C23.0299 0 15.8143 2.96999 10.344 7.85378C5.46018 13.3241 1.24512 21.7847 1.24512 29.6949C1.24512 46.7826 15.0974 60.6349 32.1851 60.6349C40.0953 60.6349 48.5559 56.4199 54.0263 51.5361C58.9101 46.0657 61.88 38.8502 61.88 30.94C61.88 13.8523 48.0278 0 30.94 0Z" fill="#E2F2F6"/>
<path d="M50.3248 17.0518C50.3248 13.3382 47.3142 10.3276 43.6006 10.3276C41.9689 6.99154 37.9418 5.60976 34.6057 7.24142C31.6743 4.96145 27.4495 5.48961 25.1695 8.421C23.4272 8.0567 21.7024 8.40382 20.2938 9.2628C18.8657 10.2719 17.969 13.0174 17.969 14.4872C14.7672 15.2049 12.1405 18.2411 13.2349 23.8925C15.9485 29.0265 24.1354 39.1254 34.1903 40.2174C45.9257 41.4917 53.0623 26.7595 53.0623 26.7595C55.0426 22.7106 53.6608 18.6834 50.3248 17.0518Z" fill="#FFF0AF"/>
<path d="M15.0156 22.4646C13.4975 19.0973 15.3744 15.398 18.5764 14.6804C18.5764 13.2106 18.8658 10.2718 20.2939 9.2627C18.7637 10.1959 17.6071 11.7335 17.2113 13.6263C13.6118 14.5404 11.435 18.1996 12.3491 21.7989C12.48 22.3144 12.7814 23.0343 13.2349 23.8924C14.5621 23.9182 15.4225 23.367 15.0156 22.4646Z" fill="#FFE07D"/>
<path d="M2.49014 28.4498C2.49014 20.5397 5.46013 13.3241 10.3439 7.85376C3.99717 13.5198 0 21.7626 0 30.94C0 48.0277 13.8523 61.88 30.94 61.88C40.1174 61.88 48.3602 57.8828 54.0262 51.5361C48.5559 56.4198 41.3403 59.3898 33.4301 59.3898C16.3424 59.3898 2.49014 45.5376 2.49014 28.4498Z" fill="#C1E4FA"/>
<path d="M27.9965 23.4518C29.028 23.4518 29.8641 22.6156 29.8641 21.5842C29.8641 20.5527 29.028 19.7166 27.9965 19.7166C26.9651 19.7166 26.1289 20.5527 26.1289 21.5842C26.1289 22.6156 26.9651 23.4518 27.9965 23.4518Z" fill="#FFE07D"/>
<path d="M44.372 24.3321C45.4035 24.3321 46.2396 23.496 46.2396 22.4645C46.2396 21.4331 45.4035 20.5969 44.372 20.5969C43.3406 20.5969 42.5044 21.4331 42.5044 22.4645C42.5044 23.496 43.3406 24.3321 44.372 24.3321Z" fill="#FFE07D"/>
<path d="M25.6183 31.2495C22.8039 32.5063 20.6128 34.327 20.6128 36.6089C20.6128 42.3401 34.0099 47.6771 33.8389 49.6275C33.668 51.5779 34.6222 53.4318 36.5338 53.8551C38.4453 54.2783 40.3381 53.0719 40.7614 51.1603C42.1458 52.5447 44.3904 52.5447 45.7748 51.1603C47.1592 49.7759 47.1592 47.5313 45.7748 46.1469C46.508 45.9857 47.1707 45.5947 47.6664 45.0308L42.5356 36.4036L25.6183 31.2495Z" fill="#98CA91"/>
<path d="M48.4697 41.9195C48.0466 40.008 40.0706 31.5059 37.2492 29.7791C35.5513 28.7398 29.8721 29.3502 25.6182 31.2495C25.7657 32.2329 26.3371 33.1755 27.1842 33.8861C28.6843 35.1443 30.7421 37.2052 31.5161 40.4212C32.29 43.6372 37.4036 43.687 38.1776 40.471C38.3044 39.944 37.8532 39.3987 38.041 38.9322C38.2588 39.0369 38.4871 39.1183 38.722 39.175C41.938 39.9489 43.9993 42.0073 45.2575 43.5074C45.9131 44.2888 46.7661 44.8348 47.6662 45.0308C48.3888 44.2104 48.7239 43.0686 48.4697 41.9195Z" fill="#68B181"/>
<path d="M37.8715 45.1976C38.903 45.1976 39.7391 44.3615 39.7391 43.33C39.7391 42.2986 38.903 41.4624 37.8715 41.4624C36.8401 41.4624 36.0039 42.2986 36.0039 43.33C36.0039 44.3615 36.8401 45.1976 37.8715 45.1976Z" fill="#68B181"/>
<path d="M53.1041 37.828C55.0619 37.828 56.6492 36.2408 56.6492 34.283C56.6492 32.3251 55.0619 30.7379 53.1041 30.7379C54.1564 29.0869 53.6712 26.8953 52.0202 25.843C50.3693 24.7907 48.3836 25.4268 47.1254 26.9268C45.8671 28.4269 43.8063 30.4847 40.5902 31.2587C37.3742 32.0326 37.3742 36.5332 40.5902 37.3071C43.8063 38.081 45.8675 40.1394 47.1257 41.6394C48.384 43.1395 50.3698 43.7754 52.0207 42.7228C53.6716 41.6705 54.1566 39.4789 53.1041 37.828Z" fill="#98CA91"/>
<path d="M29.4984 52.6282C29.4984 54.5861 27.9112 56.1733 25.9534 56.1733C23.9955 56.1733 22.4083 54.5861 22.4083 52.6282C20.7573 53.6806 18.5657 53.1954 17.5134 51.5444C16.4611 49.8934 17.0972 47.9078 18.5972 46.6495C20.0973 45.3913 22.1551 43.3304 22.9291 40.1144C23.703 36.8984 28.2036 36.8984 28.9775 40.1144C29.7514 43.3304 31.8098 45.3916 33.3099 46.6499C34.8099 47.9082 35.4458 49.8939 34.3933 51.5449C33.3409 53.1957 31.1493 53.6808 29.4984 52.6282Z" fill="#C2E4A1"/>
<path d="M24.1625 48.015C25.194 48.015 26.0301 47.1788 26.0301 46.1474C26.0301 45.1159 25.194 44.2798 24.1625 44.2798C23.1311 44.2798 22.2949 45.1159 22.2949 46.1474C22.2949 47.1788 23.1311 48.015 24.1625 48.015Z" fill="#98CA91"/>
<path d="M28.7913 31.4172C28.8123 25.7774 23.6982 21.1826 17.3687 21.159C14.6275 21.1488 12.1082 21.9982 10.1308 23.4221C8.09321 25.3232 7.74522 27.4708 7.73787 29.4643C7.71695 35.1041 11.9863 39.2739 12.8276 42.4639C13.6688 45.6538 15.6362 48.4248 19.128 48.4379C20.1574 48.4418 21.6777 47.5808 22.4553 47.1633C22.9556 46.3241 23.3351 45.3722 23.6052 44.3786C24.4702 41.1951 28.7703 37.057 28.7913 31.4172Z" fill="#C38778"/>
<path d="M39.953 26.0397C39.953 24.0818 38.3658 22.4946 36.4079 22.4946C34.4501 22.4946 32.8629 24.0818 32.8629 26.0397C31.2119 24.9874 29.0203 25.4726 27.968 27.1236C26.9157 28.7745 27.5518 30.7602 29.0518 32.0184C30.5519 33.2767 32.6097 35.3375 33.3837 38.5535C34.1576 41.7696 38.6582 41.7696 39.4321 38.5535C40.206 35.3375 42.2644 33.2763 43.7644 32.018C45.2645 30.7598 45.9004 28.774 44.8478 27.1231C43.7955 25.4722 41.6039 24.9871 39.953 26.0397Z" fill="#C2E4A1"/>
<path d="M38.9863 35.9535C40.0177 35.9535 40.8539 35.1173 40.8539 34.0859C40.8539 33.0544 40.0177 32.2183 38.9863 32.2183C37.9548 32.2183 37.1187 33.0544 37.1187 34.0859C37.1187 35.1173 37.9548 35.9535 38.9863 35.9535Z" fill="#98CA91"/>
<path d="M13.4501 41.8412C12.6089 38.6512 8.33942 34.4813 8.36034 28.8415C8.36781 26.8481 9.01636 24.9903 10.1307 23.4219C7.5422 25.2857 5.88202 28.1345 5.87019 31.3317C5.84928 36.9715 10.1186 41.1413 10.9599 44.3313C11.8011 47.5212 13.7685 50.2922 17.2603 50.3053C19.6623 50.3143 21.3526 49.0127 22.4553 47.1631C21.6775 47.5806 20.7799 47.819 19.7505 47.8152C16.2587 47.8022 14.2912 45.0312 13.4501 41.8412Z" fill="#B1705B"/>
<path d="M20.5776 42.2366H14.723C14.4754 42.2366 14.2378 42.1382 14.0627 41.9631C13.8876 41.788 13.7892 41.5505 13.7892 41.3028C13.7892 41.0552 13.8876 40.8176 14.0627 40.6425C14.2378 40.4674 14.4754 40.369 14.723 40.369H20.5776C20.8253 40.369 21.0628 40.4674 21.2379 40.6425C21.413 40.8176 21.5114 41.0552 21.5114 41.3028C21.5114 41.5505 21.413 41.788 21.2379 41.9631C21.0628 42.1382 20.8253 42.2366 20.5776 42.2366ZM23.7281 35.4629H10.9538C10.7062 35.4629 10.4686 35.3646 10.2935 35.1894C10.1184 35.0143 10.02 34.7768 10.02 34.5291C10.02 34.2815 10.1184 34.044 10.2935 33.8688C10.4686 33.6937 10.7062 33.5953 10.9538 33.5953H23.7281C23.9758 33.5953 24.2133 33.6937 24.3884 33.8688C24.5635 34.044 24.6619 34.2815 24.6619 34.5291C24.6619 34.7768 24.5635 35.0143 24.3884 35.1894C24.2133 35.3646 23.9758 35.4629 23.7281 35.4629ZM22.6886 29.0075H11.8567C11.6091 29.0075 11.3716 28.9091 11.1964 28.734C11.0213 28.5589 10.9229 28.3214 10.9229 28.0737C10.9229 27.826 11.0213 27.5885 11.1964 27.4134C11.3716 27.2383 11.6091 27.1399 11.8567 27.1399H22.6887C22.8114 27.1399 22.9328 27.1641 23.0461 27.211C23.1594 27.2579 23.2623 27.3267 23.349 27.4134C23.4357 27.5002 23.5045 27.6031 23.5514 27.7164C23.5983 27.8297 23.6225 27.9511 23.6225 28.0738C23.6225 28.1964 23.5983 28.3178 23.5514 28.4311C23.5044 28.5444 23.4356 28.6473 23.3489 28.734C23.2622 28.8207 23.1593 28.8895 23.046 28.9364C22.9327 28.9834 22.8112 29.0075 22.6886 29.0075Z" fill="#B1705B"/>
<path d="M29.2407 22.2066C30.2721 22.2066 31.1083 21.3705 31.1083 20.339C31.1083 19.3076 30.2721 18.4714 29.2407 18.4714C28.2092 18.4714 27.373 19.3076 27.373 20.339C27.373 21.3705 28.2092 22.2066 29.2407 22.2066Z" fill="#FFC250"/>
<path d="M45.6166 23.0875C46.6481 23.0875 47.4842 22.2514 47.4842 21.2199C47.4842 20.1885 46.6481 19.3523 45.6166 19.3523C44.5852 19.3523 43.749 20.1885 43.749 21.2199C43.749 22.2514 44.5852 23.0875 45.6166 23.0875Z" fill="#FFC250"/>
<path d="M40.2314 34.7086C41.2628 34.7086 42.099 33.8724 42.099 32.841C42.099 31.8095 41.2628 30.9734 40.2314 30.9734C39.1999 30.9734 38.3638 31.8095 38.3638 32.841C38.3638 33.8724 39.1999 34.7086 40.2314 34.7086Z" fill="#FFC250"/>
<path d="M25.4086 46.7699C26.4401 46.7699 27.2762 45.9337 27.2762 44.9023C27.2762 43.8708 26.4401 43.0347 25.4086 43.0347C24.3772 43.0347 23.541 43.8708 23.541 44.9023C23.541 45.9337 24.3772 46.7699 25.4086 46.7699Z" fill="#FFC250"/>
<path d="M39.1171 43.953C40.1486 43.953 40.9847 43.1168 40.9847 42.0854C40.9847 41.0539 40.1486 40.2178 39.1171 40.2178C38.0857 40.2178 37.2495 41.0539 37.2495 42.0854C37.2495 43.1168 38.0857 43.953 39.1171 43.953Z" fill="#FFC250"/>
</svg>
