<svg width="102" height="102" viewBox="0 0 102 102" fill="none" xmlns="http://www.w3.org/2000/svg">
<circle cx="51" cy="51" r="51" fill="#A6EEB5"/>
<path d="M79.209 52.3433C76.7463 49.8806 72.2687 49.8806 69.806 52.3433L54.5821 67.3433C53.9104 68.0149 53.2388 68.9104 53.0149 70.0299L50.1045 78.5373C49.8806 79.4328 50.1045 80.3284 50.5522 80.7761C51 81.2239 51.4478 81.4478 52.1194 81.4478C52.3433 81.4478 52.5672 81.4478 52.791 81.2239L61.2985 78.3134C62.194 78.0896 63.0896 77.4179 63.9851 76.7463L78.9851 61.7463C80.3284 60.403 81 58.8358 81 57.0448C81 55.2537 80.5522 53.4627 79.209 52.3433ZM76.0746 58.6119L61.0746 73.6119C60.8507 73.8358 60.6269 74.0597 60.1791 74.0597L55.9254 75.403L57.2687 71.1493C57.2687 70.9254 57.4925 70.4776 57.7164 70.2537L72.7164 55.2537C73.6119 54.3582 74.9552 54.3582 75.8507 55.2537C76.2985 55.7015 76.5224 56.1493 76.5224 56.8209C76.5224 57.4925 76.5224 58.1642 76.0746 58.6119ZM45.6269 70.2537H32.194C28.3881 70.2537 25.4776 67.3433 25.4776 63.5373V32.194C25.4776 28.3881 28.3881 25.4776 32.194 25.4776H56.8209C60.6269 25.4776 63.5373 28.3881 63.5373 32.194V47.8657C63.5373 49.209 64.4328 50.1045 65.7761 50.1045C67.1194 50.1045 68.0149 49.209 68.0149 47.8657V32.194C68.0149 25.9254 63.0896 21 56.8209 21H32.194C25.9254 21 21 25.9254 21 32.194V63.5373C21 69.806 25.9254 74.7313 32.194 74.7313H45.6269C46.9701 74.7313 47.8657 73.8358 47.8657 72.4925C47.8657 71.1493 46.9701 70.2537 45.6269 70.2537Z" fill="#55B76B"/>
<path d="M61.3883 38H41.2391C39.8958 38 39.0002 38.8955 39.0002 40.2388C39.0002 41.5821 39.8958 42.4776 41.2391 42.4776H61.3883C62.7316 42.4776 63.6271 41.5821 63.6271 40.2388C63.6271 38.8955 62.7316 38 61.3883 38ZM61.3883 49.194H41.2391C39.8958 49.194 39.0002 50.0896 39.0002 51.4328C39.0002 52.7761 39.8958 53.6716 41.2391 53.6716H61.3883C62.7316 53.6716 63.6271 52.7761 63.6271 51.4328C63.6271 50.0896 62.7316 49.194 61.3883 49.194ZM54.6719 60.3881H41.2391C39.8958 60.3881 39.0002 61.2836 39.0002 62.6269C39.0002 63.9701 39.8958 64.8657 41.2391 64.8657H54.6719C56.0152 64.8657 56.9107 63.9701 56.9107 62.6269C56.9107 61.2836 56.0152 60.3881 54.6719 60.3881Z" fill="#55B76B"/>
</svg>
