<svg width="62" height="62" viewBox="0 0 62 62" fill="none" xmlns="http://www.w3.org/2000/svg">
<path d="M37.4768 48.5312H44.3439L56.7189 44.1113V43.9937C56.7189 43.0091 56.3278 42.0648 55.6316 41.3686C54.9353 40.6724 53.9911 40.2812 53.0064 40.2812C52.7352 40.2813 52.4648 40.311 52.2 40.3699L37.4531 44.7744C37.9076 45.3 38.1573 45.9719 38.1564 46.6668C38.1573 47.349 37.9165 48.0096 37.4768 48.5312Z" fill="#F2B9A1"/>
<path d="M14.4375 43.375L19.5453 41.9158C20.9458 41.5156 22.3952 41.3125 23.8518 41.3125C25.1332 41.3122 26.4099 41.4694 27.653 41.7807L35.9628 43.8576C36.5892 44.0144 37.1453 44.376 37.5427 44.8849C37.9401 45.3939 38.156 46.021 38.1562 46.6668C38.1571 47.349 37.9163 48.0096 37.4767 48.5313H44.3438L57.1715 43.9494C57.671 43.7711 58.2052 43.7119 58.7316 43.7768C59.2581 43.8416 59.762 44.0285 60.2033 44.3227L60.3591 44.4258C60.8253 44.7366 61.2077 45.1576 61.4721 45.6516C61.7366 46.1457 61.875 46.6973 61.875 47.2577C61.875 47.9378 61.6713 48.6023 61.2901 49.1655C60.9088 49.7287 60.3676 50.1647 59.7362 50.4174L32.5504 61.2919C31.4849 61.7186 30.3476 61.9378 29.1998 61.9375C28.3007 61.9378 27.4067 61.8032 26.5475 61.5384L14.4375 57.8125V43.375Z" fill="#FBE1CA"/>
<path d="M0 43.375H8.25V61.9375H0V43.375Z" fill="#4C6CB5"/>
<path d="M5.15625 56.7812V43.375H0V58.8438H3.09375C3.64076 58.8438 4.16536 58.6265 4.55216 58.2397C4.93895 57.8529 5.15625 57.3283 5.15625 56.7812Z" fill="#5E87CA"/>
<path d="M8.25 43.375H14.4375V59.875H8.25V43.375Z" fill="#78A0D4"/>
<path d="M12.375 54.7188V43.375H8.25V56.7812H10.3125C10.8595 56.7812 11.3841 56.564 11.7709 56.1772C12.1577 55.7904 12.375 55.2658 12.375 54.7188Z" fill="#89B2E0"/>
<path d="M24.75 48.5312H37.124V50.5938H24.75V48.5312Z" fill="#F2B9A1"/>
<path d="M42.2812 39.25L55.737 29.3366C57.6402 27.9343 59.1872 26.1044 60.2534 23.9944C61.3196 21.8845 61.875 19.5535 61.875 17.1895C61.8751 15.753 61.5923 14.3304 61.0427 13.0032C60.493 11.676 59.6873 10.47 58.6716 9.45417C57.6558 8.43833 56.4499 7.63251 55.1227 7.08274C53.7956 6.53297 52.3731 6.25 50.9365 6.25C48.0356 6.25038 45.2535 7.40289 43.2022 9.45409L42.2812 10.375L41.3603 9.45409C39.309 7.40289 36.5269 6.25038 33.626 6.25C32.1894 6.25 30.7669 6.53297 29.4398 7.08274C28.1126 7.63251 26.9067 8.43833 25.8909 9.45417C24.8752 10.47 24.0695 11.676 23.5198 13.0032C22.9702 14.3304 22.6874 15.753 22.6875 17.1895C22.6875 19.5535 23.2429 21.8845 24.3091 23.9944C25.3753 26.1044 26.9223 27.9343 28.8255 29.3366L42.2812 39.25Z" fill="#E1656E"/>
<path d="M16.5 12.4375L21.7893 7.9C22.3938 7.38165 22.8792 6.73879 23.2122 6.01544C23.5452 5.29209 23.718 4.50533 23.7188 3.709C23.7188 2.74189 23.3346 1.81439 22.6507 1.13054C21.9669 0.446684 21.0394 0.0625 20.0723 0.0625C19.5934 0.0625332 19.1193 0.156902 18.6769 0.340217C18.2345 0.523531 17.8326 0.7922 17.4941 1.13087L16.5 2.125L15.5059 1.13087C15.1674 0.7922 14.7655 0.523531 14.3231 0.340217C13.8807 0.156902 13.4066 0.0625332 12.9278 0.0625C11.9606 0.0625 11.0331 0.446684 10.3493 1.13054C9.66543 1.81439 9.28125 2.74189 9.28125 3.709C9.28199 4.50533 9.45478 5.29209 9.7878 6.01544C10.1208 6.73879 10.6062 7.38165 11.2107 7.9L16.5 12.4375Z" fill="#F29B99"/>
<path d="M11.3438 21.7042L13.7373 20.508C14.257 20.2476 14.6942 19.8479 14.9999 19.3535C15.3057 18.8591 15.468 18.2895 15.4688 17.7081C15.469 17.4207 15.4126 17.1361 15.3028 16.8705C15.193 16.6049 15.032 16.3635 14.8288 16.1602C14.6257 15.9568 14.3845 15.7955 14.119 15.6855C13.8535 15.5754 13.5689 15.5188 13.2815 15.5188C12.9942 15.5187 12.7097 15.5752 12.4443 15.6851C12.1789 15.7949 11.9377 15.9561 11.7346 16.1592L11.3438 16.55L10.9529 16.1592C10.7498 15.9561 10.5086 15.7949 10.2432 15.6851C9.97778 15.5752 9.6933 15.5187 9.40603 15.5188C8.82601 15.5191 8.26983 15.7496 7.85969 16.1597C7.44956 16.5699 7.21902 17.1261 7.21875 17.7061C7.21863 18.288 7.38067 18.8584 7.6867 19.3533C7.99272 19.8482 8.43062 20.2481 8.95125 20.508L11.3438 21.7042Z" fill="#E1656E"/>
</svg>
