<svg width="24" height="25" viewBox="0 0 24 25" fill="none" xmlns="http://www.w3.org/2000/svg">
<path d="M13.2338 0.257108C14.1095 0.253711 14.9851 0.262609 15.8606 0.283801L16.0933 0.292294C16.3621 0.302 16.6273 0.314133 16.9477 0.328692C18.2245 0.389357 19.0956 0.59319 19.86 0.892873C20.652 1.20105 21.3192 1.61842 21.9863 2.29301C22.5964 2.89918 23.0685 3.63242 23.3699 4.44175C23.6663 5.21462 23.8679 6.09668 23.9279 7.38762C23.9423 7.71036 23.9543 7.97971 23.9639 8.25149L23.9711 8.48687C23.9924 9.37159 24.0016 10.2566 23.9987 11.1416L23.9999 12.0467V13.6361C24.0028 14.5215 23.9936 15.4068 23.9723 16.292L23.9651 16.5274C23.9555 16.7991 23.9435 17.0673 23.9291 17.3912C23.8691 18.6822 23.6651 19.563 23.3699 20.3359C23.0695 21.1461 22.5972 21.8799 21.9863 22.4858C21.3863 23.1026 20.6608 23.5799 19.86 23.8848C19.0956 24.1844 18.2245 24.3883 16.9477 24.4489C16.6273 24.4635 16.3621 24.4756 16.0933 24.4853L15.8606 24.4926C14.9852 24.5142 14.1095 24.5235 13.2338 24.5205L12.3387 24.5217H10.7679C9.89227 24.5247 9.01662 24.5154 8.14122 24.4938L7.90842 24.4866C7.62357 24.4761 7.33877 24.464 7.05405 24.4502C5.7773 24.3895 4.90613 24.1832 4.14055 23.8848C3.3398 23.5806 2.61449 23.1032 2.01542 22.4858C1.4047 21.8795 0.93213 21.1458 0.630671 20.3359C0.334281 19.563 0.132688 18.6822 0.0726899 17.3912C0.0593258 17.1033 0.0473261 16.8154 0.0366911 16.5274L0.0306915 16.292C0.00856853 15.4069 -0.00143221 14.5215 0.000692377 13.6361V11.1416C-0.00265667 10.2566 0.00614397 9.3716 0.0270916 8.48687L0.0354912 8.25149C0.0450909 7.97971 0.0570905 7.71036 0.07149 7.38762C0.131488 6.09547 0.333081 5.21583 0.629471 4.44175C0.931108 3.63203 1.4046 2.89898 2.01662 2.29423C2.61528 1.67636 3.34013 1.1981 4.14055 0.892873C4.90613 0.59319 5.7761 0.389357 7.05405 0.328692L7.90842 0.292294L8.14122 0.286227C9.01621 0.26387 9.89146 0.253758 10.7667 0.255895L13.2338 0.257108ZM12.0003 6.32357C11.2053 6.3122 10.416 6.4607 9.67834 6.76044C8.94062 7.06017 8.26919 7.50517 7.70304 8.06956C7.1369 8.63396 6.68735 9.30649 6.3805 10.0481C6.07365 10.7897 5.91564 11.5855 5.91564 12.3894C5.91564 13.1933 6.07365 13.9892 6.3805 14.7308C6.68735 15.4724 7.1369 16.1449 7.70304 16.7093C8.26919 17.2737 8.94062 17.7187 9.67834 18.0184C10.416 18.3181 11.2053 18.4666 12.0003 18.4553C13.5915 18.4553 15.1176 17.8161 16.2428 16.6784C17.368 15.5408 18.0001 13.9977 18.0001 12.3888C18.0001 10.7799 17.368 9.23686 16.2428 8.09918C15.1176 6.9615 13.5915 6.32357 12.0003 6.32357ZM12.0003 8.75015C12.4785 8.74124 12.9536 8.82877 13.398 9.00762C13.8424 9.18647 14.247 9.45306 14.5883 9.79182C14.9296 10.1306 15.2008 10.5347 15.3859 10.9806C15.571 11.4265 15.6664 11.9052 15.6665 12.3888C15.6666 12.8724 15.5713 13.3511 15.3864 13.7971C15.2014 14.2431 14.9304 14.6473 14.5892 14.9862C14.248 15.325 13.8434 15.5917 13.3991 15.7708C12.9548 15.9498 12.4797 16.0374 12.0015 16.0287C11.0467 16.0287 10.1311 15.6452 9.45599 14.9626C8.78088 14.28 8.40161 13.3542 8.40161 12.3888C8.40161 11.4235 8.78088 10.4976 9.45599 9.81503C10.1311 9.13242 11.0467 8.74894 12.0015 8.74894L12.0003 8.75015ZM18.3001 4.50363C17.913 4.5193 17.5468 4.68581 17.2784 4.96829C17.01 5.25077 16.8601 5.6273 16.8601 6.01903C16.8601 6.41076 17.01 6.7873 17.2784 7.06978C17.5468 7.35226 17.913 7.51877 18.3001 7.53443C18.6979 7.53443 19.0794 7.37465 19.3607 7.09023C19.642 6.80581 19.8 6.42005 19.8 6.01782C19.8 5.61559 19.642 5.22983 19.3607 4.94541C19.0794 4.66099 18.6979 4.5012 18.3001 4.5012V4.50363Z" fill="white"/>
</svg>
