<svg width="336" height="183" viewBox="0 0 336 183" fill="none" xmlns="http://www.w3.org/2000/svg">
<path d="M44.2939 142.63C36.0961 131.299 31.3832 117.274 32.1708 103.311C32.9583 89.3477 39.4954 75.593 50.5072 66.9716C66.8292 54.1931 89.8967 53.9999 107.722 43.4179C123.72 33.9202 127.139 20.4893 142.494 9.98415C188.467 -21.4682 219.984 29.3859 240.053 52.4456C249.921 63.7838 270.873 67.5581 285.629 70.4211C330.237 79.076 332.632 125.776 306.66 150.573C303.286 153.795 307.618 160.02 306.315 164.5C303.639 173.697 292.855 177.603 283.387 179.046C269.742 181.125 255.863 180.91 242.065 180.562C211.343 179.788 180.64 178.38 149.955 176.691C134.747 175.854 119.543 174.945 104.34 174.011C93.9891 173.375 81.4378 174.509 72.1233 169.127C61.6876 163.098 51.2728 152.276 44.2939 142.63Z" fill="#55B76B"/>
<path d="M277.154 57.9073C278.573 57.7031 280.016 57.2968 281.109 56.3692C283.041 54.7309 283.421 51.7823 282.643 49.371C279.531 39.7302 261.423 26.3051 252.78 37.4443C244.395 48.2513 268.85 59.1001 277.154 57.9073Z" fill="#A6EEB5"/>
<path d="M105.118 23.5079C101.156 27.4389 96.8015 31.4081 91.3591 32.6474C86.8259 33.6793 82.0118 32.6562 77.8238 30.6383C75.9045 29.7133 73.9852 28.4772 73.0749 26.5511C71.4215 23.0514 73.768 18.9298 76.643 16.3384C80.3693 12.9787 85.02 10.8442 89.6607 8.93748C93.7067 7.27462 97.8696 5.73031 102.226 5.32974C105.972 4.98505 114.19 5.39972 114.886 10.3439C115.474 14.5167 107.725 20.9217 105.118 23.5079Z" fill="#A6EEB5"/>
<path d="M139.543 40.1501C134.733 45.9414 132.508 53.2791 126.74 58.3722C121.776 62.7555 114.826 64.9103 108.129 66.9288C98.0211 69.9756 87.9134 73.023 77.8051 76.0698C72.4766 77.6763 67.0336 79.336 62.6279 82.3886C58.2226 85.4412 54.9779 90.2078 55.6751 95.0559C56.2161 98.8177 58.9757 102.038 61.8403 104.905C76.0859 119.159 95.0338 129.278 114.468 137.774C126.842 143.184 139.672 148.067 153.26 150.44C170.096 153.378 187.493 152.366 204.58 150.865C222.033 149.331 239.569 147.273 256.15 142.312C264.45 139.828 272.704 136.479 278.594 130.838C284.483 125.197 287.549 116.835 284.322 109.763C282.362 105.468 278.379 102.111 274.18 99.2637C264.457 92.6734 252.95 88.03 244.29 80.4087C232.862 70.3511 227.498 56.0789 216.281 45.8453C198.971 30.0534 157.117 18.9894 139.543 40.1501Z" fill="#A6EEB5"/>
<mask id="mask0_27_57516" style="mask-type:luminance" maskUnits="userSpaceOnUse" x="0" y="77" width="336" height="106">
<path d="M335.827 77.5671H0V182.559H335.827V77.5671Z" fill="white"/>
</mask>
<g mask="url(#mask0_27_57516)">
<path d="M234.962 177.126C234.962 177.126 243.068 169.765 242.1 160.563C241.081 150.89 234.011 150.086 232.139 150.283L234.962 177.126Z" fill="#6EAA50"/>
<path d="M234.962 177.126C234.962 177.126 225.502 171.612 224.535 162.411C223.518 152.737 230.267 150.481 232.139 150.284L234.962 177.126Z" fill="#5A915A"/>
<path d="M232.664 155.276C233.189 157.547 233.58 159.832 233.935 162.121L234.194 163.839L234.423 165.56C234.58 166.706 234.718 167.855 234.845 169.005C235.102 171.305 235.315 173.608 235.446 175.921C235.576 178.233 235.659 180.551 235.569 182.887C234.994 180.621 234.593 178.337 234.238 176.048C233.885 173.759 233.615 171.461 233.388 169.159C233.273 168.008 233.168 166.856 233.084 165.701L232.95 163.97L232.846 162.236C232.716 159.924 232.624 157.607 232.664 155.276Z" fill="#AAC85A"/>
<path d="M233.412 162.385L229.835 159.489C229.755 159.424 229.743 159.306 229.808 159.226C229.873 159.145 229.991 159.134 230.07 159.198L233.357 161.859L236.018 158.573C236.082 158.492 236.201 158.481 236.28 158.545C236.36 158.61 236.373 158.728 236.308 158.808L233.412 162.385Z" fill="#AAC85A"/>
<path d="M233.905 167.072L228.579 162.76C228.499 162.695 228.486 162.577 228.551 162.497C228.616 162.416 228.735 162.406 228.814 162.47L233.85 166.547L237.927 161.511C237.992 161.43 238.11 161.419 238.189 161.483C238.269 161.548 238.282 161.665 238.217 161.746L233.905 167.072Z" fill="#AAC85A"/>
<path d="M234.398 171.76L230.821 168.864C230.741 168.799 230.729 168.681 230.794 168.601C230.859 168.521 230.977 168.51 231.056 168.574L234.343 171.235L237.004 167.948C237.069 167.867 237.187 167.856 237.266 167.92C237.346 167.985 237.359 168.103 237.294 168.183L234.398 171.76Z" fill="#AAC85A"/>
<path d="M278.026 183.86C278.026 183.86 315.982 177.716 312.539 153.74C310.262 137.888 295.73 145.069 295.73 145.069C295.73 145.069 314.06 127.917 304.745 121.789C298.334 117.571 291.754 125.249 291.754 125.249C291.754 125.249 301.722 96.423 289.435 94.8479L278.026 183.86Z" fill="#A6EEB5"/>
<path d="M278.027 183.86C278.027 183.86 242.847 168.342 252.226 146.01C258.426 131.245 270.677 141.858 270.677 141.858C270.677 141.858 257.266 120.638 267.824 117.057C275.092 114.592 279.523 123.681 279.523 123.681C279.523 123.681 277.148 93.2728 289.435 94.848L278.027 183.86Z" fill="#6AE284"/>
<path d="M287.185 108.536L276.094 195.084L277.044 195.206L288.134 108.657L287.185 108.536Z" fill="#4EA962"/>
<path d="M283.603 140.352L269.818 122.515L270.575 121.929L283.775 139.01L300.855 125.811L301.44 126.568L283.603 140.352Z" fill="#4EA962"/>
<path d="M280.056 168.03L266.271 150.193L267.028 149.608L280.227 166.688L297.308 153.489L297.893 154.246L280.056 168.03Z" fill="#4EA962"/>
<path d="M254.079 191.432C254.079 191.432 267.713 180.412 267.012 165.617C266.275 150.062 255.048 148.128 252.038 148.271L254.079 191.432Z" fill="#C8D264"/>
<path d="M254.079 191.432C254.079 191.432 239.466 181.749 238.767 166.953C238.033 151.398 249.026 148.413 252.037 148.27L254.079 191.432Z" fill="#AAC85A"/>
<path d="M254.193 195.037C253.472 186.783 252.055 170.205 252.058 167.44C252.067 163.731 252.142 160.02 252.417 156.299C253.042 159.977 253.466 163.665 253.825 167.356C254.18 171.048 254.439 174.744 254.639 178.442C254.838 182.141 254.964 185.843 254.965 189.551C254.964 190.585 254.882 192.852 254.794 195.037H254.193V195.037Z" fill="#5A915A"/>
<path d="M252.963 167.837L257.973 162.33C258.112 162.176 258.101 161.939 257.948 161.799C257.794 161.659 257.556 161.67 257.417 161.824L252.913 166.775L247.962 162.271C247.809 162.131 247.57 162.142 247.431 162.296C247.292 162.45 247.303 162.688 247.456 162.827L252.963 167.837Z" fill="#5A915A"/>
<path d="M253.319 175.375L260.754 167.203C260.894 167.049 260.882 166.811 260.729 166.672C260.575 166.532 260.337 166.543 260.198 166.697L253.269 174.313L245.653 167.385C245.5 167.245 245.262 167.255 245.122 167.41C244.982 167.563 244.994 167.801 245.147 167.941L253.319 175.375Z" fill="#5A915A"/>
<path d="M253.676 182.913L258.686 177.406C258.825 177.252 258.814 177.014 258.661 176.875C258.506 176.735 258.269 176.745 258.129 176.9L253.626 181.851L248.675 177.347C248.521 177.207 248.283 177.218 248.144 177.372C248.004 177.526 248.015 177.764 248.169 177.903L253.676 182.913Z" fill="#5A915A"/>
<path d="M292.08 190.302C297.28 184.33 310.443 184.492 310.858 182.15C311.272 179.808 303.505 178.975 303.505 178.975C303.505 178.975 317.124 175.827 318.218 172.431C319.908 167.187 306.6 171.549 306.6 171.549C306.6 171.549 326.122 162.75 324.185 156.099C323.056 152.224 310.856 159.588 310.856 159.588C310.856 159.588 322.654 148.088 317.482 142.13L292.08 190.302Z" fill="#A6EEB5"/>
<path d="M292.08 190.303C294.07 182.637 286.502 171.867 288.2 170.203C289.898 168.538 294.973 174.477 294.973 174.477C294.973 174.477 289.878 161.46 292.062 158.639C295.435 154.282 299.353 167.728 299.353 167.728C299.353 167.728 295.587 146.648 302.169 144.489C306.004 143.232 306.819 157.459 306.819 157.459C306.819 157.459 309.645 141.228 317.483 142.13L292.08 190.303Z" fill="#6AE284"/>
<path d="M312.008 151.767L289.154 195.146L289.724 195.447L312.578 152.067L312.008 151.767Z" fill="#479C5A"/>
<path d="M299.891 96.6843C299.891 98.0479 300.996 99.153 302.36 99.153C303.723 99.153 304.829 98.0479 304.829 96.6843C304.829 95.3207 303.723 94.2156 302.36 94.2156C300.996 94.2156 299.891 95.3207 299.891 96.6843Z" fill="#82BE50"/>
<path d="M295.35 93.8792C296.111 93.8792 296.729 93.2616 296.729 92.4999C296.729 91.7381 296.111 91.1206 295.35 91.1206C294.588 91.1206 293.97 91.7381 293.97 92.4999C293.97 93.2616 294.588 93.8792 295.35 93.8792Z" fill="#82BE50"/>
<path d="M311.161 126.718C311.161 127.238 311.583 127.66 312.104 127.66C312.624 127.66 313.046 127.238 313.046 126.718C313.046 126.198 312.624 125.776 312.104 125.776C311.583 125.776 311.161 126.198 311.161 126.718Z" fill="#82BE50"/>
<path d="M29.6135 123.766C29.6135 123.766 18.1829 122.03 13.6565 113.373C8.89774 104.272 14.6462 99.4332 16.4073 98.512L29.6135 123.766Z" fill="#A6EEB5"/>
<path d="M29.6135 123.766C29.6135 123.766 34.7097 113.387 30.1817 104.731C25.4214 95.6302 18.1683 97.5908 16.4072 98.512L29.6135 123.766Z" fill="#6AE284"/>
<path d="M18.8635 103.209C20.2611 105.235 21.5343 107.326 22.7726 109.435L23.6944 111.021L24.5885 112.621C25.1886 113.686 25.7704 114.759 26.3422 115.839C27.4881 117.996 28.5931 120.175 29.6209 122.395C30.6477 124.614 31.6301 126.858 32.449 129.186C31.0039 127.186 29.7217 125.099 28.4845 122.989C27.2483 120.879 26.0889 118.728 24.9708 116.557C24.4104 115.471 23.8599 114.38 23.3283 113.28L22.524 111.633L21.7474 109.971C20.7212 107.751 19.7299 105.512 18.8635 103.209Z" fill="#76C587"/>
<path d="M22.3611 109.897L17.7239 108.444C17.62 108.412 17.562 108.301 17.5944 108.197C17.6268 108.094 17.7375 108.035 17.842 108.068L22.1025 109.403L23.4374 105.142C23.4698 105.038 23.5805 104.98 23.685 105.013C23.7889 105.045 23.8469 105.156 23.814 105.26L22.3611 109.897Z" fill="#76C587"/>
<path d="M24.6673 114.307L17.762 112.145C17.6581 112.112 17.6001 112.001 17.633 111.898C17.6654 111.794 17.7756 111.736 17.88 111.769L24.4087 113.813L26.4539 107.284C26.4863 107.181 26.597 107.123 26.7009 107.155C26.8049 107.188 26.8628 107.299 26.8304 107.402L24.6673 114.307Z" fill="#76C587"/>
<path d="M26.9736 118.717L22.3365 117.265C22.2325 117.233 22.1746 117.122 22.2075 117.018C22.2398 116.915 22.35 116.857 22.4545 116.889L26.7151 118.224L28.0499 113.963C28.0823 113.859 28.1925 113.801 28.297 113.834C28.4009 113.866 28.4589 113.977 28.426 114.081L26.9736 118.717Z" fill="#76C587"/>
<path d="M55.3064 184.915C55.3064 184.915 15.2301 178.428 18.8655 153.112C21.2694 136.375 36.6128 143.957 36.6128 143.957C36.6128 143.957 17.2585 125.846 27.0936 119.376C33.8631 114.922 40.8107 123.029 40.8107 123.029C40.8107 123.029 30.2857 92.5918 43.2601 90.929L55.3064 184.915Z" fill="#A6EEB5"/>
<path d="M55.3063 184.915C55.3063 184.915 92.4512 168.53 82.5488 144.95C76.0018 129.36 63.066 140.567 63.066 140.567C63.066 140.567 77.227 118.161 66.0784 114.379C58.4044 111.776 53.726 121.374 53.726 121.374C53.726 121.374 56.2349 89.266 43.2605 90.9289L55.3063 184.915Z" fill="#6AE284"/>
<path d="M45.621 105.4L44.6196 105.528L56.3296 196.914L57.3309 196.785L45.621 105.4Z" fill="#479C5A"/>
<path d="M49.4183 138.976L30.5842 124.421L31.2015 123.622L49.2366 137.559L63.174 119.524L63.9731 120.142L49.4183 138.976Z" fill="#479C5A"/>
<path d="M53.1639 168.201L34.3298 153.646L34.9471 152.847L52.9822 166.784L66.9196 148.749L67.7187 149.367L53.1639 168.201Z" fill="#479C5A"/>
<path d="M80.5917 192.911C80.5917 192.911 66.1962 181.275 66.9368 165.653C67.715 149.229 79.5691 147.187 82.7481 147.337L80.5917 192.911Z" fill="#C8D264"/>
<path d="M80.5918 192.911C80.5918 192.911 96.0213 182.686 96.7593 167.064C97.5348 150.64 85.9266 147.488 82.7477 147.337L80.5918 192.911Z" fill="#AAC85A"/>
<path d="M80.4713 196.718C81.2327 188.002 82.7295 170.498 82.7253 167.578C82.7159 163.662 82.6371 159.743 82.3467 155.814C81.6866 159.698 81.2385 163.592 80.8593 167.49C80.4843 171.387 80.2107 175.289 80.0002 179.195C79.7892 183.1 79.6571 187.009 79.6555 190.925C79.6571 192.016 79.7438 194.41 79.8357 196.718H80.4713Z" fill="#5A915A"/>
<path d="M81.7706 167.998L76.4812 162.182C76.3339 162.02 76.3454 161.769 76.5078 161.621C76.6702 161.474 76.9209 161.485 77.0687 161.648L81.8239 166.876L87.0516 162.12C87.2141 161.972 87.4653 161.984 87.6125 162.147C87.7598 162.309 87.7483 162.56 87.5859 162.708L81.7706 167.998Z" fill="#5A915A"/>
<path d="M81.394 175.957L73.544 167.327C73.3962 167.166 73.4087 166.914 73.5706 166.767C73.733 166.619 73.9842 166.631 74.1315 166.793L81.4473 174.835L89.4889 167.52C89.6514 167.372 89.9026 167.383 90.0498 167.546C90.1976 167.708 90.1856 167.96 90.0232 168.107L81.394 175.957Z" fill="#5A915A"/>
<path d="M81.0175 183.916L75.7276 178.101C75.5803 177.938 75.5923 177.687 75.7542 177.54C75.9166 177.392 76.1673 177.403 76.3151 177.566L81.0703 182.794L86.298 178.039C86.4605 177.891 86.7117 177.903 86.8589 178.066C87.0062 178.228 86.9947 178.479 86.8323 178.626L81.0175 183.916Z" fill="#5A915A"/>
<path d="M40.4681 191.719C34.9766 185.412 21.0778 185.583 20.6406 183.111C20.2035 180.638 28.4045 179.758 28.4045 179.758C28.4045 179.758 14.0242 176.434 12.869 172.849C11.0849 167.311 25.1362 171.917 25.1362 171.917C25.1362 171.917 4.52383 162.625 6.56898 155.603C7.76025 151.511 20.6427 159.287 20.6427 159.287C20.6427 159.287 8.18588 147.144 13.6461 140.853L40.4681 191.719Z" fill="#A6EEB5"/>
<path d="M40.468 191.719C38.3664 183.625 46.358 172.253 44.5646 170.495C42.7712 168.738 37.4128 175.008 37.4128 175.008C37.4128 175.008 42.7931 161.264 40.4868 158.285C36.9255 153.685 32.7888 167.882 32.7888 167.882C32.7888 167.882 36.7652 145.624 29.815 143.345C25.766 142.017 24.9053 157.039 24.9053 157.039C24.9053 157.039 21.9217 139.901 13.646 140.853L40.468 191.719Z" fill="#6AE284"/>
<path d="M19.3974 151.047L18.7954 151.365L42.9425 197.163L43.5444 196.846L19.3974 151.047Z" fill="#479C5A"/>
<path d="M32.22 92.8681C32.22 94.3074 31.0533 95.4746 29.6134 95.4746C28.1736 95.4746 27.0068 94.3074 27.0068 92.8681C27.0068 91.4287 28.1736 90.2615 29.6134 90.2615C31.0533 90.2615 32.22 91.4282 32.22 92.8681Z" fill="#82BE50"/>
<path d="M37.0149 89.9063C37.8194 89.9063 38.4715 89.2542 38.4715 88.4497C38.4715 87.6453 37.8194 86.9932 37.0149 86.9932C36.2105 86.9932 35.5583 87.6453 35.5583 88.4497C35.5583 89.2542 36.2105 89.9063 37.0149 89.9063Z" fill="#82BE50"/>
<path d="M19.325 125.575C19.8744 125.575 20.3199 125.13 20.3199 124.58C20.3199 124.031 19.8744 123.585 19.325 123.585C18.7755 123.585 18.3301 124.031 18.3301 124.58C18.3301 125.13 18.7755 125.575 19.325 125.575Z" fill="#82BE50"/>
</g>
<path d="M191.612 101.86C197.328 94.3446 208.443 73.7035 212.691 69.2576V95.9856L200.167 111.56C196.574 116.029 189.909 116.406 185.832 112.386C187.259 108.425 188.484 104.391 189.502 100.306L191.612 101.86Z" fill="#0FBDD4"/>
<path d="M208.095 101.702C207.07 88.8427 210.8 76.6318 212.691 74.2681V95.9855L208.095 101.702Z" fill="#0F9DC5"/>
<path d="M164.803 91.3809L169.489 85.5588L189.503 100.306C188.484 104.391 187.26 108.425 185.832 112.387C185.816 112.371 185.8 112.357 185.785 112.342L164.803 91.3809Z" fill="#EBA588"/>
<path d="M191.367 101.228C190.166 105.289 188.547 109.226 186.543 112.957C186.282 113.442 185.63 113.546 185.225 113.172L180.532 108.84C180.227 108.56 180.172 108.102 180.399 107.755C182.892 103.955 185.277 99.7673 186.249 98.0293C186.495 97.589 187.07 97.4611 187.479 97.7541L191.043 100.298C191.338 100.508 191.47 100.882 191.367 101.228Z" fill="#0FDFF7"/>
<path d="M191.613 101.86L195.106 111.81C195.952 106.729 195.209 104.51 191.613 101.86Z" fill="#0F9DC5"/>
<path d="M231.597 71.6197C229.894 73.0204 227.724 73.8425 225.521 73.9229C224.162 73.972 222.651 73.6612 221.848 72.5629C221.193 71.6657 221.173 70.4259 221.521 69.3709C221.87 68.3159 223.026 66.8354 223.686 65.9413V60.4367L235.171 56.4712V66.0823C234.667 68.2282 233.3 70.219 231.597 71.6197Z" fill="#F0BF9C"/>
<path d="M227.762 65.407C226.439 65.7893 225.05 65.7929 223.686 65.5605V60.4367L235.171 56.4712V57.2086C234.57 58.6532 233.894 60.0633 233.003 61.3449C231.717 63.1952 229.928 64.7813 227.762 65.407Z" fill="#E78882"/>
<path d="M212.691 69.2575C215.387 66.1527 223.686 65.9407 223.686 65.9407C223.026 66.8348 221.87 68.3154 221.521 69.3703C221.172 70.4253 221.192 71.6651 221.848 72.5624C222.65 73.6607 224.161 73.9719 225.521 73.9223C227.724 73.8424 229.894 73.0198 231.597 71.6192C233.3 70.2185 234.667 68.2276 235.171 66.0812C245.773 67.7748 249.725 70.5344 254.806 86.6204C259.887 102.706 261.581 138.745 261.581 138.745H207.245C215.006 115.621 208.682 74.3385 212.691 69.2575Z" fill="#0FBDD4"/>
<path d="M210.676 43.1287C209.599 46.0173 210.62 49.5524 213.07 51.4231C214.198 52.2849 215.786 52.7946 217.036 52.1219C218.103 51.548 218.606 50.2982 218.867 49.1153C219.495 46.2659 219.13 43.3083 218.02 40.625C217.696 39.8416 217.286 38.8963 216.372 38.69C215.32 38.4524 214.035 39.2551 213.226 39.8406C212.087 40.6652 211.168 41.8063 210.676 43.1287Z" fill="#422C4F"/>
<path d="M213.524 40.5711V49.405C213.524 52.0946 214.096 54.7529 215.2 57.2054C216.822 60.8043 220.402 63.1179 224.349 63.1179H226.669C229.365 63.1179 231.947 62.0332 233.834 60.1081L236.268 57.6253C239.601 54.2254 241.469 49.6541 241.469 44.8927V40.5711C241.469 32.8542 235.213 26.5986 227.496 26.5986C219.78 26.5986 213.524 32.8542 213.524 40.5711Z" fill="#F0BF9C"/>
<path d="M224.622 42.3307C226.749 43.2869 228.876 44.2426 231.004 45.1989C230.602 44.369 230.074 43.4577 229.49 42.7448C228.906 42.0319 228.119 41.4449 227.212 41.282C226.305 41.119 225.12 41.5551 224.622 42.3307Z" fill="#422C4F"/>
<path d="M225.45 46.5013C225.45 47.2209 225.869 47.8043 226.385 47.8043C226.902 47.8043 227.32 47.2209 227.32 46.5013C227.32 45.7816 226.901 45.1982 226.385 45.1982C225.869 45.1988 225.45 45.7821 225.45 46.5013Z" fill="#454F6B"/>
<path d="M217.811 42.3306C216.523 43.2868 215.235 44.2426 213.948 45.1988C214.191 44.3689 214.51 43.4576 214.864 42.7447C215.218 42.0319 215.694 41.4454 216.244 41.2819C216.792 41.1184 217.509 41.555 217.811 42.3306Z" fill="#422C4F"/>
<path d="M217.309 46.5013C217.309 47.2209 217.056 47.8043 216.743 47.8043C216.43 47.8043 216.177 47.2209 216.177 46.5013C216.177 45.7816 216.43 45.1982 216.743 45.1982C217.056 45.1988 217.309 45.7816 217.309 46.5013Z" fill="#454F6B"/>
<path d="M218.816 50.9749C220.356 51.036 221.897 51.0971 223.438 51.1576C222.822 51.7932 221.925 52.3896 221.041 52.4158C220.157 52.4413 219.122 51.8047 218.816 50.9749Z" fill="#EBA588"/>
<path d="M217.054 54.4595C220.536 54.7984 224.017 55.1374 227.499 55.4763C226.561 56.3103 225.511 57.3914 224.374 57.9241C223.238 58.4568 221.905 58.6788 220.717 58.2745C219.918 58.0025 219.229 57.4651 218.662 56.8389C218.095 56.2122 217.508 55.1724 217.054 54.4595Z" fill="white"/>
<path d="M238.063 54.6689C236.661 54.0051 235.775 52.5375 235.429 51.0256C235.082 49.5137 235.197 47.9386 235.314 46.3916C233.462 45.4881 231.823 44.1193 230.863 42.2966C229.902 40.474 229.538 38.3421 229.839 36.3037C228.47 37.6543 226.567 38.4648 224.649 38.6111C222.732 38.7573 220.768 38.2032 219.209 37.0762C218.441 39.547 215.066 41.1028 212.568 40.4296C210.07 39.7564 208.335 37.0406 208.689 34.4774C209.043 31.9142 211.376 29.7949 213.956 29.598C213.894 26.5041 215.366 23.191 217.883 21.3913C220.401 19.5916 223.624 18.9231 226.705 19.2093C229.787 19.4955 232.734 20.6831 235.374 22.2979C237.616 21.5605 240.532 22.5152 242.154 24.2297C243.776 25.9438 244.297 28.6172 243.436 30.8143C245.98 31.6316 248.187 34.1437 248.809 36.7419C249.431 39.3396 248.607 42.236 246.71 44.1167C249.698 45.1722 251.635 48.5005 251.442 51.6633C251.249 54.8261 248.783 57.7141 245.689 58.3993C242.596 59.0851 239.573 57.4546 238.063 54.6689Z" fill="#422C4F"/>
<path d="M238.475 48.2358C239.372 47.6373 240.501 47.3694 241.459 47.8269C242.543 48.3439 243.194 49.7216 243.201 51.0633C243.208 52.405 242.658 53.6887 241.9 54.7134C241.38 55.4163 240.745 56.03 239.998 56.3747C239.251 56.7193 238.381 56.7742 237.644 56.4008C236.782 55.9642 235.979 54.6784 235.944 53.5832C235.9 52.2243 236.294 50.844 237.002 49.7566C237.4 49.1456 237.9 48.6202 238.475 48.2358Z" fill="#F0BF9C"/>
<path d="M240.705 49.2642C239.767 49.5201 238.932 50.1374 238.413 50.9599C237.894 51.7825 237.696 52.8014 237.869 53.7587C237.952 54.2172 238.184 54.7238 238.638 54.8298C238.916 54.8946 239.214 54.7834 239.427 54.5938C239.641 54.4042 239.78 54.1457 239.889 53.8819C240.083 53.4088 240.189 52.8693 240.017 52.3872C239.846 51.9052 239.329 51.5229 238.831 51.6404C239.161 50.7625 239.913 49.765 240.705 49.2642Z" fill="#EBA588"/>
<path d="M233.993 75.2578L249.707 82.2022L232.093 116.841C228.443 124.02 218.736 125.32 213.325 119.356L210.955 116.743C211.423 109.483 211.43 102.021 211.356 95.2075L219.173 97.9435L233.993 75.2578Z" fill="#0F9DC5"/>
<path d="M180.177 67.9341C180.959 67.5414 181.91 67.8939 182.242 68.7044C183.506 71.7957 186.562 77.3123 191.083 80.1607C191.083 80.1607 191.435 77.7593 190.86 75.1057C190.507 73.4773 191.473 71.851 193.06 71.3403C193.06 71.3403 196.164 76.2442 196.164 85.1357L215.388 99.1091C213.897 103.323 212.053 107.412 209.882 111.32L190.59 90.4287C190.59 90.4287 184.975 89.2374 181.83 84.8218C181.18 83.9104 180.857 82.8059 180.876 81.6877L180.992 74.9741C180.992 74.9741 179.826 72.4198 179.366 69.5275C179.262 68.8752 179.587 68.2302 180.177 67.9341Z" fill="#F0BF9C"/>
<path d="M215.388 99.1086L211.707 96.4331C211.374 98.0186 210.019 100.642 208.843 102.724C207.909 104.374 205.686 104.731 204.279 103.459L194.306 94.4521L209.882 111.319L215.388 99.1086Z" fill="#EBA588"/>
<path d="M180.992 74.9736C181.768 77.3556 184.203 80.1607 184.203 80.1607C181.557 79.2076 181.274 77.8847 180.992 74.9736Z" fill="#EBA588"/>
<path d="M219.173 101.86L233.993 75.2578C236.156 71.3749 240.916 69.7715 244.988 71.554C249.929 73.7177 251.695 79.8338 248.667 84.2981L229.057 113.208C225.284 118.77 217.314 119.367 212.754 114.429L209.883 111.319C212.054 107.411 213.897 103.322 215.388 99.1082L219.173 101.86Z" fill="#0FBDD4"/>
<path d="M218.136 100.148C217.954 105.176 216.084 110.128 212.906 114.026C212.588 114.416 212.005 114.455 211.647 114.102L207.497 110.011C207.198 109.715 207.16 109.247 207.411 108.909C209.812 105.654 211.95 99.773 212.758 97.3957C212.936 96.8713 213.561 96.6593 214.024 96.9632L217.751 99.4126C217.998 99.5745 218.147 99.8534 218.136 100.148Z" fill="#0FDFF7"/>
<path d="M219.173 101.86L226.015 110.532C225.909 103.024 219.173 101.86 219.173 101.86Z" fill="#0F9DC5"/>
<path d="M72.7717 138.747C72.7717 129.595 81.0991 121.973 81.0991 112.799C81.0991 103.625 77.694 91.9107 77.694 76.244L88.9585 69.2578L92.1495 73.5711C96.0314 78.8182 104.134 77.9147 106.764 71.9417L107.921 69.3168C111.832 69.6746 115.386 71.8278 117.498 75.1912L124.076 85.665L118.765 89.6347C119.689 92.3415 119.057 95.3377 117.119 97.4403L114.549 100.228L113.635 116.68L117.619 138.747H72.7717Z" fill="#FF4666"/>
<path d="M78.6548 79.7986L92.1582 107.27C96.0208 115.129 107.224 115.129 111.086 107.27L114.548 100.228L107.068 89.9346L92.9656 74.6753L78.6548 79.7986Z" fill="#BA4666"/>
<path d="M94.5935 32.3248C91.7624 27.9942 86.5362 25.3464 81.3695 25.6247C76.2028 25.9036 71.2915 29.0983 68.943 33.7082C66.3421 38.8127 66.9015 44.9628 68.3998 50.4925C69.8982 56.0216 72.2676 61.3298 73.1628 66.9879C73.5748 69.5919 73.6427 72.3744 72.4823 74.7418C71.3218 77.1092 68.6343 78.887 66.0706 78.2723C69.3122 81.9996 74.5854 83.7779 79.5186 83.5152C84.4519 83.2525 89.2039 80.6109 92.0308 76.5603C94.228 73.4127 95.2453 69.5987 95.9384 65.8228C97.9302 54.9651 100.634 41.5645 94.5935 32.3248Z" fill="#FFBA37"/>
<path d="M84.8629 67.2136C85.3998 62.2516 84.3918 57.227 82.7384 52.5173C81.4494 48.8453 79.7542 45.2579 79.291 41.3943C78.8277 37.5306 79.8879 33.1766 83.0825 30.9544C85.1726 29.5004 87.881 29.1678 90.4035 29.5109C91.1686 29.6148 91.9207 29.7804 92.6649 29.9809C93.3866 30.6917 94.0374 31.4746 94.5936 32.3248C100.634 41.5645 97.9303 54.9651 95.9379 65.8228C95.2448 69.5987 94.228 73.4127 92.0304 76.5604C89.2029 80.611 84.4509 83.2525 79.5181 83.5152C77.437 83.626 75.2962 83.369 73.272 82.7601C75.0649 82.2352 76.7648 81.3625 78.2177 80.2C82.1143 77.0811 84.326 72.1755 84.8629 67.2136Z" fill="#F09E37"/>
<path d="M119.523 73.9299L104.368 93.2335L101.74 89.6347L91.2605 97.8383L95.9953 104.435C100.225 110.329 109.222 109.537 112.359 102.996L124.71 77.2327L122.197 75.6717L119.523 73.9299Z" fill="#BD6C67"/>
<path d="M101.74 89.6348L91.2605 97.8384L92.8032 99.9874L102.114 90.1471L101.74 89.6348Z" fill="#A85F67"/>
<path d="M98.877 100.228L104.368 93.2336L104.012 92.7458C99.7288 93.4451 99.3485 97.8535 98.877 100.228Z" fill="#A85F67"/>
<path d="M89.808 98.9747L103.192 88.4972L88.9578 69.2573H84.7181C79.3086 69.2573 75.9353 75.1217 78.6547 79.798L89.808 98.9747Z" fill="#FF4666"/>
<path d="M92.149 73.5712L88.958 69.2578H90.3958C91.2345 69.2578 91.9469 68.6442 92.0707 67.8149L93.7225 56.7676L103.539 62.1306L103.279 67.4822C103.232 68.4489 104.003 69.2584 104.97 69.2584H106.766C107.154 69.2584 107.538 69.2824 107.921 69.3174L106.764 71.9422C104.133 77.9148 96.0309 78.8183 92.149 73.5712Z" fill="#BD6C67"/>
<path d="M93.7224 56.7668C94.9654 63.4005 98.8207 66.8908 103.297 67.1039L103.539 62.1304L93.7224 56.7668Z" fill="#8C404C"/>
<path d="M186.246 96.003L171.704 69.1121C169.707 65.4192 165.847 63.1182 161.648 63.1182H135.927C131.79 63.1182 127.974 65.3539 125.953 68.9648L109.467 98.4028L121.888 108.141L130.497 97.2737V125.078H170.157V99.2499L174.814 105.46L186.246 96.003Z" fill="#FBEED1"/>
<path d="M170.157 99.2494V77.2322C174.109 91.3461 173.256 99.2186 171.706 101.316L170.157 99.2494Z" fill="#F7DD8C"/>
<path d="M130.497 97.2737V74.2683C124.71 89.3699 127.131 95.7722 129.149 98.9752L130.497 97.2737Z" fill="#F7DD8C"/>
<path d="M149.848 74.2678H149.852C155.434 74.2678 159.959 69.743 159.959 64.1611V63.1182H139.741V64.1611C139.741 69.743 144.266 74.2678 149.848 74.2678Z" fill="white"/>
<path d="M157.842 64.1611V63.1182H141.859V64.1611C141.859 68.5737 145.436 72.1511 149.849 72.1511H149.853C154.265 72.1511 157.842 68.5737 157.842 64.1611Z" fill="#F7DD8C"/>
<path d="M163.241 111.811C163.358 111.811 163.453 111.716 163.453 111.599V80.3724C163.453 80.2554 163.358 80.1609 163.241 80.1609C163.124 80.1609 163.03 80.2554 163.03 80.3724V111.599C163.029 111.716 163.124 111.811 163.241 111.811Z" fill="#F7DD8C"/>
<path d="M159.96 119.962C160.077 119.962 160.171 119.867 160.171 119.75V101.316C160.171 101.199 160.077 101.104 159.96 101.104C159.843 101.104 159.748 101.199 159.748 101.316V119.75C159.748 119.867 159.843 119.962 159.96 119.962Z" fill="#F7DD8C"/>
<path d="M155.408 105.036C155.525 105.036 155.619 104.942 155.619 104.825V92.3338C155.619 92.2168 155.525 92.1223 155.408 92.1223C155.291 92.1223 155.196 92.2168 155.196 92.3338V104.825C155.196 104.942 155.291 105.036 155.408 105.036Z" fill="#F7DD8C"/>
<path d="M155.408 110.011C155.525 110.011 155.619 109.916 155.619 109.799V107.682C155.619 107.565 155.525 107.471 155.408 107.471C155.291 107.471 155.196 107.565 155.196 107.682V109.799C155.196 109.916 155.291 110.011 155.408 110.011Z" fill="#F7DD8C"/>
<path d="M151.809 119.962C151.926 119.962 152.02 119.867 152.02 119.75V83.6539C152.02 83.5369 151.926 83.4424 151.809 83.4424C151.692 83.4424 151.597 83.5369 151.597 83.6539V119.75C151.597 119.867 151.692 119.962 151.809 119.962Z" fill="#F7DD8C"/>
<path d="M146.728 120.491C146.845 120.491 146.939 120.396 146.939 120.279V98.5789C146.939 98.462 146.845 98.3674 146.728 98.3674C146.611 98.3674 146.516 98.462 146.516 98.5789V120.279C146.516 120.396 146.611 120.491 146.728 120.491Z" fill="#F7DD8C"/>
<path d="M139.742 107.894C139.859 107.894 139.953 107.8 139.953 107.683V80.3724C139.953 80.2554 139.859 80.1609 139.742 80.1609C139.625 80.1609 139.53 80.2554 139.53 80.3724V107.683C139.53 107.799 139.625 107.894 139.742 107.894Z" fill="#F7DD8C"/>
<path d="M119.523 73.9299L122.197 75.6705L123.365 73.5852C124.552 73.0681 125.504 72.1511 125.504 72.1511L125.657 73.8212C125.753 74.8652 126.95 75.4063 127.798 74.7885L131.329 72.2122C131.955 71.7557 132.308 71.0141 132.268 70.2406L132.139 67.7239C132.093 66.8465 131.681 66.0287 131.002 65.4709L129.104 63.9114L133.285 65.2348L133.466 67.8336C133.534 68.805 134.521 69.4348 135.43 69.0865C136.039 68.8535 136.417 68.2435 136.355 67.5949L136.098 64.9048C135.992 63.7944 135.317 62.8189 134.316 62.328L130.356 60.3878C129.353 59.8963 128.151 60.0749 127.334 60.8374L121.763 66.037C120.662 67.0648 119.983 68.465 119.857 69.9659L119.523 73.9299Z" fill="#BD6C67"/>
<path d="M125.504 72.1512L125.386 70.8565L123.017 68.6934C123.652 70.7928 125.504 72.1512 125.504 72.1512Z" fill="#8C404C"/>
<path d="M174.259 64.8647L168.579 60.8746C167.671 60.2359 166.452 60.262 165.571 60.9389L162.453 63.335C161.697 63.9163 161.22 64.7895 161.141 65.74L160.951 68.017C160.89 68.7508 161.417 69.4026 162.148 69.496L162.15 69.4966C162.934 69.5974 163.641 69.0182 163.698 68.2296L163.876 65.7295L166.598 64.2468L165.582 66.0873C165.48 66.2711 165.407 66.469 165.363 66.6743L164.821 69.248C164.677 69.9337 164.97 70.6382 165.559 71.0189L169.638 73.6584C170.209 74.0282 170.946 74.0198 171.509 73.638L173.798 72.0849C174.267 71.7663 174.59 71.2722 174.691 70.7139L175.298 67.4007C175.476 66.4246 175.071 65.4345 174.259 64.8647Z" fill="#BD6C67"/>
<path d="M167.653 71.3401C168.885 69.5822 169.764 67.5778 170.221 65.481C170.53 66.5511 170.395 67.7381 169.989 68.7753C169.582 69.812 168.607 70.7662 167.653 71.3401Z" fill="#8C404C"/>
<path d="M117.901 43.5575C121.372 39.921 121.349 33.8252 118.649 29.5845C115.95 25.3438 111.109 22.825 106.172 21.8813C102.842 21.2451 99.2992 21.2613 96.1729 22.5706C93.0462 23.8794 90.4109 26.6327 89.8322 29.9726C87.7066 29.9073 85.6834 31.2463 84.3955 32.9385C83.1077 34.6311 82.5196 36.777 82.4105 38.901C82.0835 45.2501 86.0986 51.4754 91.8215 54.2444C97.5444 57.0134 104.631 56.4248 110.099 53.1811C113.456 51.1892 115.207 46.3808 117.901 43.5575Z" fill="#FFBA37"/>
<path d="M94.5795 50.6988V46.4586C96.7197 45.6517 98.2405 43.9659 98.9299 41.785C102.61 42.1553 106.383 41.552 109.764 40.0532C112.401 38.8844 114.789 37.1672 116.757 35.0588C118.039 37.1019 118.782 39.5168 118.782 42.1067V51.4216C118.782 58.7583 112.834 64.7062 105.498 64.7062C99.0954 64.7062 93.7522 60.1772 92.4946 54.1483C93.7334 53.4955 94.5795 52.1967 94.5795 50.6988Z" fill="#BD6C67"/>
<path d="M91.1879 49.4966C90.2912 48.8981 89.162 48.6302 88.2037 49.0876C87.12 49.6047 86.4693 50.9824 86.462 52.3241C86.4547 53.6657 87.0046 54.9494 87.7624 55.9736C88.2826 56.6771 88.9171 57.2902 89.665 57.6349C90.4123 57.9796 91.2819 58.0344 92.0188 57.6615C92.881 57.2249 93.6843 55.9391 93.7192 54.8439C93.7626 53.485 93.3688 52.1047 92.6606 51.0169C92.2632 50.4058 91.7639 49.8804 91.1879 49.4966Z" fill="#BD6C67"/>
<path d="M88.958 50.5244C89.8965 50.7803 90.7311 51.3976 91.2502 52.2202C91.7693 53.0427 91.9672 54.0617 91.7944 55.0189C91.7113 55.4775 91.4795 55.9841 91.0261 56.0901C90.7483 56.1549 90.4501 56.0436 90.237 55.854C90.0239 55.6645 89.884 55.4059 89.7753 55.1422C89.5811 54.669 89.4756 54.1295 89.6469 53.6475C89.8182 53.1655 90.3352 52.7832 90.8329 52.9007C90.5023 52.0228 89.7503 51.0258 88.958 50.5244Z" fill="#8C404C"/>
<path d="M98.7043 45.6168H106.433C105.746 44.4177 104.117 43.778 102.738 43.8615C101.359 43.9451 99.7844 44.7551 98.7043 45.6168Z" fill="#FFBA37"/>
<path d="M102.568 48.9692C102.568 49.729 103.086 50.3453 103.724 50.3453C104.362 50.3453 104.88 49.729 104.88 48.9692C104.88 48.2093 104.362 47.593 103.724 47.593C103.086 47.593 102.568 48.2088 102.568 48.9692Z" fill="#422C4F"/>
<path d="M118.465 45.6167H114.054C114.446 44.4176 115.376 43.7773 116.163 43.8614C116.95 43.9449 117.849 44.7549 118.465 45.6167Z" fill="#FFBA37"/>
<path d="M115.6 50.3453C115.964 50.3453 116.259 49.7292 116.259 48.9692C116.259 48.2091 115.964 47.593 115.6 47.593C115.236 47.593 114.94 48.2091 114.94 48.9692C114.94 49.7292 115.236 50.3453 115.6 50.3453Z" fill="#422C4F"/>
<path d="M108.548 54.4382H112.89C112.532 55.2169 111.698 55.7904 110.842 55.8269C109.986 55.8629 108.97 55.184 108.548 54.4382Z" fill="#8C404C"/>
<path d="M101.696 56.1946C104.798 57.1237 107.9 58.0523 111.001 58.9813C110.202 59.9454 108.915 60.4588 107.663 60.4813C106.411 60.5037 105.176 60.0452 104.163 59.3088C103.15 58.5719 102.307 57.2877 101.696 56.1946Z" fill="white"/>
<path d="M144.017 138.746H107.411V182.559H144.017V138.746Z" fill="#BD6C67"/>
<path d="M107.411 138.746H63.9915V182.559H107.411V138.746Z" fill="#DF8D6D"/>
<path opacity="0.8" d="M88.3794 138.746H81.155V145.563H88.3794V138.746Z" fill="#F0BF6C"/>
<path d="M129.905 138.746H125.71V145.563H129.905V138.746Z" fill="#DF8D6D"/>
<path opacity="0.8" d="M88.3794 176.598H81.155V182.559H88.3794V176.598Z" fill="#F0BF6C"/>
<path d="M129.905 176.598H125.71V182.559H129.905V176.598Z" fill="#DF8D6D"/>
<path opacity="0.2" d="M107.411 138.746V182.559H144.017V181.301H123.647C116.054 181.301 109.897 175.145 109.897 167.551V138.746H107.411Z" fill="#422C4F"/>
<path d="M70.2573 149.645L68.1489 161.598L99.2775 167.088L101.386 155.135L70.2573 149.645Z" fill="white"/>
<path d="M216.632 124.554H189.892V182.559H216.632V124.554Z" fill="#BD6C67"/>
<path d="M189.893 124.554H139.498V182.559H189.893V124.554Z" fill="#DF8D6D"/>
<g opacity="0.3">
<path d="M171.257 176.99H164.354V170.087H171.257V176.99H171.257ZM165.074 176.269H170.537V170.807H165.074V176.269Z" fill="#3B3B3B"/>
<path d="M169.259 173.224L167.806 171.463L166.354 173.224H167.196V175.449H168.416V173.224H169.259Z" fill="#3B3B3B"/>
<path d="M179.077 176.99H172.174V170.087H179.077V176.99ZM172.894 176.269H178.357V170.807H172.894V176.269Z" fill="#3B3B3B"/>
<path d="M173.875 171.629V172.26C173.875 173.179 174.585 173.932 175.486 174.003V174.705C175.486 174.971 175.271 175.185 175.006 175.185H174.605V175.449H176.645V175.185H176.244C175.979 175.185 175.765 174.971 175.765 174.705V174.003C176.666 173.932 177.376 173.179 177.376 172.26V171.629H173.875Z" fill="#3B3B3B"/>
<path d="M186.909 176.99H180.005V170.087H186.909V176.99ZM180.726 176.269H186.188V170.807H180.726V176.269Z" fill="#3B3B3B"/>
<path d="M185.637 172.917C185.214 172.145 184.394 171.621 183.452 171.621C182.51 171.621 181.691 172.145 181.268 172.917H183.337V175.078C183.337 175.154 183.274 175.217 183.197 175.217C183.12 175.217 183.057 175.154 183.057 175.078V174.837H182.817V175.078C182.817 175.287 182.987 175.457 183.197 175.457C183.406 175.457 183.576 175.287 183.576 175.078V172.917H185.637Z" fill="#3B3B3B"/>
</g>
<path opacity="0.8" d="M169.477 174.667H159.913V182.559H169.477V174.667Z" fill="#F0BF6C"/>
<path d="M206.039 174.667H200.486V182.559H206.039V174.667Z" fill="#DF8D6D"/>
<path opacity="0.2" d="M189.892 124.554V182.559H216.632V180.893H211.387C201.334 180.893 193.183 172.744 193.183 162.69V124.553H189.892V124.554Z" fill="#422C4F"/>
<path d="M223.907 137.074L216.632 124.554V137.074H223.907Z" fill="#BD6C67"/>
<path opacity="0.2" d="M223.907 137.074L216.632 124.554V137.074H223.907Z" fill="#422C4F"/>
<path opacity="0.2" d="M189.892 124.554H139.498V140.461H185.637L189.892 124.554Z" fill="#422C4F"/>
<path d="M132.224 137.074H182.618L189.892 124.554H139.498L132.224 137.074Z" fill="#DF8D6D"/>
<path d="M184.49 143.287L142.475 147.075L143.565 159.164L185.58 155.376L184.49 143.287Z" fill="white"/>
<path d="M276.333 138.746H248.126V182.559H276.333V138.746Z" fill="#BD6C67"/>
<path d="M248.126 138.746H210.062V182.559H248.126V138.746Z" fill="#DF8D6D"/>
<path opacity="0.8" d="M232.706 138.746H225.481V145.563H232.706V138.746Z" fill="#F0BF6C"/>
<path d="M266.424 138.746H262.23V145.563H266.424V138.746Z" fill="#DF8D6D"/>
<path opacity="0.8" d="M232.706 176.598H225.481V182.559H232.706V176.598Z" fill="#F0BF6C"/>
<path d="M266.424 176.598H262.23V182.559H266.424V176.598Z" fill="#DF8D6D"/>
<path opacity="0.2" d="M248.126 138.746V182.559H276.333V181.301H264.361C256.767 181.301 250.611 175.145 250.611 167.551V138.746H248.126Z" fill="#422C4F"/>
<path d="M252.879 150.432L251.359 159.909L274.073 163.551L275.592 154.073L252.879 150.432Z" fill="#FAEDD0"/>
</svg>
