<svg width="596" height="462" viewBox="0 0 596 462" fill="none" xmlns="http://www.w3.org/2000/svg">
<g opacity="0.4">
<path d="M207.01 132.664C207.01 132.664 148.073 168.86 153.867 206.09C159.661 243.32 255.203 244.89 224.761 254.061C194.319 263.232 145.598 228.241 145.598 228.241C145.598 228.241 128.188 238.802 141.569 290.949C154.976 343.085 267.087 319.598 267.087 319.598C372.904 454.273 428.764 337.1 428.83 322.678C428.897 308.257 341.065 306.271 347.409 298.328C353.729 290.397 402.583 310.769 432.553 306.108C462.522 301.447 493.589 231.6 486.511 212.625C479.433 193.651 405.277 245.003 405.721 224.04C406.166 203.077 504.018 220.561 484.406 148.629C464.794 76.697 470.167 85.0932 432.686 137.317C395.231 189.528 345.687 167.819 377.857 152.749C496.89 96.9744 414.746 10.3631 414.746 10.3631C272.667 53.9797 333.935 146.376 315.163 145.037C296.429 143.706 330.954 42.2187 307.7 60.4328C284.446 78.647 248.726 57.4322 224.903 96.4734C201.095 135.536 278.117 197.915 247.267 207.913C216.416 217.911 206.985 132.676 206.985 132.676L207.01 132.664ZM380.764 247.892C404.614 243.209 424.035 250.002 421.045 260.863C418.055 271.723 369.729 270.2 369.729 270.2C353.173 264.643 356.899 252.554 380.764 247.892ZM286.464 169.915C306.216 187.402 307.968 196.409 306.359 204.328C306.359 204.328 279.656 196.256 274.649 180.355C269.629 164.433 266.687 152.44 286.464 169.915ZM225.113 277.17C239.9 282.003 256.934 283.656 247.93 293.061C247.93 293.061 222.293 301.566 212.001 290.43C201.694 279.272 210.325 272.338 225.113 277.17Z" fill="#55B76B"/>
<path d="M156.711 461.329C156.711 461.329 300.966 335.501 402.13 37.4498" stroke="#02604D" stroke-width="0.5" stroke-linecap="round" stroke-linejoin="round"/>
</g>
</svg>
