<svg width="561" height="462" viewBox="0 0 561 462" fill="none" xmlns="http://www.w3.org/2000/svg">
<g opacity="0.4">
<path d="M172.188 132.664C172.188 132.664 113.251 168.86 119.045 206.09C124.838 243.32 220.38 244.89 189.938 254.061C159.496 263.232 110.776 228.241 110.776 228.241C110.776 228.241 93.3659 238.802 106.747 290.949C120.154 343.085 232.265 319.598 232.265 319.598C338.081 454.273 393.942 337.1 394.008 322.678C394.075 308.257 306.242 306.271 312.587 298.328C318.907 290.397 367.761 310.769 397.73 306.108C427.7 301.447 458.767 231.6 451.689 212.625C444.611 193.651 370.454 245.003 370.899 224.04C371.344 203.077 469.195 220.561 449.584 148.629C429.972 76.697 435.345 85.0932 397.864 137.317C360.408 189.528 310.865 167.819 343.035 152.749C462.068 96.9744 379.924 10.3631 379.924 10.3631C237.844 53.9797 299.113 146.376 280.34 145.037C261.607 143.706 296.132 42.2187 272.878 60.4328C249.624 78.647 213.903 57.4322 190.081 96.4734C166.273 135.536 243.294 197.915 212.444 207.913C181.594 217.911 172.162 132.676 172.162 132.676L172.188 132.664ZM345.941 247.892C369.792 243.209 389.213 250.002 386.223 260.863C383.232 271.723 334.906 270.2 334.906 270.2C318.351 264.643 322.077 252.554 345.941 247.892ZM251.642 169.915C271.394 187.402 273.146 196.409 271.537 204.328C271.537 204.328 244.833 196.256 239.827 180.355C234.807 164.433 231.865 152.44 251.642 169.915ZM190.291 277.17C205.078 282.003 222.112 283.656 213.108 293.061C213.108 293.061 187.471 301.566 177.178 290.43C166.872 279.272 175.503 272.338 190.291 277.17Z" fill="#B7D331"/>
<path d="M156.711 461.33C156.711 461.33 300.966 335.502 402.13 37.4502" stroke="#02604D" stroke-width="0.5" stroke-linecap="round" stroke-linejoin="round"/>
</g>
</svg>
