<svg width="24" height="25" viewBox="0 0 24 25" fill="none" xmlns="http://www.w3.org/2000/svg">
<path d="M18.3755 0.255615H5.62549C2.51889 0.255615 0.000488281 2.802 0.000488281 5.94312V18.8348C0.000488281 21.9759 2.51889 24.5223 5.62549 24.5223H18.3755C21.4821 24.5223 24.0005 21.9759 24.0005 18.8348V5.94312C24.0005 2.802 21.4821 0.255615 18.3755 0.255615Z" fill="#333333"/>
<path d="M18.3755 0.255615H5.62549C2.51889 0.255615 0.000488281 2.802 0.000488281 5.94312V18.8348C0.000488281 21.9759 2.51889 24.5223 5.62549 24.5223H18.3755C21.4821 24.5223 24.0005 21.9759 24.0005 18.8348V5.94312C24.0005 2.802 21.4821 0.255615 18.3755 0.255615Z" fill="white"/>
<path d="M17.3175 20.8903H20.0616C20.161 20.8903 20.2564 20.8504 20.3267 20.7793C20.397 20.7082 20.4366 20.6118 20.4366 20.5112L20.438 14.6491C20.438 11.5852 19.785 9.23008 16.2438 9.23008C14.8976 9.17946 13.6282 9.88111 12.9431 11.0527C12.9398 11.0584 12.9347 11.0629 12.9286 11.0653C12.9226 11.0678 12.9158 11.0682 12.9095 11.0665C12.9032 11.0648 12.8976 11.061 12.8936 11.0558C12.8896 11.0505 12.8874 11.0441 12.8874 11.0375V9.8921C12.8874 9.79154 12.8479 9.6951 12.7775 9.62399C12.7072 9.55288 12.6118 9.51294 12.5124 9.51294H9.90827C9.80881 9.51294 9.71343 9.55288 9.6431 9.62399C9.57278 9.6951 9.53327 9.79154 9.53327 9.8921V20.5107C9.53327 20.6112 9.57278 20.7077 9.6431 20.7788C9.71343 20.8499 9.80881 20.8898 9.90827 20.8898H12.6521C12.7516 20.8898 12.847 20.8499 12.9173 20.7788C12.9876 20.7077 13.0271 20.6112 13.0271 20.5107V15.2618C13.0271 13.7776 13.3056 12.3403 15.1254 12.3403C16.9193 12.3403 16.9425 14.0386 16.9425 15.3579V20.5111C16.9425 20.6117 16.982 20.7081 17.0524 20.7793C17.1227 20.8504 17.2181 20.8903 17.3175 20.8903ZM3.56299 5.90773C3.56299 7.03243 4.47864 7.95778 5.59099 7.95778C6.70305 7.95769 7.61814 7.03176 7.61814 5.90735C7.61796 4.78293 6.70277 3.85767 5.59061 3.85767C4.47818 3.85767 3.56299 4.78312 3.56299 5.90773ZM4.21539 20.8903H6.96293C7.06238 20.8903 7.15776 20.8504 7.22809 20.7793C7.29842 20.7081 7.33793 20.6117 7.33793 20.5111V9.8921C7.33793 9.79154 7.29842 9.6951 7.22809 9.62399C7.15776 9.55288 7.06238 9.51294 6.96293 9.51294H4.21539C4.11594 9.51294 4.02056 9.55288 3.95023 9.62399C3.8799 9.6951 3.84039 9.79154 3.84039 9.8921V20.5111C3.84039 20.6117 3.8799 20.7081 3.95023 20.7793C4.02056 20.8504 4.11594 20.8903 4.21539 20.8903Z" fill="#333333"/>
</svg>
