<svg width="19" height="26" viewBox="0 0 19 26" fill="none" xmlns="http://www.w3.org/2000/svg">
<path d="M9.42858 0.755615C6.92887 0.758597 4.53239 1.76396 2.76483 3.55116C0.99727 5.33836 0.00295901 7.76147 1.0031e-05 10.2889C-0.00298388 12.3544 0.664279 14.3638 1.89944 16.0089C1.89944 16.0089 2.15658 16.3513 2.19858 16.4007L9.42858 25.0223L16.662 16.3963C16.6997 16.3504 16.9577 16.0089 16.9577 16.0089L16.9586 16.0063C18.1931 14.3619 18.8601 12.3535 18.8572 10.2889C18.8542 7.76147 17.8599 5.33836 16.0923 3.55116C14.3248 1.76396 11.9283 0.758597 9.42858 0.755615ZM9.42858 13.7556C8.75047 13.7556 8.08759 13.5523 7.52377 13.1714C6.95994 12.7905 6.52049 12.249 6.26099 11.6156C6.00149 10.9821 5.9336 10.2851 6.06589 9.61264C6.19818 8.94017 6.52472 8.32247 7.00422 7.83765C7.48371 7.35282 8.09462 7.02265 8.7597 6.88889C9.42478 6.75513 10.1141 6.82378 10.7406 7.08617C11.3671 7.34855 11.9026 7.79288 12.2793 8.36297C12.6561 8.93306 12.8572 9.60331 12.8572 10.2889C12.856 11.208 12.4944 12.0891 11.8517 12.739C11.209 13.3889 10.3375 13.7545 9.42858 13.7556Z" fill="white"/>
</svg>
