<svg width="249" height="49" viewBox="0 0 249 49" fill="none" xmlns="http://www.w3.org/2000/svg">
<path d="M13.265 37C11.0017 36.8367 8.90167 36.1833 6.965 35.04C5.05167 33.8733 3.52333 32.38 2.38 30.56C1.26 28.74 0.7 26.8033 0.7 24.75C0.7 22.4867 1.24833 20.375 2.345 18.415C3.44167 16.4317 5.27333 14.8217 7.84 13.585C10.4067 12.325 13.755 11.695 17.885 11.695C18.6317 11.695 19.5417 11.7533 20.615 11.87C21.6883 11.9633 22.7617 12.0683 23.835 12.185C25.0717 12.325 26.3433 12.465 27.65 12.605C28.98 12.7217 30.1467 12.78 31.15 12.78C32.4333 12.78 33.67 12.465 34.86 11.835C36.0733 11.1817 37.0533 10.4 37.8 9.49C38.5467 8.55667 38.92 7.71667 38.92 6.97C38.92 6.50333 38.745 6.14167 38.395 5.885C38.045 5.605 37.5083 5.465 36.785 5.465C36.225 5.465 35.735 5.745 35.315 6.305C34.9183 6.84167 34.72 7.425 34.72 8.055C34.72 8.80167 35.0233 9.36167 35.63 9.735C34.44 10.4817 33.3317 10.855 32.305 10.855C31.4183 10.855 30.7067 10.5867 30.17 10.05C29.6333 9.51333 29.365 8.86 29.365 8.09C29.365 7.43667 29.575 6.81833 29.995 6.235C30.4383 5.62833 31.1033 5.13833 31.99 4.765C32.8767 4.36833 33.9733 4.17 35.28 4.17C36.82 4.17 38.15 4.43833 39.27 4.975C40.39 5.48833 41.23 6.165 41.79 7.005C42.35 7.845 42.63 8.73167 42.63 9.665C42.63 10.5983 42.35 11.485 41.79 12.325C41.2533 13.1417 40.425 13.8067 39.305 14.32C38.2083 14.8333 36.89 15.09 35.35 15.09C34.4167 15.09 33.1333 14.95 31.5 14.67C30.24 14.4833 29.12 14.3433 28.14 14.25C27.16 14.1333 26.11 14.075 24.99 14.075C22.1433 14.075 19.5767 14.5417 17.29 15.475C15.0267 16.4083 13.2417 17.7967 11.935 19.64C10.6283 21.4833 9.975 23.7 9.975 26.29C9.975 27.9233 10.29 29.4983 10.92 31.015C11.55 32.5317 12.4367 33.7683 13.58 34.725C14.7467 35.6817 16.065 36.16 17.535 36.16V27.34C17.535 26.5233 17.395 25.7767 17.115 25.1C16.8583 24.4233 16.3333 23.8633 15.54 23.42V22.93H27.93V23.42C27.1367 23.8633 26.6 24.4233 26.32 25.1C26.0633 25.7533 25.935 26.5 25.935 27.34V33.36C25.935 33.8033 25.7483 34.3167 25.375 34.9C25.0017 35.4833 24.465 35.985 23.765 36.405C23.065 36.8017 22.2367 37 21.28 37H13.265ZM38.1626 37.49C36.9726 37.49 35.8526 37.2567 34.8026 36.79C33.7759 36.3233 32.9359 35.6467 32.2826 34.76C31.6526 33.85 31.3376 32.765 31.3376 31.505V24.225C31.3376 22.5917 31.2909 21.4133 31.1976 20.69C31.1042 19.9667 30.9176 19.4533 30.6376 19.15C30.3809 18.8467 29.9492 18.6483 29.3426 18.555V18.065H39.7376V31.015C39.7376 31.9717 39.9592 32.7533 40.4026 33.36C40.8692 33.9433 41.4292 34.235 42.0826 34.235C42.5026 34.235 42.9226 34.095 43.3426 33.815C43.7859 33.535 44.1826 33.115 44.5326 32.555V24.225C44.5326 22.5917 44.4859 21.4133 44.3926 20.69C44.2992 19.9667 44.1126 19.4533 43.8326 19.15C43.5759 18.8467 43.1442 18.6483 42.5376 18.555V18.065H52.9326V32.59C52.9326 33.7333 53.0726 34.655 53.3526 35.355C53.6559 36.055 54.1809 36.44 54.9276 36.51V37H48.2426C47.1692 37 46.3176 36.72 45.6876 36.16C45.0576 35.5767 44.6842 34.8183 44.5676 33.885C43.9609 35.005 43.0626 35.8917 41.8726 36.545C40.6826 37.175 39.4459 37.49 38.1626 37.49ZM56.3445 36.51C57.1379 36.0667 57.6629 35.5067 57.9195 34.83C58.1995 34.1533 58.3395 33.4067 58.3395 32.59V24.155C58.3395 22.5217 58.2929 21.3433 58.1995 20.62C58.1062 19.8967 57.9195 19.3833 57.6395 19.08C57.3829 18.7767 56.9512 18.5783 56.3445 18.485V17.995H66.7395V20.76C67.5562 19.7567 68.5362 18.9983 69.6795 18.485C70.8462 17.9717 72.0362 17.715 73.2495 17.715C74.4395 17.715 75.5362 17.9483 76.5395 18.415C77.5662 18.8583 78.3829 19.5233 78.9895 20.41C79.6195 21.2733 79.9345 22.3 79.9345 23.49V32.59C79.9345 33.43 80.0629 34.1883 80.3195 34.865C80.5995 35.5183 81.1362 36.0667 81.9295 36.51V37H69.5395V36.51C70.3329 36.0667 70.8579 35.5067 71.1145 34.83C71.3945 34.1533 71.5345 33.4067 71.5345 32.59V23.98C71.5345 22.86 71.3012 22.0083 70.8345 21.425C70.3679 20.8183 69.7845 20.515 69.0845 20.515C68.2445 20.515 67.4629 20.9 66.7395 21.67V32.59C66.7395 33.43 66.8679 34.1883 67.1245 34.865C67.4045 35.5183 67.9412 36.0667 68.7345 36.51V37H56.3445V36.51ZM89.8565 37.56C88.7598 37.56 87.7098 37.3383 86.7065 36.895C85.7032 36.4283 84.8865 35.7633 84.2565 34.9C83.6498 34.0367 83.3465 33.045 83.3465 31.925C83.3465 30.8283 83.7315 29.825 84.5015 28.915C85.2948 27.9817 86.4732 27.235 88.0365 26.675C89.6232 26.0917 91.5598 25.8 93.8465 25.8C94.4765 25.8 94.9548 25.8117 95.2815 25.835V21.46C95.2815 20.5033 95.0832 19.7683 94.6865 19.255C94.3132 18.7183 93.8582 18.45 93.3215 18.45C92.7848 18.45 92.3182 18.7183 91.9215 19.255C91.5248 19.7683 91.3265 20.4917 91.3265 21.425C91.3265 22.6383 91.7698 23.6417 92.6565 24.435C91.2798 24.9483 90.0898 25.205 89.0865 25.205C87.9432 25.205 87.0565 24.9367 86.4265 24.4C85.7965 23.8633 85.4815 23.1983 85.4815 22.405C85.4815 20.935 86.2048 19.7917 87.6515 18.975C89.0982 18.135 90.8598 17.715 92.9365 17.715C94.7098 17.715 96.4132 18.0417 98.0465 18.695C99.7032 19.325 101.056 20.2817 102.106 21.565C103.156 22.8483 103.681 24.4233 103.681 26.29V32.59C103.681 33.7333 103.821 34.655 104.101 35.355C104.405 36.055 104.93 36.44 105.676 36.51V37H98.9915C97.9882 37 97.1715 36.755 96.5415 36.265C95.9348 35.7517 95.5498 35.0633 95.3865 34.2C94.8732 35.32 94.1148 36.16 93.1115 36.72C92.1315 37.28 91.0465 37.56 89.8565 37.56ZM95.2815 26.745C93.8815 26.8617 92.7732 27.4217 91.9565 28.425C91.1398 29.405 90.7315 30.5367 90.7315 31.82C90.7315 32.6833 90.9415 33.36 91.3615 33.85C91.8048 34.34 92.3182 34.585 92.9015 34.585C93.3682 34.585 93.8115 34.4333 94.2315 34.13C94.6515 33.8267 95.0015 33.395 95.2815 32.835V26.745ZM144.657 37.56C142.814 37.56 141.064 37.245 139.407 36.615C137.774 35.9617 136.444 35.005 135.417 33.745C134.414 32.4617 133.912 30.9333 133.912 29.16V16.84C133.912 15.6967 133.574 14.8217 132.897 14.215C132.221 13.585 131.346 13.27 130.272 13.27C129.129 13.27 127.974 13.6433 126.807 14.39C125.641 15.1133 124.672 16.21 123.902 17.68C123.132 19.1267 122.747 20.8767 122.747 22.93C122.747 24.6567 123.097 26.1267 123.797 27.34C124.521 28.53 125.477 29.125 126.667 29.125C127.321 29.125 127.834 28.9617 128.207 28.635C128.581 28.3083 128.767 27.9 128.767 27.41C128.767 26.99 128.639 26.5933 128.382 26.22C128.149 25.8233 127.752 25.59 127.192 25.52C127.192 25.0767 127.437 24.645 127.927 24.225C128.417 23.7817 128.977 23.56 129.607 23.56C130.471 23.56 131.147 23.7933 131.637 24.26C132.127 24.7033 132.372 25.2633 132.372 25.94C132.372 26.5 132.186 27.0483 131.812 27.585C131.462 28.1217 130.926 28.565 130.202 28.915C129.479 29.2417 128.604 29.405 127.577 29.405C125.034 29.405 122.876 29.0317 121.102 28.285C119.352 27.515 118.034 26.5117 117.147 25.275C116.261 24.015 115.817 22.6733 115.817 21.25C115.817 19.7567 116.296 18.3333 117.252 16.98C118.209 15.6267 119.597 14.53 121.417 13.69C123.261 12.85 125.442 12.43 127.962 12.43H144.307V12.92C143.514 13.3633 142.977 13.9233 142.697 14.6C142.441 15.2533 142.312 16 142.312 16.84V29.16C142.312 30.49 142.604 31.6333 143.187 32.59C143.771 33.5467 144.529 34.27 145.462 34.76C146.396 35.25 147.387 35.495 148.437 35.495C150.024 35.495 151.307 34.9583 152.287 33.885C153.291 32.8117 153.792 31.2367 153.792 29.16V11.065C153.792 7.26166 154.621 4.56666 156.277 2.98C157.934 1.39333 160.244 0.599997 163.207 0.599997C164.607 0.599997 165.809 0.856665 166.812 1.37C167.816 1.86 168.562 2.50167 169.052 3.295C169.566 4.065 169.822 4.87 169.822 5.71C169.822 6.69 169.496 7.51833 168.842 8.195C168.189 8.84833 167.267 9.175 166.077 9.175C165.517 9.175 164.981 9.02333 164.467 8.72C163.977 8.41667 163.581 8.04333 163.277 7.6C162.974 7.15667 162.822 6.73667 162.822 6.34C163.592 6.24666 164.187 5.92 164.607 5.36C165.027 4.77667 165.237 4.135 165.237 3.435C165.237 2.805 165.062 2.28 164.712 1.86C164.362 1.41667 163.861 1.195 163.207 1.195C161.877 1.195 160.594 2.12833 159.357 3.995C158.121 5.86167 157.117 8.265 156.347 11.205C155.577 14.1217 155.192 17.0617 155.192 20.025V29.16C155.192 30.9567 154.691 32.485 153.687 33.745C152.707 35.005 151.412 35.9617 149.802 36.615C148.192 37.245 146.477 37.56 144.657 37.56ZM159.636 36.51C160.429 36.0667 160.954 35.5067 161.211 34.83C161.491 34.1533 161.631 33.4067 161.631 32.59V18.555C161.631 16.9217 161.584 15.7433 161.491 15.02C161.397 14.2967 161.211 13.7833 160.931 13.48C160.674 13.1767 160.242 12.9783 159.636 12.885V12.43H170.031V32.59C170.031 33.43 170.159 34.1883 170.416 34.865C170.696 35.5183 171.232 36.0667 172.026 36.51V37H159.636V36.51ZM179.92 37.56C178.823 37.56 177.773 37.3383 176.77 36.895C175.767 36.4283 174.95 35.7633 174.32 34.9C173.713 34.0367 173.41 33.045 173.41 31.925C173.41 30.8283 173.795 29.825 174.565 28.915C175.358 27.9817 176.537 27.235 178.1 26.675C179.687 26.0917 181.623 25.8 183.91 25.8C184.54 25.8 185.018 25.8117 185.345 25.835V21.46C185.345 20.5033 185.147 19.7683 184.75 19.255C184.377 18.7183 183.922 18.45 183.385 18.45C182.848 18.45 182.382 18.7183 181.985 19.255C181.588 19.7683 181.39 20.4917 181.39 21.425C181.39 22.6383 181.833 23.6417 182.72 24.435C181.343 24.9483 180.153 25.205 179.15 25.205C178.007 25.205 177.12 24.9367 176.49 24.4C175.86 23.8633 175.545 23.1983 175.545 22.405C175.545 20.935 176.268 19.7917 177.715 18.975C179.162 18.135 180.923 17.715 183 17.715C184.773 17.715 186.477 18.0417 188.11 18.695C189.767 19.325 191.12 20.2817 192.17 21.565C193.22 22.8483 193.745 24.4233 193.745 26.29V32.59C193.745 33.7333 193.885 34.655 194.165 35.355C194.468 36.055 194.993 36.44 195.74 36.51V37H189.055C188.052 37 187.235 36.755 186.605 36.265C185.998 35.7517 185.613 35.0633 185.45 34.2C184.937 35.32 184.178 36.16 183.175 36.72C182.195 37.28 181.11 37.56 179.92 37.56ZM185.345 26.745C183.945 26.8617 182.837 27.4217 182.02 28.425C181.203 29.405 180.795 30.5367 180.795 31.82C180.795 32.6833 181.005 33.36 181.425 33.85C181.868 34.34 182.382 34.585 182.965 34.585C183.432 34.585 183.875 34.4333 184.295 34.13C184.715 33.8267 185.065 33.395 185.345 32.835V26.745ZM197.131 36.51C197.924 36.0667 198.449 35.5067 198.706 34.83C198.986 34.1533 199.126 33.4067 199.126 32.59V24.155C199.126 22.5217 199.079 21.3433 198.986 20.62C198.892 19.8967 198.706 19.3833 198.426 19.08C198.169 18.7767 197.737 18.5783 197.131 18.485V17.995H207.526V20.76C208.342 19.7567 209.322 18.9983 210.466 18.485C211.632 17.9717 212.822 17.715 214.036 17.715C215.226 17.715 216.322 17.9483 217.326 18.415C218.352 18.8583 219.169 19.5233 219.776 20.41C220.406 21.2733 220.721 22.3 220.721 23.49V32.59C220.721 33.43 220.849 34.1883 221.106 34.865C221.386 35.5183 221.922 36.0667 222.716 36.51V37H210.326V36.51C211.119 36.0667 211.644 35.5067 211.901 34.83C212.181 34.1533 212.321 33.4067 212.321 32.59V23.98C212.321 22.86 212.087 22.0083 211.621 21.425C211.154 20.8183 210.571 20.515 209.871 20.515C209.031 20.515 208.249 20.9 207.526 21.67V32.59C207.526 33.43 207.654 34.1883 207.911 34.865C208.191 35.5183 208.727 36.0667 209.521 36.51V37H197.131V36.51ZM244.608 17.61C243.558 17.1433 242.729 16.91 242.123 16.91C241.819 16.91 241.563 16.9567 241.353 17.05L240.618 16.875C240.711 16.5717 240.968 16.14 241.388 15.58C241.831 15.02 242.379 14.53 243.033 14.11C243.686 13.6667 244.398 13.445 245.168 13.445C245.331 13.445 245.553 13.4683 245.833 13.515C246.579 13.655 247.139 13.935 247.513 14.355C247.886 14.775 248.073 15.2533 248.073 15.79C248.073 16.3733 247.874 16.875 247.478 17.295C247.081 17.715 246.568 17.925 245.938 17.925C245.541 17.925 245.098 17.82 244.608 17.61ZM235.333 48.2C233.886 48.2 232.393 48.0367 230.853 47.71C229.336 47.3833 228.053 46.8817 227.003 46.205C225.976 45.5283 225.463 44.7117 225.463 43.755C225.463 42.985 225.871 42.3667 226.688 41.9C227.528 41.4333 228.473 41.2 229.523 41.2C230.153 41.2 230.724 41.2933 231.238 41.48C231.774 41.69 232.183 41.9933 232.463 42.39C231.926 42.7167 231.658 43.23 231.658 43.93C231.658 44.49 231.844 45.05 232.218 45.61C232.614 46.17 233.174 46.6367 233.898 47.01C234.644 47.3833 235.519 47.57 236.523 47.57C238.249 47.57 239.754 47.2783 241.038 46.695C242.344 46.1117 242.998 45.3183 242.998 44.315C242.998 43.4983 242.344 42.8567 241.038 42.39C239.754 41.9467 237.794 41.48 235.158 40.99C233.034 40.57 231.343 40.1967 230.083 39.87C228.823 39.5433 227.738 39.0883 226.828 38.505C225.941 37.945 225.498 37.245 225.498 36.405C225.498 35.495 225.766 34.6433 226.303 33.85C226.863 33.0567 227.656 32.2283 228.683 31.365C227.283 30.7117 226.174 29.8833 225.358 28.88C224.541 27.8767 224.133 26.6867 224.133 25.31C224.133 23.4433 224.751 21.95 225.988 20.83C227.248 19.6867 228.776 18.8817 230.573 18.415C232.369 17.9483 234.178 17.715 235.998 17.715C237.724 17.715 239.486 17.9483 241.283 18.415C243.103 18.8817 244.654 19.6867 245.938 20.83C247.244 21.95 247.898 23.4433 247.898 25.31C247.898 27.0367 247.244 28.4717 245.938 29.615C244.654 30.735 243.091 31.5633 241.248 32.1C239.404 32.6133 237.654 32.87 235.998 32.87C234.924 32.87 233.781 32.765 232.568 32.555C231.378 32.345 230.269 32.03 229.243 31.61L229.068 31.855C228.904 32.1117 228.823 32.3567 228.823 32.59C228.823 33.1967 229.371 33.6517 230.468 33.955C231.564 34.235 233.303 34.515 235.683 34.795C238.203 35.0983 240.291 35.425 241.948 35.775C243.604 36.125 245.028 36.685 246.218 37.455C247.408 38.2483 248.003 39.3217 248.003 40.675C248.003 42.005 247.478 43.2417 246.428 44.385C245.401 45.5283 243.919 46.45 241.983 47.15C240.069 47.85 237.853 48.2 235.333 48.2ZM236.033 32.275C236.896 32.275 237.573 31.575 238.063 30.175C238.553 28.775 238.798 27.1183 238.798 25.205C238.798 23.3383 238.553 21.7283 238.063 20.375C237.596 19.0217 236.919 18.345 236.033 18.345C234.983 18.345 234.154 19.0333 233.548 20.41C232.964 21.7867 232.673 23.42 232.673 25.31C232.673 27.2 232.964 28.8333 233.548 30.21C234.154 31.5867 234.983 32.275 236.033 32.275Z" fill="#55B76B"/>
</svg>
