<svg width="30" height="25" viewBox="0 0 30 25" fill="none" xmlns="http://www.w3.org/2000/svg">
<path fill-rule="evenodd" clip-rule="evenodd" d="M4.5 24.4778C3.30653 24.4778 2.16193 23.9985 1.31802 23.1452C0.474106 22.2919 0 21.1346 0 19.9278V4.76118C0 3.55445 0.474106 2.39714 1.31802 1.54385C2.16193 0.690555 3.30653 0.211182 4.5 0.211182H25.5C26.6935 0.211182 27.8381 0.690555 28.682 1.54385C29.5259 2.39714 30 3.55445 30 4.76118V19.9278C30 21.1346 29.5259 22.2919 28.682 23.1452C27.8381 23.9985 26.6935 24.4778 25.5 24.4778H4.5ZM8.4375 6.61152C8.2847 6.47959 8.10725 6.38005 7.91567 6.3188C7.72409 6.25755 7.5223 6.23585 7.32227 6.25497C7.12223 6.27409 6.92804 6.33365 6.75121 6.43012C6.57438 6.52658 6.41852 6.65798 6.29288 6.81652C6.16724 6.97506 6.07438 7.15751 6.01982 7.35303C5.96525 7.54856 5.9501 7.75317 5.97524 7.95473C6.00039 8.15629 6.06533 8.35069 6.16621 8.52638C6.26709 8.70208 6.40186 8.85549 6.5625 8.97751L12.1875 13.529C12.9856 14.1751 13.9776 14.5272 15 14.5272C16.0224 14.5272 17.0144 14.1751 17.8125 13.529L23.4375 8.97903C23.5913 8.85455 23.7194 8.70065 23.8145 8.52611C23.9095 8.35158 23.9696 8.15983 23.9913 7.96182C24.013 7.7638 23.996 7.5634 23.9411 7.37205C23.8862 7.1807 23.7946 7.00215 23.6715 6.8466C23.5484 6.69105 23.3962 6.56153 23.2236 6.46546C23.0509 6.36938 22.8613 6.30863 22.6655 6.28666C22.4696 6.26469 22.2714 6.28193 22.0822 6.33741C21.8929 6.39289 21.7163 6.48552 21.5625 6.61L15.9375 11.16C15.6715 11.3754 15.3408 11.4927 15 11.4927C14.6592 11.4927 14.3285 11.3754 14.0625 11.16L8.4375 6.61V6.61152Z" fill="white"/>
</svg>
