<svg width="305" height="170" viewBox="0 0 305 170" fill="none" xmlns="http://www.w3.org/2000/svg">
<path d="M264.557 110.533C264.118 112.329 225.002 114.256 178.769 115.908C131.349 117.602 76.4493 119 48.1253 119.686C36.2293 119.974 29.0232 120.131 29.0232 120.131C30.5178 117.999 34.9679 100.282 37.2304 94.1795C42.0027 81.31 45.9106 67.9396 51.7387 55.4887C60.748 36.2358 72.4726 10.6271 96.0998 6.32776C101.496 5.34727 106.46 5.7584 111.006 7.19165C122.998 10.9558 132.144 21.7823 139.021 32.7938C144.273 41.186 148.627 50.0857 153.262 58.8211C157.636 67.0625 161.86 77.2171 171.651 80.0486C174.304 80.8165 176.704 80.4054 178.857 79.2601C184.288 76.401 188.196 68.9481 190.938 64.2649C196.54 54.6796 202.615 46.1432 213.908 43.3183C238.317 37.2167 265.222 107.762 264.557 110.533Z" fill="#55B76B"/>
<path d="M178.769 115.908C177.445 120.783 174.037 124.218 165.728 125.445C160.64 126.193 154.799 124.986 149.725 124.355C143.56 123.594 137.753 123.203 131.521 123.217C125.425 123.231 119.446 122.195 113.426 122.23C105.055 122.284 96.8063 122.497 88.4206 122.092C78.9244 121.633 69.3939 121.825 59.8911 121.853C55.6535 121.866 50.9641 122.401 46.9734 120.749C47.3096 120.372 47.7001 120.022 48.1252 119.686C50.6486 117.732 54.4881 116.498 57.21 115.024C62.222 112.322 67.1244 109.415 72.0338 106.536C86.1375 98.2601 98.3079 88.4828 106.803 74.1801C116.409 58.0194 120.859 39.74 117.609 21.0153C116.752 16.0716 114.455 10.9777 111.006 7.1925C122.998 10.9567 132.144 21.7832 139.021 32.7947C144.273 41.1869 148.627 50.0866 153.262 58.822C157.637 67.0634 161.861 77.218 171.651 80.0494C174.305 80.8173 176.705 80.4062 178.857 79.2609C179.152 86.1585 179.132 93.0767 179.31 100.118C179.468 106.165 179.934 111.602 178.769 115.908Z" fill="#A6EEB5"/>
<path d="M256.206 109.621H88.7361C105.343 104.78 120.084 82.0783 129.031 71.3C140.66 57.2923 149.443 37.3469 171.007 40.1577C171.603 40.2331 172.193 40.3291 172.769 40.4457C191.357 44.1415 200.73 66.5826 210.603 80.3983C215.937 87.8582 222.561 94.598 230.123 99.5482C234.395 102.346 238.844 104.581 243.774 105.973C246.785 106.823 255.239 107.42 256.206 109.621Z" fill="#55B76B"/>
<path d="M256.206 109.621H212.791C206.27 106.405 201.053 101.928 197.809 93.906C192.667 81.2009 191.282 67.6253 185.015 55.1258C182.252 49.6203 178.083 43.8882 172.769 40.4462C191.357 44.1419 200.73 66.5831 210.603 80.3988C215.937 87.8587 222.561 94.5985 230.123 99.5487C234.395 102.346 238.845 104.581 243.775 105.973C246.785 106.823 255.239 107.42 256.206 109.621Z" fill="#A6EEB5"/>
<path d="M302.37 163.786H0L32.0535 105.021H263.986L302.37 163.786Z" fill="white"/>
<path d="M283.172 155.1H19.198L25.2799 142.072L25.9176 140.701L32.6026 126.378L32.6368 126.303L33.2745 124.931L38.3961 113.961H257.803L264.564 124.931L265.414 126.303L267.196 129.196L274.293 140.701L275.136 142.072L283.172 155.1Z" fill="#C1FCCD"/>
<path d="M107.694 155.1H19.198L32.6026 126.378C32.7052 126.343 32.8082 126.309 32.9112 126.282C37.8548 124.89 40.4807 126.576 42.6818 130.759C45.1157 135.387 47.8722 139.899 53.4124 141.057C58.2052 142.065 61.6196 139.432 65.8225 137.615C72.1029 134.893 74.5574 136.882 79.604 140.358C85.5694 144.472 89.0455 140.125 95.134 138.63C100.859 137.224 106.276 137.588 107.407 144.245C107.839 146.789 106.899 148.497 106.687 150.979C106.536 152.817 107.043 154.003 107.694 155.1Z" fill="#A6EEB5"/>
<path d="M240.237 113.961C239.325 115.01 238.296 115.922 237.179 116.649C233.97 118.74 227.943 120.331 226.216 124.39C224.941 127.372 226.634 131.116 225.681 134.215C224.426 138.329 218.728 142.237 214.491 142.127C204.515 141.866 203.98 130.766 199.53 124.582C194.169 117.129 187.079 123.505 182.039 127.941C176.472 132.844 170.541 133.303 167.298 126.062C163.547 117.684 156.403 121.366 148.731 123.224C141.298 125.027 125.816 128.75 125.103 117.039C125.035 115.97 125.062 114.941 125.172 113.961L240.237 113.961Z" fill="#A6EEB5"/>
<path d="M283.172 155.1H235.616C235.266 154.49 234.985 153.914 234.779 153.379C232.605 147.695 236.212 143.053 242.211 143.41C247.21 143.705 251.262 147.825 256.274 148.271C262.616 148.826 262.259 143.142 263.357 138.247C263.96 135.539 265.098 131.617 267.196 129.196L283.172 155.1Z" fill="#A6EEB5"/>
<path d="M275.136 142.072L274.293 140.701H212.116C211.203 135.902 210.29 131.102 209.378 126.302H265.414L264.563 124.931H209.117C208.422 121.274 207.726 117.617 207.031 113.961H205.639C206.333 117.617 207.028 121.274 207.723 124.931H148.359C148.355 121.274 148.35 117.617 148.346 113.961H146.975C146.978 117.617 146.983 121.274 146.988 124.931H91.0798C91.7754 121.274 92.471 117.617 93.1662 113.961H91.7675C91.0728 117.617 90.3781 121.274 89.683 124.931H33.2747L32.6369 126.302H89.4222C88.5105 131.102 87.5984 135.901 86.6863 140.701H25.9178L25.28 142.072H86.4259C85.6006 146.415 84.7757 150.757 83.9508 155.1H85.3429C86.1678 150.757 86.9944 146.415 87.8202 142.072H147.008C147.013 146.415 147.019 150.757 147.024 155.1H148.395C148.391 150.757 148.385 146.415 148.38 142.072H210.981C211.806 146.415 212.631 150.757 213.456 155.1H214.854C214.027 150.757 213.203 146.415 212.377 142.072H275.136ZM88.0805 140.701C88.9935 135.902 89.9056 131.102 90.8186 126.302H146.989C146.995 131.102 147 135.901 147.006 140.701H88.0805ZM148.377 140.701C148.372 135.902 148.366 131.102 148.361 126.302H207.984C208.896 131.102 209.808 135.901 210.72 140.701H148.377Z" fill="white"/>
<path d="M81.7317 96.5266C73.4587 92.8944 70.6308 82.9506 73.4776 74.611C75.7817 67.862 77.4946 64.0773 76.7876 56.6625C76.2656 51.1886 75.5301 42.8853 79.3399 38.2073C82.2954 34.5786 87.3784 35.276 90.7879 37.5683C96.0831 41.1282 96.3912 47.2754 96.73 53.178C97.1416 60.3539 97.089 64.594 100.809 70.7193C103.405 74.995 104.761 79.3372 104.013 84.4514C102.662 93.6838 92.2948 99.8643 83.4713 97.17C82.8673 96.986 82.2875 96.7703 81.7317 96.5266Z" fill="#6AE284"/>
<path d="M82.2196 80.8087C83.6831 82.803 84.3607 85.0628 86.1043 86.8581C86.1161 88.1446 85.7059 100.423 85.6642 105.048H89.9714C89.8198 100.423 88.0166 75.7024 88.0166 75.7024C87.9986 74.9126 87.9885 74.1206 87.9763 73.3295C90.4286 69.6639 93.0935 65.7815 94.9676 61.796C95.1149 61.4826 94.7003 61.078 94.4465 61.394C92.0095 64.4315 89.9285 67.9449 87.9465 71.3558C87.847 62.5994 87.953 53.7741 87.2395 45.0712C87.2005 44.5943 86.515 44.5851 86.4909 45.0712C86.2998 48.8717 86.2664 52.6907 86.3037 56.5149C84.7394 54.1612 83.1606 51.6703 81.1896 49.7163C80.9284 49.4573 80.5453 49.7838 80.6982 50.0955C82.1135 52.9769 84.4006 55.6067 86.3282 58.1743C86.4142 64.0252 86.6333 69.8835 86.6872 75.7029C86.7161 78.8486 86.7455 81.9947 86.7744 85.1404C85.4372 83.0537 83.7103 81.0997 82.2604 79.1506C81.1273 77.6279 79.684 74.6922 77.8348 73.9037C77.6498 73.8248 77.4083 73.9966 77.535 74.1942C78.988 76.4677 80.6211 78.6303 82.2196 80.8087Z" fill="#BFE2DE"/>
<path d="M117.798 99.2812C112.199 96.8232 110.286 90.0939 112.212 84.4504C113.771 79.8832 114.931 77.3218 114.453 72.3041C114.099 68.5996 113.601 62.9805 116.18 59.8147C118.18 57.3588 121.62 57.8309 123.927 59.382C127.511 61.791 127.719 65.9509 127.948 69.9456C128.227 74.8016 128.192 77.6711 130.709 81.8166C132.466 84.7103 133.384 87.6487 132.877 91.1095C131.963 97.3575 124.947 101.54 118.976 99.7169C118.566 99.592 118.174 99.446 117.798 99.2812Z" fill="#159B9A"/>
<path d="M118.128 88.6439C119.119 89.9935 119.577 91.5227 120.757 92.7377C120.765 93.6082 120.487 101.918 120.459 105.047H123.374C123.272 101.918 122.051 85.1884 122.051 85.1884C122.039 84.6541 122.032 84.118 122.024 83.5824C123.683 81.1016 125.487 78.4744 126.755 75.7771C126.855 75.565 126.574 75.2915 126.402 75.5054C124.753 77.5606 123.345 79.9384 122.004 82.2469C121.936 76.3211 122.008 70.3487 121.525 64.4593C121.498 64.1367 121.034 64.1301 121.018 64.4593C120.889 67.0312 120.866 69.6159 120.892 72.2036C119.833 70.6108 118.764 68.9251 117.431 67.6028C117.254 67.4274 116.995 67.6483 117.098 67.8592C118.056 69.8092 119.604 71.5887 120.909 73.3266C120.967 77.2862 121.115 81.2506 121.151 85.1888C121.171 87.3176 121.191 89.4465 121.211 91.5758C120.306 90.1635 119.137 88.8412 118.156 87.5223C117.389 86.4919 116.412 84.5055 115.161 83.9716C115.036 83.9182 114.872 84.0343 114.958 84.1684C115.941 85.706 117.046 87.1699 118.128 88.6439Z" fill="#BFE2DE"/>
<path d="M237.552 114.995C227.904 110.76 224.606 99.1635 227.927 89.4384C230.613 81.5682 232.611 77.155 231.787 68.5081C231.178 62.1247 230.32 52.4421 234.763 46.987C238.209 42.7556 244.137 43.5687 248.113 46.2419C254.288 50.393 254.647 57.5615 255.042 64.445C255.522 72.8131 255.461 77.7576 259.799 84.9007C262.826 89.8868 264.408 94.9505 263.536 100.914C261.96 111.681 249.87 118.888 239.581 115.746C238.876 115.531 238.2 115.279 237.552 114.995Z" fill="#6AE284"/>
<path d="M238.121 96.6656C239.828 98.9913 240.618 101.626 242.651 103.72C242.665 105.22 242.187 119.538 242.138 124.931H247.16C246.984 119.538 244.881 90.7108 244.881 90.7108C244.86 89.79 244.848 88.8665 244.833 87.9434C247.693 83.6686 250.801 79.1414 252.987 74.4936C253.159 74.1285 252.675 73.6565 252.379 74.0251C249.537 77.567 247.11 81.6643 244.799 85.6419C244.683 75.4307 244.807 65.1394 243.975 54.9904C243.929 54.4347 243.13 54.4233 243.102 54.9904C242.879 59.4226 242.84 63.8757 242.883 68.3355C241.059 65.5904 239.218 62.6862 236.92 60.4074C236.615 60.1054 236.169 60.4863 236.347 60.8492C237.997 64.2088 240.665 67.2761 242.912 70.2701C243.012 77.0932 243.268 83.925 243.331 90.7108C243.365 94.3794 243.398 98.048 243.432 101.716C241.873 99.2832 239.859 97.004 238.168 94.7314C236.847 92.9558 235.164 89.5327 233.008 88.6131C232.792 88.5211 232.511 88.7214 232.658 88.9524C234.352 91.6032 236.256 94.1252 238.121 96.6656Z" fill="#DFF4F1"/>
<path d="M39.3289 169.265C39.144 169.293 38.938 169.32 38.7188 169.348C38.2525 169.402 37.7111 169.457 37.1076 169.498C35.9422 169.587 34.5295 169.649 32.9525 169.677C32.5479 169.684 32.1364 169.69 31.7117 169.69C30.704 169.69 29.6477 169.677 28.5506 169.649C28.2008 169.642 27.8445 169.629 27.4812 169.608C26.0619 169.56 24.5809 169.471 23.0859 169.341C22.6883 169.306 22.2838 169.272 21.8792 169.231C20.9741 169.135 20.0624 169.032 19.1573 168.908C17.8477 168.73 16.5451 168.517 15.2836 168.264C14.7695 168.168 14.2689 168.058 13.7684 167.941C6.10293 166.179 0.0964198 162.813 1.33769 156.704C2.33177 151.836 11.1013 156.196 14.8655 159.207C12.7537 156.731 11.4099 153.125 10.2786 150.197C9.16798 147.324 5.08124 137.944 7.67994 135.038C13.604 128.428 20.666 153.324 21.6399 156.382C21.5781 152.281 18.3623 131.252 26.5765 131.931C32.6926 132.432 29.8265 150.348 29.8265 154.859C29.9431 150.026 39.4736 134.654 45.8982 138.672C51.5479 142.203 41.229 154.537 39.5288 158.432C44.5478 156.231 51.7811 150.375 57.3147 156.141C65.212 164.363 43.8882 168.586 39.3289 169.265Z" fill="#55B76B"/>
<path d="M23.0857 169.34C22.6882 169.306 22.2836 169.272 21.8791 169.23C20.7066 166.241 19.6783 163.19 18.4989 160.235C16.6269 155.545 14.3367 150.896 12.8215 146.083C12.7667 145.898 13.0341 145.795 13.1301 145.953C15.5434 150.156 17.244 154.907 19.0678 159.391C20.398 162.655 21.8856 165.967 23.0857 169.34Z" fill="#BFE2DE"/>
<path d="M28.5508 169.649C28.2011 169.642 27.8447 169.629 27.4814 169.608C27.1452 166.015 26.9874 162.395 26.6994 158.816C26.4869 156.197 26.2883 153.578 26.0823 150.959C25.8833 148.36 25.52 145.7 25.6572 143.101C25.6642 142.875 26.0069 142.813 26.0547 143.046C27.1106 147.915 27.1036 153.173 27.5151 158.131C27.8307 161.95 28.2971 165.803 28.5508 169.649Z" fill="#BFE2DE"/>
<path d="M40.9123 145.713C39.4589 150.643 37.3813 155.415 35.7495 160.297C34.7213 163.368 33.8915 166.543 32.9523 169.677C32.5477 169.684 32.1361 169.69 31.7114 169.69C32.6713 166.324 33.9192 162.991 35.0368 159.755C36.6756 155.01 38.2662 150.04 40.6248 145.59C40.7067 145.425 40.9605 145.542 40.9123 145.713Z" fill="#BFE2DE"/>
<path d="M52.3356 159.179C48.8594 161.757 45.2185 164.082 41.8111 166.769C40.7552 167.599 39.7265 168.47 38.7189 169.347C38.2525 169.402 37.7112 169.457 37.1077 169.498C38.5545 168.278 40.0421 167.112 41.5166 165.974C44.8626 163.389 48.3729 160.783 52.1577 158.864C52.3628 158.761 52.5206 159.042 52.3356 159.179Z" fill="#BFE2DE"/>
<path d="M15.2834 168.264C14.7693 168.168 14.2687 168.058 13.7682 167.942C13.3088 167.469 12.8495 167.003 12.3902 166.536C9.81206 163.931 7.08318 161.408 4.69049 158.638C4.48492 158.398 4.80006 158.082 5.04025 158.288C7.81033 160.681 10.3336 163.41 12.9389 165.988C13.7134 166.749 14.4949 167.503 15.2834 168.264Z" fill="#BFE2DE"/>
<path d="M50.4259 115.967C50.3199 115.982 50.2024 115.998 50.0771 116.013C49.8106 116.045 49.5007 116.076 49.1553 116.1C48.4886 116.151 47.6804 116.186 46.7784 116.202C46.547 116.206 46.3116 116.21 46.0683 116.21C45.492 116.21 44.888 116.202 44.2603 116.186C44.0605 116.182 43.8562 116.174 43.6485 116.163C42.8367 116.135 41.9895 116.084 41.1344 116.01C40.9069 115.99 40.6755 115.97 40.444 115.947C39.9264 115.892 39.4048 115.833 38.8867 115.763C38.1377 115.661 37.3926 115.539 36.6707 115.394C36.3766 115.339 36.0904 115.277 35.8037 115.21C31.4185 114.202 27.9826 112.276 28.6927 108.781C29.2616 105.996 34.278 108.491 36.4314 110.213C35.2234 108.797 34.4546 106.734 33.8072 105.059C33.1717 103.415 30.8342 98.0501 32.3205 96.3871C35.7095 92.6063 39.7493 106.848 40.3064 108.597C40.2709 106.252 38.4313 94.2219 43.1304 94.6103C46.6289 94.8965 44.9897 105.145 44.9897 107.726C45.0563 104.961 50.5083 96.1676 54.1831 98.4656C57.4151 100.485 51.5121 107.542 50.5395 109.769C53.4103 108.511 57.5484 105.161 60.7138 108.459C65.2323 113.162 53.0343 115.578 50.4259 115.967Z" fill="#55B76B"/>
<path d="M41.1342 116.009C40.9068 115.99 40.6753 115.97 40.4439 115.947C39.7733 114.237 39.1851 112.491 38.5101 110.801C37.4394 108.118 36.1293 105.459 35.2623 102.705C35.2307 102.599 35.3837 102.54 35.4389 102.631C36.8196 105.035 37.7922 107.753 38.8358 110.318C39.5967 112.186 40.4479 114.08 41.1342 116.009Z" fill="#BFE2DE"/>
<path d="M44.2602 116.186C44.0603 116.182 43.8561 116.174 43.6483 116.162C43.4564 114.107 43.3661 112.036 43.2013 109.989C43.0798 108.491 42.9659 106.992 42.8484 105.494C42.7345 104.007 42.5267 102.486 42.6052 100.999C42.6091 100.87 42.805 100.835 42.8326 100.968C43.4366 103.753 43.4327 106.761 43.668 109.597C43.8486 111.782 44.1151 113.986 44.2602 116.186Z" fill="#BFE2DE"/>
<path d="M51.3324 102.494C50.501 105.314 49.3127 108.044 48.3791 110.837C47.7909 112.594 47.3163 114.41 46.7789 116.202C46.5475 116.206 46.3121 116.21 46.0688 116.21C46.618 114.284 47.332 112.378 47.9711 110.527C48.9086 107.813 49.8185 104.969 51.1676 102.423C51.2145 102.329 51.3596 102.396 51.3324 102.494Z" fill="#BFE2DE"/>
<path d="M57.8665 110.197C55.878 111.672 53.7952 113.001 51.846 114.539C51.242 115.014 50.6538 115.511 50.077 116.014C49.8105 116.045 49.5007 116.076 49.1553 116.1C49.9828 115.402 50.834 114.735 51.6773 114.084C53.5913 112.605 55.5996 111.115 57.7644 110.016C57.8823 109.958 57.9722 110.119 57.8665 110.197Z" fill="#BFE2DE"/>
<path d="M36.6709 115.394C36.3768 115.339 36.0906 115.276 35.8039 115.209C35.5409 114.939 35.2784 114.672 35.0154 114.405C33.5405 112.915 31.9797 111.471 30.6109 109.886C30.493 109.749 30.6736 109.569 30.8108 109.686C32.3952 111.055 33.8386 112.617 35.3292 114.091C35.7724 114.527 36.2199 114.958 36.6709 115.394Z" fill="#BFE2DE"/>
<path d="M225.266 132.422C225.16 132.438 225.042 132.454 224.917 132.469C224.65 132.501 224.34 132.532 223.995 132.556C223.328 132.606 222.52 132.642 221.618 132.658C221.387 132.662 221.151 132.666 220.908 132.666C220.332 132.666 219.727 132.658 219.1 132.642C218.9 132.638 218.696 132.63 218.488 132.618C217.676 132.591 216.829 132.54 215.974 132.465C215.746 132.446 215.515 132.426 215.284 132.403C214.766 132.348 214.244 132.289 213.726 132.218C212.977 132.116 212.232 131.995 211.51 131.85C211.216 131.795 210.93 131.732 210.643 131.665C206.258 130.657 202.822 128.732 203.532 125.237C204.101 122.452 209.118 124.947 211.271 126.668C210.063 125.253 209.294 123.189 208.647 121.515C208.011 119.871 205.674 114.506 207.16 112.843C210.549 109.062 214.589 123.303 215.146 125.053C215.11 122.707 213.271 110.678 217.97 111.066C221.468 111.352 219.829 121.601 219.829 124.182C219.895 121.416 225.348 112.623 229.023 114.921C232.255 116.941 226.352 123.997 225.379 126.225C228.25 124.966 232.388 121.616 235.553 124.915C240.072 129.618 227.874 132.034 225.266 132.422Z" fill="#55B76B"/>
<path d="M215.974 132.465C215.747 132.446 215.515 132.426 215.284 132.403C214.613 130.692 214.025 128.947 213.35 127.257C212.279 124.574 210.969 121.914 210.103 119.161C210.071 119.055 210.224 118.996 210.279 119.087C211.66 121.491 212.633 124.209 213.676 126.774C214.437 128.641 215.288 130.536 215.974 132.465Z" fill="#BFE2DE"/>
<path d="M219.1 132.642C218.9 132.638 218.696 132.63 218.488 132.618C218.296 130.563 218.206 128.492 218.041 126.445C217.92 124.947 217.806 123.448 217.689 121.95C217.575 120.464 217.367 118.942 217.445 117.455C217.449 117.326 217.645 117.29 217.673 117.424C218.277 120.209 218.273 123.217 218.508 126.052C218.688 128.237 218.955 130.442 219.1 132.642Z" fill="#BFE2DE"/>
<path d="M226.172 118.949C225.341 121.769 224.152 124.499 223.219 127.292C222.631 129.049 222.156 130.865 221.618 132.658C221.387 132.662 221.152 132.666 220.908 132.666C221.458 130.74 222.171 128.833 222.811 126.982C223.748 124.268 224.658 121.424 226.007 118.879C226.055 118.785 226.2 118.852 226.172 118.949Z" fill="#BFE2DE"/>
<path d="M232.707 126.653C230.718 128.127 228.635 129.457 226.686 130.994C226.082 131.469 225.494 131.967 224.917 132.469C224.651 132.501 224.341 132.532 223.995 132.556C224.823 131.857 225.674 131.191 226.517 130.539C228.431 129.061 230.44 127.57 232.605 126.472C232.722 126.414 232.812 126.574 232.707 126.653Z" fill="#BFE2DE"/>
<path d="M211.511 131.849C211.217 131.795 210.931 131.732 210.644 131.665C210.381 131.394 210.119 131.128 209.856 130.861C208.381 129.37 206.82 127.927 205.451 126.342C205.334 126.205 205.514 126.024 205.651 126.142C207.235 127.511 208.679 129.072 210.169 130.547C210.613 130.983 211.06 131.414 211.511 131.849Z" fill="#BFE2DE"/>
<path d="M197.917 106.443C197.844 106.454 197.762 106.465 197.676 106.476C197.492 106.497 197.278 106.519 197.04 106.535C196.581 106.57 196.024 106.595 195.402 106.605C195.243 106.608 195.08 106.611 194.912 106.611C194.515 106.611 194.099 106.605 193.666 106.594C193.528 106.592 193.388 106.586 193.244 106.578C192.685 106.559 192.101 106.524 191.511 106.473C191.354 106.459 191.195 106.445 191.035 106.429C190.678 106.391 190.319 106.351 189.962 106.302C189.446 106.231 188.932 106.148 188.434 106.048C188.231 106.01 188.034 105.967 187.837 105.921C184.814 105.226 182.445 103.898 182.935 101.489C183.327 99.5693 186.785 101.289 188.27 102.476C187.437 101.5 186.907 100.078 186.461 98.9232C186.023 97.7902 184.411 94.0913 185.436 92.9452C187.772 90.3386 190.557 100.156 190.941 101.362C190.916 99.7455 189.648 91.4528 192.888 91.7206C195.299 91.9178 194.169 98.9833 194.169 100.762C194.215 98.8561 197.974 92.794 200.507 94.3784C202.735 95.7709 198.666 100.635 197.995 102.171C199.974 101.303 202.827 98.9942 205.009 101.268C208.123 104.51 199.715 106.175 197.917 106.443Z" fill="#55B76B"/>
<path d="M191.511 106.473C191.354 106.459 191.195 106.446 191.035 106.43C190.573 105.251 190.167 104.047 189.702 102.882C188.964 101.033 188.061 99.1994 187.463 97.3015C187.442 97.2283 187.547 97.188 187.585 97.2503C188.537 98.9079 189.207 100.782 189.927 102.55C190.451 103.837 191.038 105.143 191.511 106.473Z" fill="#BFE2DE"/>
<path d="M193.666 106.594C193.528 106.592 193.388 106.586 193.244 106.578C193.112 105.161 193.05 103.733 192.936 102.322C192.852 101.289 192.774 100.256 192.693 99.2237C192.614 98.199 192.471 97.1497 192.525 96.1254C192.528 96.036 192.663 96.0119 192.682 96.1039C193.098 98.0237 193.096 100.097 193.258 102.053C193.382 103.558 193.566 105.078 193.666 106.594Z" fill="#BFE2DE"/>
<path d="M198.541 97.1554C197.968 99.0993 197.149 100.981 196.505 102.906C196.1 104.118 195.773 105.37 195.402 106.605C195.243 106.608 195.08 106.611 194.913 106.611C195.291 105.283 195.783 103.969 196.224 102.693C196.87 100.821 197.498 98.8613 198.428 97.1064C198.46 97.0419 198.56 97.0879 198.541 97.1554Z" fill="#BFE2DE"/>
<path d="M203.046 102.465C201.675 103.482 200.239 104.399 198.895 105.459C198.479 105.786 198.074 106.129 197.676 106.476C197.492 106.497 197.279 106.519 197.041 106.535C197.611 106.054 198.198 105.594 198.779 105.145C200.099 104.126 201.483 103.098 202.976 102.341C203.057 102.301 203.119 102.412 203.046 102.465Z" fill="#BFE2DE"/>
<path d="M188.435 106.048C188.232 106.011 188.034 105.967 187.837 105.921C187.656 105.734 187.475 105.551 187.294 105.367C186.277 104.339 185.201 103.344 184.257 102.252C184.176 102.157 184.301 102.033 184.395 102.114C185.487 103.058 186.482 104.134 187.51 105.151C187.815 105.451 188.123 105.749 188.435 106.048Z" fill="#BFE2DE"/>
<path d="M302.281 154.832C299.058 159.536 294.547 162.827 289.164 164.664C287.608 165.192 286.01 165.604 284.406 165.94C283.885 166.042 283.357 166.139 282.836 166.221C280.951 166.543 279.051 166.762 277.138 166.92C276.816 166.948 276.487 166.975 276.165 166.996C275.794 167.023 275.424 167.05 275.047 167.071C274.67 167.099 274.3 167.126 273.923 167.146C273.8 167.153 273.683 167.16 273.56 167.167C273.004 167.201 272.373 167.235 271.681 167.27C271.304 167.29 270.913 167.304 270.501 167.324C270.159 167.338 269.795 167.352 269.425 167.366C267.485 167.434 265.249 167.482 262.898 167.434C262.322 167.42 261.739 167.4 261.156 167.372C250.392 166.926 238.153 164.3 240.628 153.707C242.013 147.762 260.662 157.526 264.221 159.165C259.586 156.333 255.362 152.85 252.277 148.325C250.392 145.541 245.229 137.498 248.657 134.235C251.084 131.924 254.341 134.749 256.192 136.415C261.355 141.043 266.525 148.201 269.137 154.667C268.85 150.697 260.69 120.179 269.796 121.858C274.623 122.75 275.233 133 275.645 136.257C276.447 142.497 276.365 148.75 276.309 155.023C277.736 149.216 282.268 125.691 291.682 127.632C299.998 129.352 287.143 149.607 285.977 153.693C290.715 150.752 294.849 144.163 301.651 145.472C307.074 146.515 304.304 151.87 302.281 154.832Z" fill="#55B76B"/>
<path d="M262.898 167.434C262.322 167.421 261.739 167.4 261.156 167.373C259.902 166.502 258.633 165.652 257.338 164.822C253.354 162.272 249.021 160.242 245.071 157.671C244.811 157.499 244.975 157.026 245.291 157.143C249.672 158.781 253.861 161.551 257.79 164.047C259.511 165.138 261.225 166.262 262.898 167.434Z" fill="#BFE2DE"/>
<path d="M271.681 167.27C271.304 167.291 270.913 167.304 270.502 167.325C268.836 164.006 267.231 160.653 265.373 157.465C263.453 154.181 261.328 151.027 259.133 147.921C257.008 144.904 254.629 142.038 252.654 138.932C252.524 138.727 252.825 138.494 252.983 138.672C255.479 141.415 257.646 144.521 259.826 147.517C262.006 150.5 264.07 153.578 265.955 156.753C267.992 160.181 269.843 163.719 271.681 167.27Z" fill="#BFE2DE"/>
<path d="M275.047 167.071C274.67 167.099 274.3 167.126 273.923 167.146C273.368 162.031 272.97 156.889 272.415 151.815C271.53 143.711 270.454 135.6 269.878 127.468C269.857 127.16 270.303 127.146 270.344 127.441C271.606 135.497 272.346 143.656 273.237 151.76C273.793 156.841 274.513 161.956 275.047 167.071Z" fill="#BFE2DE"/>
<path d="M288.959 134.414C287.8 137.54 286.223 140.53 284.941 143.608C283.686 146.611 282.507 149.642 281.424 152.714C279.778 157.376 278.345 162.12 277.139 166.92C276.816 166.948 276.487 166.975 276.165 166.996C277.419 161.984 278.915 157.04 280.663 152.172C281.739 149.176 282.905 146.207 284.173 143.286C285.497 140.249 286.806 137.053 288.609 134.263C288.719 134.091 289.035 134.201 288.959 134.414Z" fill="#BFE2DE"/>
<path d="M298.695 150.842C293.827 155.861 288.836 160.667 284.406 165.94C283.885 166.042 283.357 166.139 282.836 166.221C287.485 160.482 292.991 155.346 298.496 150.649C298.634 150.54 298.818 150.718 298.695 150.842Z" fill="#BFE2DE"/>
<path d="M108.7 6.38345C108.7 8.91202 105.417 14.3803 103.56 17.2713C102.977 18.1777 101.656 18.1777 101.074 17.2713C99.2164 14.3803 95.9331 8.91202 95.9331 6.38345C95.9331 2.85774 98.7913 0 102.317 0C105.842 0 108.7 2.85818 108.7 6.38345Z" fill="#E5867F"/>
<path d="M102.316 10.6395C104.432 10.6395 106.146 8.92464 106.146 6.80921C106.146 4.69378 104.432 2.97888 102.316 2.97888C100.201 2.97888 98.4858 4.69378 98.4858 6.80921C98.4858 8.92464 100.201 10.6395 102.316 10.6395Z" fill="white"/>
<path d="M82.0171 136.913C82.0171 139.441 78.7338 144.91 76.8767 147.801C76.2942 148.707 74.9732 148.707 74.3907 147.801C72.5336 144.91 69.2502 139.441 69.2502 136.913C69.2502 133.387 72.1084 130.529 75.6337 130.529C79.1594 130.529 82.0171 133.387 82.0171 136.913Z" fill="#F2998F"/>
<path d="M77.0985 140.873C79.0546 140.067 79.9875 137.829 79.1822 135.873C78.3768 133.917 76.1382 132.984 74.182 133.789C72.2259 134.594 71.293 136.833 72.0983 138.789C72.9037 140.745 75.1423 141.678 77.0985 140.873Z" fill="white"/>
<path d="M38.7452 119.39C38.7452 120.953 36.7159 124.333 35.568 126.12C35.2081 126.68 34.3915 126.68 34.0313 126.12C32.8833 124.333 30.854 120.953 30.854 119.39C30.854 117.212 32.6204 115.445 34.7996 115.445C36.9789 115.445 38.7452 117.212 38.7452 119.39Z" fill="#F2998F"/>
<path d="M37.1669 119.654C37.1669 120.961 36.1071 122.021 34.7996 122.021C33.4922 122.021 32.4324 120.961 32.4324 119.654C32.4324 118.346 33.4922 117.286 34.7996 117.286C36.1071 117.286 37.1669 118.346 37.1669 119.654Z" fill="white"/>
<path d="M240.364 136.046C240.364 137.608 238.335 140.989 237.187 142.775C236.827 143.335 236.011 143.335 235.65 142.775C234.502 140.988 232.473 137.608 232.473 136.046C232.473 133.867 234.24 132.1 236.419 132.1C238.598 132.1 240.364 133.867 240.364 136.046Z" fill="#E5867F"/>
<path d="M238.786 136.309C238.786 137.617 237.726 138.677 236.419 138.677C235.112 138.677 234.052 137.617 234.052 136.309C234.052 135.002 235.112 133.942 236.419 133.942C237.726 133.942 238.786 135.002 238.786 136.309Z" fill="white"/>
<path d="M220.778 55.1268C220.778 56.3488 219.191 58.9922 218.293 60.3895C218.012 60.8278 217.373 60.8278 217.092 60.3895C216.194 58.9922 214.607 56.3493 214.607 55.1268C214.607 53.4227 215.989 52.0416 217.692 52.0416C219.397 52.0416 220.778 53.4227 220.778 55.1268Z" fill="#F2998F"/>
<path d="M219.544 55.3327C219.544 56.3553 218.716 57.1841 217.693 57.1841C216.67 57.1841 215.842 56.3553 215.842 55.3327C215.842 54.3102 216.67 53.4813 217.693 53.4813C218.716 53.4813 219.544 54.3102 219.544 55.3327Z" fill="white"/>
<path d="M133.748 49.4187C133.62 47.7212 133.549 45.9215 133.277 44.2134L143.375 35.3137C142.02 29.7323 138.076 30.6374 138.076 30.6374C125.073 33.766 122.092 38.856 121.631 39.8264C121.607 39.8571 121.583 39.8869 121.559 39.918C120.265 41.5897 119.752 43.854 119.647 46.1297C119.466 50.067 119.991 53.9941 119.959 57.9297C119.933 61.0754 119.675 64.1676 119.539 67.305C119.41 70.2898 119.37 73.4364 120.894 75.8764C122.707 78.7806 126.279 78.9533 129.07 78.984C130.269 78.9972 131.608 78.5943 132.556 77.6279C133.655 76.508 134.018 74.2135 134.181 72.5655C134.557 68.7601 134.28 64.6563 134.163 60.8413C134.045 57.0276 134.036 53.2254 133.748 49.4187Z" fill="#F2998F"/>
<path d="M120.043 61.0325C120.043 61.0325 119.422 65.9262 119.418 70.6612C119.417 71.9362 120.222 73.0122 121.297 73.1661C122.935 73.4006 125.49 73.7021 128.194 73.7762C129.677 73.8169 130.942 72.5257 131.128 70.7922C131.339 68.8264 131.494 65.6036 131.383 60.3531L120.043 61.0325Z" fill="#E5867F"/>
<path d="M120.957 58.7366C122.312 58.8523 126.47 59.1421 130.929 58.8037C131.603 58.7524 132.109 59.5475 131.9 60.3338C131.479 61.9192 130.376 64.0695 127.494 63.9739C127.494 63.9739 123.743 64.1137 119.85 63.5865C119.46 63.5339 119.129 63.2021 119.028 62.7383C118.877 62.0375 118.96 60.8545 120.165 59.1403C120.362 58.8607 120.656 58.7108 120.957 58.7366Z" fill="white"/>
<path d="M180.449 40.8222C176.636 43.5423 171.525 46.177 167.508 48.7446C166.926 49.1158 166.252 49.5786 165.618 49.3073C165.196 49.1268 164.954 48.6889 164.743 48.2808C162.166 43.2894 159.634 37.7572 156.003 33.4031C155.526 34.0123 154.788 34.4142 153.975 34.4296C152.79 34.4519 151.87 34.6115 150.881 35.1966C150.241 35.5762 149.904 36.149 149.71 36.7881C149.642 37.0143 149.586 37.2439 149.537 37.4749C149.524 37.5363 149.459 37.9399 149.433 38.0833C149.42 38.2384 149.378 38.643 149.373 38.7057C149.353 38.9529 149.336 39.2005 149.319 39.4481C149.268 40.1792 149.21 40.9108 149.122 41.6384C150.844 46.429 152.968 51.1035 156.088 55.1105C157.701 57.1832 159.713 59.1429 162.269 59.7464C167.019 60.868 172.733 57.5141 176.478 54.9343C178.459 53.5698 180.316 52.0055 182.047 50.2966C183.051 49.306 184.323 48.0016 185.244 46.9203C185.677 46.4119 181.049 40.3944 180.449 40.8222Z" fill="#BFE2DE"/>
<path d="M157.848 125.885C157.848 125.885 159.216 137.181 158.18 141.307L165.226 140.354L166.558 126.62C166.558 126.62 162.668 123.798 157.848 125.885Z" fill="#FFBDBB"/>
<path d="M177.682 152.805C176.079 153.321 172.039 154.14 166.975 151.619C166.87 151.564 166.761 151.523 166.644 151.494C165.762 151.268 161.733 150.261 159.455 150.143C159.455 150.143 157.415 149.719 155.851 149.032C155.396 148.832 155.135 148.35 155.209 147.861C155.266 147.465 155.357 146.948 155.489 146.373C155.811 144.96 156.393 143.191 157.392 141.972C157.392 141.972 157.628 140.91 158.025 140.228C158.148 140.019 158.417 139.954 158.626 140.075C159.184 140.399 160.431 140.915 162.208 140.443L165.165 139.635C165.473 139.553 165.768 139.804 165.734 140.124L165.67 140.693L172.21 147.781L176.977 149.062C177.218 149.127 177.421 149.287 177.541 149.506C177.688 149.773 177.893 150.175 178.068 150.634C178.195 150.961 178.307 151.313 178.373 151.664C178.468 152.163 178.168 152.649 177.682 152.805Z" fill="#E5867F"/>
<path d="M177.682 152.805C176.079 153.321 172.039 154.14 166.975 151.619C166.87 151.564 166.761 151.523 166.644 151.494C165.762 151.268 161.733 150.261 159.455 150.143C159.455 150.143 157.415 149.719 155.851 149.032C155.396 148.832 155.135 148.35 155.209 147.861C155.266 147.465 155.357 146.948 155.489 146.373C155.999 147.47 157.829 148.028 158.792 148.323C160.846 148.957 162.989 148.857 165.05 149.415C166.843 149.905 168.518 150.731 170.328 151.181C172.371 151.692 174.674 151.989 176.715 151.305C176.782 151.283 177.58 150.925 178.069 150.632C178.196 150.959 178.307 151.311 178.374 151.662C178.468 152.163 178.168 152.649 177.682 152.805Z" fill="white"/>
<path d="M167.154 142.091C166.657 142.355 166.121 142.549 165.582 142.707C165.111 142.846 164.542 142.893 164.117 143.138C163.914 143.254 163.905 143.579 164.15 143.657C164.673 143.825 165.318 143.652 165.827 143.49C166.413 143.304 166.93 143.022 167.451 142.696C167.81 142.471 167.544 141.884 167.154 142.091Z" fill="white"/>
<path d="M168.483 143.666C167.986 143.93 167.451 144.123 166.911 144.282C166.441 144.42 165.872 144.468 165.446 144.712C165.244 144.829 165.235 145.153 165.479 145.232C166.002 145.4 166.648 145.226 167.156 145.065C167.743 144.878 168.26 144.596 168.78 144.271C169.14 144.045 168.874 143.458 168.483 143.666Z" fill="white"/>
<path d="M169.843 145.095C169.426 145.373 168.967 145.594 168.501 145.784C168.094 145.95 167.589 146.046 167.234 146.3C167.066 146.421 167.095 146.704 167.323 146.749C167.812 146.844 168.372 146.63 168.81 146.44C169.316 146.222 169.748 145.926 170.178 145.592C170.476 145.362 170.17 144.877 169.843 145.095Z" fill="white"/>
<path d="M139.668 125.903C139.668 125.903 140.451 137.254 139.203 141.321L146.29 140.733L148.329 127.087C148.329 127.087 144.59 124.067 139.668 125.903Z" fill="#FFBDBB"/>
<path d="M158.085 153.812C156.457 154.245 152.381 154.854 147.454 152.074C147.352 152.014 147.245 151.968 147.13 151.933C146.261 151.661 142.29 150.448 140.02 150.213C140.02 150.213 138.005 149.684 136.478 148.916C136.035 148.693 135.799 148.199 135.898 147.713C135.975 147.321 136.092 146.809 136.255 146.242C136.65 144.847 137.322 143.111 138.383 141.944C138.383 141.944 138.673 140.896 139.105 140.236C139.239 140.034 139.51 139.983 139.713 140.114C140.253 140.467 141.471 141.046 143.271 140.667L146.266 140.012C146.578 139.947 146.86 140.212 146.809 140.53L146.716 141.094L152.881 148.511L157.575 150.037C157.813 150.114 158.007 150.284 158.115 150.508C158.249 150.784 158.432 151.195 158.584 151.662C158.694 151.996 158.787 152.353 158.835 152.707C158.904 153.211 158.578 153.682 158.085 153.812Z" fill="#E5867F"/>
<path d="M158.085 153.811C156.457 154.244 152.381 154.854 147.454 152.074C147.352 152.014 147.245 151.967 147.13 151.933C146.261 151.661 142.29 150.447 140.02 150.213C140.02 150.213 138.005 149.683 136.478 148.916C136.035 148.693 135.799 148.199 135.898 147.713C135.975 147.321 136.092 146.809 136.255 146.242C136.708 147.364 138.506 148.015 139.453 148.36C141.47 149.099 143.617 149.11 145.646 149.774C147.411 150.355 149.041 151.267 150.825 151.81C152.839 152.426 155.124 152.842 157.197 152.265C157.266 152.246 158.081 151.93 158.584 151.663C158.694 151.996 158.787 152.353 158.836 152.707C158.904 153.211 158.578 153.682 158.085 153.811Z" fill="white"/>
<path d="M148.125 142.568C147.615 142.806 147.07 142.972 146.523 143.102C146.046 143.216 145.476 143.234 145.038 143.456C144.83 143.562 144.804 143.885 145.044 143.976C145.558 144.171 146.212 144.031 146.728 143.896C147.323 143.74 147.854 143.485 148.391 143.187C148.761 142.981 148.525 142.381 148.125 142.568Z" fill="white"/>
<path d="M149.371 144.209C148.861 144.447 148.316 144.613 147.769 144.743C147.292 144.857 146.721 144.875 146.284 145.097C146.075 145.203 146.05 145.526 146.29 145.617C146.804 145.812 147.457 145.672 147.974 145.537C148.569 145.382 149.1 145.126 149.636 144.828C150.007 144.622 149.772 144.022 149.371 144.209Z" fill="white"/>
<path d="M150.655 145.708C150.225 145.964 149.755 146.16 149.279 146.326C148.864 146.471 148.355 146.541 147.987 146.776C147.813 146.888 147.827 147.172 148.053 147.229C148.537 147.349 149.107 147.165 149.554 146.998C150.071 146.805 150.517 146.532 150.964 146.221C151.273 146.006 150.992 145.506 150.655 145.708Z" fill="white"/>
<path d="M159.948 67.8002C159.948 67.8002 170.328 101.491 166.504 132.997C166.504 132.997 157.581 133.726 156.488 132.997C156.488 132.997 156.124 92.7501 151.207 84.919L149.204 85.1009L151.571 111.325C151.571 111.325 151.207 127.352 147.383 133.908L138.641 131.54L140.462 111.872L134.817 86.922C134.817 86.922 129.9 76.7236 133.724 69.0748L159.948 67.8002Z" fill="#02625E"/>
<path d="M156.423 131.471C158.038 131.317 162.356 130.996 166.635 131.448C167.13 131.501 167.53 131.883 167.596 132.376C167.688 133.078 167.711 134.176 167.321 135.497C167.185 135.959 166.769 136.282 166.288 136.288C164.451 136.31 159.694 136.314 156.449 135.841C156.021 135.778 155.681 135.451 155.602 135.025C155.472 134.329 155.339 133.23 155.537 132.255C155.624 131.828 155.988 131.512 156.423 131.471Z" fill="#59B7B7"/>
<path d="M138.113 131.102C139.729 130.93 144.053 130.558 148.346 130.961C148.842 131.007 149.249 131.385 149.32 131.878C149.421 132.577 149.457 133.675 149.08 135.002C148.949 135.465 148.536 135.792 148.054 135.804C146.213 135.847 141.447 135.906 138.19 135.472C137.759 135.414 137.415 135.092 137.331 134.666C137.193 133.972 137.047 132.874 137.234 131.897C137.316 131.468 137.677 131.149 138.113 131.102Z" fill="#59B7B7"/>
<path d="M161.223 70.7141C145.561 74.7206 133.177 71.9891 133.177 71.9891C132.383 71.2479 132.236 69.9076 132.425 68.3797C132.887 64.6462 135.362 59.7876 135.362 59.7876L135.238 58.7988L132.747 38.8608L132.448 36.4769L135.513 35.1204L138.547 33.7765L145.196 30.832C147.839 30.466 150.245 30.8811 152.1 31.4531C152.239 31.4952 152.373 31.5386 152.504 31.5824C154.568 32.2705 155.85 33.1086 155.85 33.1086C158.035 35.6582 159.31 43.8531 159.31 43.8531L160.05 52.9497L161.132 66.253C162.953 69.8945 161.223 70.7141 161.223 70.7141Z" fill="#D3EFEB"/>
<path d="M144.468 52.5026C144.468 52.5026 144.295 66.0409 132.425 68.3793C132.887 64.6458 135.362 59.7872 135.362 59.7872L135.238 58.7984C139.079 55.974 142.782 50.188 134.087 39.7546L132.747 38.8605L130.809 37.5692C130.809 37.5692 130.214 37.1213 133.876 35.0122C134.319 34.7571 134.927 34.8719 135.513 35.1195C136.007 35.3251 136.482 35.6275 136.826 35.8844C139.598 37.9444 145.464 42.9704 144.468 52.5026Z" fill="#59B7B7"/>
<path d="M151.771 40.472C151.414 41.3824 150.467 41.929 149.503 41.7633C143.497 40.7214 139.912 35.9737 138.548 33.7756L145.197 30.8311C148.036 30.4375 150.602 30.946 152.505 31.5815C153.093 35.9645 152.394 38.8801 151.771 40.472Z" fill="#FFBDBB"/>
<path d="M153.756 31.9389C153.576 31.9639 157.944 40.8469 160.13 52.8665C160.13 52.8665 160.13 35.6631 156.67 33.1802C156.67 33.1802 155.031 31.7618 153.756 31.9389Z" fill="#59B7B7"/>
<path d="M165.23 31.7415C165.23 31.7415 189.087 29.1918 196.189 23.7284C196.189 23.7284 196.554 46.3106 194.732 59.2406C194.732 59.2406 183.988 64.8859 163.044 65.9791L165.23 31.7415Z" fill="white"/>
<path d="M167.051 33.1985C167.051 33.1985 165.958 57.9662 165.411 63.7938C165.411 63.7938 185.262 62.5193 193.275 57.6019C193.275 57.6019 195.278 37.7516 194.55 27.189C194.55 27.189 184.534 32.2877 167.051 33.1985Z" fill="#BFE2DE"/>
<path d="M161.01 60.1965C161.439 60.1965 161.843 60.1728 162.26 60.1272C164.616 59.8695 167.067 58.8023 169.146 57.7139C169.391 57.586 171.575 56.4832 170.364 56.2211C169.592 56.0541 168.851 56.3885 168.098 56.4613C168.678 55.9103 169.572 55.5886 170.225 55.0911C170.553 54.8422 171.749 54.0396 171.694 53.5733C171.584 52.6318 167.972 54.7313 167.554 54.8751C168.433 54.2575 169.385 53.597 170.175 52.8646C170.463 52.5981 171.635 51.4537 171.211 50.9825C170.836 50.5661 169.489 51.6798 169.198 51.9012C168.7 52.2803 168.178 52.6178 167.681 53.0009C167.386 53.2288 167.088 53.5163 166.726 53.6219C167.4 52.7462 168.276 52.034 168.869 51.0776C169.02 50.8348 169.792 49.4633 169.032 49.4063C168.794 49.3884 168.436 49.7907 168.264 49.9266C167.882 50.2277 167.473 50.4947 167.089 50.7962C166.511 51.2512 164.396 52.4832 164.122 52.7957C164.043 51.9367 164.3 50.9842 164.082 50.1436C163.345 50.7747 162.522 51.3042 161.792 51.9485C161.131 52.5319 158.992 54.872 158.934 55.3199C158.969 55.2923 158.925 55.3015 158.961 55.2875C159.285 56.5954 159.781 57.7468 160.333 58.971C160.506 59.3519 160.732 59.8914 161.01 60.1965Z" fill="#FFBDBB"/>
<path d="M134.384 36.6991C133.438 36.3305 132.339 36.3555 131.417 36.7833C130.067 37.4087 129.196 38.799 128.843 40.2437C128.491 41.6888 128.587 43.2009 128.711 44.6828C129.192 50.4281 130.092 56.222 132.441 61.4869C133.511 63.8858 134.995 66.2697 137.333 67.468C141.676 69.6942 148.026 67.8055 152.281 66.1969C154.53 65.3462 156.708 64.2723 158.799 63.0271C160.011 62.3052 161.557 61.3432 162.71 60.5143C163.253 60.1242 160.199 53.1736 159.514 53.4454C155.161 55.1736 149.568 56.5082 145.053 58.0392C144.4 58.2606 143.634 58.5485 143.083 58.1335C142.716 57.8569 142.587 57.3739 142.479 56.9273C141.12 51.2508 139.954 45.0164 137.262 39.7944C136.666 38.6386 135.917 37.4855 134.769 36.8749C134.644 36.8092 134.515 36.7504 134.384 36.6991Z" fill="#BFE2DE"/>
<path d="M195.703 41.879C196.763 41.7611 196.893 43.0852 196.33 43.6896C196.953 43.8185 196.685 44.9182 196.394 45.2342C197.213 45.7882 196.727 46.7152 196.077 47.1145C196.338 47.3981 196.406 48.198 196.402 48.5841C196.396 49.1456 196.2 49.416 195.61 49.5576C194.851 49.7399 189.729 49.3968 190.377 48.3286C190.706 47.786 192.631 47.8403 193.185 47.7667C192.703 47.6019 189.814 47.0198 190.39 45.9741C190.747 45.3254 192.716 45.9171 193.318 45.8851C192.622 45.9109 190.163 44.8774 190.539 43.7856C190.782 43.0773 193.147 43.5077 193.656 43.6418C193.063 43.3977 190.449 41.7348 192.64 41.7549C193.785 41.7659 194.918 41.8895 195.703 41.879Z" fill="#FFBDBB"/>
<path d="M134.452 8.67148C133.097 10.337 130.872 10.5027 130.446 13.0431C130.151 14.8042 130.819 16.8248 131.461 18.4009C133.473 23.3362 139.381 27.9985 144.44 27.5185C144.808 22.0516 142.582 15.0427 140.129 10.2625C139.038 8.13675 137.358 7.23253 134.452 8.67148Z" fill="#06443F"/>
<path d="M150.173 24.001L149.668 32.576L149.343 38.1153C143.393 37.0081 141.732 33.8256 141.732 33.8256C141.732 33.8256 142.105 31.148 142.482 28.4095C142.866 25.6144 143.255 22.7571 143.255 22.6173L150.173 24.001Z" fill="#FFBDBB"/>
<path d="M150.173 24.001L149.668 32.576C148.291 32.3546 146.858 31.8313 145.904 31.2089C144.746 30.452 143.39 29.5 142.508 28.4402C142.499 28.4305 142.491 28.4209 142.483 28.4095C142.866 25.6144 143.255 22.7571 143.255 22.6173L150.173 24.001Z" fill="#F99595"/>
<path d="M153.736 7.91154L156.059 19.5266C156.105 19.7567 156.123 19.9916 156.11 20.2257C156.053 21.2938 155.742 24.4338 154.045 26.9711C153.059 28.446 151.298 29.2157 149.54 28.9707C146.895 28.6021 142.706 27.3889 140.176 23.4752C140.106 23.3665 140.052 23.2469 140.015 23.1228L136.715 12.3016C136.645 12.0702 136.635 11.8256 136.687 11.5893C137.193 9.28036 140.497 -2.6336 153.203 7.06298C153.477 7.27205 153.668 7.57317 153.736 7.91154Z" fill="#FFBDBB"/>
<path d="M140.418 20.4035C139.783 19.8776 139.536 19.0308 138.749 18.5828C138.015 18.1647 136.675 17.9135 135.943 18.4653C134.507 19.5493 135.807 21.7907 136.788 22.6297C137.555 23.2867 140.579 25.4984 141.27 23.7469C141.776 22.4649 140.581 21.4997 140.418 20.4035Z" fill="#FFBDBB"/>
<path d="M133.723 12.7393C134.916 12.2134 136.725 13.6861 137.968 14.088C139.772 14.6718 142.768 15.3227 144.658 14.788C147.32 14.0341 145.906 12.1529 144.209 11.1036C145.602 11.7097 148.297 13.0308 149.914 12.3199C151.163 11.7707 151.51 10.4027 150.128 9.43058C151.594 9.68435 153.575 10.5184 155.121 9.91753C157.9 8.83799 155.388 7.51256 153.806 6.92523C155.801 6.93619 160.954 3.60114 157.489 2.28316C155.619 1.57224 152.808 2.67019 150.842 2.70087C148.824 2.73243 146.787 2.51941 144.758 2.30026C143.066 2.11792 141.036 1.71074 139.328 2.10478C137.097 2.61978 134.819 4.84768 132.965 6.24411C129.85 8.59122 129.198 12.0814 133.723 12.7393Z" fill="#06443F"/>
<path d="M143.155 17.0474C143.15 16.9238 143.286 16.713 143.37 16.6499C143.942 16.2203 144.929 16.3198 145.425 16.8248C145.946 17.3547 146.038 18.208 146 18.9146C145.976 19.3472 145.617 19.7066 145.175 19.6943C144.721 19.6821 144.407 19.3042 144.395 18.8694C144.382 18.3829 144.334 17.9994 144.329 17.5291C144.329 17.5247 144.33 17.5208 144.331 17.5164C144.321 17.3021 144.343 17.0996 144.42 16.9527C144.385 16.9492 144.35 16.9457 144.316 16.9444C143.984 16.9304 143.659 17.0553 143.34 17.1298C143.207 17.1609 143.158 17.1184 143.155 17.0474Z" fill="#06443F"/>
<path d="M151.03 15.3512C151.025 15.2276 151.161 15.0167 151.245 14.9536C151.817 14.5241 152.804 14.6236 153.3 15.1281C153.821 15.658 153.913 16.5114 153.875 17.2179C153.851 17.6505 153.492 18.0099 153.05 17.9976C152.596 17.9854 152.282 17.6076 152.27 17.1728C152.257 16.6862 152.209 16.3027 152.203 15.8324C152.203 15.828 152.205 15.8241 152.205 15.8197C152.195 15.6054 152.217 15.4029 152.294 15.2561C152.259 15.2526 152.224 15.249 152.19 15.2477C151.858 15.2337 151.533 15.3586 151.214 15.4331C151.082 15.4647 151.033 15.4222 151.03 15.3512Z" fill="#06443F"/>
<path d="M151.021 18.5731C150.878 18.1436 150.433 17.981 150.117 17.7088C149.577 17.2442 149.385 16.5894 149.067 15.9832C148.963 15.7851 148.707 15.9345 148.734 16.1235C148.828 16.7651 149.136 17.4414 149.581 17.9174C149.784 18.1335 150.086 18.2624 150.276 18.4789C150.891 19.1789 149.689 19.508 149.292 19.753C149.073 19.888 149.213 20.2474 149.47 20.1742C150.151 19.981 151.327 19.4988 151.021 18.5731Z" fill="#F99595"/>
<path d="M147.382 21.8162C147.382 21.8162 151.443 21.4519 153.305 19.8131C153.305 19.8131 153.812 23.4554 151.444 24.1839C151.444 24.1839 148.905 24.3658 147.382 21.8162Z" fill="white"/>
<path d="M139.274 21.2082C138.838 20.7602 138.278 20.5534 137.684 20.3956C137.288 20.2899 136.622 20.0975 136.358 20.5288C136.328 20.5779 136.356 20.652 136.413 20.6647C136.604 20.7063 136.629 20.6621 136.847 20.6537C137.117 20.6437 137.396 20.7467 137.65 20.8247C137.962 20.9207 138.261 21.0232 138.532 21.1823C138.09 21.2652 137.685 21.4738 137.361 21.8122C137.158 22.0239 137.472 22.3386 137.683 22.1343C138.091 21.7385 138.547 21.5514 139.118 21.5834C139.314 21.593 139.4 21.3379 139.274 21.2082Z" fill="#F99595"/>
<path d="M153.484 12.9212C152.356 12.7967 150.952 13.0939 150.121 13.9021C149.975 14.0433 150.167 14.3062 150.341 14.1883C151.362 13.4963 152.359 13.4669 153.536 13.3043C153.771 13.2714 153.682 12.9431 153.484 12.9212Z" fill="#06443F"/>
<path d="M141.954 15.9078C142.902 15.2846 144.288 14.9111 145.396 15.2535C145.589 15.3131 145.539 15.6348 145.33 15.6085C144.106 15.4555 143.204 15.8829 142.082 16.2725C141.858 16.3505 141.788 16.0179 141.954 15.9078Z" fill="#06443F"/>
</svg>
