<svg width="299" height="161" viewBox="0 0 299 161" fill="none" xmlns="http://www.w3.org/2000/svg">
<path d="M20.6055 159.607C20.6055 159.607 1.98036 151.065 6.03269 132.811C10.085 114.557 15.6865 109.894 13.0306 96.9529C10.3746 84.0117 -12.7822 47.5701 9.79584 27.9849C32.3739 8.39977 70.9733 7.14805 94.2243 12.9064C117.476 18.6648 125.87 1.89029 147.869 0.137572C169.869 -1.61514 187.236 13.908 201.709 16.662C216.182 19.4159 241.979 5.14484 262.948 15.1598C283.917 25.1747 297.811 42.5598 291.443 63.4106C285.074 84.2618 285.364 99.5055 291.732 108.909C298.101 118.312 305.048 142.066 286.812 159.607H20.6055Z" fill="#55B76B"/>
<path d="M84.4342 67.1681C98.778 67.1681 110.406 57.1105 110.406 44.7039C110.406 32.2973 98.778 22.2397 84.4342 22.2397C70.0905 22.2397 58.4625 32.2973 58.4625 44.7039C58.4625 57.1105 70.0905 67.1681 84.4342 67.1681Z" stroke="white" stroke-miterlimit="10" stroke-dasharray="3 4"/>
<path d="M47.7681 64.0714C55.8747 57.0596 55.8747 45.6913 47.7681 38.6796C39.6615 31.6678 26.5182 31.6678 18.4116 38.6796C10.3051 45.6913 10.3051 57.0596 18.4116 64.0714C26.5182 71.0831 39.6615 71.0831 47.7681 64.0714Z" stroke="white" stroke-miterlimit="10" stroke-dasharray="3 4"/>
<path d="M197.529 143.532C208.146 134.348 208.146 119.459 197.529 110.275C186.912 101.092 169.697 101.092 159.08 110.275C148.462 119.459 148.462 134.348 159.08 143.532C169.697 152.715 186.912 152.715 197.529 143.532Z" stroke="white" stroke-miterlimit="10" stroke-dasharray="3 4"/>
<path d="M280.459 139.498C281.713 135.023 278.535 130.515 273.361 129.43C268.187 128.345 262.976 131.094 261.721 135.569C260.467 140.045 263.645 144.552 268.819 145.637C273.993 146.722 279.204 143.973 280.459 139.498Z" stroke="white" stroke-miterlimit="10" stroke-dasharray="3 4"/>
<path d="M163.897 24.1486C165.114 19.6658 161.9 15.1781 156.717 14.125C151.534 13.0719 146.346 15.8522 145.128 20.3349C143.911 24.8177 147.125 29.3054 152.308 30.3585C157.491 31.4116 162.679 28.6313 163.897 24.1486Z" stroke="white" stroke-miterlimit="10" stroke-dasharray="3 4"/>
<path d="M141.69 135.936C143.728 128.4 138.316 120.863 129.604 119.101C120.891 117.338 112.177 122.019 110.139 129.555C108.102 137.09 113.513 144.628 122.226 146.39C130.938 148.153 139.653 143.472 141.69 135.936Z" stroke="white" stroke-miterlimit="10" stroke-dasharray="3 4"/>
<path d="M242.924 87.9456C248.061 79.6486 244.449 69.3206 234.856 64.8775C225.264 60.4344 213.323 63.5587 208.186 71.8557C203.05 80.1528 206.662 90.4808 216.254 94.9239C225.847 99.367 237.787 96.2427 242.924 87.9456Z" stroke="white" stroke-miterlimit="10" stroke-dasharray="3 4"/>
<path d="M196.521 78.5444C212.17 78.5444 224.855 67.572 224.855 54.0369C224.855 40.5017 212.17 29.5293 196.521 29.5293C180.873 29.5293 168.187 40.5017 168.187 54.0369C168.187 67.572 180.873 78.5444 196.521 78.5444Z" stroke="white" stroke-miterlimit="10" stroke-dasharray="3 4"/>
<path d="M284.445 92.0287C289.122 89.995 291.008 85.0665 288.657 81.0205C286.306 76.9746 280.608 75.3432 275.93 77.3769C271.252 79.4105 269.366 84.339 271.718 88.385C274.069 92.431 279.767 94.0623 284.445 92.0287Z" fill="#A6EEB5"/>
<path d="M280.182 79.686V84.6986L284.187 82.049" stroke="#6AE284" stroke-width="3" stroke-miterlimit="10"/>
<path d="M23.7644 141.306V143.134H21.8774V141.355C20.0091 141.257 18.2159 140.752 17.1777 140.049L18.2159 138.058C19.1594 138.662 20.5184 139.102 21.8774 139.217V136.491C19.7825 136.05 17.4422 135.446 17.4422 133.111C17.4422 131.381 18.8954 129.896 21.8774 129.602V127.79H23.7644V129.569C25.1799 129.667 26.5576 129.993 27.5958 130.565L26.6523 132.572C25.6897 132.099 24.7084 131.822 23.7644 131.724V134.499C25.8599 134.923 28.162 135.527 28.162 137.829C28.162 139.527 26.7278 140.996 23.7644 141.306ZM21.877 134.091V131.773C20.8766 131.969 20.4802 132.442 20.4802 132.981C20.4802 133.552 21.0464 133.862 21.877 134.091ZM25.1235 138.025C25.1235 137.454 24.5764 137.144 23.7644 136.899V139.152C24.708 138.972 25.1235 138.547 25.1235 138.025Z" fill="#A6EEB5"/>
<path d="M121.014 43.4112C121.014 42.2413 122.114 41.2893 123.467 41.2893C124.819 41.2893 125.92 42.241 125.92 43.4112C125.92 44.581 124.82 45.5331 123.467 45.5331C122.114 45.5331 121.014 44.581 121.014 43.4112ZM122.575 43.4112C122.575 43.8367 122.975 44.1826 123.467 44.1826C123.959 44.1826 124.359 43.8367 124.359 43.4112C124.359 42.9857 123.958 42.6398 123.467 42.6398C122.975 42.6398 122.575 42.9857 122.575 43.4112Z" fill="#A6EEB5"/>
<path d="M111.871 43.4112C111.871 42.2413 112.971 41.2893 114.323 41.2893C115.676 41.2893 116.777 42.241 116.777 43.4112C116.777 44.581 115.676 45.5331 114.323 45.5331C112.971 45.5331 111.871 44.581 111.871 43.4112ZM113.432 43.4112C113.432 43.8367 113.832 44.1826 114.324 44.1826C114.816 44.1826 115.216 43.8367 115.216 43.4112C115.216 42.9857 114.815 42.6398 114.324 42.6398C113.832 42.6398 113.432 42.9857 113.432 43.4112Z" fill="#A6EEB5"/>
<path d="M125.794 37.8102L125.186 39.6102H111.648C111.217 39.6102 110.867 39.9125 110.867 40.2855C110.867 40.6584 111.217 40.9607 111.648 40.9607H125.771C126.118 40.9607 126.423 40.7628 126.52 40.4747L131.114 26.88H134.617C135.048 26.88 135.397 26.5777 135.397 26.2048C135.397 25.8319 135.048 25.5295 134.617 25.5295H130.528C130.182 25.5295 129.877 25.7275 129.779 26.0151L128.875 28.6917H109.269C109.017 28.6917 108.781 28.7965 108.634 28.9734C108.488 29.1503 108.449 29.3775 108.53 29.5837L111.577 37.3516C111.685 37.6254 111.982 37.8098 112.316 37.8098L125.794 37.8102ZM116.713 36.4601L116.337 33.9262H118.69V36.4601H116.713ZM116.137 32.5761L115.761 30.0426H118.69V32.5761H116.137ZM120.251 30.0426H123.397L123.021 32.5761H120.251V30.0426ZM122.821 33.9262L122.445 36.4601H120.251V33.9262H122.821ZM111.882 33.9262H114.764L115.14 36.4601H112.876L111.882 33.9262ZM110.358 30.0426H114.187L114.563 32.5761H111.352L110.358 30.0426ZM128.419 30.0426L127.563 32.5761H124.595L124.971 30.0426H128.419ZM126.25 36.4601H124.019L124.395 33.9262H127.106L126.25 36.4601Z" fill="#A6EEB5"/>
<path d="M207.974 45.3716C207.974 48.9619 200.458 56.589 200.458 56.589C200.458 56.589 192.942 48.9619 192.942 45.3716C192.942 41.7813 196.307 38.8704 200.458 38.8704C204.609 38.8707 207.974 41.7813 207.974 45.3716Z" fill="#A6EEB5"/>
<path d="M204.289 45.3716C204.289 47.2021 202.574 48.6859 200.458 48.6859C198.341 48.6859 196.626 47.2021 196.626 45.3716C196.626 43.5412 198.341 42.0574 200.458 42.0574C202.574 42.0574 204.289 43.5412 204.289 45.3716Z" fill="#6AE284"/>
<path d="M188.365 128.337C194.164 127.096 224.651 103.386 227.623 95.1988C230.594 87.0117 216.152 83.599 209.525 88.698C204.311 92.71 188.792 107.902 186.974 107.902C185.156 107.902 152.242 93.3578 152.242 93.3578C152.242 93.3578 153.706 90.8285 151.275 88.4238C148.843 86.0191 147.253 84.4572 145.717 82.161C144.181 79.8649 143.278 78.0014 142.976 77.4689C142.674 76.936 140.542 78.0146 140.888 80.0827C141.234 82.1509 144.206 84.865 143.585 85.6567C142.964 86.4484 137.804 83.127 135.264 82.1911C132.725 81.2552 128.161 79.7951 127.354 80.3407C126.547 80.886 135.246 85.1046 136.917 86.445C138.587 87.7853 128.463 82.8791 126.25 82.374C124.037 81.8689 122.429 82.1641 123.482 83.1506C124.535 84.1376 134.173 87.9998 134.614 88.7171C135.056 89.4344 124.805 85.5677 123.359 86.211C121.914 86.8544 132.305 90.9055 132.983 91.6652C133.66 92.425 125.887 91.0245 125.597 91.7163C125.307 92.4081 137.376 96.9459 140.101 97.8498C142.827 98.7538 145.086 97.6801 146.147 98.6314C160.244 111.263 179.688 130.194 188.365 128.337Z" fill="#D57644"/>
<path d="M34.6463 43.0134C34.6463 43.0134 34.4292 37.3906 37.1069 35.9458C39.7846 34.5011 50.784 32.9361 57.8036 29.6189C64.8232 26.3016 72.4216 23.1094 75.6055 24.6116C78.7895 26.1138 78.9345 30.3076 77.0527 32.6233C77.0527 32.6233 83.6854 32.4982 86.8221 37.0672C89.9165 41.5754 88.5588 45.8928 87.7629 47.395C87.7629 47.395 92.6837 47.3323 95.3613 51.1505C98.039 54.9688 97.6048 59.9133 100.572 62.2294C103.539 64.5454 107.012 65.3589 105.709 69.3022C104.407 73.2455 97.3152 77.4394 86.8946 73.496C86.8946 73.496 86.8946 79.5676 78.6449 78.5033C78.6449 78.5033 77.3849 84.1366 70.525 84.825C63.6652 85.5134 59.8478 82.9427 59.8478 82.9427C59.8478 82.9427 56.2114 89.2689 47.8897 84.1362C47.8897 84.1362 43.3306 86.963 38.8441 86.1443C34.3576 85.3256 32.8379 80.3807 32.8379 80.3807C32.8379 80.3807 21.9831 79.4903 20.6805 75.0846C19.3779 70.679 25.2395 68.6134 27.1934 65.0457C29.1473 61.4779 29.3644 57.9068 28.6406 54.4971C27.9168 51.0874 26.6867 46.5184 27.1934 45.8297C27.6992 45.1417 34.6463 43.0134 34.6463 43.0134Z" fill="#881800"/>
<path d="M57.1882 33.2491C57.1882 33.2491 67.9662 29.6347 73.6937 37.4741C73.6937 37.4741 84.2168 38.3191 85.0852 47.7079C85.0852 47.7079 91.8152 49.6139 93.1177 56.7351C94.4203 63.8564 105.179 65.6072 105.179 65.6072" stroke="#BD3E00" stroke-width="0.5" stroke-miterlimit="10" stroke-linecap="round" stroke-linejoin="round"/>
<path d="M105.472 69.8824C105.472 69.8824 97.0554 66.3774 93.9149 58.991" stroke="#BD3E00" stroke-width="0.5" stroke-miterlimit="10" stroke-linecap="round" stroke-linejoin="round"/>
<path d="M85.5154 76.8107C85.5154 76.8107 78.6356 73.5543 75.9988 65.6072C75.9988 65.6072 77.0647 73.7323 81.1835 78.6059" stroke="#BD3E00" stroke-width="0.5" stroke-miterlimit="10" stroke-linecap="round" stroke-linejoin="round"/>
<path d="M47.889 84.1366C47.889 84.1366 54.1488 77.6133 54.583 67.355" stroke="#BD3E00" stroke-width="0.5" stroke-miterlimit="10" stroke-linecap="round" stroke-linejoin="round"/>
<path d="M86.7135 46.0178C86.7135 46.0178 93.8777 45.0443 96.917 50.5541C99.9564 56.0639 100.194 60.8837 105.991 62.9805" stroke="#881800" stroke-width="0.5" stroke-miterlimit="10" stroke-linecap="round" stroke-linejoin="round"/>
<path d="M54.0596 75.085C54.0596 75.085 54.9501 81.0743 54.0596 88.7687C54.0596 88.7687 57.4415 93.1503 65.5462 91.7104C73.6512 90.2709 74.2075 87.016 74.2075 87.016C74.2075 87.016 72.4781 81.1126 73.2453 75.6768L54.0596 75.085Z" fill="#D06F32"/>
<path d="M66.6321 82.8849C69.5959 82.5664 71.6909 81.4641 73.1042 80.3412C73.0117 78.8491 73.0248 77.244 73.2462 75.6768L54.0601 75.085C54.0601 75.085 54.2715 76.5121 54.3853 78.8638C57.0195 80.6079 62.0249 83.3795 66.6321 82.8849Z" fill="#A64912"/>
<path d="M53.0274 37.5353C65.032 33.198 77.4869 37.9108 81.3946 49.553C85.3024 61.1952 84.1444 72.8374 70.5398 76.5929C56.9352 80.3485 46.8037 72.2113 42.6068 61.8213C38.4095 51.4308 41.5934 41.6664 53.0274 37.5353Z" fill="#D06F32"/>
<path d="M67.3557 47.708C67.3557 47.708 67.8624 54.9686 68.1516 56.0953C68.4408 57.2219 72.2039 57.1592 73.3619 57.6602C74.5199 58.1608 72.2764 62.9807 72.2764 62.9807" stroke="#A64912" stroke-width="0.5" stroke-miterlimit="10"/>
<path d="M60.4086 65.0464C60.4086 65.0464 66.5598 69.4903 72.8556 66.048" stroke="#A64912" stroke-width="0.5" stroke-miterlimit="10"/>
<path d="M53.31 50.8068C52.7877 49.3598 53.6292 47.8065 54.6061 46.6749C55.2257 46.094 55.923 45.549 56.7919 45.2628C57.2313 45.1186 57.6598 45.0172 58.1292 44.9819C58.4183 44.9601 59.0349 44.9147 59.2902 45.0724C59.486 45.1937 59.2976 45.2381 59.1352 45.3124C58.7613 45.4833 58.3958 45.6681 58.0527 45.8829C57.2521 46.3846 56.5791 46.9911 55.9382 47.6382C55.3199 48.3075 54.7381 48.982 54.224 49.7154C54.0265 49.9971 53.8254 50.2814 53.6487 50.5732C53.6135 50.6303 53.3873 51.0892 53.31 50.8068Z" fill="#881800"/>
<path d="M68.004 43.6272C69.208 42.6035 71.4888 42.6384 72.9086 43.2487C74.361 43.8732 75.5099 44.9304 75.6736 46.3756C75.6814 46.4289 75.7526 46.9167 75.5828 46.898C75.3783 46.875 75.07 46.3898 74.9298 46.2708C74.1956 45.6466 73.4153 45.1062 72.4766 44.7254C71.5969 44.3686 70.686 44.0959 69.7286 43.9442C69.2853 43.874 68.8298 43.8143 68.3796 43.7921C68.2975 43.7865 67.7552 43.8109 68.004 43.6272Z" fill="#881800"/>
<path d="M61.106 55.8366C61.3787 56.7218 61.0361 57.5694 60.341 57.7294C59.6459 57.8894 58.8613 57.302 58.5886 56.4169C58.3159 55.5317 58.6585 54.6841 59.3536 54.5241C60.0488 54.3641 60.8334 54.9514 61.106 55.8366Z" fill="#041801"/>
<path d="M61.2372 52.9666C62.0483 54.1176 61.0106 55.9984 59.4583 56.1471C59.3125 56.161 59.8096 55.7644 59.8608 55.7152C60.1882 55.4223 60.4479 55.0618 60.6389 54.6911C60.8304 54.3535 60.9663 53.9907 61.0562 53.6234C61.0883 53.4912 61.0957 52.9857 61.2372 52.9666Z" fill="#041801"/>
<path d="M75.4666 53.4251C75.7393 54.3103 75.3967 55.1579 74.7016 55.3179C74.0064 55.4783 73.2219 54.8905 72.9492 54.0053C72.6765 53.1202 73.0191 52.2725 73.7142 52.1125C74.4094 51.9522 75.194 52.5399 75.4666 53.4251Z" fill="#041801"/>
<path d="M75.5972 50.5552C76.4083 51.7063 75.3706 53.5867 73.8183 53.7357C73.6724 53.7496 74.1696 53.3531 74.2208 53.3039C74.5482 53.0109 74.8079 52.6504 74.9989 52.2797C75.1904 51.9421 75.3263 51.5793 75.4162 51.2116C75.4487 51.0794 75.4561 50.5743 75.5972 50.5552Z" fill="#041801"/>
<path d="M55.6475 69.6506C60.0219 68.7465 62.8567 65.4387 61.9793 62.2625C61.1018 59.0862 56.8443 57.2443 52.4699 58.1484C48.0955 59.0525 45.2606 62.3602 46.1381 65.5365C47.0155 68.7127 51.273 70.5547 55.6475 69.6506Z" fill="#B75832"/>
<path d="M82.0527 51.6897C77.7034 52.6072 74.8898 55.9015 75.7643 59.0671C76.4959 61.7163 79.5813 63.4307 83.1225 63.4044C83.6588 59.7863 83.1977 55.7682 82.0527 51.6897Z" fill="#B75832"/>
<path d="M37.2154 75.085C37.2154 75.085 40.8362 75.7806 42.7436 73.9028C45.5793 71.1117 42.7436 62.1517 42.7436 62.1517C50.4427 55.7522 47.1554 46.2056 47.1554 46.2056C47.1554 46.2056 52.7374 45.1729 55.8853 41.8868C59.0332 38.6007 58.4948 34.3757 58.4948 34.3757C62.1854 32.2433 61.9175 29.5269 61.354 27.9849C60.1695 28.5118 58.9785 29.0631 57.8031 29.6185C50.7835 32.9358 39.7841 34.5007 37.1064 35.9459C34.4288 37.3906 34.6459 43.0134 34.6459 43.0134C34.6459 43.0134 27.6988 45.1417 27.1921 45.8301C26.6854 46.5185 27.9159 51.0879 28.6392 54.4975C29.363 57.9072 29.1459 61.4783 27.1921 65.0461C25.2382 68.6139 19.3766 70.6794 20.6792 75.085C21.9817 79.4907 32.8366 80.3811 32.8366 80.3811C36.8173 78.2217 37.2154 75.085 37.2154 75.085Z" fill="#BD3E00"/>
<path d="M34.6462 43.0134C34.6462 43.0134 35.763 56.4865 27.9679 63.4109" stroke="#881800" stroke-width="0.5" stroke-miterlimit="10" stroke-linecap="round" stroke-linejoin="round"/>
<path d="M22.7334 77.5247C22.7334 77.5247 32.0047 67.4159 33.0907 55.2615" stroke="#881800" stroke-width="0.5" stroke-miterlimit="10" stroke-linecap="round" stroke-linejoin="round"/>
<path d="M50.4582 43.0134C50.4582 43.0134 53.4823 56.0335 42.7434 62.1517" stroke="#BD3E00" stroke-width="0.5" stroke-miterlimit="10" stroke-linecap="round" stroke-linejoin="round"/>
<path d="M29.0742 52.0862C29.0742 52.0862 30.039 62.9517 20.4928 69.8826" stroke="#BD3E00" stroke-width="0.5" stroke-miterlimit="10" stroke-linecap="round" stroke-linejoin="round"/>
<path d="M47.1558 69.4337L42.744 62.1517C42.744 62.1517 38.1928 56.7838 34.285 60.0388C30.3768 63.2933 39.7645 73.3834 47.1558 69.4337Z" fill="#D06F32"/>
<path d="M36.5276 62.9805C35.8294 64.0404 36.0547 65.7942 36.5736 67.5135C39.3559 69.9043 43.4985 71.3877 47.1553 69.4341L42.7435 62.1521C42.7435 62.1521 38.2661 60.3426 36.5276 62.9805Z" fill="#A64912"/>
<path d="M132.715 73.8167C132.715 73.8167 130.387 72.4933 130.898 69.3292C131.408 66.1652 131.748 64.1049 131.578 61.4561C131.408 58.8073 130.982 56.8206 130.898 56.2318C130.812 55.6433 133.28 55.5344 134.3 57.4283C135.321 59.3222 134.556 63.0011 135.576 63.3692C136.597 63.7372 138.809 58.5129 140.34 56.5262C141.872 54.5395 144.764 51.155 145.785 51.2283C146.805 51.3019 142.202 58.9542 141.654 60.8672C141.106 62.7803 146.466 53.877 147.996 52.4056C149.528 50.9338 151.059 50.4189 150.804 51.7435C150.548 53.0681 144.934 60.8672 145.019 61.6769C145.104 62.4863 151.229 54.3927 152.845 54.2455C154.462 54.0983 148.336 62.413 148.251 63.3696C148.166 64.3261 153.781 59.4698 154.461 59.9115C155.142 60.3531 147.923 69.8693 146.215 71.9172C144.508 73.9651 141.653 75.4369 141.653 75.4369L139.574 83.6041L129.792 81.691L132.715 73.8167Z" fill="#D06F32"/>
<path d="M136.257 64.7673C136.257 64.7673 139.745 69.4028 139.404 74.3327" stroke="#A64912" stroke-width="0.5" stroke-miterlimit="10"/>
<path d="M138.894 64.4734C138.894 64.4734 143.317 64.814 145.615 67.2927" stroke="#A64912" stroke-width="0.5" stroke-miterlimit="10"/>
<path d="M54.0596 88.7688C54.0596 88.7688 38.5177 103.196 35.6954 106.483C32.8732 109.769 38.4091 121.88 42.534 128.64C46.6588 135.4 52.1948 148.263 52.4119 151.174C52.629 154.084 52.9546 158.591 52.9546 158.591H101.042C101.042 158.591 104.515 138.217 104.624 129.11C104.624 129.11 120.689 134.368 126.333 133.804C131.978 133.241 134.583 126.856 136.32 119.721C138.057 112.585 142.181 79.9985 141.747 80.0383C141.313 80.0781 130.811 77.0966 129.807 78.2597C129.047 79.1396 119.061 104.417 118.518 104.605C117.975 104.793 116.89 104.511 116.347 104.699C115.804 104.886 116.347 107.328 115.913 107.328C115.478 107.328 96.189 88.925 92.9325 87.5167C89.6761 86.1084 74.2075 87.0161 74.2075 87.0161L54.0596 88.7688Z" fill="#184347"/>
<path d="M117.324 109.017C117.324 109.017 124.163 115.777 124.814 125.636" stroke="#3B7977" stroke-width="0.5" stroke-miterlimit="10"/>
<path d="M118.736 106.576C118.736 106.576 123.653 113.048 124.071 121.126" stroke="#3B7977" stroke-width="0.5" stroke-miterlimit="10"/>
<path d="M105.473 109.956C104.105 106.651 100.204 102.53 97.0858 99.5842C90.4418 102.675 64.9321 113.793 36.548 116.361C38.0959 120.617 40.4883 125.287 42.5346 128.641C43.7161 130.576 45.013 133.014 46.2674 135.574C58.0796 135.467 86.4546 133.686 105.563 119.972C106.282 116.961 106.748 113.038 105.473 109.956Z" fill="#3B7977"/>
<path d="M55.088 89.7383C55.088 89.7383 44.4884 102.832 42.8962 105.189C41.3041 107.546 55.3433 144.601 56.2117 146.98C57.08 149.358 55.6329 150.256 55.6329 151.497C55.6329 152.738 57.5142 153.489 57.5142 154.115C57.5142 154.741 57.5142 158.591 57.5142 158.591" stroke="#3B7977" stroke-width="0.5" stroke-miterlimit="10" stroke-dasharray="3 4"/>
<path d="M104.94 122.216C104.94 122.216 122.893 128.452 124.071 128.452C125.249 128.452 123.507 123.882 124.667 124.164C125.827 124.446 126.019 126.7 127.226 126.324C128.433 125.948 138.894 79.3865 138.894 79.3865" stroke="#3B7977" stroke-width="0.5" stroke-miterlimit="10" stroke-dasharray="3 4"/>
<path d="M92.7926 95.7791C92.7926 95.7791 103.065 104.135 105.473 109.956C107.881 115.777 104.082 124.603 104.082 124.603L104.624 129.11" stroke="#3B7977" stroke-width="0.5" stroke-miterlimit="10"/>
<path d="M54.4312 83.5429C54.4312 83.5429 65.8544 87.6383 73.3733 82.9431L73.2461 81.9483C73.2461 81.9483 74.7159 81.6598 75.1309 81.9483C75.546 82.2367 75.5334 85.8266 76.0397 87.4539C76.5464 89.0812 76.6185 91.4772 76.0397 92.0004C75.4609 92.5239 69.5993 94.8395 64.6061 94.7772C59.6129 94.7145 53.1 92.5866 52.4487 91.3972C51.7974 90.2078 53.1 86.2022 52.9554 85.2006C52.8108 84.199 52.7939 82.5709 53.3006 82.4466C53.8073 82.3219 54.4538 82.3535 54.4538 82.3535L54.4312 83.5429Z" fill="#3B7977"/>
<mask id="mask0_27_57095" style="mask-type:luminance" maskUnits="userSpaceOnUse" x="52" y="81" width="25" height="14">
<path d="M54.4312 83.5429C54.4312 83.5429 65.8544 87.6383 73.3733 82.9431L73.2461 81.9483C73.2461 81.9483 74.7159 81.6598 75.1309 81.9483C75.546 82.2367 75.5334 85.8266 76.0397 87.4539C76.5464 89.0812 76.6185 91.4772 76.0397 92.0004C75.4609 92.5239 69.5993 94.8395 64.6061 94.7772C59.6129 94.7145 53.1 92.5866 52.4487 91.3972C51.7974 90.2078 53.1 86.2022 52.9554 85.2006C52.8108 84.199 52.7939 82.5709 53.3006 82.4466C53.8073 82.3219 54.4538 82.3535 54.4538 82.3535L54.4312 83.5429Z" fill="white"/>
</mask>
<g mask="url(#mask0_27_57095)">
<path d="M55.6652 82.7348C54.1686 83.1258 55.1099 85.4433 55.3509 86.2898C55.6757 87.4307 55.8068 88.2652 55.6062 89.4501C55.34 91.0218 54.8659 92.5616 54.591 94.1325C54.5494 94.3695 54.9679 94.4713 55.0096 94.2324C55.2454 92.8853 55.6053 91.5585 55.8941 90.2196C56.0751 89.3791 56.3035 88.477 56.1507 87.6234C56.01 86.837 54.4816 83.4363 55.7807 83.0972C56.0478 83.027 55.934 82.6646 55.6652 82.7348Z" fill="#184347"/>
<path d="M60.3997 83.7692C59.1957 85.0518 59.8982 86.8097 60.3328 88.2372C61.0653 90.6426 60.3906 93.018 60.3906 95.4505C60.3906 95.6927 60.8248 95.6927 60.8248 95.4505C60.8248 93.4304 61.404 91.3847 61.0432 89.3688C60.7584 87.7768 59.359 85.4713 60.7071 84.0351C60.8817 83.8485 60.5764 83.5811 60.3997 83.7692Z" fill="#184347"/>
<path d="M65.7716 83.9518C66.3595 85.7553 66.4068 87.6353 66.4541 89.4965C66.5058 91.5437 66.6248 93.5897 66.6322 95.638C66.633 95.8802 67.0672 95.8802 67.0664 95.638C67.059 93.5901 66.9391 91.544 66.8883 89.4965C66.8414 87.6026 66.7885 85.6869 66.1906 83.8519C66.1142 83.6191 65.6952 83.7182 65.7716 83.9518Z" fill="#184347"/>
<path d="M71.4174 82.3917C72.3987 83.2059 72.3692 84.2732 72.1759 85.3544C72.0131 86.2636 71.9992 87.1721 72.0292 88.0903C72.0617 89.0848 72.0513 90.0767 72.0696 91.0711C72.0904 92.2323 72.4538 93.4123 72.0131 94.5555C71.9241 94.7861 72.3435 94.8838 72.4317 94.6554C72.835 93.608 72.6097 92.4719 72.5194 91.4024C72.4173 90.195 72.492 88.9613 72.4521 87.7497C72.3922 85.9185 73.4811 83.5837 71.7244 82.1265C71.5225 81.9583 71.2151 82.2234 71.4174 82.3917Z" fill="#184347"/>
</g>
<path d="M53.552 82.9432C53.552 82.9432 56.0486 84.9817 64.5705 85.1958C71.4112 85.3674 74.2079 82.4001 74.2079 82.4001" stroke="#184347" stroke-width="0.75" stroke-miterlimit="10" stroke-linecap="round" stroke-linejoin="round"/>
<path d="M129.699 71.3678C128.048 71.452 128.613 73.7395 127.745 75.7461C126.877 77.7523 126.232 80.7935 128.345 81.4323C130.459 82.0711 136.798 82.1372 139.142 82.9432C141.487 83.7491 143.81 83.6673 144.136 81.9773C144.461 80.2873 145.438 76.4551 145.655 75.0851C145.872 73.7151 138.925 70.8984 129.699 71.3678Z" fill="#3B7977"/>
<mask id="mask1_27_57095" style="mask-type:luminance" maskUnits="userSpaceOnUse" x="126" y="71" width="20" height="13">
<path d="M129.699 71.3678C128.048 71.452 128.613 73.7395 127.745 75.7461C126.877 77.7523 126.232 80.7935 128.345 81.4323C130.459 82.0711 136.798 82.1372 139.142 82.9432C141.487 83.7491 143.81 83.6673 144.136 81.9773C144.461 80.2873 145.438 76.4551 145.655 75.0851C145.872 73.7151 138.925 70.8984 129.699 71.3678Z" fill="white"/>
</mask>
<g mask="url(#mask1_27_57095)">
<path d="M132.52 70.4545C129.741 71.8643 130.429 74.287 129.777 76.6076C129.327 78.2116 127.325 80.8897 128.679 82.4786C128.843 82.6713 129.22 82.4843 129.054 82.289C128.414 81.5375 128.8 80.469 129.069 79.6548C129.378 78.7178 129.819 77.8173 130.14 76.8833C130.906 74.6611 129.99 72.1734 132.739 70.7786C132.98 70.6566 132.762 70.3317 132.52 70.4545Z" fill="#184347"/>
<path d="M132.983 82.835C132.277 80.3657 134.243 78.2273 134.508 75.8207C134.618 74.8202 134.707 73.8209 134.909 72.8298C135.079 71.9968 135.328 70.768 136.285 70.3406C136.534 70.2295 136.314 69.9054 136.066 70.0165C134.282 70.8127 134.3 73.641 134.147 75.1102C134.011 76.4066 133.689 77.5648 133.154 78.7869C132.548 80.167 132.145 81.4679 132.565 82.9349C132.632 83.17 133.051 83.0701 132.983 82.835Z" fill="#184347"/>
<path d="M139.244 70.9598C138.183 72.6149 138.044 74.5783 137.752 76.4177C137.388 78.7045 136.912 81.0074 136.4 83.2727C136.347 83.5093 136.765 83.61 136.819 83.3726C137.311 81.1914 137.733 78.9832 138.125 76.7869C138.462 74.8994 138.524 72.8567 139.619 71.1495C139.755 70.9377 139.38 70.7484 139.244 70.9598Z" fill="#184347"/>
<path d="M142.543 72.3693C142.583 72.6998 142.689 73.0082 142.795 73.327C143.081 74.181 142.936 74.8769 142.54 75.6742C142.061 76.6405 141.356 77.4878 141.024 78.5108C140.376 80.5106 140.907 82.9682 139.206 84.6297C139.021 84.8103 139.327 85.077 139.513 84.8952C141.12 83.3254 140.919 81.0135 141.323 79.0737C141.588 77.8002 142.468 76.7626 143.048 75.5946C143.285 75.1192 143.409 74.6219 143.414 74.1063C143.418 73.511 143.046 72.9556 142.977 72.369C142.949 72.1309 142.515 72.1282 142.543 72.3693Z" fill="#184347"/>
</g>
<path d="M260.934 86.3899C260.934 86.3899 273.417 97.5626 276.239 101.13C279.061 104.698 278.084 113.336 275.262 119.345C272.44 125.354 263.973 137.935 263.43 139.625C262.888 141.315 257.677 158.59 257.677 158.59H201.232C201.232 158.59 199.93 131.738 204.923 112.444C204.923 112.444 196.022 103.853 195.371 101.412C194.719 98.9709 212.955 84.8268 216.429 83.5428C219.902 82.2587 238.831 82.3996 238.831 82.3996L260.934 86.3899Z" fill="#BD3E00"/>
<path d="M239.856 85.2026C239.856 85.2026 230.738 96.5004 225.547 110.215L233.129 113.399C233.129 113.399 239.107 99.5732 247.234 88.951L239.856 85.2026Z" fill="#F96722"/>
<path d="M239.381 94.8195C239.381 95.4302 238.808 95.9251 238.102 95.9251C237.396 95.9251 236.824 95.4302 236.824 94.8195C236.824 94.2088 237.396 93.7139 238.102 93.7139C238.808 93.7139 239.381 94.2088 239.381 94.8195Z" fill="#BD3E00"/>
<path d="M235.028 101.36C235.733 101.36 236.306 100.865 236.306 100.255C236.306 99.6439 235.733 99.1489 235.028 99.1489C234.322 99.1489 233.749 99.6439 233.749 100.255C233.749 100.865 234.322 101.36 235.028 101.36Z" fill="#BD3E00"/>
<path d="M233.121 106.033C233.121 106.644 232.549 107.139 231.843 107.139C231.137 107.139 230.564 106.644 230.564 106.033C230.564 105.422 231.137 104.927 231.843 104.927C232.549 104.927 233.121 105.422 233.121 106.033Z" fill="#BD3E00"/>
<path d="M259.702 87.7964C259.702 87.7964 272.485 99.3721 272.824 104.085C273.163 108.798 258.256 137.465 257.532 139.218C256.808 140.97 253.578 158.59 253.578 158.59" stroke="#881800" stroke-width="0.5" stroke-miterlimit="10" stroke-linecap="round" stroke-linejoin="round" stroke-dasharray="3 4"/>
<path d="M213.39 92.0007C213.39 92.0007 215.87 87.4952 216.268 83.6074C212.429 85.2358 194.729 99.0067 195.371 101.412C196.022 103.853 204.923 112.444 204.923 112.444C204.923 112.444 207.528 99.8648 213.39 92.0007Z" fill="#881800"/>
<path d="M196.521 99.2612C196.521 99.2612 201.126 104.763 205.811 108.909" stroke="#BD3E00" stroke-width="0.5" stroke-miterlimit="10" stroke-linecap="round" stroke-linejoin="round" stroke-dasharray="3 4"/>
<path d="M259.357 72.2441C259.357 72.2441 258.675 78.2541 259.834 85.9215C259.834 85.9215 256.606 90.3891 248.455 89.1617C240.303 87.9344 239.634 84.6957 239.634 84.6957C239.634 84.6957 241.157 78.7499 240.2 73.3366L259.357 72.2441Z" fill="#FFA36E"/>
<path d="M247.062 80.3686C244.088 80.1279 241.956 79.0805 240.504 77.9951C240.544 76.5012 240.475 74.8972 240.2 73.3367L259.356 72.2446C259.356 72.2446 259.195 73.6766 259.163 76.0302C256.591 77.8419 251.685 80.743 247.062 80.3686Z" fill="#D57644"/>
<path d="M260.753 71.3801C260.753 71.3801 263.155 73.9966 266.061 71.8371C268.967 69.6777 269.184 64.8789 269.184 64.8789C269.184 64.8789 276.239 51.1816 276.239 47.52C276.239 43.8583 271.828 41.6989 271.828 41.6989C271.828 41.6989 271.405 37.7555 266.061 34.0939C260.717 30.4322 253.344 27.8034 244.321 31.1833C236.807 33.9981 230.758 35.8778 226.85 34.9389C226.85 34.9389 226.416 38.8082 230.323 41.2396C230.323 41.2396 225.981 40.8539 222.942 37.8494C222.942 37.8494 217.623 48.6913 231.3 54.3491L260.753 71.3801Z" fill="#0C2109"/>
<path d="M222.076 40.8411C222.076 40.8411 225.438 45.736 236.076 46.6749C236.076 46.6749 227.546 48.2737 222.205 45.2212" stroke="#354232" stroke-width="0.5" stroke-miterlimit="10" stroke-linecap="round" stroke-linejoin="round"/>
<path d="M259.079 34.6846C246.928 30.6624 234.643 35.6982 231.144 47.4369C227.644 59.176 229.207 70.7825 242.937 74.1813C256.666 77.5801 266.509 69.1823 270.342 58.6874C274.175 48.1926 270.651 38.5156 259.079 34.6846Z" fill="#FFA36E"/>
<path d="M271.828 41.6989C271.828 41.6989 271.404 37.7555 266.06 34.0939C260.716 30.4322 253.344 27.8034 244.321 31.1833C240.084 32.7704 236.313 34.0597 233.129 34.7147C233.129 34.7147 242.698 42.9393 262.453 41.2396C262.453 41.2396 257.544 44.5227 253.051 44.5662C253.051 44.5662 258.921 48.2715 266.061 46.2059C266.061 46.2059 261.806 53.717 270.217 59.0217C270.716 59.3364 271.205 59.5884 271.684 59.7871C273.713 55.4941 276.239 49.7113 276.239 47.52C276.239 43.8583 271.828 41.6989 271.828 41.6989Z" fill="#354232"/>
<path d="M265.076 51.92C265.076 51.92 271.858 49.0523 274.754 43.9673" stroke="#0C2109" stroke-width="0.5" stroke-miterlimit="10" stroke-linecap="round" stroke-linejoin="round"/>
<path d="M266.599 55.7124C266.599 55.7124 269.45 52.4477 270.836 48.3879" stroke="#0C2109" stroke-width="0.5" stroke-miterlimit="10" stroke-linecap="round" stroke-linejoin="round"/>
<path d="M246.457 45.1414C246.457 45.1414 244.894 52.2052 244.321 53.2469C243.566 54.6189 240.2 54.6279 238.906 56.3453C238.2 57.2834 242.648 60.3141 242.648 60.3141" stroke="#D57644" stroke-width="0.5" stroke-miterlimit="10"/>
<path d="M252.661 62.3752C252.661 62.3752 246.667 66.9777 240.254 63.701" stroke="#D57644" stroke-width="0.5" stroke-miterlimit="10"/>
<path d="M257.028 48.9018C255.893 47.7808 254.645 46.7747 253.245 45.903C252.47 45.4201 251.639 45.0682 250.755 44.7659C250.56 44.6994 249.98 44.6569 249.846 44.5266C249.561 44.4579 250.322 44.1184 250.348 44.1094C252.16 43.4386 254.173 43.9892 255.575 45.1095C256.283 45.6751 256.803 46.4232 257.066 47.2231C257.177 47.5855 257.234 47.9468 257.24 48.3212C257.242 48.3479 257.213 49.0851 257.028 48.9018Z" fill="#0C2109"/>
<path d="M243.453 43.2111C241.651 43.2821 239.718 43.8263 238.225 44.6991C237.45 45.1527 236.8 45.7067 236.21 46.3327C236.079 46.4717 235.935 46.6208 235.867 46.3609C235.77 45.9913 235.764 45.5726 235.853 45.2023C236.189 43.8071 237.446 42.7116 238.989 42.2666C239.93 41.9951 240.954 41.9616 241.904 42.2215C242.312 42.3316 242.705 42.4972 243.047 42.7188C243.072 42.7319 243.732 43.204 243.453 43.2111Z" fill="#0C2109"/>
<path d="M252.076 52.4374C251.834 53.3294 252.207 54.1676 252.907 54.3095C253.607 54.4515 254.371 53.8435 254.613 52.9515C254.855 52.0596 254.483 51.2214 253.782 51.0794C253.082 50.9374 252.318 51.5455 252.076 52.4374Z" fill="#041801"/>
<path d="M237.638 50.4014C237.396 51.2934 237.769 52.1316 238.469 52.2736C239.169 52.4155 239.933 51.8075 240.175 50.9156C240.417 50.0236 240.045 49.1854 239.344 49.0434C238.643 48.9018 237.88 49.5095 237.638 50.4014Z" fill="#041801"/>
<path d="M267.365 61.739C268.131 58.5412 265.182 55.309 260.778 54.5196C256.374 53.7303 252.182 55.6827 251.416 58.8805C250.65 62.0783 253.6 65.3105 258.004 66.0999C262.408 66.8892 266.599 64.9367 267.365 61.739Z" fill="#F28475"/>
<path d="M230.95 48.8292C230.887 48.8179 230.825 48.8126 230.763 48.8025C229.681 52.8975 229.253 56.9359 229.779 60.5773C233.555 60.7001 236.865 58.8542 237.537 56.0484C238.303 52.8506 235.354 49.6186 230.95 48.8292Z" fill="#F28475"/>
<path d="M266.06 66.4153L270.216 59.0213C270.216 59.0213 274.579 53.5371 278.598 56.6884C282.617 59.8401 273.586 70.1704 266.06 66.4153Z" fill="#FFA36E"/>
<path d="M276.458 59.6878C277.194 60.7289 277.029 62.4876 276.57 64.2197C273.873 66.6818 269.784 68.273 266.061 66.4155L270.217 59.0216C270.217 59.0216 274.629 57.0965 276.458 59.6878Z" fill="#D57644"/>
<path d="M265.076 29.1178C265.076 29.1178 268.041 27.5217 269.915 28.6484C271.789 29.775 270.837 32.8734 270.837 32.8734L265.076 29.1178Z" fill="#F96722"/>
<path d="M239.117 33.0408C239.117 33.0408 254.703 28.3861 274.209 54.1334C274.209 54.1334 279.531 44.6608 278.663 41.2395C277.794 37.8182 266.858 25.091 253.051 25.0493C248.101 25.0343 239.117 33.0408 239.117 33.0408Z" fill="#BD3E00"/>
<path d="M241.258 31.2588C241.258 31.2588 260.149 28.5755 274.978 52.6943" stroke="#881800" stroke-width="0.5" stroke-miterlimit="10" stroke-linecap="round" stroke-linejoin="round" stroke-dasharray="3 4"/>
<path d="M265.076 43.856C265.076 43.856 260.283 30.1847 249.082 23.2027C240.618 17.9273 225.023 23.5486 230.549 35.112C230.549 35.112 234.564 34.6553 239.117 33.0408C239.117 33.0408 249.354 29.7701 265.076 43.856Z" fill="#881800"/>
<path d="M242.644 85.9203L240.393 79.9099C240.393 79.9099 239.088 80.1732 238.83 80.4015C238.572 80.6299 235.904 83.6039 235.904 83.6039C235.904 83.6039 234.014 89.1125 234.773 92.3047L241.829 87.7981L245.628 96.0603C245.628 96.0603 254.855 93.9008 260.934 86.3897C260.934 86.3897 260.499 80.6099 260.282 80.4015C260.065 80.1931 259.262 80.4015 259.262 80.4015C259.262 80.4015 255.399 84.8875 242.644 85.9203Z" fill="#881800"/>
<path d="M190.661 56.6743H116.281V110.928H190.661V56.6743Z" fill="#EA9633"/>
<path d="M190.661 56.6743L153.471 73.9971L116.281 56.6743" stroke="#CA791E" stroke-width="0.5" stroke-miterlimit="10"/>
<path d="M116.281 110.928L153.471 93.6047L190.661 110.928" stroke="#CA791E" stroke-width="0.5" stroke-miterlimit="10"/>
<path d="M153.471 73.9971V93.6048" stroke="#CA791E" stroke-width="0.5" stroke-miterlimit="10"/>
<path d="M161.787 56.6743V75.7266L159.439 77.9799L157.092 75.7266L154.746 77.9799L152.402 75.7266L150.058 77.9799L147.713 75.7266L145.369 77.9799L143.024 75.7266V56.6743H161.787Z" fill="#F8E4CF"/>
<path d="M185.993 98.5415H159.073V107.062H185.993V98.5415Z" fill="#F8E4CF"/>
<path d="M185.993 89.8098H171.077V96.6171H185.993V89.8098Z" fill="#374A3A"/>
<path d="M190.232 117.912C190.232 117.912 187.427 117.828 186.634 117.714C185.84 117.6 180.355 111.769 180.355 111.769C180.355 111.769 179.298 112.684 178.703 112.569C178.108 112.455 175.465 110.912 174.473 110.397C173.482 109.883 174.209 108.168 174.209 108.168C172.953 107.939 172.544 105.936 172.941 105.422C173.337 104.907 178.769 103.335 178.769 103.335C178.769 103.335 176.191 102.28 175.662 102.28C175.134 102.28 173.151 103.309 170.772 103.9C168.393 104.491 166.344 103.652 166.741 103.252C167.137 102.852 173.019 99.365 174.605 99.365C176.191 99.365 181.809 99.8795 181.809 99.8795C181.809 99.8795 179.232 98.2218 178.571 97.9931C177.91 97.7643 177.117 97.8789 173.68 97.9931C170.243 98.1076 168.657 97.5356 169.318 97.0215C169.979 96.5074 177.513 94.3344 179.231 94.4489C180.949 94.5635 189.145 99.0221 189.673 99.365C190.202 99.7078 197.224 113.909 197.224 113.909C197.224 113.909 230.139 128.453 231.957 128.453C233.774 128.453 255.012 110.501 259.962 107.806C264.913 105.111 278.994 109.14 276.023 117.327C273.052 125.514 238.382 146.106 233.348 148.889C228.313 151.671 190.232 117.912 190.232 117.912Z" fill="#FFA36E"/>
<path d="M181.809 99.8792C181.809 99.8792 186.633 100.108 186.633 100.337C186.633 100.565 187.889 102.909 187.889 102.909" stroke="#D57644" stroke-width="0.5" stroke-miterlimit="10"/>
<path d="M178.769 103.334C179.496 103.111 183.33 101.937 183.594 102.166C183.858 102.394 185.246 104.552 185.246 104.552" stroke="#D57644" stroke-width="0.5" stroke-miterlimit="10"/>
<path d="M174.209 108.168C174.209 108.168 179.628 106.328 180.487 106.104C181.347 105.881 182.668 107.424 182.668 107.424" stroke="#D57644" stroke-width="0.5" stroke-miterlimit="10"/>
<path d="M180.355 111.769L178.439 109.74L176.258 110.168" stroke="#D57644" stroke-width="0.5" stroke-miterlimit="10"/>
<path d="M231.958 128.452C231.958 128.452 234.815 136.087 233.121 142.473" stroke="#D57644" stroke-width="0.5" stroke-miterlimit="10"/>
<path d="M241.136 116.558C241.136 116.558 245.287 122.942 250.303 127.261C255.32 131.58 259.228 134.835 260.241 134.71C261.254 134.584 273.911 124.183 276.432 120.246C278.953 116.309 279.097 109.528 275.479 106.033C271.861 102.539 264.654 102.56 259.357 104.552C254.059 106.545 241.86 115.681 241.136 116.558Z" fill="#881800"/>
<path d="M244.133 114.147C244.133 114.147 252.161 125.778 263.024 132.811" stroke="#BD3E00" stroke-width="0.5" stroke-miterlimit="10" stroke-linecap="round" stroke-linejoin="round" stroke-dasharray="3 4"/>
<path d="M117.912 108.809C117.912 108.809 116.807 106.597 119.243 104.195C121.679 101.794 123.271 100.234 124.812 97.9396C126.352 95.6454 127.258 93.7834 127.561 93.2508C127.864 92.7187 129.994 93.7999 129.645 95.8673C129.295 97.9347 126.319 100.645 126.938 101.438C127.557 102.23 132.723 98.9161 135.265 97.9832C137.806 97.0507 142.372 95.5965 143.179 96.143C143.985 96.6894 135.278 100.896 133.605 102.235C131.933 103.573 142.065 98.6798 144.279 98.1777C146.493 97.6756 148.1 97.9727 147.046 98.9581C145.991 99.9436 136.346 103.793 135.903 104.51C135.46 105.227 145.719 101.374 147.163 102.019C148.607 102.663 138.208 106.701 137.53 107.46C136.851 108.219 144.627 106.829 144.915 107.521C145.204 108.213 133.128 112.735 130.4 113.635C127.673 114.535 124.353 114.408 124.353 114.408L117.429 120.245L110.469 113.999L117.912 108.809Z" fill="#D06F32"/>
<path d="M58.672 106.078C69.6731 111.815 82.2274 128.62 82.59 128.827C82.9529 129.033 84.0497 126.736 84.6224 126.837C85.1951 126.938 85.9233 127.689 86.496 127.79C87.0687 127.891 111.467 111.513 112.661 111.139C114.239 110.645 121.121 118.126 121.509 118.299C121.897 118.472 96.32 145.568 89.5653 149.932C80.4911 155.793 66.4679 143.498 61.6849 140.845C52.8829 135.963 36.5403 120.509 35.81 114.139C35.0788 107.769 40.4728 96.5867 58.672 106.078Z" fill="#184347"/>
<path d="M82.1185 129.954C82.1185 129.954 78.9037 133.681 78.6293 135.573C78.3549 137.465 82.1185 145.977 82.1185 145.977C82.1185 145.977 80.5263 136.025 84.434 129.109" stroke="#3B7977" stroke-width="0.5" stroke-miterlimit="10"/>
<path d="M36.0888 110.214C36.0888 110.214 35.9629 114.433 42.7702 121.608C49.5774 128.783 77.1665 147.48 78.6289 148.356C80.0917 149.232 79.9749 147.605 80.7569 147.73C81.5388 147.855 82.1185 149.232 83.3481 149.232C84.5778 149.232 85.1496 147.229 85.5152 146.979C85.8808 146.728 88.4859 147.354 89.6435 146.728C90.8015 146.102 119.885 116.741 119.885 116.741" stroke="#3B7977" stroke-width="0.5" stroke-miterlimit="10" stroke-dasharray="3 4"/>
<path d="M121.509 118.298C121.897 118.471 96.3196 145.568 89.5649 149.931C80.4907 155.793 66.4675 143.498 61.6845 140.845C52.8825 135.963 36.5399 120.508 35.8096 114.139" stroke="#3B7977" stroke-width="0.5" stroke-miterlimit="10"/>
<path d="M116.947 105.329C115.514 104.615 114.534 106.795 112.534 108.059C110.534 109.323 108.064 111.558 109.424 113.096C110.784 114.634 116.04 117.701 117.487 119.489C118.934 121.276 120.928 122.311 122.273 121.054C123.618 119.796 126.868 117.058 127.92 116.017C128.971 114.975 124.955 109.32 116.947 105.329Z" fill="#3B7977"/>
<mask id="mask2_27_57095" style="mask-type:luminance" maskUnits="userSpaceOnUse" x="109" y="105" width="20" height="17">
<path d="M116.947 105.329C115.514 104.615 114.534 106.795 112.534 108.059C110.534 109.323 108.064 111.558 109.424 113.096C110.784 114.634 116.04 117.701 117.487 119.489C118.934 121.276 120.928 122.311 122.273 121.054C123.618 119.796 126.868 117.058 127.92 116.017C128.971 114.975 124.955 109.32 116.947 105.329Z" fill="white"/>
</mask>
<g mask="url(#mask2_27_57095)">
<path d="M119.872 105.906C116.666 105.76 115.687 108.128 113.674 109.753C112.278 110.88 108.916 112.166 109.038 114.139C109.052 114.379 109.486 114.381 109.472 114.139C109.41 113.142 110.58 112.369 111.377 111.795C112.226 111.183 113.15 110.651 113.981 110.019C115.953 108.516 116.747 106.14 119.872 106.281C120.152 106.294 120.151 105.919 119.872 105.906Z" fill="#184347"/>
<path d="M112.412 116.464C113.366 114.097 116.289 113.303 118.016 111.465C118.74 110.695 119.434 109.909 120.209 109.177C120.914 108.511 121.962 107.499 123.114 107.6C123.392 107.625 123.39 107.249 123.114 107.225C122.148 107.14 121.318 107.745 120.644 108.268C119.581 109.093 118.715 110.106 117.83 111.069C116.03 113.029 113 113.865 111.993 116.364C111.901 116.593 112.32 116.691 112.412 116.464Z" fill="#184347"/>
<path d="M125.169 109.53C123.234 110.407 121.868 111.988 120.458 113.384C118.703 115.122 116.842 116.82 114.975 118.47C114.78 118.643 115.086 118.909 115.282 118.735C117.08 117.147 118.835 115.502 120.557 113.853C122.039 112.433 123.387 110.761 125.388 109.854C125.636 109.741 125.417 109.417 125.169 109.53Z" fill="#184347"/>
<path d="M127.038 112.277C126.836 112.605 126.728 112.963 126.599 113.316C126.322 114.073 125.767 114.545 125.025 114.982C123.995 115.589 122.83 115.963 121.878 116.676C120.061 118.038 118.939 120.352 116.455 120.931C116.185 120.994 116.3 121.356 116.571 121.293C119.013 120.724 120.308 118.542 121.994 117.096C123.068 116.174 124.561 115.77 125.756 114.989C126.818 114.294 126.833 113.41 127.413 112.466C127.544 112.253 127.169 112.063 127.038 112.277Z" fill="#184347"/>
</g>
<path d="M295.351 159.608C295.351 160.377 294.63 161 293.741 161H6.3407C5.45147 161 4.73071 160.377 4.73071 159.608C4.73071 158.839 5.45147 158.215 6.3407 158.215H293.741C294.63 158.215 295.351 158.838 295.351 159.608Z" fill="#479C5A"/>
</svg>
