<svg width="194" height="196" viewBox="0 0 194 196" fill="none" xmlns="http://www.w3.org/2000/svg">
<path fill-rule="evenodd" clip-rule="evenodd" d="M96.655 52.7515C150.036 52.7515 193.31 96.025 193.31 149.406C193.31 162.906 190.54 175.76 185.54 187.43C171.758 185.073 137.161 183.402 96.655 183.402C56.149 183.402 21.552 185.073 7.77 187.43C2.77 175.76 0 162.907 0 149.406C0 96.025 43.274 52.7515 96.655 52.7515Z" fill="#A6EEB5"/>
<path fill-rule="evenodd" clip-rule="evenodd" d="M96.655 183.401C149.272 183.401 191.925 186.221 191.925 189.701C191.925 193.18 149.272 196 96.655 196C44.0385 196 1.38501 193.18 1.38501 189.701C1.38501 186.221 44.0385 183.401 96.655 183.401Z" fill="#4AA25D"/>
<path fill-rule="evenodd" clip-rule="evenodd" d="M81.203 183.485C79.799 182.112 78.3701 180.076 79.3756 178.066C81.1306 174.556 85.8366 181.654 85.8366 181.654C85.8366 181.654 85.039 174.795 89.745 173.599C94.451 172.403 89.9041 181.654 89.9041 181.654C89.9041 181.654 95.3276 177.747 96.0456 181.176C96.2436 182.121 95.3631 182.847 93.9851 183.404C89.6456 183.412 85.3795 183.439 81.203 183.485Z" fill="#4AA25D"/>
<path fill-rule="evenodd" clip-rule="evenodd" d="M113.763 183.647C113.421 183.336 109.545 181.897 107.11 178.96C104.236 175.493 103.194 170.722 109.841 174.587C112.44 176.098 115.53 179.784 115.53 179.784C115.53 179.784 111.941 169.415 115.689 168.537C119.438 167.66 118.481 179.465 118.481 179.465C118.481 179.465 129.489 165.586 134.354 167.82C139.219 170.053 123.905 179.864 123.905 179.864C123.905 179.864 135.631 174.999 137.546 178.668C138.646 180.777 131.283 182.675 124.825 183.908C121.245 183.806 117.553 183.719 113.763 183.647Z" fill="#66DA7F"/>
<path fill-rule="evenodd" clip-rule="evenodd" d="M30.3841 185.176C30.3841 185.176 14.1896 174.841 15.8641 169.497C17.5391 164.153 26.9511 176.276 26.9511 176.276C26.9511 176.276 20.9696 161.92 27.1906 161.441C33.4121 160.962 32.6146 174.841 32.6146 174.841C32.6146 174.841 35.7251 162.318 39.3146 164.711C42.9031 167.104 38.5166 174.681 38.5166 174.681C38.5166 174.681 48.0881 165.348 51.8376 168.539C55.5856 171.73 42.5851 178.43 42.5851 178.43C42.5851 178.43 61.6481 174.122 61.2491 178.35C61.0466 180.49 54.9351 182.814 48.0386 184.283C41.6316 184.535 35.7086 184.835 30.3856 185.176H30.3841Z" fill="#66DA7F"/>
<path fill-rule="evenodd" clip-rule="evenodd" d="M164.211 185.26C164.211 185.26 154.698 180.71 155.495 175.526C156.293 170.342 164.429 178.717 164.429 178.717C164.429 178.717 160.121 168.587 165.147 166.992C170.172 165.397 169.453 179.833 169.453 179.833C169.453 179.833 172.085 168.906 177.589 169.943C183.093 170.98 171.767 181.508 171.767 181.508C175.711 178.447 186.232 178.154 186.665 180.466C186.97 182.091 180.894 185.631 173.806 186.006C170.901 185.741 167.694 185.492 164.215 185.26L164.211 185.26Z" fill="#4AA25D"/>
<path fill-rule="evenodd" clip-rule="evenodd" d="M21.4201 185.836C14.4031 184.196 15.5001 175.522 23.2861 182.54C23.2861 182.54 26.2376 176.239 29.4276 178.473C31.6316 180.015 30.3711 183.803 27.0311 185.402C25.0651 185.541 23.1916 185.686 21.4201 185.836Z" fill="#4AA25D"/>
<path fill-rule="evenodd" clip-rule="evenodd" d="M24.4804 3.72998H54.7359C55.5479 3.72998 56.2114 4.39398 56.2114 5.20548V28.2355C56.2114 29.047 55.3339 30.26 54.7359 29.711L46.5254 22.1785H24.4804C23.6689 22.1785 23.0049 21.5145 23.0049 20.7025V5.20498C23.0049 4.39298 23.6689 3.72998 24.4804 3.72998Z" fill="#FD995D"/>
<path fill-rule="evenodd" clip-rule="evenodd" d="M28.8794 9.13647H50.5179C50.9824 9.13647 51.3629 9.51647 51.3629 9.98147V9.98247C51.3629 10.4475 50.9824 10.827 50.5179 10.827H28.8794C28.4144 10.827 28.0344 10.4475 28.0344 9.98247V9.98147C28.0344 9.51647 28.4144 9.13647 28.8794 9.13647Z" fill="white"/>
<path opacity="0.7" fill-rule="evenodd" clip-rule="evenodd" d="M28.8794 14.132H43.4074C43.8724 14.132 44.2524 14.512 44.2524 14.978C44.2524 15.444 43.8724 15.8235 43.4074 15.8235H28.8794C28.4144 15.8235 28.0344 15.444 28.0344 14.9785C28.0344 14.513 28.4144 14.132 28.8794 14.132Z" fill="white"/>
<path d="M66.9844 54.2004C66.9844 54.2004 67.4554 52.3439 68.9284 52.7694" stroke="#DD557F" stroke-width="0.7352" stroke-miterlimit="22.9256" stroke-linecap="round"/>
<path fill-rule="evenodd" clip-rule="evenodd" d="M61.9659 41.1544C65.9949 41.8024 68.7614 45.6289 68.1139 49.6579L67.8009 51.6044C67.8009 51.6044 69.1939 51.0629 69.6224 52.5574C70.0519 54.0539 68.7904 56.2289 66.9269 55.6904C65.4334 58.9359 61.0269 61.0954 57.5894 60.1549C52.3109 58.7099 53.8044 51.4099 54.4619 47.3174C55.1089 43.2889 57.8849 41.0934 61.9659 41.1544Z" fill="#F9C1C6"/>
<path fill-rule="evenodd" clip-rule="evenodd" d="M64.4288 58.632L64.4373 63.0925C64.4373 63.0925 62.2628 69.059 57.2438 69.1705C54.3753 69.234 54.7988 66.599 55.5868 64.4955C56.0283 63.319 56.4758 63.0785 56.6008 63.0325L56.6188 63.027L56.6213 63.0265L56.6228 63.026L56.6248 63.0255L57.2408 60.0485C57.3543 60.086 57.4693 60.123 57.5888 60.156C59.8138 60.7645 62.4448 60.074 64.4288 58.632Z" fill="#F9C1C6"/>
<path opacity="0.5" fill-rule="evenodd" clip-rule="evenodd" d="M56.7878 62.274L57.2413 60.048C57.3548 60.0855 57.4698 60.1225 57.5893 60.1555C59.8138 60.764 62.4448 60.0745 64.4293 58.6315C64.4293 58.6315 62.3123 62.5575 56.7878 62.274Z" fill="#0F1830"/>
<path fill-rule="evenodd" clip-rule="evenodd" d="M55.1725 51.1395C55.523 51.145 55.801 51.51 55.795 51.956C55.788 52.402 55.499 52.759 55.1485 52.7535C54.798 52.7485 54.52 52.383 54.5265 51.9365C54.533 51.4915 54.822 51.1345 55.1725 51.1395Z" fill="#0F1830"/>
<path fill-rule="evenodd" clip-rule="evenodd" d="M59.9078 51.3505C60.2583 51.356 60.5368 51.7215 60.5303 52.167C60.5233 52.613 60.2343 52.97 59.8838 52.9645C59.5333 52.9595 59.2553 52.5935 59.2623 52.148C59.2683 51.702 59.5578 51.3455 59.9078 51.3505Z" fill="#0F1830"/>
<path d="M57.4773 52.205C57.4773 52.205 57.2793 54.2905 56.6008 54.987C56.6008 54.987 57.1208 55.6845 58.0093 55.185" stroke="#DD557F" stroke-width="0.7352" stroke-miterlimit="22.9256" stroke-linecap="round" stroke-linejoin="round"/>
<path fill-rule="evenodd" clip-rule="evenodd" d="M57.8103 56.9629C57.7983 55.9889 61.2633 54.8239 61.8288 55.5824C62.2853 56.1949 61.5953 57.8574 60.1003 58.3429C59.0003 58.6994 57.8253 58.2349 57.8103 56.9629Z" fill="#0F1830"/>
<path opacity="0.5" fill-rule="evenodd" clip-rule="evenodd" d="M61.6909 57.0199C61.3879 57.5694 60.8439 58.1009 60.1004 58.3424C59.4454 58.5544 58.7634 58.4759 58.3154 58.1084C59.0639 57.5694 60.2384 56.9644 61.6909 57.0199Z" fill="#0F1830"/>
<path fill-rule="evenodd" clip-rule="evenodd" d="M57.8103 56.9629C57.7983 55.9889 61.2633 54.8239 61.8288 55.5824C61.8873 55.6614 61.9268 55.7574 61.9488 55.8664C60.3583 56.1439 58.8138 56.8894 57.8713 57.4144C57.8333 57.2769 57.8123 57.1269 57.8103 56.9629Z" fill="white"/>
<path d="M54.512 50.3095C54.512 50.3095 55.6505 50.039 56.6185 50.842" stroke="#0F1830" stroke-width="0.7352" stroke-miterlimit="22.9256" stroke-linecap="round"/>
<path d="M61.3245 50.637C61.3245 50.637 59.8765 49.9675 58.7805 50.755" stroke="#0F1830" stroke-width="0.7352" stroke-miterlimit="22.9256" stroke-linecap="round"/>
<path fill-rule="evenodd" clip-rule="evenodd" d="M69.6084 48.7205L67.8014 51.6045C67.8014 51.6045 67.4499 51.7055 66.2389 52.975C66.2389 52.975 64.7419 52.7595 64.6024 49.2595C64.6024 49.2595 55.5569 51.1305 53.4949 47.117C51.4329 43.1025 54.6954 38.2705 57.2409 37.694C59.7864 37.1175 62.8219 39.7775 62.8219 39.7775C62.8219 39.7775 65.4634 39.183 66.5119 39.7565C67.5609 40.3295 68.0839 42.625 68.0839 42.625C68.0839 42.625 70.9274 42.6675 70.8994 44.512C70.8714 46.356 69.6084 48.7205 69.6084 48.7205Z" fill="#0F1830"/>
<path fill-rule="evenodd" clip-rule="evenodd" d="M53.78 52.5909C53.202 51.2534 52.5915 49.0839 53.465 47.0554L53.495 47.1169C53.701 47.5179 53.978 47.8604 54.308 48.1514C54.2615 48.4514 54.2155 48.7669 54.1735 49.0954C54.003 50.1924 53.841 51.3929 53.78 52.5909Z" fill="#0F1830"/>
<path fill-rule="evenodd" clip-rule="evenodd" d="M23.3336 39.5975C27.1726 40.6365 29.2286 45.3825 27.9261 50.197C26.6231 55.012 22.4551 58.0735 18.6161 57.035C14.7766 55.996 12.7211 51.251 14.0236 46.4355C15.3261 41.62 19.4946 38.558 23.3336 39.5975Z" fill="#192649"/>
<path fill-rule="evenodd" clip-rule="evenodd" d="M23.7856 39.74C27.3316 41.017 29.1766 45.5745 27.9256 50.1965C27.0051 53.5995 24.6531 56.1265 21.9971 56.9495C18.4511 55.673 16.6061 51.115 17.8566 46.493C18.7776 43.09 21.1296 40.5635 23.7856 39.74Z" fill="#0F1830"/>
<path fill-rule="evenodd" clip-rule="evenodd" d="M25.6194 40.8065C29.3239 43.0445 32.8444 45.064 36.1829 46.828C37.6379 47.597 39.0589 48.3175 40.4449 48.9865C42.4109 49.936 42.2689 56.41 37.9924 56.379C36.7684 56.3705 35.5444 56.36 34.3079 56.3605C32.6784 56.362 31.0259 56.383 29.3219 56.455C27.9524 56.512 20.7674 57.234 20.7884 57.2025C21.2639 57.151 21.6084 57.048 21.8559 56.897L21.9969 56.95C24.6529 56.127 27.0049 53.6 27.9254 50.197C28.9354 46.464 27.9259 42.774 25.6334 40.8195L25.6194 40.8065Z" fill="#E5E5E5"/>
<path fill-rule="evenodd" clip-rule="evenodd" d="M34.9449 46.167C35.6919 49.2925 35.9774 53.5565 33.2129 56.3635C33.5794 56.361 33.9439 56.36 34.3074 56.36C35.1899 56.3595 36.0669 56.3645 36.9409 56.3705C38.6144 53.848 38.6789 50.654 38.2394 47.894C37.5614 47.55 36.8754 47.194 36.1819 46.8275C35.7729 46.611 35.3604 46.391 34.9449 46.167Z" fill="#7EA0FA"/>
<path fill-rule="evenodd" clip-rule="evenodd" d="M25.6194 40.8065C26.3249 41.2325 27.0229 41.6505 27.7149 42.0605C31.1079 45.6235 30.5604 53.424 25.4729 56.7745C23.1809 56.9855 20.7759 57.2205 20.7884 57.2025C21.2639 57.151 21.6084 57.048 21.8559 56.897L21.9969 56.95C24.6524 56.127 27.0049 53.6 27.9254 50.197C28.9354 46.464 27.9259 42.774 25.6334 40.8195L25.6194 40.8065Z" fill="#4A77E6"/>
<path fill-rule="evenodd" clip-rule="evenodd" d="M38.2399 47.894C38.6794 50.6545 38.6149 53.8485 36.9414 56.3705L37.9919 56.3785C42.2679 56.4095 42.4104 49.9355 40.4444 48.986C39.7194 48.6365 38.9849 48.272 38.2399 47.894Z" fill="#4A77E6"/>
<path fill-rule="evenodd" clip-rule="evenodd" d="M31.1985 56.3935C31.1985 56.3935 30.6805 57.05 31.098 57.6065C31.5155 58.1635 38.153 58.2635 38.3735 57.805C38.5935 57.3465 38.489 56.351 38.489 56.351L38.4865 56.3505C38.3285 56.369 38.164 56.3795 37.9925 56.3785C36.7685 56.37 35.5445 56.3595 34.308 56.36C33.2825 56.3605 32.2485 56.3695 31.1985 56.3935Z" fill="#192649"/>
<path fill-rule="evenodd" clip-rule="evenodd" d="M32.8385 57.984L30.314 69.3445C32.7935 70.681 34.7575 67.0655 34.7575 67.0655C35.611 63.9915 36.5035 58.08 36.5035 58.08C35.375 58.117 33.9465 58.0825 32.8385 57.984Z" fill="#0F1830"/>
<path fill-rule="evenodd" clip-rule="evenodd" d="M28.2984 46.6686L21.7224 45.9241C22.6129 46.1651 23.0894 47.2656 22.7874 48.3821C22.4849 49.4986 21.5184 50.2081 20.6279 49.9676L26.7914 52.9151C27.2714 52.0961 27.6584 51.1836 27.9254 50.1971C28.2499 48.9981 28.3659 47.8036 28.2984 46.6686Z" fill="#E0E0E0"/>
<path fill-rule="evenodd" clip-rule="evenodd" d="M28.2986 46.6685L25.8061 46.3865C26.2801 47.873 26.5071 50.1075 24.6101 51.8715L26.7921 52.915C27.2721 52.096 27.6591 51.1835 27.9261 50.1975C28.2506 48.998 28.3661 47.8035 28.2986 46.6685Z" fill="#E0E0E0"/>
<path fill-rule="evenodd" clip-rule="evenodd" d="M21.7224 45.9241C22.6124 46.1651 23.0894 47.2656 22.7874 48.3821C22.4849 49.4986 21.5184 50.208 20.6279 49.9675C19.7374 49.7265 19.2609 48.626 19.5629 47.5095C19.8659 46.393 20.8319 45.6831 21.7224 45.9241Z" fill="#C7C7C7"/>
<path fill-rule="evenodd" clip-rule="evenodd" d="M4.81909 54.6625L10.8236 52.9005C11.2821 52.7655 11.7676 53.0315 11.9026 53.49V53.491C12.0371 53.9495 11.7721 54.435 11.3131 54.57L5.30909 56.332C4.85009 56.467 4.36459 56.2015 4.22959 55.7425V55.742C4.09509 55.2825 4.36009 54.797 4.81909 54.6625Z" fill="#FC5E5A"/>
<path fill-rule="evenodd" clip-rule="evenodd" d="M4.08748 45.2505L10.285 46.1145C10.7585 46.1805 11.0925 46.622 11.0255 47.095V47.0965C10.96 47.5695 10.518 47.903 10.0445 47.8375L3.84749 46.9735C3.37349 46.9075 3.03999 46.466 3.10599 45.992L3.10649 45.9915C3.17249 45.518 3.61398 45.1845 4.08748 45.2505Z" fill="#FC5E5A"/>
<path fill-rule="evenodd" clip-rule="evenodd" d="M6.93339 36.84L12.5369 39.6245C12.9654 39.8375 13.1419 40.3615 12.9289 40.7895V40.791C12.7159 41.219 12.1919 41.395 11.7634 41.1825L6.15989 38.398C5.73139 38.1855 5.55489 37.661 5.76789 37.233V37.2325C5.98089 36.8035 6.50539 36.627 6.93339 36.84Z" fill="#FC5E5A"/>
<path fill-rule="evenodd" clip-rule="evenodd" d="M29.1425 71.1945C29.1425 71.1945 27.28 67.415 27.132 65.4955C27.016 63.9925 29.393 60.6615 30.943 59.707C32.0675 59.012 34.6165 58.975 35.77 58.9965C37.415 59.027 37.856 60.359 35.739 61.1145L34.4895 61.561C34.841 61.669 35.093 61.7505 35.445 61.854C36.817 62.26 36.215 64.037 34.9595 63.862L32.485 63.516C33.4075 63.831 34.3515 64.1905 34.95 64.656C36.2065 65.633 35.683 66.726 34.1625 66.5615C34.1625 66.5615 35.391 67.627 34.407 68.157C33.6675 68.555 30.76 67.337 30.55 68.282L30.314 69.3445L30.096 71.01L29.1425 71.1945Z" fill="#F9C1C6"/>
<path fill-rule="evenodd" clip-rule="evenodd" d="M47.0575 111.547L45.521 176.079C47.9085 177.404 54.0605 178.587 56.426 177.926L62.9775 131.995C60.967 122.755 59.405 115.438 59.0325 113.498L59.1095 113.487L59.133 113.484L59.1685 113.479V113.478L59.1185 113.443C53.0745 114.132 49.027 113.009 47.0575 111.547Z" fill="#130E30"/>
<path fill-rule="evenodd" clip-rule="evenodd" d="M46.002 176.322L45.937 180.311L48.265 183.286C48.265 183.286 52.663 182.425 54.681 183.53L55.556 178.076C52.9895 178.318 48.3515 177.405 46.002 176.322Z" fill="#F9C1C6"/>
<path opacity="0.5" fill-rule="evenodd" clip-rule="evenodd" d="M55.1389 180.679L55.5564 178.076C52.9899 178.317 48.3514 177.405 46.0024 176.321C46.0024 176.321 49.7634 179.766 55.1389 180.679Z" fill="#0F1830"/>
<path fill-rule="evenodd" clip-rule="evenodd" d="M45.9365 180.311L48.266 183.286C48.266 183.286 52.6635 182.425 54.682 183.53C55.225 184.369 56.532 190.836 54.8365 190.594C54.8365 190.594 33.938 190.72 31.5525 190.72C31.5525 190.72 30.3415 190.58 30.8015 188.862C31.261 187.147 45.9365 180.311 45.9365 180.311Z" fill="#221850"/>
<path fill-rule="evenodd" clip-rule="evenodd" d="M59.0325 113.497C60.0275 118.678 69.507 162.216 73.349 178.279C76.4795 178.755 83.07 177.151 84.6525 175.411L77.4475 111.929C74.5645 112.078 69.266 111.622 61.922 113.014C60.925 113.203 59.961 113.364 59.0325 113.497Z" fill="#221850"/>
<path fill-rule="evenodd" clip-rule="evenodd" d="M59.0325 113.497C59.131 114.011 59.315 114.91 59.5665 116.115C63.7135 115.527 68.6545 114.625 71.982 115.055C71.982 115.055 72.0445 122.094 78.8025 123.86L77.448 111.929C74.565 112.078 69.2665 111.623 61.9225 113.015C60.925 113.203 59.961 113.364 59.0325 113.497Z" fill="#C3C3C3"/>
<path fill-rule="evenodd" clip-rule="evenodd" d="M74.28 178.359L75.5175 183.53C77.536 182.425 81.934 183.286 81.934 183.286L84.263 180.311L83.838 176.056C81.718 177.369 77.171 178.45 74.28 178.359Z" fill="#F9C1C6"/>
<path opacity="0.5" fill-rule="evenodd" clip-rule="evenodd" d="M74.28 178.359L74.8955 180.933C81.326 180.164 83.838 176.056 83.838 176.056C81.718 177.369 77.171 178.45 74.28 178.359Z" fill="#0F1830"/>
<path fill-rule="evenodd" clip-rule="evenodd" d="M84.263 180.311L81.9335 183.286C81.9335 183.286 77.536 182.425 75.517 183.53C74.9745 184.369 73.667 190.836 75.3625 190.594C75.3625 190.594 96.262 190.72 98.647 190.72C98.647 190.72 99.8575 190.58 99.3975 188.862C98.938 187.147 84.263 180.311 84.263 180.311Z" fill="#221850"/>
<path opacity="0.5" fill-rule="evenodd" clip-rule="evenodd" d="M77.9799 119.462C77.2809 120.403 76.8634 120.956 76.8634 120.956C75.3844 120.597 72.9304 115.659 73.6714 113.77C73.6714 113.77 74.2194 118.327 77.9799 119.462Z" fill="#0F1830"/>
<path fill-rule="evenodd" clip-rule="evenodd" d="M46.0532 91.787C45.8412 95.631 45.4586 106.311 45.2301 109.285C45.0496 111.642 50.5341 115.117 61.4266 113.221C72.3196 111.327 80.2216 113.443 79.5766 111.507C77.5236 105.344 76.1961 80.6665 74.9716 71.88C74.8116 70.729 74.2331 66.3505 73.9356 65.4635C73.9356 65.4635 69.8401 63.2005 64.4381 63.092C64.4381 63.092 62.2636 69.0585 57.2451 69.17C54.3761 69.2335 54.7997 66.5975 55.5877 64.495C56.0652 63.224 56.5496 63.045 56.6261 63.025C42.8926 65.1975 46.4872 83.8875 46.0532 91.787Z" fill="url(#paint0_linear_36_830)"/>
<path fill-rule="evenodd" clip-rule="evenodd" d="M46.5862 111.529C48.8207 113.241 53.7967 114.55 61.4267 113.221C72.3192 111.327 80.2207 113.443 79.5767 111.507C78.4412 108.099 77.5277 99.0255 76.7302 90.1105C73.7527 85.279 68.9162 76.5216 68.0722 73.3676H68.0717C68.0717 73.3676 68.2497 76.8156 72.1212 87.8956C75.9932 98.9761 73.0712 106.344 67.2917 106.502C61.5122 106.661 57.0427 115.744 47.4802 111.835C47.1697 111.709 46.8727 111.607 46.5862 111.529Z" fill="#E0E0E0"/>
<path fill-rule="evenodd" clip-rule="evenodd" d="M45.9432 94.0185C45.9002 94.955 45.8547 96.0195 45.8057 97.1435C47.3572 98.2305 49.8657 99.0615 53.8732 98.534C61.4967 97.531 70.7582 95.3985 77.4127 97.3365C77.2902 96.136 77.1717 94.907 77.0552 93.6665C73.8302 93.2365 69.4952 93.104 64.2457 93.9815C54.5717 95.599 49.5227 97.064 45.9432 94.0185Z" fill="white"/>
<path fill-rule="evenodd" clip-rule="evenodd" d="M45.7166 99.2535L45.5811 102.415C47.1106 103.58 49.6661 104.523 53.8736 103.97C61.7401 102.935 71.3496 100.697 78.0396 102.97C77.8906 101.767 77.745 100.497 77.604 99.179C74.3295 98.6905 69.7986 98.488 64.2456 99.417C54.3651 101.07 49.3096 102.561 45.7166 99.2535Z" fill="white"/>
<path fill-rule="evenodd" clip-rule="evenodd" d="M65.9895 63.1625C65.4755 63.1265 64.9575 63.103 64.4375 63.0925C64.4375 63.0925 62.263 69.059 57.244 69.1705C54.3755 69.234 54.799 66.599 55.587 64.4955C56.0645 63.2235 56.549 63.0455 56.6255 63.025C56.0835 63.1115 55.5715 63.222 55.082 63.357C53.191 64.9545 52.9 69.7035 55.667 70.5895C59.5515 71.833 65.5135 67.245 65.9895 63.1625Z" fill="white"/>
<path fill-rule="evenodd" clip-rule="evenodd" d="M39.3936 80.116L38.9881 80.7725C39.7386 84.367 43.6286 90.3235 45.0206 92.374L45.1546 92.2515C42.9271 87.8775 39.9671 84.322 39.3051 80.2595L39.3936 80.116ZM38.9881 80.7725C39.7386 84.367 43.6286 90.3235 45.0206 92.374C42.5676 94.639 40.0426 98.9025 36.4141 97.4325C34.2456 96.553 32.5826 94.137 31.9461 91.49C31.0126 87.609 29.1426 71.1945 29.1426 71.1945L30.0966 71.01L30.3146 69.3445C32.7721 70.6095 34.7581 67.0655 34.7581 67.0655C35.0111 66.1535 35.2681 64.9935 35.5026 63.811C35.5026 63.811 37.3121 65.0935 37.5401 66.4105C37.7686 67.727 35.7926 70.551 35.7926 70.551L38.1021 82.1955L38.9881 80.7725Z" fill="#F9C1C6"/>
<path opacity="0.5" fill-rule="evenodd" clip-rule="evenodd" d="M43.1995 94.2736C43.821 93.5966 44.4225 92.9256 45.0205 92.3741C43.6285 90.3236 39.7405 84.3681 38.9885 80.7731H38.988C38.988 80.7731 39.7285 89.3406 43.1995 94.2736ZM45.0205 92.3741C43.6285 90.3236 39.7405 84.3681 38.9885 80.7731L39.361 80.5706C40.119 84.5046 42.984 87.9901 45.1545 92.2516L45.0205 92.3741Z" fill="#0F1830"/>
<path fill-rule="evenodd" clip-rule="evenodd" d="M46.0111 92.403L46.0116 92.3985L46.0136 92.3725L46.0141 92.3655L46.0161 92.346L46.0166 92.3285L46.0171 92.3185L46.0196 92.2975L46.0201 92.2825V92.28L46.0236 92.231L46.0306 92.136L46.0521 91.7865C46.4441 84.6625 43.5621 68.768 53.0606 64.119C48.4986 66.173 44.7721 70.1015 38.8601 79.673C38.8431 83.6665 45.5166 93.094 45.5166 93.094C45.5166 93.094 45.7181 92.889 45.9956 92.594L45.9961 92.5885L45.9966 92.579V92.5775L45.9971 92.568L45.9986 92.552V92.55L46.0001 92.5395L46.0011 92.5235V92.5225L46.0016 92.516L46.0036 92.496V92.4935L46.0046 92.474L46.0051 92.4635L46.0066 92.4485L46.0111 92.403Z" fill="url(#paint1_linear_36_830)"/>
<path fill-rule="evenodd" clip-rule="evenodd" d="M43.4761 90.0105C44.6151 91.8195 45.5171 93.0945 45.5171 93.0945C45.5171 93.0945 45.7186 92.8895 45.9961 92.5945C46.0206 92.2955 46.0396 92.024 46.0526 91.787C46.3881 85.6975 44.3326 73.2005 49.6601 66.7955L49.6491 66.8025C45.6231 69.7765 45.2086 77.6765 44.5396 85.268C44.3671 87.221 43.9696 88.7765 43.4761 90.0105Z" fill="#E0E0E0"/>
<path opacity="0.5" fill-rule="evenodd" clip-rule="evenodd" d="M36.8897 65.125C36.2887 64.368 35.5032 63.811 35.5032 63.811C35.2677 64.9935 35.0107 66.154 34.7587 67.0655C34.7587 67.0655 32.7722 70.6095 30.3152 69.3445C30.3152 69.3445 31.4157 70.6845 34.0207 69.2475C35.8537 68.2365 36.6052 66.227 36.8897 65.125Z" fill="#0F1830"/>
<path fill-rule="evenodd" clip-rule="evenodd" d="M82.3246 96.1665C81.4071 94.9925 75.9916 86.3545 79.8501 91.4935C82.6211 89.982 85.8196 87.5725 88.8056 83.739C91.5171 88.592 93.1936 91.9455 93.1366 95.7135C93.0786 99.482 76.8636 120.957 76.8636 120.957C75.3846 120.597 72.9316 115.658 73.6716 113.77L82.3246 96.1665Z" fill="#F9C1C6"/>
<path opacity="0.5" fill-rule="evenodd" clip-rule="evenodd" d="M81.5641 95.069C79.8721 92.515 76.6296 87.2035 79.8501 91.4935C82.6211 89.982 85.8196 87.5725 88.8056 83.739L89.2516 84.5415C87.7206 89.59 84.1556 93.087 81.5641 95.069Z" fill="#0F1830"/>
<path fill-rule="evenodd" clip-rule="evenodd" d="M78.562 92.9C76.438 90.0705 68.6045 76.4145 67.983 72.98C67.1135 68.187 70.5405 63.472 74.3875 65.6945C81.205 69.632 88.7805 80.537 90.3165 83.287C87.3305 87.1205 81.3335 91.3885 78.562 92.9Z" fill="url(#paint2_linear_36_830)"/>
<path fill-rule="evenodd" clip-rule="evenodd" d="M147.438 62.151C149.001 59.203 151.238 54.5845 151.835 54.5845C153.113 54.5845 163.195 59.839 162.982 61.046C162.843 61.828 158.857 67.3235 155.856 72.8145C154.228 75.794 152.889 78.7735 152.615 80.9965C151.969 86.229 153.477 99.831 154.211 104.565C154.59 107.011 156.551 108.091 154.29 110.857C153.769 111.493 150.197 113.918 145.169 114.642C139.9 115.401 133.108 113.538 127.563 113.187C124.389 112.986 121.608 114.363 120.126 114.093C118.613 113.818 119.712 103.8 119.699 100.874C119.665 93.2515 120.505 85.29 117.701 78.807C117.339 77.97 116.126 76.143 114.671 74.0035C111.619 69.516 107.503 63.653 107.953 62.677C108.379 61.754 116.261 53.66 117.893 54.725C118.982 55.434 120.906 59.612 123.241 62.4975C123.678 63.039 126.179 67.352 132.077 64.091L140.031 64.2125C144.079 66.976 146.665 63.6085 147.438 62.151Z" fill="url(#paint3_linear_36_830)"/>
<path fill-rule="evenodd" clip-rule="evenodd" d="M154.354 105.216C154.919 107.228 156.34 108.349 154.29 110.857C153.769 111.493 150.197 113.918 145.169 114.642C139.9 115.401 133.108 113.538 127.563 113.187C124.389 112.986 121.608 114.364 120.126 114.094C119.626 114.003 119.412 112.852 119.348 111.246C121.237 110.265 124.948 109.061 130.813 110.112C138.285 111.449 144.569 114.185 151.486 109.77C154.642 107.755 154.469 105.753 154.354 105.216Z" fill="white"/>
<path fill-rule="evenodd" clip-rule="evenodd" d="M150.191 56.9125C150.935 55.5665 151.559 54.5845 151.835 54.5845C153.113 54.5845 163.195 59.839 162.982 61.046C162.933 61.323 162.401 62.192 161.601 63.441C157.125 59.9135 152.727 57.8945 150.191 56.9125Z" fill="white"/>
<path fill-rule="evenodd" clip-rule="evenodd" d="M109.278 65.8505C108.336 64.269 107.771 63.073 107.953 62.6775C108.378 61.7545 116.26 53.6605 117.893 54.7255C118.284 54.9805 118.786 55.686 119.374 56.6195C115.089 58.9535 110.906 63.826 109.278 65.8505Z" fill="white"/>
<path fill-rule="evenodd" clip-rule="evenodd" d="M130.624 64.7734C131.085 64.5969 131.568 64.3734 132.078 64.0914L140.032 64.2129C141.017 64.8849 141.915 65.1934 142.721 65.2559C145.784 69.8004 142.192 72.9439 137.334 71.9544C133.811 71.2369 130.319 68.5914 130.624 64.7734Z" fill="white"/>
<path fill-rule="evenodd" clip-rule="evenodd" d="M139.609 114.69C135.591 114.344 131.295 113.423 127.563 113.187C124.389 112.987 121.608 114.364 120.125 114.094C118.613 113.819 119.712 103.801 119.699 100.876C119.665 93.253 120.504 85.2905 117.701 78.808C117.339 77.9715 116.125 76.144 114.67 74.0045C114.67 74.0045 121.296 80.0385 122.484 85.264C123.672 90.49 122.562 109.413 126.838 110.838C131.114 112.262 135.674 111.814 139.609 114.69Z" fill="#E0E0E0"/>
<path fill-rule="evenodd" clip-rule="evenodd" d="M125.98 88.3915L129.027 83.6215L132.074 88.3915L129.027 93.1615L125.98 88.3915Z" fill="white"/>
<path fill-rule="evenodd" clip-rule="evenodd" d="M133.742 88.3915C134.756 86.802 135.772 85.2115 136.788 83.6215C137.803 85.211 138.819 86.8015 139.834 88.3915C138.819 89.9815 137.803 91.571 136.788 93.1615C135.772 91.571 134.757 89.981 133.742 88.3915Z" fill="white"/>
<path fill-rule="evenodd" clip-rule="evenodd" d="M141.501 88.3915C142.517 86.802 143.533 85.2115 144.548 83.6215C145.564 85.211 146.579 86.8015 147.595 88.3915C146.579 89.9815 145.563 91.571 144.548 93.1615C143.533 91.571 142.517 89.981 141.501 88.3915Z" fill="white"/>
<path fill-rule="evenodd" clip-rule="evenodd" d="M152.46 83.8585C152.438 86.2635 152.6 89.286 152.843 92.3255L152.308 93.161L149.262 88.391L152.308 83.621L152.46 83.8585Z" fill="white"/>
<path fill-rule="evenodd" clip-rule="evenodd" d="M107.995 33.068H163.809C165.646 33.068 167.148 31.566 167.148 29.729V3.339C167.148 1.502 165.646 0 163.809 0H107.995C106.157 0 104.655 1.502 104.655 3.339V29.729C104.655 31.5655 106.157 33.068 107.995 33.068Z" fill="#55B76B"/>
<path fill-rule="evenodd" clip-rule="evenodd" d="M152.168 54.643C152.475 53.399 152.793 52.3465 152.93 50.0735C153.066 47.8 153.852 37.86 153.852 37.86C153.852 37.86 151.012 34.7715 151.118 33.6C151.225 32.429 152.893 28.737 153.39 28.7015C153.887 28.6655 154.597 28.985 154.49 30.5475C154.383 32.1095 154.562 33.068 154.562 33.068H160.49C160.49 33.068 160.56 35.731 160.134 38.074C160.134 38.074 163.091 58.548 162.038 59.92C159.729 58.1095 153.864 55.0965 152.168 54.643Z" fill="#F9C1C6"/>
<path opacity="0.5" fill-rule="evenodd" clip-rule="evenodd" d="M154.562 33.068H160.491C160.491 33.068 160.512 33.873 160.461 34.987L154.562 33.068Z" fill="#0F1830"/>
<path opacity="0.5" fill-rule="evenodd" clip-rule="evenodd" d="M162.203 56.2334C162.312 58.1864 162.289 59.5934 162.039 59.9199V59.9204C159.729 58.1099 153.863 55.0964 152.168 54.6429L162.203 56.2334Z" fill="#0F1830"/>
<path fill-rule="evenodd" clip-rule="evenodd" d="M116.432 54.9715C114.77 48.249 114.646 44.9435 114.086 37.86C114.086 37.86 116.927 34.7715 116.82 33.6C116.713 32.429 115.045 28.737 114.548 28.7015C114.051 28.6655 113.342 28.985 113.448 30.5475C113.554 32.1095 113.377 33.068 113.377 33.068H107.448C107.448 33.068 107.378 35.731 107.804 38.074C107.387 40.9605 104.734 57.6755 108.833 61.5725L108.837 61.568C110.171 60.0805 112.738 57.5475 114.847 55.988C115.529 55.446 116.098 55.061 116.432 54.9715Z" fill="#F9C1C6"/>
<path opacity="0.5" fill-rule="evenodd" clip-rule="evenodd" d="M113.377 33.068H107.449C107.449 33.068 107.42 34.136 107.507 35.514L113.377 33.068Z" fill="#0F1830"/>
<path opacity="0.5" fill-rule="evenodd" clip-rule="evenodd" d="M107.113 57.9124C107.464 59.5024 108.014 60.7934 108.833 61.5719L108.837 61.5674C110.17 60.0799 112.739 57.5469 114.847 55.9874C115.476 55.4879 116.009 55.1209 116.35 54.9969L107.113 57.9124Z" fill="#0F1830"/>
<path fill-rule="evenodd" clip-rule="evenodd" d="M135.659 42.714H135.66C139.615 42.462 143.058 45.491 143.31 49.447C143.566 53.4525 144.541 61.2145 138.678 61.589C135.256 61.807 130.866 59.656 129.58 56.51C126.635 56.675 126.585 51.2785 129.072 52.6695L128.925 50.3655C128.674 46.4095 131.704 42.967 135.659 42.714Z" fill="#F9C1C6"/>
<path fill-rule="evenodd" clip-rule="evenodd" d="M131.573 59.1284C131.816 60.5024 132.14 62.8609 132.078 64.0914C134.211 70.5989 139.825 71.3109 141.6 69.4469C142.949 68.0304 140.032 64.2129 140.032 64.2129L139.493 61.4814C139.237 61.5334 138.966 61.5704 138.678 61.5889C136.326 61.7384 133.518 60.7704 131.573 59.1284Z" fill="#F9C1C6"/>
<path opacity="0.5" fill-rule="evenodd" clip-rule="evenodd" d="M140.032 64.2129L139.493 61.4814C139.237 61.5334 138.966 61.5704 138.678 61.5889C136.327 61.7384 133.518 60.7704 131.573 59.1284C131.573 59.1284 134.121 63.8299 140.032 64.2129Z" fill="#0F1830"/>
<path fill-rule="evenodd" clip-rule="evenodd" d="M129.072 52.6695C129.072 52.6695 129.841 53.2 130.457 54.1035C131.071 55.0065 131.341 53.6805 131.571 51.9125C131.802 50.1445 132.07 48.818 133.415 48.933C134.76 49.0485 136.49 50.3945 138.104 49.664C139.718 48.933 138.796 47.819 138.796 47.819C138.796 47.819 140.026 49.702 142.409 48.7795C144.792 47.8565 146.521 44.7825 145.906 44.1285C145.292 43.475 143.255 44.2815 143.255 44.2815C143.255 44.2815 144.792 43.3975 144.101 42.514C143.408 41.63 138.142 41.8215 134.914 41.36C131.686 40.8995 128.65 42.36 128.918 44.4355C128.918 44.4355 127.381 43.8955 127.727 47.24C128.073 50.584 128.227 52.4445 128.227 52.4445C128.464 52.4215 128.746 52.4875 129.072 52.6695Z" fill="#0F1830"/>
<path d="M128.053 53.9614C128.053 53.9614 128.995 52.9719 129.726 54.8364" stroke="#DD557F" stroke-width="0.7352" stroke-miterlimit="22.9256" stroke-linecap="round"/>
<path fill-rule="evenodd" clip-rule="evenodd" d="M137.142 53.9674C137.491 53.9674 137.776 53.6044 137.776 53.1599C137.776 52.7154 137.491 52.3524 137.142 52.3524C136.793 52.3524 136.508 52.7154 136.508 53.1599C136.508 53.6044 136.793 53.9674 137.142 53.9674Z" fill="#0F1830"/>
<path d="M141.947 53.7369C142.297 53.7369 142.581 53.3754 142.581 52.9294C142.581 52.4835 142.297 52.1219 141.947 52.1219C141.596 52.1219 141.312 52.4835 141.312 52.9294C141.312 53.3754 141.596 53.7369 141.947 53.7369Z" fill="#0F1830"/>
<path d="M139.819 53.4244C139.819 53.4244 140.448 55.4874 141.135 55.7189C141.135 55.7189 140.934 56.9514 139.804 56.3514" stroke="#DD557F" stroke-width="0.7352" stroke-miterlimit="22.9256" stroke-linecap="round" stroke-linejoin="round"/>
<path d="M135.693 51.558C135.693 51.558 137.057 50.828 138.576 51.6735" stroke="#0F1830" stroke-width="0.7352" stroke-miterlimit="22.9256" stroke-linecap="round"/>
<path d="M142.912 51.121C142.912 51.121 141.911 50.5345 140.645 51.725" stroke="#0F1830" stroke-width="0.7352" stroke-miterlimit="22.9256" stroke-linecap="round"/>
<path fill-rule="evenodd" clip-rule="evenodd" d="M139.067 57.3119C139.067 57.3119 137.43 56.3199 136.623 57.0349C135.815 57.7499 136.922 59.1109 138.283 59.1799C139.643 59.2489 139.805 57.6119 139.067 57.3119Z" fill="#0F1830"/>
<path opacity="0.5" fill-rule="evenodd" clip-rule="evenodd" d="M136.543 58.2149C136.861 58.7129 137.533 59.1419 138.282 59.1799C138.541 59.1929 138.757 59.1444 138.931 59.0544C138.21 58.2634 137.252 58.1554 136.543 58.2149Z" fill="#0F1830"/>
<path fill-rule="evenodd" clip-rule="evenodd" d="M139.066 57.3119C139.066 57.3119 137.429 56.3199 136.622 57.0349C136.549 57.0994 136.492 57.1689 136.449 57.2429C137.108 57.3274 138.147 57.5864 139.475 58.3229C139.566 57.9019 139.418 57.4549 139.066 57.3119Z" fill="white"/>
<path fill-rule="evenodd" clip-rule="evenodd" d="M121.177 114.082L120.194 130.336L117.404 176.494C117.404 176.494 121.659 178.924 128.82 177.535L139.61 114.69C135.592 114.345 131.296 113.423 127.563 113.187C125.032 113.028 122.75 113.872 121.177 114.082Z" fill="#221850"/>
<path fill-rule="evenodd" clip-rule="evenodd" d="M118.331 176.911L118.177 180.311L120.506 183.286C120.506 183.286 124.903 182.425 126.922 183.53L128 177.679C123.232 178.437 119.862 177.504 118.331 176.911Z" fill="#F9C1C6"/>
<path opacity="0.5" fill-rule="evenodd" clip-rule="evenodd" d="M127.56 180.064L128 177.678C123.232 178.436 119.862 177.503 118.331 176.911C118.331 176.911 122.237 179.938 127.56 180.064Z" fill="#0F1830"/>
<path fill-rule="evenodd" clip-rule="evenodd" d="M153.043 111.817L155.271 176.162C155.271 176.162 148.829 178.503 143.902 177.655L137.666 125.233L139.608 114.69C141.41 114.845 143.155 114.883 144.768 114.694C144.903 114.679 145.037 114.661 145.17 114.642L145.405 114.607L145.815 114.538L145.918 114.52C146.12 114.483 146.32 114.444 146.518 114.402L146.558 114.393C146.848 114.332 147.131 114.263 147.408 114.192L147.421 114.189C147.614 114.14 147.802 114.088 147.988 114.034L148.124 113.993C148.363 113.923 148.598 113.85 148.827 113.774L148.889 113.753L148.965 113.727L149.063 113.694L149.126 113.671L149.248 113.628L149.515 113.53L149.631 113.488L149.754 113.441L149.866 113.398L150.061 113.32L150.335 113.207L150.385 113.186L150.498 113.138L150.636 113.079L150.637 113.078L150.715 113.044L150.952 112.937L151.089 112.874L151.19 112.827L151.265 112.791L151.286 112.781L151.378 112.737L151.435 112.709L151.567 112.643L151.703 112.575L151.734 112.559L151.774 112.539C151.929 112.458 152.079 112.38 152.222 112.301L152.232 112.295L152.4 112.202L152.43 112.184L152.623 112.073L152.808 111.963L152.851 111.936L152.928 111.89L153.043 111.817Z" fill="#181138"/>
<path fill-rule="evenodd" clip-rule="evenodd" d="M154.459 176.431L154.643 180.68L152.319 183.649C152.319 183.649 147.921 182.787 145.903 183.893L144.897 177.783C148.56 178.107 152.734 176.97 154.459 176.431Z" fill="#F9C1C6"/>
<path opacity="0.5" fill-rule="evenodd" clip-rule="evenodd" d="M145.305 180.262L144.897 177.783C148.559 178.107 152.734 176.97 154.459 176.431C154.459 176.431 149.772 179.662 145.305 180.262Z" fill="#0F1830"/>
<path fill-rule="evenodd" clip-rule="evenodd" d="M154.643 180.311L152.314 183.286C152.314 183.286 147.916 182.425 145.897 183.53C145.354 184.369 144.491 190.722 146.185 190.48C146.185 190.48 166.641 190.72 169.027 190.72C169.027 190.72 170.238 190.58 169.777 188.863C169.318 187.147 154.643 180.311 154.643 180.311Z" fill="#FC5F5A"/>
<path fill-rule="evenodd" clip-rule="evenodd" d="M118.177 180.311L120.506 183.286C120.506 183.286 124.903 182.425 126.922 183.53C127.466 184.369 128.772 190.836 127.078 190.594C127.078 190.594 106.178 190.72 103.793 190.72C103.793 190.72 102.582 190.58 103.042 188.862C103.501 187.147 118.177 180.311 118.177 180.311Z" fill="#FC5F5A"/>
<path fill-rule="evenodd" clip-rule="evenodd" d="M188.973 100.429H163.583C162.901 100.429 162.345 99.872 162.345 99.191V79.864C162.345 79.1835 163.081 78.165 163.583 78.6255L170.473 84.9475H188.973C189.655 84.9475 190.212 85.5045 190.212 86.186V99.191C190.212 99.872 189.655 100.429 188.973 100.429Z" fill="#4A77E6"/>
<path fill-rule="evenodd" clip-rule="evenodd" d="M167.124 90.2795H185.283C185.674 90.2795 185.992 90.598 185.992 90.9885V90.99C185.992 91.3805 185.674 91.699 185.283 91.699H167.124C166.733 91.699 166.414 91.3805 166.414 90.99V90.9885C166.414 90.598 166.733 90.2795 167.124 90.2795Z" fill="white"/>
<path opacity="0.7" fill-rule="evenodd" clip-rule="evenodd" d="M167.123 94.4725H179.315C179.706 94.4725 180.024 94.791 180.024 95.1815V95.183C180.024 95.5735 179.706 95.892 179.315 95.892H167.123C166.733 95.892 166.414 95.5735 166.414 95.183V95.1815C166.414 94.791 166.733 94.4725 167.123 94.4725Z" fill="white"/>
<defs>
<linearGradient id="paint0_linear_36_830" x1="67.8998" y1="74.7513" x2="44.8401" y2="96.5273" gradientUnits="userSpaceOnUse">
<stop stop-color="#4571B1"/>
<stop offset="1" stop-color="#5F569B"/>
</linearGradient>
<linearGradient id="paint1_linear_36_830" x1="44.2745" y1="95.5163" x2="66.7552" y2="75.9948" gradientUnits="userSpaceOnUse">
<stop stop-color="#565DA2"/>
<stop offset="1" stop-color="#4571B1"/>
</linearGradient>
<linearGradient id="paint2_linear_36_830" x1="70.8728" y1="65.8078" x2="90.3189" y2="83.7702" gradientUnits="userSpaceOnUse">
<stop stop-color="#4571B1"/>
<stop offset="1" stop-color="#5A599E"/>
</linearGradient>
<linearGradient id="paint3_linear_36_830" x1="136.811" y1="46.4762" x2="127.389" y2="121.492" gradientUnits="userSpaceOnUse">
<stop stop-color="#F69863"/>
<stop offset="1" stop-color="#EC575D"/>
</linearGradient>
</defs>
</svg>
