<svg width="287" height="186" viewBox="0 0 287 186" fill="none" xmlns="http://www.w3.org/2000/svg">
<path d="M278.283 174.188C277.732 175.983 276.977 177.55 276.069 178.918H16.0367C15.7017 177.393 15.4178 175.676 15.1575 173.758C13.8225 163.925 9.0606 155.016 7.41012 145.082C5.55641 133.923 11.1493 125.328 15.5122 116.929C20.7928 106.763 22.1365 98.5363 22.4681 86.0176C22.7366 75.873 23.3689 65.5066 29.1986 58.445C34.745 51.7268 41.4358 52.2222 48.2869 51.7904C51.6558 51.5785 55.8426 51.1723 58.7349 48.3397C62.2401 44.9063 61.7141 40.2988 63.3658 35.2298C67.4301 22.7603 76.9929 21.8765 85.6378 22.5334C99.2372 23.5667 112.648 29.536 126.27 30.2902C136.08 30.8332 148.332 29.5035 157.117 22.6719C160.847 19.7714 164.247 15.3418 168.307 13.2894C173.274 10.7786 179.752 11.6161 184.813 13.1507C198.656 17.3491 210.561 26.812 223.782 33.4527C235.529 39.3531 247.514 38.1905 259.468 41.4549C273.154 45.1924 279.038 61.4515 279.037 80.3722C279.035 97.1729 273.525 113.131 275.266 129.76C276.643 142.913 282.263 161.239 278.283 174.188Z" fill="#A6EEB5"/>
<path d="M89.9634 179.605C89.9634 179.605 86.904 180.387 80.6872 177.507C78.0152 176.27 74.7595 174.356 70.9129 171.413C66.8296 168.289 61.2162 162.762 59.6057 158.017C64.9239 157.566 70.1407 158.599 74.8002 160.941C76.6462 161.868 78.4046 163 80.0469 164.328C82.7622 166.522 89.9102 174.921 89.9634 179.605Z" fill="#6AE284"/>
<path d="M89.9635 179.605C89.9635 179.605 86.9041 180.387 80.6872 177.508C81.8937 177.721 83.1039 177.76 84.2608 177.375C84.064 174.236 77.2276 170.512 74.8631 168.657C71.5619 166.066 67.9523 163.63 64.5793 161.314C68.2581 161.84 72.4951 165.753 75.6178 167.74C78.8494 169.797 81.99 171.982 85.1277 174.263C84.354 171.078 82.893 168.919 80.7286 166.329C79.6378 165.024 76.0669 162.189 74.8005 160.941C76.6465 161.868 78.4049 163.001 80.0472 164.328C82.7622 166.522 89.9103 174.921 89.9635 179.605Z" fill="#479C5A"/>
<path d="M89.447 178.383C89.447 178.383 87.062 175.31 87.2638 166.873C87.3508 163.247 87.9147 158.63 89.3518 152.84C90.8769 146.693 94.3654 137.639 98.9356 133.49C102.055 139.277 103.449 145.678 103.09 152.091C102.949 154.632 102.533 157.174 101.839 159.681C100.694 163.825 94.7136 176.023 89.447 178.383Z" fill="#6AE284"/>
<path d="M89.447 178.383C89.447 178.383 87.062 175.31 87.2638 166.873C87.6147 168.341 88.1647 169.727 89.1671 170.845C92.6167 169.083 93.4686 159.531 94.4044 155.949C95.7105 150.948 96.6908 145.675 97.6526 140.727C98.8641 145.141 96.5223 151.849 95.81 156.352C95.0729 161.012 94.146 165.632 93.1086 170.297C96.3267 167.86 98.0487 165.149 99.9123 161.433C100.852 159.56 102.302 154.134 103.09 152.091C102.949 154.632 102.533 157.174 101.839 159.681C100.694 163.825 94.7136 176.023 89.447 178.383Z" fill="#479C5A"/>
<path d="M91.7529 179.005C91.7529 179.005 92.0696 175.129 97.9175 169.044C100.431 166.429 103.966 163.405 108.937 160.106C114.213 156.604 122.901 152.283 129.074 152.312C127.465 158.686 124.169 164.347 119.573 168.834C117.752 170.612 115.728 172.205 113.523 173.586C109.879 175.868 97.2303 180.823 91.7529 179.005Z" fill="#6AE284"/>
<path d="M87.7444 179.564C87.7444 179.564 92.0697 175.129 97.9176 169.044C97.1849 170.363 96.6539 171.757 96.6378 173.259C100.372 174.289 107.452 167.821 110.562 165.812C114.903 163.007 119.188 159.78 123.239 156.781C121.151 160.854 114.893 164.219 111.326 167.058C107.635 169.997 103.83 172.778 99.9146 175.516C103.934 175.893 107.034 175.058 110.919 173.576C112.877 172.829 117.611 169.809 119.573 168.834C117.752 170.612 115.728 172.205 113.523 173.585C109.879 175.868 93.2215 181.382 87.7444 179.564Z" fill="#479C5A"/>
<path d="M228.281 178.044C228.281 178.044 225.221 178.826 219.005 175.946C216.333 174.709 213.077 172.795 209.231 169.852C205.147 166.728 199.534 161.201 197.923 156.456C203.242 156.005 208.458 157.038 213.118 159.38C214.964 160.307 216.722 161.439 218.365 162.766C221.08 164.96 228.228 173.359 228.281 178.044Z" fill="#6AE284"/>
<path d="M228.281 178.044C228.281 178.044 225.221 178.826 219.005 175.946C220.211 176.16 221.421 176.199 222.578 175.814C222.382 172.675 215.545 168.951 213.181 167.095C209.879 164.505 206.27 162.069 202.897 159.752C206.575 160.278 210.812 164.192 213.935 166.179C217.167 168.235 220.307 170.42 223.445 172.702C222.671 169.517 221.21 167.358 219.046 164.768C217.955 163.462 214.384 160.627 213.117 159.379C214.964 160.307 216.722 161.439 218.364 162.766C221.08 164.96 228.228 173.359 228.281 178.044Z" fill="#479C5A"/>
<path d="M227.764 176.821C227.764 176.821 225.379 173.749 225.581 165.311C225.668 161.685 226.232 157.068 227.669 151.278C229.194 145.131 232.683 136.077 237.253 131.928C240.373 137.715 241.767 144.116 241.408 150.529C241.266 153.07 240.85 155.613 240.156 158.12C239.011 162.264 233.031 174.462 227.764 176.821Z" fill="#6AE284"/>
<path d="M227.764 176.821C227.764 176.821 225.379 173.749 225.581 165.311C225.932 166.779 226.482 168.166 227.484 169.284C230.934 167.521 231.786 157.969 232.722 154.387C234.028 149.386 235.008 144.113 235.97 139.165C237.181 143.579 234.839 150.287 234.127 154.79C233.39 159.45 232.463 164.071 231.426 168.735C234.644 166.298 236.366 163.588 238.229 159.871C239.169 157.998 240.619 152.573 241.407 150.529C241.266 153.07 240.849 155.612 240.156 158.119C239.011 162.264 233.031 174.462 227.764 176.821Z" fill="#479C5A"/>
<path d="M230.07 177.444C230.07 177.444 230.387 173.567 236.235 167.482C238.749 164.867 242.283 161.843 247.254 158.544C252.531 155.042 261.219 150.722 267.391 150.75C265.783 157.124 262.487 162.786 257.89 167.272C256.07 169.051 254.046 170.644 251.841 172.024C248.197 174.307 235.548 179.261 230.07 177.444Z" fill="#6AE284"/>
<path d="M226.062 178.003C226.062 178.003 230.387 173.567 236.235 167.482C235.502 168.802 234.971 170.195 234.955 171.697C238.69 172.727 245.77 166.26 248.879 164.25C253.22 161.445 257.505 158.219 261.557 155.22C259.468 159.293 253.21 162.657 249.643 165.497C245.952 168.435 242.148 171.216 238.232 173.955C242.251 174.332 245.352 173.496 249.236 172.015C251.194 171.268 255.928 168.247 257.89 167.273C256.069 169.051 254.045 170.644 251.841 172.024C248.197 174.307 231.539 179.82 226.062 178.003Z" fill="#479C5A"/>
<path d="M38.4819 178.877C38.4819 178.877 40.4821 179.388 44.5464 177.506C46.2929 176.697 48.4214 175.445 50.9361 173.521C53.6056 171.479 57.2753 167.866 58.3281 164.764C54.8513 164.469 51.4408 165.144 48.3949 166.675C47.188 167.282 46.0384 168.022 44.9649 168.889C43.1897 170.324 38.5166 175.814 38.4819 178.877Z" fill="#6AE284"/>
<path d="M38.4819 178.877C38.4819 178.877 40.4821 179.388 44.5464 177.506C43.7575 177.645 42.9664 177.671 42.2101 177.419C42.3387 175.367 46.808 172.933 48.3537 171.719C50.5118 170.026 52.8717 168.434 55.0765 166.919C52.6716 167.263 49.9018 169.822 47.8603 171.121C45.7477 172.465 43.6946 173.893 41.6435 175.385C42.1491 173.303 43.1044 171.891 44.5194 170.198C45.2326 169.345 47.5668 167.491 48.3949 166.676C47.188 167.282 46.0384 168.022 44.9649 168.89C43.1897 170.324 38.5166 175.815 38.4819 178.877Z" fill="#479C5A"/>
<path d="M38.8194 178.078C38.8194 178.078 40.3787 176.069 40.2467 170.554C40.1899 168.183 39.8212 165.165 38.8816 161.379C37.8846 157.361 35.604 151.441 32.6163 148.729C30.5767 152.513 29.6657 156.697 29.9003 160.89C29.9928 162.551 30.2649 164.213 30.7181 165.852C31.467 168.561 35.3767 176.535 38.8194 178.078Z" fill="#6AE284"/>
<path d="M38.8195 178.078C38.8195 178.078 40.3788 176.069 40.2468 170.553C40.0173 171.513 39.6578 172.419 39.0026 173.15C36.7474 171.998 36.1904 165.754 35.5786 163.412C34.7247 160.143 34.0839 156.695 33.4551 153.46C32.6631 156.346 34.1942 160.731 34.6596 163.675C35.1415 166.722 35.7474 169.742 36.4257 172.792C34.3218 171.199 33.196 169.426 31.9778 166.997C31.3635 165.772 30.4155 162.225 29.9004 160.89C29.9929 162.551 30.265 164.213 30.7182 165.852C31.4671 168.561 35.3768 176.535 38.8195 178.078Z" fill="#479C5A"/>
<path d="M37.3121 178.485C37.3121 178.485 37.1053 175.951 33.282 171.973C31.639 170.263 29.328 168.286 26.0784 166.129C22.6288 163.84 16.949 161.015 12.9138 161.034C13.9654 165.201 16.1201 168.903 19.1251 171.836C20.3154 172.998 21.6386 174.04 23.0799 174.942C25.4621 176.434 33.7314 179.673 37.3121 178.485Z" fill="#6AE284"/>
<path d="M39.9327 178.85C39.9327 178.85 37.1051 175.951 33.2819 171.973C33.7611 172.835 34.1081 173.746 34.1187 174.728C31.6774 175.402 27.0487 171.173 25.016 169.86C22.1779 168.026 19.3769 165.917 16.7283 163.957C18.0934 166.619 22.1844 168.819 24.5164 170.675C26.9295 172.596 29.4167 174.414 31.9765 176.205C29.3491 176.451 27.322 175.905 24.7825 174.936C23.5021 174.448 20.4075 172.473 19.125 171.836C20.3153 172.999 21.6385 174.04 23.0797 174.943C25.4622 176.434 36.3521 180.039 39.9327 178.85Z" fill="#479C5A"/>
<path d="M286.73 180.26C286.73 180.421 286.565 180.579 286.242 180.736C285.432 181.128 283.625 181.511 280.923 181.878C263.439 184.252 208.47 185.984 143.365 185.984C64.1864 185.984 0 183.421 0 180.26C0 179.826 1.20619 179.404 3.49263 178.999C7.11601 178.355 13.4511 177.753 21.9946 177.212C47.377 175.604 92.2471 174.536 143.365 174.536C222.544 174.536 286.73 177.099 286.73 180.26Z" fill="#55B76B"/>
<path d="M90.4746 74.6753C90.2218 74.9975 89.9249 75.3301 89.581 75.672C89.2364 76.0152 88.5923 76.1534 87.7271 76.1209C87.6062 76.1175 87.4802 76.1103 87.3495 76.0992C86.413 76.0229 85.2591 75.7797 83.9683 75.4129C78.8187 73.9524 71.4728 70.5181 66.9172 67.7385L67.2337 64.9341C70.0494 65.2881 79.7882 65.3463 83.834 66.3818C84.0254 66.4292 84.2164 66.4813 84.4061 66.533C84.5468 66.5706 84.6867 66.6094 84.8254 66.6515C84.9609 66.6888 85.0951 66.729 85.2294 66.7693C85.6651 66.9017 86.0918 67.0428 86.5055 67.1902C89.0691 68.1141 91.127 69.3801 91.5775 71.109C91.6218 71.2745 90.7691 74.3038 90.4746 74.6753Z" fill="#E8A273"/>
<path d="M82.0806 111.096C80.2173 115.751 76.3998 116.906 72.1292 116.76C67.8953 116.615 63.8929 117.547 59.9488 118.472C55.9165 119.418 52.7538 119.901 48.9604 117.051C45.0866 114.143 43.0044 109.922 41.9145 105.056C40.5958 99.1648 41.0534 94.3422 43.0559 90.0691C44.4511 87.0889 46.5996 84.3772 49.4218 81.7585C52.4694 78.9293 55.2567 76.6195 58.3939 73.627C65.7011 66.6567 62.0055 56.7098 61.9501 56.5612C63.2114 57.0373 64.0268 58.4217 64.2866 59.754C64.1248 58.4231 64.1701 57.1589 64.9929 56.2046C66.5232 57.2682 66.3843 59.6033 66.2798 61.3901C66.9649 60.5128 67.7769 59.5419 68.7117 59.244C68.7408 59.2349 68.7685 59.2257 68.7974 59.218C68.8939 59.8378 68.8855 60.4784 68.8434 61.0953C68.7184 62.8867 67.0036 64.3679 67.0138 66.2847C67.0251 68.2335 68.3666 70.4236 69.1745 72.1839C71.1652 76.5181 74.0854 80.2723 76.4263 84.443C80.9479 92.5001 85.8114 101.777 82.0806 111.096Z" fill="#BFB9AF"/>
<path d="M67.7714 95.3671L66.8889 94.2703L64.1589 96.6523L64.732 97.3648C64.7332 97.3665 64.7351 97.3665 64.7368 97.366C66.5335 96.9945 67.6243 96.1962 67.8124 96.0505C67.8169 96.0469 67.8227 96.0529 67.8191 96.0578C66.8535 97.3636 64.947 97.6316 64.947 97.6316L62.6457 98.0641C62.6428 98.0646 62.6401 98.0627 62.6397 98.0598L62.5876 97.7398C62.5867 97.7354 62.5814 97.734 62.5787 97.7374L61.1115 100.152C61.1096 100.155 61.1101 100.159 61.113 100.16L63.2583 101.897C63.2619 101.899 63.2665 101.896 63.266 101.891L63.2197 101.61C63.2193 101.606 63.2212 101.604 63.2238 101.604L65.7162 101.135C66.1354 101.056 66.4843 100.752 66.6322 100.337L67.9703 96.582C68.1179 96.1668 68.0423 95.7038 67.7714 95.3671Z" fill="white"/>
<path d="M60.7677 92.9212C60.7686 92.9195 60.7682 92.9176 60.767 92.9157C59.6128 91.4502 58.4239 90.8407 58.2127 90.7398C58.2074 90.7369 58.2098 90.729 58.2154 90.7299C59.7659 90.9753 60.8794 92.5757 60.8871 92.5865C60.8869 92.587 60.8871 92.5868 60.8871 92.5868L62.7728 94.9312C62.7745 94.9334 62.7743 94.937 62.7721 94.9385L62.5797 95.1065C62.5766 95.1089 62.578 95.1145 62.5821 95.1152L65.3723 95.2142C65.375 95.2147 65.3779 95.2125 65.3779 95.2091L65.716 92.3804C65.716 92.3761 65.7111 92.3734 65.708 92.3765L65.5098 92.5497C65.5074 92.5514 65.5045 92.5509 65.5026 92.5485L63.4647 90.0152C63.194 89.6788 62.769 89.5201 62.3502 89.5986L58.5636 90.3102C58.1446 90.3889 57.7957 90.6933 57.6476 91.1085L57.1621 92.4717L60.4854 93.7147L60.7677 92.9212Z" fill="white"/>
<path d="M59.0009 98.7519C58.3644 100.543 58.4528 101.92 58.4745 102.161C58.4749 102.167 58.467 102.169 58.4651 102.164C57.8922 100.645 58.6698 98.8114 58.6698 98.8114H58.6688L59.7343 95.8283C59.7353 95.8256 59.7382 95.8244 59.7408 95.8249L59.9571 95.9061C59.9612 95.9075 59.9653 95.9037 59.9636 95.8991L58.7201 93.3728L56.1485 94.4721C56.1449 94.4742 56.1452 94.4803 56.1493 94.481L56.4084 94.5785C56.411 94.5795 56.4124 94.5828 56.4115 94.5853L55.2954 97.7114C55.1473 98.1268 55.2226 98.5903 55.4935 98.9267L57.942 101.969C58.2129 102.306 58.638 102.465 59.0565 102.386L61.1329 101.996L60.5548 98.4569L59.005 98.748C59.003 98.7483 59.0016 98.7497 59.0009 98.7519Z" fill="white"/>
<path d="M69.4474 65.6333C68.2164 64.8495 68.1641 61.9204 66.8433 61.3241C65.0792 60.5268 62.1621 62.1364 62.1589 63.2848C62.9093 63.9479 63.5392 62.9474 64.2496 62.7454C64.6387 63.8145 64.527 64.9078 65.3554 65.8828C66.2704 66.959 68.9605 67.4341 69.9381 66.6582L69.4474 65.6333Z" fill="#E8A273"/>
<path d="M63.5633 64.7546C63.9424 64.7038 65.3195 64.365 65.2249 63.5872C65.1071 62.6141 63.6512 63.3469 63.272 63.4579C63.7586 63.1648 64.3525 62.8313 64.5475 62.152C63.9913 61.2186 62.9264 62.637 62.5081 63.1328L62.5443 63.1068C62.1571 63.4757 61.9637 64.6164 61.8674 65.1584C61.7901 65.594 61.7518 67.4198 61.9095 67.6924C62.6348 68.9475 65.7455 67.3042 63.5783 66.4638C64.024 66.585 65.3783 66.7535 65.3696 65.8011C65.3617 64.9545 64.01 64.7828 63.5633 64.7546Z" fill="#E8A273"/>
<path d="M108.486 27.3781C106.309 28.2667 104.195 27.7981 102.093 27.0172C99.4357 26.0306 94.1154 25.0633 92.3568 28.0365L91.9761 31.3627C94.4645 30.9666 96.3163 32.487 97.705 34.3788C99.3584 36.6303 102.015 38.4864 104.925 37.8336C107.735 37.2032 109.025 35.5195 110.316 32.9306C111.063 31.4357 111.729 28.8519 111.886 27.1901C111.965 26.3395 111.907 25.3482 111.982 24.4856C111.434 25.8218 109.63 26.911 108.486 27.3781Z" fill="#49150F"/>
<path d="M84.9341 25.2029C84.9837 25.1507 85.0356 25.1037 85.0934 25.0645L84.9341 25.2029Z" fill="#E8A273"/>
<path d="M85.1938 21.8023L85.3196 21.6436C85.2748 21.6907 85.2326 21.7449 85.1938 21.8023Z" fill="#E8A273"/>
<path d="M80.0218 38.5772C80.0146 39.6138 79.4643 42.1647 77.9783 42.9791C78.5158 46.176 79.4398 48.0906 80.6175 48.5616C82.793 49.4317 86.4741 44.9607 91.6509 38.8206C90.4643 38.2622 88.986 38.1582 88.0384 36.2746C87.2442 34.6983 86.6044 32.7203 86.2369 30.4435C86.2283 30.399 86.222 30.3535 86.2148 30.3084C85.9528 28.6269 84.1229 23.4253 85.1943 21.8032L78.8339 29.893L77.4001 31.7167C78.4436 34.0007 80.0377 36.2221 80.0218 38.5772Z" fill="#E8A273"/>
<path d="M80.0218 38.5772C80.6019 38.7535 81.2453 38.8402 81.9578 38.8226C84.061 38.7722 86.3805 37.81 88.0381 36.2746C87.244 34.6983 86.6042 32.7204 86.2367 30.4435L78.8334 29.8931L77.3997 31.7167C78.4435 34.0007 80.0377 36.2221 80.0218 38.5772Z" fill="#C87E53"/>
<path d="M76.8899 13.6711C78.1514 12.188 80.1964 11.3777 82.0378 11.1593L83.4691 11.0741C86.3202 9.95312 89.7515 13.2777 90.6193 15.6773C91.6507 18.5286 91.9317 25.3056 91.3095 28.3417C90.0508 34.4853 82.3593 39.4895 77.2227 37.7236C74.3219 36.7262 72.1658 27.6236 73.7488 24.7975C76.9749 19.0377 73.501 17.6538 76.8899 13.6711Z" fill="#E8A273"/>
<path d="M81.0452 26.7066C81.3076 26.8029 81.4926 26.0338 81.7517 26.0868C82.5538 26.2503 83.3453 26.2211 84.1636 26.0983C84.4224 26.0603 84.7584 26.8544 85.0245 26.8003C85.0245 26.8003 84.7336 25.033 84.539 24.438C84.1015 23.0998 81.9282 22.6144 81.2843 25.1204C81.1335 25.7082 81.1193 26.1812 81.0452 26.7066Z" fill="#C87E53"/>
<path d="M81.0452 26.7065C81.3076 26.8028 81.5682 26.8763 81.8261 26.929C82.6289 27.0928 83.4197 27.0634 84.2375 26.9413C84.4964 26.9028 84.7584 26.8541 85.0245 26.8002C85.0245 26.8002 84.8171 26.3275 84.48 25.8045C84.4747 25.796 84.4687 25.7871 84.4627 25.778C84.0061 25.1449 81.9898 24.6876 81.7204 25.0329C81.3457 25.5085 81.1193 26.1816 81.0452 26.7065Z" fill="white"/>
<path d="M81.7203 25.033C81.6452 25.2844 81.604 25.5613 81.605 25.8517C81.6076 26.2493 81.6881 26.6175 81.8263 26.9288C82.6291 27.0926 83.4199 27.0632 84.2377 26.9411C84.3904 26.6146 84.479 26.2242 84.4802 25.8043C84.4749 25.7959 84.4689 25.7869 84.4629 25.7778C84.0061 25.145 82.8926 23.2445 81.7203 25.033Z" fill="#2B2221"/>
<path d="M83.4876 26.1723C83.4888 26.4374 83.593 26.6486 83.7202 26.6466C83.8476 26.643 83.9497 26.4261 83.9489 26.1612C83.948 25.8963 83.8432 25.6844 83.7163 25.6868C83.5882 25.6902 83.4864 25.9069 83.4876 26.1723Z" fill="white"/>
<path d="M73.115 25.1363C73.337 25.268 73.6084 24.5299 73.8321 24.6183C74.528 24.8907 75.2403 24.9713 75.989 24.9612C76.2252 24.9588 76.4171 25.7932 76.663 25.7763C76.663 25.7763 76.6454 23.9823 76.5537 23.3652C76.3456 21.9762 74.4678 21.1955 73.5475 23.5949C73.3317 24.1574 73.2547 24.6246 73.115 25.1363Z" fill="#C87E53"/>
<path d="M73.115 25.1361C73.337 25.2683 73.5598 25.3759 73.7837 25.4645C74.4794 25.7366 75.191 25.8173 75.9391 25.8077C76.1763 25.8053 76.4171 25.7932 76.6628 25.7764C76.6628 25.7764 76.5424 25.2784 76.3129 24.7137C76.3093 24.7041 76.3047 24.6944 76.3006 24.6853C75.9794 23.9932 74.2386 23.2621 73.9494 23.5675C73.5489 23.9884 73.2544 24.6251 73.115 25.1361Z" fill="white"/>
<path d="M73.9492 23.5675C73.8476 23.8073 73.7727 24.0765 73.7335 24.3643C73.6812 24.759 73.7029 25.1361 73.7836 25.4643C74.4792 25.7364 75.1908 25.8171 75.939 25.8074C76.1203 25.505 76.2542 25.1291 76.3125 24.7135C76.3089 24.7038 76.3043 24.6942 76.3002 24.685C75.9795 23.9932 75.2433 21.9534 73.9492 23.5675Z" fill="#2B2221"/>
<path d="M75.2892 24.9367C75.2545 25.2006 75.3186 25.4255 75.4327 25.4397C75.5469 25.4539 75.6685 25.2526 75.7036 24.9899C75.739 24.7264 75.675 24.501 75.5608 24.4871C75.4467 24.4724 75.3248 24.6742 75.2892 24.9367Z" fill="white"/>
<path d="M73.6638 20.4025C74.1996 19.8072 75.0846 19.5813 75.7812 19.5606C76.1472 19.5496 77.8249 19.8089 77.606 20.7011C77.41 21.5013 76.0208 20.6459 75.656 20.5532C74.9201 20.3647 74.2897 20.4153 73.5754 20.5778L73.6638 20.4025Z" fill="#632118"/>
<path d="M86.6328 22.2814C86.0272 21.4752 84.8988 21.0017 83.984 20.8074C83.5041 20.7056 81.2492 20.5893 81.3869 21.6553C81.5107 22.611 83.485 21.9823 83.9816 21.965C84.9836 21.9313 85.8054 22.1422 86.72 22.5022L86.6328 22.2814Z" fill="#632118"/>
<path d="M78.6799 29.0117L78.6756 29.057C78.4454 29.4738 77.7338 29.7577 77.349 29.7917C76.8265 29.8379 76.3196 29.2595 76.0889 28.6042C76.7494 29.076 77.9816 29.4748 78.6799 29.0117Z" fill="#C87E53"/>
<path d="M75.5715 31.1929C75.5715 31.1929 75.5956 31.2102 75.6409 31.2427C75.6866 31.2738 75.7514 31.3265 75.8391 31.3786C75.8829 31.4051 75.9291 31.4364 75.9821 31.4665C76.0358 31.4953 76.0943 31.5267 76.1564 31.5599C76.2198 31.5905 76.2891 31.6194 76.3602 31.6512C76.4331 31.6786 76.5102 31.7075 76.5904 31.7378C76.7546 31.787 76.9323 31.8356 77.1247 31.8657C77.3162 31.9006 77.5218 31.9112 77.7332 31.918C77.9454 31.9247 78.1645 31.9021 78.3863 31.8806C78.6081 31.8534 78.8318 31.811 79.0526 31.7559C79.2734 31.7008 79.493 31.6379 79.704 31.5589C79.9135 31.4778 80.1223 31.401 80.3149 31.3051C80.5087 31.2124 80.6934 31.1156 80.8644 31.0159C80.9492 30.9649 81.0318 30.915 81.1093 30.8632C81.189 30.8144 81.2632 30.7633 81.334 30.713C81.4751 30.6121 81.601 30.5141 81.7104 30.4233C81.8173 30.3303 81.9124 30.2489 81.9844 30.176C82.0588 30.1049 82.1154 30.0467 82.1532 30.006C82.1917 29.9655 82.2122 29.9438 82.2122 29.9438C82.2122 29.9438 82.1977 29.9696 82.1705 30.0185C82.1431 30.0671 82.1053 30.1408 82.0448 30.2263C81.988 30.3147 81.9119 30.4173 81.8175 30.5297C81.7231 30.6419 81.6114 30.7655 81.4777 30.888C81.3467 31.0135 81.1953 31.1397 81.0267 31.262C80.8581 31.3839 80.6751 31.5072 80.4741 31.6141C80.2749 31.7244 80.063 31.8286 79.8393 31.9153C79.6163 32.0032 79.3832 32.0762 79.1472 32.139C78.9088 32.1937 78.6673 32.2349 78.4272 32.2594C78.1867 32.2811 77.9478 32.2823 77.7178 32.2645C77.4879 32.2474 77.2666 32.2101 77.0628 32.153C76.8572 32.1029 76.6718 32.0237 76.5056 31.9471C76.4245 31.903 76.346 31.8643 76.2747 31.8207C76.2051 31.7737 76.1386 31.7316 76.0787 31.6882C76.0209 31.6422 75.9669 31.5994 75.9168 31.5594C75.8689 31.517 75.8275 31.4744 75.7892 31.4383C75.7102 31.368 75.665 31.2998 75.6272 31.2586C75.5906 31.2155 75.5715 31.1929 75.5715 31.1929Z" fill="#C87E53"/>
<path d="M79.6162 14.0376C79.7378 16.7728 87.4524 16.0928 88.9507 18.2023C90.023 19.7148 89.5848 21.777 89.8012 23.4797C89.9775 24.8668 89.3367 30.2102 90.7905 30.6109L92.7872 28.2481C93.5306 27.7003 95.3751 23.4535 95.6971 22.1223C96.2654 19.7634 97.9238 16.8448 97.167 14.6687C96.682 13.2764 95.5998 11.6259 93.132 10.7263C90.5417 9.78182 83.0982 8.75671 80.564 11.938C79.8702 12.8078 79.5921 13.4902 79.6162 14.0376Z" fill="#632118"/>
<path d="M72.6413 12.2239C73.5843 10.5026 75.8052 8.12659 80.2334 8.04954C81.9106 8.02016 84.1804 8.67057 86.4974 9.91505L89.0403 11.2616C88.1074 11.8555 82.9747 10.7673 81.8627 11.3353C80.8881 11.8338 79.8115 12.7431 79.1604 13.6297C78.842 14.0627 78.6655 14.5982 78.2838 15.0018C77.8114 15.4995 77.1884 15.6727 76.6466 16.0606C75.4211 16.9367 75.4158 17.8674 75.2844 19.2284C75.2675 19.4013 75.273 19.5901 75.2494 19.769C72.0807 18.9064 71.1177 15.004 72.6413 12.2239Z" fill="#632118"/>
<path d="M79.616 14.0377C79.7376 16.773 85.0362 17.6649 86.5348 19.7741C87.6068 21.2869 87.1885 22.8576 87.405 24.5601C87.5815 25.9471 89.3365 30.2103 90.7902 30.6108L92.787 28.248C93.5304 27.7002 95.3749 23.4534 95.6969 22.1222C96.2652 19.7633 96.4335 17.1958 95.6764 15.0197C95.6461 15.8493 95.4496 16.6733 94.8724 17.0347C93.8788 17.6562 93.3678 15.8122 92.8812 15.2475C92.2346 14.4962 90.9653 13.6078 89.9366 13.6235C91.0197 14.4507 92.4053 16.2076 91.6328 17.6314C91.1813 17.4846 90.941 16.9189 90.5928 16.5784C90.1839 16.1818 89.6924 15.8861 89.1651 15.6715C88.106 15.2453 86.8974 15.1095 85.7611 15.1105C83.6191 15.1131 81.4774 15.1897 79.616 14.0377Z" fill="#49150F"/>
<path d="M93.4264 30.3828C92.6731 31.8183 91.3099 32.5862 90.3797 32.0986C89.45 31.6114 89.3067 30.052 90.0592 28.617C90.8112 27.1821 92.1756 26.4139 93.1051 26.902C94.0351 27.3892 94.1786 28.9481 93.4264 30.3828Z" fill="#E8A273"/>
<path d="M91.2817 28.0457C91.2817 28.0457 91.295 28.0272 91.3193 27.992C91.3311 27.9742 91.3465 27.9527 91.367 27.9272C91.3865 27.9024 91.4094 27.8735 91.4385 27.8449C91.4936 27.7842 91.5676 27.7153 91.6644 27.6477C91.7612 27.5809 91.883 27.5167 92.0323 27.4764C92.1797 27.4391 92.3589 27.4271 92.5419 27.4769C92.6336 27.5003 92.7239 27.5415 92.8094 27.5947C92.8951 27.6481 92.9715 27.7182 93.0391 27.7969C93.1075 27.875 93.1631 27.9633 93.2075 28.0573C93.2532 28.1505 93.2872 28.2482 93.3095 28.3481C93.3341 28.4476 93.3481 28.5485 93.3553 28.6494L93.3577 28.7245L93.3587 28.7428L93.3592 28.7534L93.3594 28.7724L93.358 28.8064L93.3531 28.9417C93.3317 29.1573 93.2891 29.3407 93.2313 29.5238C93.2002 29.6121 93.1711 29.702 93.1333 29.7853C93.1145 29.8274 93.0962 29.8691 93.0779 29.9107C93.0598 29.9521 93.0379 29.9912 93.0179 30.0304C92.939 30.1889 92.8467 30.3331 92.7567 30.4663C92.709 30.5318 92.6628 30.5949 92.6165 30.6548C92.5672 30.7126 92.5221 30.7694 92.4754 30.821C92.4268 30.8718 92.3817 30.9216 92.3367 30.9657C92.2897 31.0093 92.2452 31.0507 92.2038 31.0897C92.1164 31.1617 92.0386 31.2226 91.9709 31.2669C91.9057 31.3156 91.8471 31.3435 91.8108 31.3657C91.7723 31.3857 91.7525 31.3965 91.7525 31.3965C91.7525 31.3965 91.7665 31.3789 91.7932 31.3445C91.8199 31.3112 91.8587 31.2631 91.9052 31.1988C91.9531 31.1369 92.0044 31.0558 92.0648 30.9676C92.093 30.9219 92.1238 30.8735 92.1559 30.8217C92.1862 30.7702 92.218 30.7157 92.251 30.6582C92.2828 30.6009 92.315 30.5412 92.3492 30.479C92.3808 30.4159 92.4133 30.3507 92.4468 30.2837C92.5103 30.1486 92.5753 30.0066 92.6324 29.8558C92.6931 29.7072 92.7408 29.5495 92.7875 29.3913C92.8287 29.2331 92.8614 29.0645 92.8761 28.9215L92.8831 28.7869L92.885 28.7539V28.7496L92.8853 28.7474C92.885 28.7443 92.8848 28.7664 92.8845 28.7563V28.7488V28.7342L92.8828 28.6752C92.878 28.5971 92.873 28.5201 92.858 28.4464C92.8308 28.3002 92.7815 28.1649 92.7071 28.0575C92.6705 28.0028 92.6281 27.9552 92.5814 27.914C92.5344 27.873 92.4817 27.8425 92.427 27.8155C92.3174 27.7637 92.1937 27.7459 92.0766 27.749C91.9586 27.7541 91.8471 27.7782 91.7491 27.8112C91.6516 27.8451 91.5649 27.8817 91.4968 27.9195C91.4296 27.9566 91.3752 27.9862 91.3395 28.0105C91.3017 28.0339 91.2817 28.0457 91.2817 28.0457Z" fill="#C87E53"/>
<path d="M104.2 86.2669L104.019 86.3047L103.74 86.364L83.9101 90.5672C83.2546 89.1169 82.8499 83.7248 82.4569 82.2785C79.7724 72.38 79.9913 69.4809 75.4285 63.3953C75.3647 63.3099 75.2922 63.2258 75.2137 63.1415C75.1949 63.1199 75.1747 63.0999 75.1542 63.078C75.0933 63.0158 75.0297 62.9532 74.9628 62.8923C74.8992 62.8328 74.8337 62.775 74.7656 62.717C74.7612 62.7124 74.7584 62.7098 74.754 62.7083C74.683 62.646 74.6076 62.5865 74.5322 62.5256C74.5293 62.5227 74.5265 62.5198 74.5236 62.5183C74.4757 62.4805 74.4263 62.4415 74.3772 62.4037C73.9594 62.082 73.4982 61.7627 73.0689 61.4321C73.0412 61.4116 73.0152 61.3914 72.9892 61.3697C72.9427 61.3333 72.8962 61.297 72.8512 61.2611C72.7322 61.1653 72.6178 61.0697 72.5076 60.9709C72.4859 60.9521 72.4642 60.9317 72.4423 60.9114C72.377 60.8522 72.3147 60.7925 72.2537 60.7316C72.2147 60.6926 72.1769 60.6516 72.1391 60.6112C72.0825 60.5502 72.0288 60.4876 71.978 60.4255C71.9607 60.4053 71.9446 60.3834 71.9287 60.3631C71.9128 60.3427 71.8966 60.321 71.8807 60.2991C71.8646 60.2789 71.8502 60.2569 71.8357 60.2355C71.8054 60.1936 71.7777 60.15 71.7517 60.1064C71.7298 60.0715 71.7098 60.0354 71.6907 59.999C71.6749 59.9685 71.6604 59.9398 71.6457 59.9092C71.6342 59.8861 71.6238 59.8642 71.6154 59.8411C71.5848 59.7715 71.5602 59.7019 71.54 59.6294C71.5342 59.6092 71.5284 59.5873 71.5241 59.567C71.4877 59.4146 71.4733 59.2581 71.4849 59.0955C71.6414 56.9432 72.6901 54.0466 73.183 52.118C74.1012 48.537 73.0583 46.9361 73.7718 45.3001C73.7922 45.2536 73.8139 45.2088 73.8356 45.1636C74.4954 43.7917 75.7601 43.1854 77.0262 42.6142C77.4773 42.4095 77.9283 42.2094 78.3533 41.9801L88.4577 37.4624C89.2408 37.944 90.2678 38.3035 91.3873 38.6024C92.2388 38.8285 93.1438 39.0187 94.0371 39.1984C96.1184 39.6176 98.1342 39.9803 99.2496 40.6112C101.601 41.9397 100.797 63.1013 100.826 68.7328V68.7807C100.854 73.1503 103.015 81.8814 104.175 86.1788C104.184 86.2089 104.193 86.238 104.2 86.2669Z" fill="#E8A273"/>
<path d="M92.1472 109.796C89.9097 115.379 75.8103 131.221 71.2859 135.666C70.9979 135.949 70.7479 136.187 70.5437 136.372L68.7459 136.49L61.121 136.991C61.1193 136.91 61.121 136.829 61.1242 136.747C61.1639 134.728 61.9961 132.713 62.9442 130.581C64.2813 127.571 74.3686 96.3171 86.4202 95.3372C88.2671 95.187 89.9872 96.1413 91.2343 97.8062C93.2566 100.5 94.0448 105.056 92.1472 109.796Z" fill="#E8A273"/>
<path d="M71.3348 134.984C71.3189 135.21 71.303 135.438 71.2857 135.666C71.042 138.962 70.6605 142.435 69.836 145.641C67.9592 152.943 54.4881 170.209 52.3074 172.845C52.2472 172.918 52.187 172.992 52.1253 173.069L47.1797 172.29C48.4331 169.922 50.5363 164.345 52.7993 158.205C55.8571 149.906 59.2043 140.577 61.1237 136.747C61.2819 136.43 61.4307 136.152 61.5685 135.914L69.0556 135.201L71.3348 134.984Z" fill="#E8A273"/>
<path d="M92.1473 109.796C89.9097 115.379 75.8104 131.221 71.2859 135.666C71.0422 138.963 70.6608 142.435 69.8362 145.641C67.9594 152.943 54.4883 170.209 52.3076 172.845C52.2474 172.918 52.1872 172.992 52.1256 173.069L47.1799 172.29C48.4333 169.922 50.5365 164.345 52.7996 158.205C56.1911 158.595 59.2153 156.869 61.6764 153.622C64.8906 149.381 68.0731 143.338 68.6522 137.954C68.7155 137.367 68.7139 136.907 68.7456 136.491C68.7757 136.046 68.8422 135.649 69.0558 135.201C69.1586 134.984 69.2947 134.756 69.4784 134.504C70.2206 133.487 71.2084 132.675 71.9727 131.624C74.9654 127.511 77.8204 123.143 80.5217 118.798C84.6332 112.181 88.1923 104.624 91.2341 97.8062C93.2566 100.5 94.0448 105.056 92.1473 109.796Z" fill="#C87E53"/>
<path d="M121.414 127.406L116.905 136.989L116.82 137.169C115.033 136.063 113.73 134.216 112.385 132.197C110.56 129.454 89.5755 104.192 95.2048 93.4904C97.4647 89.1937 105.654 89.7018 110.481 96.4008C111.222 97.4295 112.069 99.0881 112.955 101.123C115.973 108.054 119.458 119.342 120.86 124.924C120.877 124.995 120.895 125.064 120.912 125.134C121.15 126.09 121.322 126.867 121.414 127.406Z" fill="#E8A273"/>
<path d="M155.605 130.347C153.396 130.497 149.015 131.305 143.94 132.317C133.894 134.323 121.129 137.136 117.1 137.247L111.171 129.432C114.273 127.798 117.644 126.153 121.023 125.099C125.112 123.824 133.905 124.039 141.361 124.548C147.025 124.936 151.916 125.493 153.38 125.694C153.473 125.707 153.569 125.72 153.665 125.732L155.605 130.347Z" fill="#E8A273"/>
<path d="M52.708 172.507L49.9318 170.953C49.2522 168.708 47.8007 170.378 46.8733 170.936C45.7712 171.598 44.1104 171.73 42.862 171.857C40.6625 172.081 35.9281 170.955 35.3528 173.992C38.7835 175.838 46.1791 179.043 50.0842 180.137C51.765 180.607 51.0328 178.813 51.5921 176.446C51.9762 174.817 52.4099 174.122 52.708 172.507Z" fill="white"/>
<path d="M120.86 124.923C120.737 125.071 120.602 125.188 120.46 125.281C120.218 125.441 119.952 125.525 119.672 125.552C118.018 125.704 115.875 123.771 114.971 122.806C112.482 120.146 110.175 116.863 108.802 113.464C107.767 110.899 107.088 108.237 105.8 105.786C105.088 104.431 104.352 102.256 103.303 101.239L112.955 101.123C115.973 108.053 119.458 119.342 120.86 124.923Z" fill="#C87E53"/>
<path d="M103.333 81.6907C99.1665 83.1613 95.9132 85.3083 91.7842 86.7916C91.3071 86.9631 90.8294 87.1333 90.356 87.3144C90.3449 87.3197 90.3343 87.3241 90.322 87.3298C89.8674 87.5333 89.4168 87.7462 88.9672 87.9603C87.7753 88.5281 86.5866 89.105 85.3776 89.6355C84.5634 89.9924 83.4954 90.5048 82.4051 90.8323C80.6691 94.1444 76.713 100.754 75.2768 102.782C73.276 105.604 71.4165 108.958 69.8801 112.224C71.0615 114.013 72.3002 115.748 73.6689 117.567C74.6798 118.91 75.6852 120.276 76.8492 121.492C77.1368 121.793 77.4277 122.09 77.7294 122.377C77.8467 122.488 77.9651 122.6 78.0846 122.71C78.1084 122.731 78.1349 122.754 78.1672 122.783C78.7205 123.261 79.2869 123.724 79.8742 124.161C80.3573 124.52 80.8507 124.862 81.3489 125.195C83.815 123.063 85.642 120.524 87.5968 118.731C90.1031 116.43 91.991 113.845 94.2406 111.207C95.4899 109.74 96.7763 108.159 98.022 106.502C100.715 102.913 103.219 98.9621 104.773 95.0197C106.721 90.074 105.455 85.5026 103.333 81.6907Z" fill="#AC4071"/>
<path d="M77.7298 122.377C77.8471 122.489 77.9655 122.6 78.085 122.711C78.1088 122.732 78.1353 122.755 78.1676 122.783C78.721 123.262 79.2873 123.725 79.8746 124.161C80.6004 124.701 81.3469 125.206 82.1059 125.691C84.4172 123.601 86.0982 121.097 88.2688 118.806C90.609 116.336 91.9912 113.846 94.2408 111.208C95.4901 109.741 96.7765 108.16 98.0221 106.503C97.3698 101.226 93.1381 96.4817 88.4292 94.2974C92.7969 97.5249 89.6568 105.404 87.559 109.037C85.7597 112.154 83.0639 114.728 80.6857 117.449C79.9796 118.257 78.5574 120.019 76.9768 121.624C77.2229 121.879 77.4721 122.132 77.7298 122.377Z" fill="#89335E"/>
<path d="M85.9888 99.7905L85.9931 99.7268C85.9701 99.7335 85.9672 99.7539 85.9888 99.7905Z" fill="#892C5B"/>
<path d="M120.3 119.002C117.57 121.211 113.061 122.771 109.275 123.661C108.058 123.947 106.917 124.166 105.934 124.313C102.747 120.868 99.2798 116.405 96.8901 112.146C95.3646 109.429 82.8986 89.2224 82.6819 89.2874L87.4643 77.7741C93.6664 76.4196 97.9299 77.2722 102.516 82.1688C102.689 82.3542 102.86 82.5406 103.029 82.7322C107.025 87.2093 110.233 93.285 112.629 98.6227C114.049 101.785 115.576 104.597 116.579 107.847C117.582 111.093 119.787 114.669 120.3 119.002Z" fill="#AC4071"/>
<path d="M109.276 123.66C111.561 118.998 113.162 114.293 112.586 108.566C112.035 103.116 109.426 98.4536 107.546 93.3211C106.286 89.8759 105.11 85.8624 103.029 82.7322C107.025 87.2092 110.233 93.2849 112.629 98.6226C114.049 101.785 115.576 104.597 116.579 107.847C117.583 111.093 119.787 114.668 120.3 119.001C117.57 121.211 113.061 122.771 109.276 123.66Z" fill="#89335E"/>
<path d="M143.94 132.317C144.875 129.812 144.529 126.913 142.242 125.175C141.958 124.96 141.664 124.751 141.36 124.549C147.024 124.937 151.916 125.494 153.38 125.695C153.473 125.707 153.568 125.72 153.665 125.732L155.605 130.347C153.396 130.497 149.016 131.305 143.94 132.317Z" fill="#C87E53"/>
<path d="M152.288 125.86L153.839 128.638C153.242 130.906 155.354 130.243 156.436 130.254C157.721 130.267 159.205 131.024 160.336 131.569C162.326 132.531 165.77 135.97 167.851 133.684C165.895 130.314 161.273 123.711 158.519 120.734C157.333 119.453 157.017 121.365 155.301 123.089C154.121 124.275 153.388 124.639 152.288 125.86Z" fill="white"/>
<path d="M104.175 86.1785C104.159 86.1857 104.107 86.2305 104.019 86.3044C103.355 86.8715 100.65 89.2006 95.8449 90.5467C91.3678 91.8013 83.011 91.1993 83.011 91.1993C82.3555 89.7491 82.8499 83.7245 82.4569 82.2784C79.7724 72.3799 79.9913 69.4809 75.4285 63.3953C75.3647 63.3098 75.2922 63.2257 75.2137 63.1415C75.1949 63.1198 75.1747 63.0981 75.1542 63.0779C75.0933 63.0158 75.0297 62.9532 74.9628 62.8922C74.8992 62.8328 74.8337 62.775 74.7656 62.7169C74.7612 62.7123 74.7584 62.7097 74.754 62.7083C74.683 62.6459 74.6091 62.585 74.5322 62.5255C74.5293 62.5226 74.5265 62.5197 74.5236 62.5183C74.4757 62.479 74.4263 62.4414 74.3772 62.4036C73.9594 62.0819 73.4982 61.7626 73.0689 61.432C73.0412 61.4115 73.0152 61.3913 72.9892 61.3696C72.9427 61.3333 72.8962 61.2969 72.8512 61.261C72.7322 61.1652 72.6178 61.0696 72.5076 60.9709C72.4859 60.9521 72.4642 60.9316 72.4423 60.9114C72.377 60.8521 72.3147 60.7924 72.2537 60.7315C72.2147 60.6925 72.1769 60.6515 72.1391 60.6111C72.0825 60.5502 72.0288 60.4876 71.978 60.4254C71.9607 60.4052 71.9446 60.3833 71.9287 60.3631C71.9128 60.3426 71.8966 60.3209 71.8807 60.299C71.8646 60.2788 71.8502 60.2569 71.8357 60.2354C71.8054 60.1935 71.7777 60.15 71.7517 60.1064C71.7298 60.0715 71.7098 60.0353 71.6907 59.999C71.6749 59.9684 71.6604 59.9397 71.6457 59.9092C71.6342 59.886 71.6238 59.8641 71.6154 59.841C71.5848 59.7714 71.5602 59.7018 71.54 59.6293C71.5342 59.6091 71.5284 59.5872 71.5241 59.567C71.4877 59.4145 71.4733 59.258 71.4849 59.0955C71.6414 56.9432 72.6901 54.0465 73.183 52.1179C74.1012 48.5369 73.0583 46.9361 73.7718 45.3C73.7922 45.2536 73.8139 45.2088 73.8356 45.1635C74.5433 43.7697 76.5651 42.8258 77.8327 42.2543C77.6978 44.3732 74.7405 51.2462 77.9777 51.2462C81.4556 51.2462 86.9363 47.6421 91.3873 38.6025C92.2388 38.8287 93.1438 39.0189 94.0371 39.1985C93.4599 42.1571 92.9203 45.2218 93.2336 48.3443C93.4221 50.2295 93.6629 51.9005 94.278 53.0359C94.6201 53.6668 95.0769 54.1322 95.705 54.3759C96.7464 54.7834 98.2589 54.5806 100.494 53.516C100.577 53.4768 100.661 53.4361 100.745 53.3939C100.7 55.1879 100.692 56.9487 100.703 58.7225C100.723 61.9247 100.804 65.1678 100.826 68.7327V68.7806C100.854 73.1503 103.015 81.8813 104.175 86.1785Z" fill="#02AFBF"/>
<path d="M106.151 86.9956C104.646 88.1293 101.283 89.0242 95.8443 90.547C91.3672 91.8016 81.7799 91.9018 81.7799 91.9018C82.5711 88.8949 82.8495 83.7248 82.4565 82.2788C79.772 72.3803 79.9909 69.4812 75.4282 63.3956C74.8697 62.6501 73.7546 61.9874 72.8508 61.2609C76.6594 62.7112 82.8972 62.6835 85.6195 62.495C93.4745 61.951 94.3751 58.4923 95.7048 54.376C96.7463 54.7835 98.2588 54.5807 100.494 53.5161C100.575 53.4769 100.659 53.4362 100.745 53.394C100.7 55.188 100.979 56.2406 100.989 58.0144C101.01 61.2255 100.804 65.185 100.826 68.7614V68.7805C100.854 73.1503 104.991 82.6985 106.151 86.9956Z" fill="#0598A0"/>
<path d="M106.286 71.7259C106.231 73.0443 106.12 74.2929 105.947 75.4434C105.767 75.8107 105.545 76.1969 105.279 76.6036C105.013 77.0103 104.412 77.2796 103.559 77.4281C103.44 77.4489 103.316 77.4676 103.184 77.4852C102.253 77.6039 101.073 77.6054 99.7357 77.5153C99.6042 75.868 99.6582 73.8404 99.3685 72.2691C99.3179 71.9985 99.2705 71.7295 99.2214 71.4653C99.2182 71.4432 99.2151 71.421 99.2103 71.402C99.0393 70.4381 98.8874 69.536 98.7544 68.7669C98.753 68.7573 98.7513 68.7462 98.7496 68.7368C98.5801 67.7478 98.4457 66.9801 98.3508 66.5811C98.0041 65.1156 96.8694 60.0833 96.1051 54.7959C96.0829 54.6454 96.0625 54.4951 96.0401 54.3449C94.8296 45.6771 94.7075 36.5836 100.78 41.6162C103.106 43.5467 106.769 60.2554 106.286 71.7259Z" fill="#E8A273"/>
<path d="M105.947 75.4428C105.766 75.8105 105.545 76.1974 105.28 76.6032C105.014 77.0106 104.412 77.2791 103.559 77.4272C103.44 77.4491 103.316 77.4677 103.185 77.4843C102.253 77.604 101.074 77.6052 99.735 77.5142C94.3944 77.1542 86.4958 75.319 81.4628 73.545L81.0842 69.9394C83.912 69.7015 87.1169 69.2601 87.9924 69.1713C89.2253 69.0448 93.5569 68.5336 97.7296 68.7072C97.9268 68.714 98.1245 68.7253 98.3208 68.7366C98.466 68.7441 98.6109 68.7532 98.7554 68.7655C98.8956 68.7739 99.0355 68.7852 99.1751 68.7966C99.6286 68.8361 100.075 68.8852 100.511 68.9435C103.21 69.3157 105.486 70.127 106.286 71.725C106.364 71.8777 106.158 75.0182 105.947 75.4428Z" fill="#E8A273"/>
<path d="M80.4999 64.9039C79.2226 64.2533 78.6623 64.6316 78.9946 65.9813C79.1985 66.8092 79.4434 68.3932 80.0428 68.9834L83.8307 69.407C83.122 69.4457 81.6547 65.4922 80.4999 64.9039Z" fill="#E8A273"/>
<path d="M94.0318 119.953C91.6071 125.012 87.2611 126.018 82.5045 125.539C77.7893 125.064 73.253 125.808 68.7822 126.549C64.2113 127.307 60.6452 127.612 56.6221 124.151C52.5133 120.618 50.5011 115.752 49.6446 110.24C48.6084 103.566 49.476 98.217 52.0273 93.5959C53.8049 90.3723 56.4037 87.5045 59.748 84.79C63.3593 81.8577 66.6412 79.4855 70.3641 76.3772C79.0364 69.137 75.6471 57.7611 75.5963 57.5911C76.9691 58.2153 77.7768 59.821 77.9682 61.3277C77.8861 59.8303 78.0303 58.4219 79.0193 57.418C80.6488 58.7183 80.3211 61.3149 80.0721 63.3013C80.9019 62.3728 81.8801 61.3491 82.9456 61.0859C82.9786 61.0777 83.0102 61.0695 83.0431 61.0633C83.105 61.7618 83.0484 62.4763 82.9557 63.1621C82.6839 65.1521 80.6604 66.6788 80.5296 68.8191C80.3982 70.9955 81.7337 73.5391 82.505 75.5638C84.4061 80.5494 87.3882 84.9556 89.6925 89.7842C94.1433 99.1118 98.8854 109.827 94.0318 119.953Z" fill="#E8E5DE"/>
<path d="M94.0318 119.953C91.6071 125.012 87.2611 126.018 82.5045 125.539C77.7893 125.064 73.253 125.808 68.7822 126.549C64.2113 127.307 60.6452 127.612 56.6221 124.151C52.5133 120.618 50.5011 115.752 49.6446 110.24C48.6084 103.566 49.476 98.2169 52.0273 93.5959C51.3641 100.904 55.3051 105.1 54.544 109.5C54.4657 112.66 57.5391 113.832 59.5927 114.728C63.7318 116.533 71.8867 113.481 77.0127 111.715C82.897 109.689 86.149 103.242 80.592 96.0442C78.4448 93.2633 74.8722 90.0915 74.2769 86.2834C73.783 83.1122 77.9757 76.7389 80.7037 80.7562C81.777 76.5091 78.5146 72.7271 79.1847 68.5248C79.6009 65.9188 81.5439 63.5755 82.9451 61.0859C82.9781 61.0777 83.0097 61.0695 83.0427 61.0632C83.1046 61.7618 83.048 62.4763 82.9553 63.1621C82.6834 65.1521 80.6599 66.6788 80.5292 68.8191C80.3977 70.9954 81.7332 73.5391 82.5045 75.5637C84.4056 80.5494 87.3877 84.9556 89.692 89.7842C94.1433 99.1118 98.8854 109.827 94.0318 119.953Z" fill="#CEC8BC"/>
<path d="M79.2227 101.337L78.3188 100.048L75.0951 102.505L75.6822 103.343C75.6832 103.344 75.6853 103.344 75.6872 103.344C77.7199 103.063 78.9971 102.252 79.2174 102.103C79.2227 102.099 79.2288 102.107 79.2244 102.112C78.05 103.498 75.9023 103.656 75.9023 103.656L73.3014 103.969C73.298 103.969 73.2953 103.966 73.2951 103.963L73.2604 103.602C73.2597 103.597 73.2542 103.595 73.2508 103.599L71.4344 106.186C71.432 106.189 71.4325 106.193 71.4354 106.195L73.7016 108.292C73.7057 108.295 73.7107 108.292 73.7105 108.286L73.6797 107.969C73.6794 107.965 73.6816 107.963 73.6847 107.962L76.5014 107.624C76.9751 107.567 77.3871 107.253 77.5831 106.8L79.3547 102.709C79.5505 102.256 79.5001 101.733 79.2227 101.337Z" fill="white"/>
<path d="M71.5863 98.0893C71.5873 98.0874 71.587 98.0852 71.5858 98.0831C70.4059 96.3616 69.1241 95.5934 68.8958 95.4653C68.89 95.4617 68.8934 95.4528 68.8997 95.4542C70.6123 95.8431 71.7368 97.712 71.7443 97.7243C71.7443 97.7248 71.7443 97.7248 71.7443 97.7248L73.6758 100.481C73.6775 100.484 73.6767 100.488 73.6743 100.489L73.4472 100.663C73.4434 100.665 73.4446 100.671 73.4492 100.672L76.5563 100.989C76.5594 100.99 76.5628 100.987 76.5628 100.984L77.1494 97.8514C77.1498 97.8466 77.1446 97.8435 77.1409 97.8466L76.9069 98.025C76.9042 98.0267 76.9009 98.0265 76.8992 98.0234L74.8119 95.0448C74.5345 94.6492 74.0719 94.4404 73.5987 94.4973L69.3194 95.0114C68.846 95.0682 68.4337 95.3825 68.2379 95.8347L67.595 97.32L71.2126 98.9536L71.5863 98.0893Z" fill="white"/>
<path d="M69.1826 104.466C68.3398 106.418 68.3367 107.962 68.3432 108.233C68.3434 108.239 68.3342 108.241 68.3323 108.235C67.805 106.498 68.8086 104.508 68.8086 104.508L68.8089 104.508L68.8079 104.508L70.2178 101.257C70.2193 101.254 70.2222 101.253 70.2253 101.254L70.4605 101.361C70.4649 101.363 70.4699 101.359 70.4683 101.354L69.2671 98.4417L66.3153 99.4786C66.311 99.4807 66.311 99.4872 66.3156 99.4889L66.5976 99.6163C66.6002 99.6175 66.6017 99.6216 66.6002 99.624L65.1231 103.031C64.9269 103.484 64.977 104.007 65.2546 104.403L67.7623 107.98C68.0397 108.376 68.5026 108.585 68.9757 108.527L71.3224 108.246L70.9388 104.253L69.1874 104.463C69.1852 104.463 69.1836 104.464 69.1826 104.466Z" fill="white"/>
<path d="M84.7489 70.0391L83.443 73.1886C81.3919 74.062 80.1462 74.3262 77.4441 73.7131C77.0752 73.629 76.3728 73.518 75.6834 73.3502C74.4114 73.0429 73.1802 72.5473 74.1331 71.6898C73.6428 70.919 73.1836 70.1138 74.2877 69.7829C74.1333 69.0268 73.6758 68.2622 74.8519 68.0407C73.9616 66.5588 74.8331 66.1627 76.2854 66.2746C78.5956 66.4523 82.3789 67.9138 82.8767 68.3263C83.5478 68.8813 83.9885 69.7071 84.7489 70.0391Z" fill="#E8A273"/>
<path d="M75.6834 73.3504C74.4114 73.0432 73.1802 72.5476 74.1331 71.6901C73.6428 70.9193 73.1836 70.114 74.2877 69.7832C74.1333 69.027 73.6758 68.2625 74.8519 68.0409C73.9616 66.559 74.8331 66.1629 76.2854 66.2749C76.0058 66.8425 76.0583 67.5836 76.5137 68.0472C75.3973 68.0484 75.1172 69.6336 75.9557 70.1747C74.8923 70.2265 75.194 71.6504 75.8283 72.0417C75.3349 72.3672 75.4084 72.8782 75.6834 73.3504Z" fill="#C87E53"/>
<path d="M102.933 70.1642C101.701 69.699 100.32 69.3048 99.0443 68.8378C98.9824 68.8157 98.9208 68.7935 98.8591 68.7731C98.8228 68.7603 98.7864 68.7478 98.75 68.7365C98.5805 67.7475 98.4462 66.9798 98.3513 66.5808C98.0045 65.1153 96.8698 60.0829 96.1055 54.7956C96.0834 54.6451 96.0629 54.4948 96.0405 54.3446L95.2466 47.9185C96.3605 52.7974 98.6075 63.832 100.01 68.4769C100.7 68.6098 101.559 68.814 102.189 69.2491C102.523 69.4806 102.79 69.778 102.933 70.1642Z" fill="#C87E53"/>
<path d="M159.613 51.8876L148.565 49.9629C147.992 52.7353 147.451 55.519 146.938 58.2718C145.938 63.6418 145.385 69.2487 145.37 74.6521C145.362 77.5379 145.189 84.1899 149.633 82.7523C154.634 81.1348 157.138 66.1859 157.871 61.9118C158.625 57.5246 158.97 55.4713 159.613 51.8876Z" fill="#E8A273"/>
<path d="M150.466 45.6474C149.931 44.1893 147.187 43.4151 146.263 44.3543C144.57 46.0746 141.413 57.7712 140.282 64.3986C143.612 66.8076 147.847 66.0336 152.133 66.9027L150.466 45.6474Z" fill="#57315B"/>
<path d="M151.436 73.8157C147.707 73.5607 137.11 80.4742 133.431 81.887C133.723 82.9954 134.358 83.6894 134.76 84.7177C141.272 84.0104 154.681 85.1058 157.544 79.3318L151.436 73.8157Z" fill="#E8A273"/>
<path d="M136.107 81.4603C134.173 80.9815 131.132 78.8283 129.106 79.4914C127.385 80.0542 128.371 83.5302 129.683 84.6285C131.029 85.7538 129.326 87.5141 130.965 87.1717C131.511 87.0575 136.776 85.1051 137.67 84.3196L136.377 81.4947C136.309 81.5039 136.3 81.5079 136.107 81.4603Z" fill="#C87E53"/>
<path d="M131.724 83.8963C132.159 83.0973 131.108 82.8194 130.858 82.2885C130.662 81.8721 130.986 81.5131 130.567 81.0986C130.299 80.8333 129.78 80.8836 129.502 80.9676C129.237 80.0988 128.286 80.5934 127.907 80.9099L127.354 80.8925C126.982 80.9773 125.776 81.4216 125.418 81.9003C124.779 82.7537 125.748 83.7675 126.515 83.7179C125.866 84.3953 126.905 85.9699 127.66 84.9681C127.24 86.125 127.836 87.1987 129.04 86.8348C129.472 89.3888 134.406 84.8171 131.724 83.8963Z" fill="#E8A273"/>
<path d="M129.975 77.5513C128.123 79.2205 124.277 80.2225 125.387 81.5592C125.911 82.2867 128.671 80.5575 129.614 79.9025C130.036 80.3405 130.64 81.4234 131.634 82.0466C133.05 82.9337 136.834 83.6472 137.713 82.1227L136.557 80.549C135.254 80.3598 130.775 76.8305 129.975 77.5513Z" fill="#E8A273"/>
<path d="M124.006 175.767L121.23 174.213C120.55 171.968 119.099 173.639 118.171 174.196C117.069 174.858 115.408 174.99 114.16 175.117C111.961 175.341 107.226 174.215 106.651 177.252C110.082 179.098 117.477 182.303 121.383 183.397C123.063 183.867 122.331 182.073 122.89 179.706C123.274 178.078 123.708 177.383 124.006 175.767Z" fill="white"/>
<path d="M163.445 113.056C161.208 118.639 147.108 134.481 142.584 138.926C142.296 139.21 142.046 139.447 141.842 139.632L140.044 139.751L132.419 140.251C132.417 140.17 132.419 140.09 132.422 140.007C132.462 137.988 133.294 135.973 134.242 133.842C135.579 130.832 145.667 99.5776 157.718 98.5977C159.565 98.4475 161.285 99.4018 162.532 101.067C164.555 103.76 165.343 108.316 163.445 113.056Z" fill="#E8A273"/>
<path d="M142.633 138.244C142.617 138.471 142.601 138.699 142.584 138.926C142.34 142.223 141.959 145.695 141.134 148.901C139.257 156.203 125.786 173.469 123.605 176.106C123.545 176.178 123.485 176.253 123.423 176.329L118.478 175.55C119.731 173.183 121.834 167.606 124.097 161.466C127.155 153.167 130.502 143.837 132.422 140.007C132.58 139.691 132.729 139.413 132.867 139.175L140.354 138.461L142.633 138.244Z" fill="#E8A273"/>
<path d="M163.445 113.056C161.208 118.639 147.108 134.481 142.584 138.926C142.34 142.223 141.959 145.695 141.134 148.901C139.258 156.203 125.786 173.469 123.606 176.106C123.546 176.178 123.485 176.253 123.424 176.329L118.478 175.55C119.731 173.183 121.835 167.606 124.098 161.466C127.489 161.855 130.513 160.13 132.974 156.882C136.189 152.641 139.371 146.599 139.95 141.215C140.014 140.628 140.012 140.167 140.044 139.751C140.074 139.307 140.14 138.909 140.354 138.461C140.457 138.245 140.593 138.017 140.777 137.765C141.519 136.747 142.506 135.935 143.271 134.885C146.263 130.772 149.118 126.404 151.82 122.058C155.931 115.441 159.49 107.884 162.532 101.067C164.555 103.76 165.343 108.316 163.445 113.056Z" fill="#C87E53"/>
<path d="M205.3 131.293L204.006 141.804L203.981 142.002C201.938 141.508 200.125 140.16 198.216 138.661C195.627 136.624 167.808 119.17 169.818 107.246C170.624 102.459 178.564 100.386 185.24 105.245C186.264 105.991 187.586 107.303 189.063 108.96C194.093 114.603 200.925 124.241 203.999 129.107C204.038 129.169 204.076 129.229 204.114 129.29C204.638 130.125 205.045 130.809 205.3 131.293Z" fill="#E8A273"/>
<path d="M238.702 123.42C236.65 124.252 232.74 126.385 228.234 128.931C219.315 133.97 208.065 140.626 204.271 141.988L196.201 136.413C198.638 133.892 201.327 131.278 204.209 129.223C207.696 126.735 216.117 124.197 223.36 122.355C228.862 120.956 233.683 119.959 235.137 119.694C235.23 119.677 235.323 119.659 235.419 119.641L238.702 123.42Z" fill="#E8A273"/>
<path d="M203.999 129.107C203.928 129.285 203.837 129.438 203.73 129.572C203.55 129.799 203.324 129.962 203.066 130.075C201.542 130.735 198.903 129.568 197.744 128.932C194.549 127.181 191.332 124.783 188.968 121.981C187.185 119.867 185.709 117.549 183.72 115.622C182.621 114.557 181.244 112.721 179.929 112.082L189.064 108.96C194.093 114.603 200.925 124.241 203.999 129.107Z" fill="#C87E53"/>
<path d="M228.234 128.931C228.341 126.259 227.107 123.613 224.392 122.675C224.056 122.559 223.711 122.453 223.359 122.355C228.862 120.956 233.683 119.96 235.137 119.694C235.229 119.677 235.323 119.659 235.419 119.641L238.702 123.42C236.65 124.252 232.74 126.385 228.234 128.931Z" fill="#C87E53"/>
<path d="M234.151 120.191L236.491 122.347C236.632 124.688 238.431 123.399 239.462 123.071C240.688 122.683 242.334 122.939 243.578 123.105C245.77 123.397 250.114 125.59 251.377 122.769C248.468 120.178 242.017 115.346 238.471 113.377C236.945 112.53 237.242 114.445 236.149 116.618C235.398 118.113 234.815 118.688 234.151 120.191Z" fill="white"/>
<path d="M171.859 109.06C170.476 110.95 169 112.768 167.438 114.517C166.528 115.536 165.589 116.532 164.622 117.503C162.477 119.658 160.316 122.88 157.739 124.504C156.695 123.688 155.517 122.959 154.256 122.294C149.974 120.027 144.746 118.478 140.6 116.65C141.951 112.786 145.499 109.403 147.824 106.059C150.262 102.556 153.512 99.4197 155.774 95.951L177.84 92.6582C179.741 98.3431 175.247 104.437 171.859 109.06Z" fill="#06605D"/>
<path d="M167.438 114.518C166.528 115.536 165.589 116.532 164.622 117.503C162.477 119.658 160.316 122.88 157.74 124.504C156.695 123.688 155.517 122.959 154.256 122.295C157.213 120.174 160.339 116.92 161.469 115.308C164.32 111.244 163.095 106.686 162.18 102.181C164.314 105.404 166.43 110.308 167.438 114.518Z" fill="#054946"/>
<path d="M164.013 87.315L154.13 98.7689C156.798 103.133 168.522 116.407 171.587 119.377C174.513 122.211 178.091 125.98 181.685 127.937C184.886 123.023 189.287 119.377 192.201 112.289C191.012 109.483 188.182 106.83 186.401 104.366C184.222 101.351 181.834 98.5071 179.236 95.8626C175.218 91.7738 169.929 86.3562 164.013 87.315Z" fill="#06605D"/>
<path d="M180.813 46.4186C180.677 56.7932 179.732 84.844 179.345 92.464C171.344 94.8887 164.943 94.6527 160.434 94.166C159.173 94.0302 155.942 93.9883 154.859 93.432C152.974 92.4638 149.995 73.5544 147.801 65.8436V65.8419C147.748 65.6577 147.696 65.4797 147.645 65.3083C146.46 61.3738 145.673 53.3981 145.293 49.5267C144.914 45.6601 145.401 44.2133 149.038 41.7887C152.022 39.8003 154.846 39.0423 158.01 37.4241L162.374 35.4858C166.331 36.9535 180.432 37.6018 180.801 42.7584C180.836 43.2585 180.837 44.5533 180.813 46.4186Z" fill="#753D7A"/>
<path d="M164.38 35.9245C163.223 37.903 162.258 40.4329 160.596 42.1626C159.161 43.6563 155.991 48.1182 153.645 48.3366C151.287 48.5547 151.862 42.8029 152.573 41.398C153.181 40.1986 153.323 38.8698 153.204 37.5637C153.015 35.5284 152.182 33.55 151.46 32.2082C151.005 31.3644 150.593 30.7713 150.412 30.5739L160.408 21.9143C160.455 22.367 160.536 22.9909 160.646 23.728C161.026 26.2481 161.753 30.0809 162.655 32.7948C163.182 34.3807 163.768 35.585 164.38 35.9245Z" fill="#E8A273"/>
<path d="M162.655 32.795C161.998 33.5288 161.256 34.2013 160.457 34.8108C158.158 36.5646 155.913 37.4426 153.204 37.5637C153.015 35.5284 152.182 33.55 151.459 32.2082L160.646 23.7283C161.026 26.2483 161.753 30.0809 162.655 32.795Z" fill="#C87E53"/>
<path d="M147.013 5.51367L150.008 9.27865C149.208 10.1154 148.921 12.5834 148.482 13.7605C147.904 15.3089 146.94 16.8597 146.712 18.4988C144.187 14.5145 145.425 9.45468 147.013 5.51367Z" fill="#43261E"/>
<path d="M145.245 27.2659C145.262 27.3295 145.28 27.394 145.297 27.459C146.03 30.2369 146.489 34.8777 149.469 35.9216C153.425 37.3082 158.408 33.7659 159.827 32.7738C162.591 30.8414 163.727 26.6497 164.077 23.1029C164.259 21.2612 164.524 12.8605 165.659 12.4386L164.021 9.11214C161.285 4.63174 150.691 3.27505 148.025 8.62813C146.661 11.3675 146.629 15.0193 145.861 18.0255C145.007 21.3717 144.349 24.0044 145.245 27.2659Z" fill="#E8A273"/>
<path d="M145.645 0.494254C143.852 2.43201 145.14 6.21456 145.294 7.07183C145.323 7.23172 145.36 7.38607 145.409 7.5267C146.241 9.9032 146.298 14.2976 163.113 10.7626C162.509 11.938 161.599 12.7401 161.244 14.1014C160.881 15.4944 162.3 18.2801 161.495 24.0873C161.11 26.8676 163.639 23.2553 164.008 26.0173C164.506 25.3922 164.336 23.0901 164.656 22.3648C165.619 20.181 165.697 20.3375 166.588 18.1481C167.374 16.2111 170.096 14.7239 169.921 12.4798C169.898 12.1935 169.835 11.8756 169.739 11.5399C169.226 9.75992 167.763 7.48432 166.376 6.69063C165.443 6.15677 164.975 6.95094 164.47 6.09705C160.815 -0.0827117 153.729 0.204086 152.029 0.686176C148.434 1.70526 147.455 -1.08133 145.645 0.494254Z" fill="#43261E"/>
<path d="M149.928 16.1395C149.928 16.1395 146.093 15.2069 145.103 15.5503C145.011 16.0016 144.871 16.5927 144.924 17.0303C145.579 16.7466 148.764 18.0792 149.515 18.1433C149.761 17.5562 149.654 16.6062 149.928 16.1395Z" fill="#43261E"/>
<path d="M150.702 21.0398C150.702 21.0398 150.118 23.8249 149.826 24.89C149.434 26.3245 151.692 24.8657 152.198 26.2448C151.121 26.0685 149.475 26.5884 148.481 25.8513C148.597 25.0554 150.183 21.2987 150.702 21.0398Z" fill="#C87E53"/>
<path d="M147.126 27.6465C147.29 28.0932 147.486 28.5189 147.72 28.9037C148.318 29.8826 149.176 30.5906 150.462 30.6686C152.72 30.8056 153.916 29.8686 155.152 28.2668L155.026 28.3321C153.276 29.7988 149.988 29.3439 147.981 28.2273C147.659 28.0491 147.371 27.8538 147.126 27.6465Z" fill="#724442"/>
<path d="M155.026 28.3321C153.337 29.748 150.216 29.3731 148.195 28.3413C148.124 28.6671 148.06 28.9907 148 29.3136C148.579 30.0753 149.364 30.6019 150.462 30.6684C152.72 30.8054 153.916 29.8684 155.152 28.2666L155.026 28.3321Z" fill="white"/>
<path d="M145.294 7.07186C145.323 7.23175 145.36 7.38611 145.409 7.52674C146.241 9.90323 146.298 14.2977 163.113 10.7627C162.509 11.938 161.599 12.7401 161.244 14.1014C160.881 15.4945 162.301 18.2801 161.495 24.0873C161.11 26.8677 163.639 23.2554 164.008 26.0174C164.506 25.3922 164.336 23.0902 164.656 22.3649C165.619 20.181 165.697 20.3375 166.588 18.1481C167.374 16.2111 170.096 14.7239 169.921 12.4798C169.898 12.1935 169.836 11.8757 169.739 11.54C169.726 11.5662 169.713 11.5922 169.699 11.6178C168.755 13.3727 166.183 13.3542 164.579 12.6101C165.601 11.7228 166.785 11.1479 166.174 9.57839C165.661 8.25878 164.13 7.28208 162.926 6.81323C163.571 7.14049 164.376 8.93255 163.257 9.50494C162.218 10.0357 160.561 8.51403 160.472 7.64473C159.656 10.4255 153.916 9.86013 151.838 9.55094C149.76 9.2415 147.194 8.46057 145.294 7.07186Z" fill="#331C17"/>
<path d="M163.176 22.7509C163.835 21.8057 165.989 21.275 167.144 22.4927C167.978 23.3717 167.224 25.2396 166.783 26.0655C166.343 26.8889 165.49 28.1796 163.955 28.1945C161.887 28.2145 162.276 26.2478 162.313 25.3619C162.343 24.6549 162.781 23.3168 163.176 22.7509Z" fill="#E8A273"/>
<path d="M164.835 22.3507C165.485 22.1614 166.137 22.2623 166.44 22.802C166.709 23.2795 166.518 23.6628 166.461 24.1437C166.487 23.5947 166.144 22.716 165.201 23.1735C164.542 23.4935 164.351 24.2232 164.108 24.7127C165.025 25.1185 165.406 26.1383 164.357 26.4237C162.084 27.0416 163.076 22.865 164.835 22.3507Z" fill="#C87E53"/>
<path d="M157.705 19.3278C159.106 20.1104 158.983 22.064 158.928 21.993C158.92 21.8656 158.916 21.7628 158.694 21.5518C158.471 21.3594 158.029 21.0584 157.136 20.9578C155.953 20.9091 155.4 21.7551 154.404 21.6303C154.114 20.5602 154.788 17.9053 157.705 19.3278Z" fill="#C87E53"/>
<path d="M158.929 21.994C158.842 22.0132 158.618 22.0445 158.292 22.0662C158.14 22.0768 157.964 22.0831 157.768 22.0848C157.628 22.0857 157.476 22.0867 157.316 22.0811C156.866 22.0694 156.343 22.0282 155.777 21.9374C155.672 21.9198 155.568 21.9022 155.461 21.8813C155.224 21.8353 154.981 21.7828 154.733 21.719C154.625 21.6915 154.515 21.6612 154.405 21.6292C154.51 21.3655 154.655 21.0688 154.841 20.7907C155.037 20.4981 155.28 20.2207 155.574 20.0088C155.62 19.9741 155.668 19.9426 155.716 19.9141C155.868 19.8193 156.031 19.7439 156.2 19.6941C156.471 19.6151 156.753 19.5975 157.034 19.6654C157.342 19.7345 157.638 19.9091 157.894 20.1342C157.98 20.2089 158.06 20.2898 158.136 20.3726C158.319 20.5766 158.471 20.7986 158.578 21.0151C158.59 21.0375 158.6 21.0599 158.612 21.0808C158.864 21.5827 158.926 21.9923 158.929 21.994Z" fill="white"/>
<path d="M157.893 20.1345C157.914 21.1512 157.761 21.679 157.315 22.0811C156.866 22.0694 156.343 22.0282 155.777 21.9374C155.672 21.9198 155.568 21.9022 155.461 21.8813C155.224 21.8353 154.981 21.7828 154.732 21.719C154.743 21.4262 154.78 21.1134 154.841 20.7907C155.037 20.4981 155.279 20.2207 155.573 20.0088C155.62 19.9741 155.667 19.9426 155.715 19.9141C155.868 19.8193 156.031 19.7439 156.2 19.6941C156.47 19.6151 156.753 19.5975 157.034 19.6654C157.342 19.7348 157.637 19.9093 157.893 20.1345Z" fill="#43261E"/>
<path d="M155.232 21.0794C155.196 21.3277 155.262 21.5427 155.381 21.5605C155.5 21.5779 155.626 21.3915 155.663 21.1432C155.7 20.8954 155.633 20.6806 155.515 20.663C155.396 20.6452 155.269 20.8316 155.232 21.0794Z" fill="white"/>
<path d="M146.496 17.7579C145.045 18.1167 144.607 20.0224 144.675 19.9702C144.718 19.85 144.75 19.753 145.005 19.6126C145.254 19.4905 145.728 19.326 146.541 19.4794C147.595 19.7635 147.845 20.7289 148.755 20.8876C149.309 19.9434 149.46 17.2113 146.496 17.7579Z" fill="#C87E53"/>
<path d="M148.755 20.8879C148.709 20.8764 148.576 20.8629 148.38 20.841C148.219 20.8224 148.016 20.7983 147.782 20.7661C147.239 20.6914 146.529 20.5691 145.806 20.3661C145.641 20.3201 145.474 20.2688 145.31 20.2132C145.095 20.1407 144.882 20.0603 144.675 19.9709C144.677 19.9709 144.861 19.5596 145.257 19.1301C145.303 19.0768 145.353 19.026 145.407 18.9745C145.572 18.8153 145.768 18.6663 145.978 18.5473C146.023 18.5203 146.069 18.496 146.116 18.4727C146.402 18.3318 146.706 18.2494 146.994 18.268C147.425 18.2899 147.807 18.5329 148.082 18.8762C148.099 18.8967 148.114 18.9172 148.13 18.9364C148.298 19.1614 148.426 19.4188 148.521 19.6863C148.544 19.7511 148.565 19.8163 148.583 19.8826C148.684 20.2276 148.735 20.5802 148.755 20.8879Z" fill="white"/>
<path d="M148.583 19.8831C148.547 20.1183 148.468 20.5048 148.38 20.841C148.219 20.8224 148.016 20.7983 147.782 20.7661C147.239 20.6914 146.529 20.5691 145.806 20.3661C145.785 20.0832 145.793 19.7797 145.84 19.4679C145.852 19.3916 145.924 18.896 145.977 18.5478C146.023 18.5208 146.069 18.4965 146.116 18.4731C146.402 18.3323 146.705 18.2499 146.994 18.2685C147.424 18.2904 147.807 18.5333 148.082 18.8767C148.098 18.8972 148.114 18.9177 148.13 18.9369C148.298 19.1618 148.426 19.4193 148.52 19.6868C148.544 19.7516 148.564 19.8168 148.583 19.8831Z" fill="#43261E"/>
<path d="M146.104 19.8369C146.069 20.0744 146.133 20.2807 146.247 20.2981C146.361 20.3149 146.482 20.136 146.518 19.8988C146.553 19.6609 146.489 19.4545 146.375 19.4377C146.261 19.4203 146.14 19.599 146.104 19.8369Z" fill="white"/>
<path d="M154.897 17.251C154.897 17.251 159.258 17.5387 160.203 18.1694C160.162 18.6281 160.13 19.2357 159.939 19.6373C159.331 19.1651 155.538 19.4587 154.721 19.2899C154.64 18.6544 155.046 17.7807 154.897 17.251Z" fill="#43261E"/>
<path d="M180.813 46.4185C180.677 56.793 179.247 89.9364 178.861 97.5564C170.859 99.981 155.213 99.3249 154.13 98.7686C152.245 97.8003 149.995 73.5542 147.801 65.8437C150.359 66.7972 153.823 66.4045 156.312 66.2786C159.907 66.0943 164.716 65.6838 168.138 64.52C172.773 62.9439 175.844 61.3274 176.49 50.6585C176.607 48.7473 180.052 48.2339 180.813 46.4185Z" fill="#57315B"/>
<path d="M189.769 76.7743C189.318 78.1743 188.487 79.2184 186.998 78.9502C186.028 78.7756 184.91 77.6376 183.894 76.283C182.7 74.694 181.646 72.8075 181.135 71.8344C177.968 65.8097 176.971 58.8201 174.066 52.7601L183.28 49.2039C186.532 55.9979 189.772 64.2404 190.239 71.9558C190.305 73.037 190.294 75.1467 189.769 76.7743Z" fill="#C87E53"/>
<path d="M182.747 57.4266C184.324 56.7456 185.945 56.1756 187.594 55.7337C186.152 51.9196 184.788 48.5698 184.264 47.2056C181.179 39.1816 175.234 38.5461 175.036 38.6968L172.612 49.527C173.345 52.7316 174.672 57.1321 175.936 61.7064C177.95 59.9329 180.278 58.4931 182.747 57.4266Z" fill="#753D7A"/>
<path d="M209.637 118.602C207.01 124.074 198.651 126.845 192.644 128.384C183.888 130.628 173.04 129.045 168.706 122.403C168.606 122.249 168.509 122.094 168.416 121.935C162.232 111.407 172.54 91.5214 174.881 80.2108C175.846 75.557 176.648 72.1058 176.45 67.6572L176.245 67.0446C174.713 65.3652 172.734 63.3896 171.947 61.3577C173.866 61.3447 175.507 62.4972 176.617 63.485C176.053 61.9802 175.471 59.8108 175.785 58.005C175.878 57.4603 176.054 56.9496 176.337 56.4985C178.439 57.8887 179.318 61.7828 180.272 63.9683C180.796 62.2241 181.067 59.7089 182.803 58.1796C183.274 63.3297 182.25 68.7757 183.442 72.4807C184.913 77.0618 188.173 80.5713 191.464 84.1128C196.484 89.515 202.347 94.0137 206.469 100.231C206.915 100.906 207.359 101.661 207.783 102.474C210.219 107.15 211.956 113.767 209.637 118.602Z" fill="#E8E5DE"/>
<path d="M197.845 100.504L196.396 99.6287L193.466 103.199L194.408 103.768C194.409 103.769 194.412 103.768 194.414 103.767C196.663 102.718 197.875 101.458 198.082 101.232C198.087 101.226 198.096 101.231 198.093 101.238C197.181 103.004 194.761 103.98 194.761 103.98L191.868 105.277C191.864 105.279 191.86 105.278 191.859 105.275L191.704 104.946C191.702 104.941 191.695 104.942 191.692 104.946L190.423 108.099C190.421 108.102 190.423 108.106 190.427 108.107L193.699 109.223C193.705 109.224 193.71 109.22 193.708 109.215L193.571 108.925C193.57 108.922 193.572 108.919 193.575 108.917L196.708 107.512C197.235 107.276 197.61 106.82 197.692 106.316L198.432 101.754C198.513 101.249 198.29 100.773 197.845 100.504Z" fill="white"/>
<path d="M188.029 100.362C188.029 100.36 188.028 100.358 188.026 100.356C186.123 99.1773 184.404 98.9421 184.101 98.9086C184.093 98.9074 184.095 98.8975 184.102 98.8966C186.195 98.6064 188.082 99.9462 188.095 99.9549C188.095 99.9554 188.095 99.9554 188.095 99.9554L191.191 101.826C191.194 101.828 191.194 101.832 191.192 101.835L190.986 102.086C190.982 102.09 190.985 102.096 190.991 102.095L194.666 101.2C194.67 101.2 194.673 101.196 194.672 101.192L194.353 97.9959C194.352 97.9911 194.345 97.9904 194.342 97.9947L194.129 98.2538C194.127 98.2565 194.123 98.2575 194.12 98.2555L190.774 96.2337C190.33 95.9652 189.731 95.9453 189.205 96.1812L184.444 98.3153C183.918 98.5512 183.543 99.0078 183.461 99.5123L183.193 101.168L187.873 101.326L188.029 100.362Z" fill="white"/>
<path d="M187.286 107.335C186.935 109.51 187.421 110.975 187.515 111.23C187.517 111.236 187.507 111.241 187.503 111.236C186.345 109.791 186.869 107.519 186.869 107.519L186.868 107.519L187.459 103.893C187.46 103.89 187.463 103.888 187.466 103.888L187.771 103.898C187.777 103.898 187.781 103.892 187.778 103.889L185.472 101.589L182.405 103.708C182.401 103.712 182.403 103.718 182.409 103.718L182.773 103.73C182.777 103.73 182.78 103.733 182.779 103.736L182.16 107.536C182.078 108.041 182.301 108.517 182.746 108.786L186.766 111.214C187.21 111.482 187.809 111.502 188.335 111.266L190.946 110.096L189.238 106.456L187.29 107.33C187.288 107.33 187.286 107.333 187.286 107.335Z" fill="white"/>
<path d="M209.637 118.603C207.01 124.074 198.651 126.845 192.644 128.384C183.888 130.628 173.04 129.045 168.706 122.403C168.606 122.249 168.509 122.094 168.416 121.936C162.232 111.407 172.54 91.5215 174.881 80.2109C175.846 75.5571 176.648 72.1059 176.45 67.6573L176.245 67.0447C174.713 65.3653 172.734 63.3898 171.947 61.3578C173.866 61.3448 175.507 62.4973 176.617 63.4851C176.053 61.9803 175.471 59.8109 175.785 58.0051C176.234 61.0424 177.959 64.3354 179.305 66.2445C178.334 65.7499 177.183 65.6109 176.242 65.3085C178.512 67.7945 179.397 68.3426 178.546 71.5901C177.852 74.2394 177.354 75.9482 177.037 78.486C176.417 83.4341 174.676 89.6138 174.199 94.5845C173.691 99.8834 171.913 103.667 176.64 106.863C181.184 109.936 181.416 114.947 188.44 114.367C196.241 113.721 195.488 110.589 200.913 106.181C202.898 104.568 205.583 103.905 207.783 102.475C210.219 107.15 211.956 113.767 209.637 118.603Z" fill="#CEC8BC"/>
<path d="M184.683 72.4223C184.577 71.6881 184.284 71.4552 184.351 70.7795C184.434 69.9211 184.472 69.7783 184.128 68.9533C183.947 68.5203 183.914 68.7373 183.88 68.2475C183.861 67.9636 183.67 67.4384 183.614 67.1302C183.483 66.4171 178.053 65.6352 176.956 67.5646C175.666 69.8346 179.554 68.6756 180.335 68.6653C179.429 69.4041 176.998 70.1761 176.711 71.4846C176.32 73.2649 179.36 72.194 180.08 71.932C179.492 72.5935 177.442 73.6389 177.766 74.6796C178.242 76.2114 180.643 74.4701 181.345 74.2353C179.774 75.0372 177.78 78.0514 180.836 77.2425C181.877 76.967 183.036 76.7968 183.837 75.9983C184.418 75.4191 184.375 75.0659 184.42 74.3408C184.456 73.767 184.777 73.0809 184.683 72.4223Z" fill="#E8A273"/>
<path d="M189.908 71.4499C194.272 78.7851 187.347 80.359 186.513 79.1085C185.543 77.6535 184.586 77.0356 183.571 75.9932C183.414 75.6014 183.31 75.2741 183.28 75.0577L182.633 69.0864C185.97 69.2343 186.005 69.7631 189.908 71.4499Z" fill="#E8A273"/>
</svg>
