<svg width="24" height="25" viewBox="0 0 24 25" fill="none" xmlns="http://www.w3.org/2000/svg">
<path d="M22.68 17.3567C21.04 17.3567 19.4533 17.0871 17.9733 16.6017C17.7415 16.5223 17.4922 16.5105 17.254 16.5677C17.0158 16.6249 16.7984 16.7489 16.6267 16.9253L14.5333 19.5811C10.76 17.7611 7.22667 14.3234 5.34667 10.3733L7.94667 8.13537C8.30667 7.75788 8.41333 7.23211 8.26667 6.76026C7.77333 5.26381 7.52 3.65951 7.52 2.00129C7.52 1.27329 6.92 0.666626 6.2 0.666626H1.58667C0.866667 0.666626 0 0.990182 0 2.00129C0 14.5256 10.3067 24.9333 22.68 24.9333C23.6267 24.9333 24 24.084 24 23.3425V18.6914C24 17.9634 23.4 17.3567 22.68 17.3567Z" fill="white"/>
</svg>
