<svg width="102" height="102" viewBox="0 0 102 102" fill="none" xmlns="http://www.w3.org/2000/svg">
<circle cx="51" cy="51" r="51" fill="#A6EEB5"/>
<path d="M42 52C30.3 52 21 61.3 21 73V76H63V73C63 61.3 53.7 52 42 52ZM27.3 70C28.8 63.1 34.8 58 42 58C49.2 58 55.2 63.1 56.7 70H27.3ZM42 49C48.6 49 54 43.6 54 37C54 30.4 48.6 25 42 25C35.4 25 30 30.4 30 37C30 43.6 35.4 49 42 49ZM42 31C45.3 31 48 33.7 48 37C48 40.3 45.3 43 42 43C38.7 43 36 40.3 36 37C36 33.7 38.7 31 42 31ZM76.8 38.5L66.9 48.4L62.1 43.9L57.9 48.1L66.9 57.1L81 42.7L76.8 38.5Z" fill="#55B76B"/>
</svg>
