<svg width="102" height="102" viewBox="0 0 102 102" fill="none" xmlns="http://www.w3.org/2000/svg">
<circle cx="51" cy="51" r="51" fill="#A6EEB5"/>
<path d="M37.8677 65.8609C40.0521 64.1598 41.4612 61.5075 41.4612 58.5312C41.4612 53.4093 37.2936 49.2422 32.1717 49.2422C27.0498 49.2422 22.8827 53.4093 22.8827 58.5312C22.8827 61.5075 24.2918 64.1597 26.4757 65.8608C23.3933 67.6948 21 71.1582 21 75.4767V79.2422C21 80.2131 21.7869 81 22.7578 81H41.5861C42.5565 81 43.3439 80.2131 43.3439 79.2422V75.4766C43.3439 71.1589 40.9512 67.6952 37.8677 65.8609ZM26.3984 58.5312C26.3984 55.3479 28.9884 52.7578 32.1722 52.7578C35.3555 52.7578 37.9455 55.3479 37.9455 58.5312C37.9455 61.7149 35.3555 64.305 32.1722 64.305C28.9884 64.305 26.3984 61.7149 26.3984 58.5312ZM39.8283 77.4844H24.5156V75.4766C24.5156 71.2478 27.9369 67.8205 32.1717 67.8205C36.4005 67.8205 39.8278 71.2418 39.8278 75.4766V77.4844H39.8283ZM73.5938 21H51C46.9095 21 43.5938 24.3096 43.5938 28.4062V62.2966C43.5938 63.7345 45.2427 64.5755 46.4062 63.7029L53.4687 58.4061H73.5939C77.6844 58.4062 81 55.0965 81 51V28.4062C81 24.3155 77.6904 21 73.5938 21ZM77.4844 51C77.4844 53.1506 75.7453 54.8906 73.5938 54.8906H52.8829C52.5025 54.8908 52.1325 55.0141 51.8282 55.2422L47.1096 58.781V28.4062C47.1094 26.2556 48.8484 24.5156 51 24.5156H73.5938C75.7444 24.5156 77.4844 26.2547 77.4844 28.4062V51Z" fill="#55B76B"/>
<path d="M60.5861 42H41.7578C40.7869 42 40 42.7874 40 43.7578C40 44.7287 40.7869 45.5156 41.7578 45.5156H60.5861C61.5566 45.5156 62.3439 44.7287 62.3439 43.7578C62.3439 42.7874 61.5571 42 60.5861 42ZM60.5861 49.5316H41.7578C40.7869 49.5316 40 50.3184 40 51.2895C40 52.2598 40.7869 53.0473 41.7578 53.0473H60.5861C61.5566 53.0473 62.3439 52.2598 62.3439 51.2895C62.3439 50.3184 61.5571 49.5316 60.5861 49.5316ZM51.1717 57.0627H41.7578C40.7869 57.0627 40 57.8496 40 58.8205C40 59.7914 40.7869 60.5783 41.7578 60.5783H51.1717C52.1427 60.5783 52.9295 59.7914 52.9295 58.8205C52.9295 57.8496 52.1427 57.0627 51.1717 57.0627Z" fill="#55B76B"/>
</svg>
