<svg width="273" height="171" viewBox="0 0 273 171" fill="none" xmlns="http://www.w3.org/2000/svg">
<path opacity="0.6" d="M39.9947 169.193H230.113C272.99 151.321 250.804 102.031 239.089 88.8428C225.061 73.0495 234.654 33.7981 195.667 8.87361C156.679 -16.0509 121.245 17.1981 103.657 39.0454C86.0703 60.8927 38.6969 48.2281 20.381 96.7795C3.34306 141.943 35.4336 166.049 39.9947 169.193Z" fill="#6AE284"/>
<path opacity="0.5" d="M73.5691 106.683C75.2324 106.454 76.9425 106.098 78.3135 105.064C81.7292 102.486 81.5136 96.5915 78.8925 93.1058C77.3213 91.0164 75.1475 89.5672 73.2536 87.8116C71.3598 86.056 69.6468 83.7516 69.5543 81.0704C69.4568 78.2427 71.1571 75.2665 69.9775 72.735C69.0792 70.8072 66.9025 70.0778 64.9502 69.561C58.65 67.8932 52.2956 66.4612 45.9025 65.2666C41.9604 67.621 38.1731 70.4512 34.6607 73.9532C36.8404 75.5032 39.939 75.78 42.5339 76.7543C44.4207 77.4627 46.1319 78.6145 47.7956 79.8022C49.6572 81.1312 51.5286 82.5673 52.7505 84.5748C53.9725 86.5823 54.4201 89.3024 53.3046 91.3798C52.0419 93.7312 49.2718 94.5666 46.7532 94.846C38.6783 95.7419 30.7129 93.1318 22.7927 91.0754C21.942 92.8772 21.1363 94.7759 20.3805 96.7795C18.2448 102.441 16.8812 107.772 16.1384 112.772C17.448 112.263 18.699 111.599 19.865 110.732C22.7988 108.551 25.0073 105.198 28.3225 103.776C30.6826 102.764 33.3179 102.866 35.8504 103.103C48.4635 104.282 61.0105 108.406 73.5691 106.683Z" fill="#6FEC8B"/>
<path opacity="0.5" d="M120.038 35.5238C120.982 36.1475 121.824 36.9381 122.782 37.5359C124.018 38.3074 125.426 38.7393 126.849 38.8938C132.437 39.4998 137.601 35.9878 143.015 34.3877C150.504 32.1745 158.514 33.6644 165.958 36.0431C168.936 36.9946 171.908 38.0935 175.006 38.3588C178.103 38.6242 181.416 37.95 183.739 35.7402C186.063 33.5303 187.047 29.5545 185.406 26.7276C184.727 25.5577 183.689 24.6829 182.636 23.8931C177.211 19.8277 170.746 17.3731 164.142 16.8717C162.587 16.7537 160.667 16.4792 160.141 14.9071C159.657 13.4635 160.806 11.9354 162.102 11.2841C163.398 10.6328 164.885 10.4899 166.151 9.77522C167.418 9.06058 168.44 7.37967 167.775 6.0213C167.376 5.20559 166.515 4.79655 165.703 4.49223C160.614 2.58301 155.245 2.48877 149.831 2.97892C143.211 5.24177 136.96 8.64133 131.19 12.6435C132.322 12.8264 133.457 12.9919 134.594 13.1359C136.008 13.3149 137.706 13.689 138.18 15.1275C138.585 16.357 137.83 17.7528 138.186 18.9994C138.66 20.6586 140.663 21.0263 142.281 21.0927C143.899 21.1592 145.901 21.5173 146.385 23.1731C146.601 23.9098 146.421 24.727 146.064 25.3974C145.136 27.1393 143.173 27.949 141.31 28.144C139.447 28.3388 137.562 28.0524 135.698 28.2342C131.308 28.6623 127.035 31.6532 122.78 30.4209C120.882 29.8715 119.28 28.5354 117.5 27.6425C116.603 27.1927 115.677 26.862 114.729 26.6223C112.87 28.4958 111.107 30.3758 109.446 32.228C109.28 32.655 109.116 33.0828 108.956 33.5121C112.759 33.4119 116.801 33.3848 120.038 35.5238Z" fill="#6FEC8B"/>
<path d="M197.393 42.2428C197.393 42.2428 200.452 45.5252 202.482 43.3727C202.482 43.3727 208.108 44.8534 207.774 39.4997C207.774 39.4997 211.694 37.1129 210.396 32.2694C210.396 32.2694 213.945 28.995 210.258 24.9869C210.258 24.9869 212.868 20.5033 208.123 18.8241C208.123 18.8241 207.705 11.0039 200.849 12.8889C200.849 12.8889 195.873 6.81717 191.362 10.4087C191.362 10.4087 186.79 8.64473 184.718 14.2684C184.718 14.2684 179.779 15.882 181.403 22.3752C181.403 22.3752 176.504 27.8578 179.507 33.6424C179.507 33.6424 177.644 41.2122 185.669 40.4714C193.693 39.7305 197.393 42.2428 197.393 42.2428Z" fill="#F46C0F"/>
<path d="M196.989 48.436L196.275 41.1763L189.573 42.0486L189 48.5555C189 48.5557 193.345 52.6402 196.989 48.436Z" fill="#FFC0BB"/>
<path d="M189.19 46.397L189.573 42.0486L196.275 41.1763L196.625 44.7394C195.317 46.1861 192.944 47.7053 189.19 46.397Z" fill="#F99893"/>
<path d="M185.081 31.4521C185.263 32.6936 184.657 33.824 183.728 33.9771C182.799 34.1301 181.898 33.2477 181.715 32.0062C181.533 30.7647 182.139 29.6342 183.068 29.4811C183.997 29.328 184.899 30.2104 185.081 31.4521Z" fill="#F99893"/>
<path d="M183.923 38.1489C183.767 37.5936 183.659 37.019 183.6 36.4318C183.413 34.847 183.498 33.2364 183.673 31.8572C183.711 31.5613 183.732 31.2637 183.748 30.9655C183.814 29.7613 184.088 28.537 184.621 27.3415C186.334 23.4952 190.286 21.2755 194.228 21.9555C199.539 22.8715 202.883 28.369 201.683 33.8077C202.309 33.6202 202.948 33.7027 203.438 34.1033C204.378 34.872 204.414 36.5105 203.518 37.7632C202.622 39.0159 201.133 39.4082 200.193 38.6397C200.063 38.5329 199.951 38.408 199.856 38.2712C198.393 42.7863 194.052 45.4539 189.809 44.2939C187.734 43.7265 186.047 42.3423 184.949 40.5253C184.872 40.4162 184.795 40.2915 184.716 40.1491C184.368 39.5248 184.111 38.8493 183.923 38.1489Z" fill="#FFC0BB"/>
<path d="M190.866 30.9545C190.697 31.4814 190.546 31.9996 190.376 32.5C190.203 32.9875 190.001 33.503 189.714 33.7926L189.661 33.8363C189.641 33.8527 189.634 33.8626 189.595 33.8908C189.531 33.943 189.462 33.9814 189.406 34.0482C189.29 34.1682 189.189 34.3201 189.137 34.4934C189.026 34.8417 189.11 35.2139 189.273 35.4777C189.604 36.0225 190.169 36.2489 190.682 36.2796C190.221 36.0286 189.806 35.6973 189.631 35.2691C189.553 35.0594 189.523 34.8436 189.602 34.6768C189.636 34.5927 189.689 34.5163 189.759 34.4522C189.788 34.4147 189.837 34.3929 189.873 34.3608L189.961 34.2931L190.06 34.2127C190.297 33.9799 190.428 33.7085 190.537 33.4402C190.641 33.1689 190.714 32.8968 190.767 32.6201C190.87 32.069 190.912 31.5117 190.866 30.9545Z" fill="#F99893"/>
<path d="M193.553 32.6032C193.445 33.0569 193.703 33.5191 194.128 33.6353C194.553 33.7515 194.985 33.4779 195.092 33.024C195.2 32.5703 194.943 32.1082 194.518 31.992C194.093 31.8757 193.661 32.1494 193.553 32.6032Z" fill="#333333"/>
<path d="M186.833 31.2586C186.726 31.7124 186.983 32.1746 187.408 32.2908C187.833 32.407 188.265 32.1333 188.373 31.6795C188.48 31.2257 188.223 30.7636 187.798 30.6473C187.373 30.5311 186.941 30.8048 186.833 31.2586Z" fill="#333333"/>
<path d="M193.12 30.4595C193.543 30.4585 193.935 30.4804 194.312 30.5386C194.688 30.5972 195.044 30.7022 195.374 30.8591C195.702 31.0197 196.023 31.2103 196.308 31.4786C196.466 31.5942 196.588 31.7551 196.742 31.892C196.887 32.0389 197.013 32.2064 197.179 32.3586C197.137 32.1392 197.078 31.9186 196.996 31.7073C196.896 31.5077 196.808 31.2903 196.662 31.1154C196.405 30.7349 196.029 30.4417 195.622 30.2467C195.211 30.0526 194.757 29.9765 194.323 30.0153C193.891 30.0581 193.467 30.1934 193.12 30.4595Z" fill="#F46C0F"/>
<path d="M189.659 29.7663C189.434 29.3765 189.092 29.0758 188.709 28.8566C188.323 28.6405 187.876 28.5218 187.428 28.5302C186.982 28.5407 186.53 28.655 186.157 28.8992C185.959 28.9998 185.8 29.1638 185.636 29.3064C185.484 29.4672 185.35 29.646 185.233 29.8309C185.44 29.7594 185.617 29.6572 185.803 29.5821C185.995 29.5201 186.165 29.422 186.353 29.3815C186.712 29.2523 187.076 29.2101 187.436 29.198C187.798 29.1906 188.163 29.2415 188.531 29.3439C188.9 29.447 189.269 29.5896 189.659 29.7663Z" fill="#F46C0F"/>
<path d="M139.341 78.5932C139.432 78.7948 139.279 79.0263 139.072 78.9974C137.465 78.7736 132.403 78.1046 132.257 78.5298C132.083 79.0355 136.593 79.7515 136.683 80.2424C136.773 80.7332 132.391 79.9157 132.286 80.4883C132.182 81.0609 136.201 81.6626 136.235 81.9204C136.27 82.1783 132.362 82.0427 132.112 82.3401C131.862 82.6374 136.017 83.3259 136.142 83.626C136.267 83.926 133.252 84.4725 133.266 84.7551C133.279 85.0377 133.245 85.2285 140.361 86.0821L143.177 86.29L145.561 85.1301L145.419 81.761C145.419 81.761 138.718 74.9803 138.348 75.0718C137.995 75.1592 137.934 75.4879 139.341 78.5932Z" fill="#FFC0BB"/>
<path d="M179.102 51.4517L167.654 84.1412L144.635 80.5666C144.635 80.5666 143.061 86.9192 143.018 86.8601C142.976 86.8011 169.615 97.1449 173.348 95.7641C177.082 94.3834 186.018 64.2962 186.018 64.2962L179.102 51.4517Z" fill="#202121"/>
<path d="M199.462 47.0699L187.425 47.0341L185.9 54.6546L192.505 73.1617C192.505 73.1617 199.11 65.5411 199.11 64.4525C199.11 63.3638 202.158 55.1989 201.65 54.1103C201.142 53.0217 199.462 47.0699 199.462 47.0699Z" fill="#FFC0BB"/>
<path d="M211.012 116.76C211.15 116.592 211.408 116.653 211.464 116.869C211.895 118.543 213.284 123.801 213.706 123.78C214.209 123.755 213.075 119.025 213.462 118.745C213.849 118.466 214.847 123.11 215.38 122.991C215.913 122.872 214.871 118.67 215.079 118.536C215.288 118.402 216.687 122.313 217.04 122.445C217.393 122.576 216.373 118.206 216.583 117.966C216.792 117.726 218.432 120.492 218.67 120.368C218.908 120.245 219.085 120.205 217.058 112.847L216.144 109.986L214.221 108.082L211.378 109.529C211.378 109.529 208.146 118.777 208.368 119.107C208.58 119.422 208.887 119.354 211.012 116.76Z" fill="#FFC0BB"/>
<path d="M198.395 48.2689C198.395 48.2689 192.387 52.1664 187.623 48.2689C187.623 48.2689 184.915 55.9311 185.171 56.2063C185.428 56.4815 188.254 64.7384 188.254 65.0136C188.254 65.2889 191.594 68.5915 193.135 66.1145C194.676 63.6375 195.704 63.9127 197.759 58.6833C199.814 53.454 201.355 51.8026 200.841 51.2521C200.328 50.7017 198.395 48.2689 198.395 48.2689Z" fill="white"/>
<path d="M199.11 47.0341C199.11 47.0341 211.303 48.1227 213.843 52.4774C216.383 56.8319 222.48 81.8709 221.972 89.4914C221.464 97.1119 216.891 111.809 216.891 111.809C216.891 111.809 212.827 112.353 211.303 109.631C211.303 109.631 214.351 88.9471 213.843 87.3141C213.335 85.6811 207.746 68.807 207.746 68.807L208.763 102.011C208.763 102.011 196.569 110.176 177.264 103.644C177.264 103.644 174.723 49.7557 181.328 48.1227L187.425 47.0341L189.965 62.8195L199.11 47.0341Z" fill="#333333"/>
<path d="M212.365 101.807H174.124V131.258H212.365V101.807Z" fill="#DDAC87"/>
<path d="M213.183 101.807H174.124V108.652H213.183V101.807Z" fill="#D69B74"/>
<path opacity="0.5" d="M183.931 101.807V114.421L184.658 113.575L185.067 114.208L185.567 113.526L186.619 114.421L188.111 113.38L188.475 113.769L189.02 113.234L189.565 114.421V101.807H183.931Z" fill="#F2D1B6"/>
<path opacity="0.5" d="M212.365 108.721H197.786V131.258H212.365V108.721Z" fill="#DDAC87"/>
<path opacity="0.5" d="M213.183 101.805H197.786V108.652H213.183V101.805Z" fill="#DDAC87"/>
<path d="M139.422 60.1789L138.684 60.5497C135.536 61.3593 117.592 65.9396 116.764 65.3537C115.856 64.7114 111.8 55.7421 111.8 55.7421L107.195 63.7749C107.195 63.7749 111.355 72.2199 114.062 73.5563C116.704 74.8605 135.307 67.6213 140.547 64.21L141.077 63.9578C141.587 64.073 142.925 64.2761 142.925 64.2761C148.272 64.9253 147.722 64.9599 147.765 64.7372C147.808 64.5145 145.648 63.5156 145.775 63.2997C145.902 63.0838 149.046 63.3112 148.896 63.0274C148.747 62.7437 145.849 62.1217 145.905 61.9226C145.96 61.7235 148.994 61.9946 148.983 61.5187C148.973 61.0426 145.646 60.8758 145.77 60.5013C145.893 60.1268 149.302 60.3985 149.232 59.9629C149.174 59.5966 145.364 59.1843 144.152 59.0623C143.996 59.0466 143.91 58.8336 144.001 58.6898C145.399 56.4771 145.393 56.2037 145.142 56.0682C144.964 55.9716 143.206 57.396 141.493 58.6155L139.422 60.1789Z" fill="#FFC0BB"/>
<path d="M147.772 135.858L147.51 142.656L142 140.386L142.733 135.494L147.772 135.858Z" fill="#FFC0BB"/>
<path d="M152.348 151.063L139.556 146.503C139.161 146.363 138.947 145.905 139.078 145.481C139.21 145.058 139.637 144.829 140.032 144.97L152.824 149.53C153.219 149.671 153.433 150.128 153.302 150.552C153.17 150.975 152.743 151.204 152.348 151.063Z" fill="#122F5B"/>
<path d="M141.415 140.288L139.619 144.385C139.397 144.89 139.524 145.466 139.884 145.594L152.418 150.062C152.744 150.178 153.133 150.076 153.431 149.727C153.737 149.37 153.968 148.75 153.671 147.7C153.083 145.622 149.591 143.908 148.208 141.843C148.18 141.801 148.141 141.769 148.095 141.753L142.327 139.697C142.001 139.581 141.615 139.831 141.415 140.288Z" fill="#55769F"/>
<path d="M146.51 143.939C146.438 143.847 146.456 143.672 146.547 143.566C146.974 143.07 148.186 141.921 149.66 142.771C149.745 142.82 149.766 142.971 149.71 143.098L149.708 143.102C149.653 143.225 149.546 143.28 149.463 143.233C148.14 142.477 147.097 143.497 146.745 143.916C146.67 144.006 146.57 144.016 146.51 143.939Z" fill="white"/>
<path d="M147.641 144.952C147.569 144.86 147.587 144.685 147.678 144.579C148.105 144.082 149.317 142.934 150.791 143.784C150.876 143.833 150.897 143.984 150.841 144.111L150.839 144.115C150.784 144.238 150.677 144.293 150.594 144.246C149.271 143.49 148.228 144.51 147.876 144.929C147.801 145.019 147.701 145.029 147.641 144.952Z" fill="white"/>
<path d="M148.693 145.896C148.621 145.804 148.639 145.629 148.73 145.523C149.157 145.026 150.368 143.878 151.843 144.728C151.928 144.777 151.949 144.927 151.893 145.055L151.891 145.059C151.836 145.182 151.728 145.237 151.646 145.19C150.323 144.433 149.279 145.454 148.928 145.873C148.853 145.963 148.753 145.972 148.693 145.896Z" fill="white"/>
<path d="M104.077 44.013C104.077 44.013 96.8828 42.2883 93.1508 42.4232C89.4188 42.5581 94.4914 53.0799 94.4914 53.0799L100.586 53.2249C100.586 53.2249 104.303 50.5708 104.847 50.6057C106.901 50.7379 105.299 44.4037 105.299 44.4037L104.077 44.013Z" fill="#FFC0BB"/>
<path d="M98.1055 35.9714L95.9648 42.9324C95.9648 42.9324 97.8286 47.0607 103.536 45.28C103.536 45.28 102.885 43.8384 103.758 40.8695C104.651 37.8359 98.1055 35.9714 98.1055 35.9714Z" fill="#FFC0BB"/>
<path opacity="0.6" d="M98.1055 35.9714L97.1008 39.2232C97.699 41.5998 99.6413 43.2181 103.304 43.7207C103.303 43.0143 103.405 42.0687 103.758 40.8696C104.651 37.8359 98.1055 35.9714 98.1055 35.9714Z" fill="#FC8D84"/>
<path d="M137.549 135.041L134.713 143.752L130.538 139.278L132.046 135.153L137.549 135.041Z" fill="#FFC0BB"/>
<path d="M109.184 60.8035C109.184 60.8035 110.485 63.3528 110.197 65.9884C109.95 68.2489 108.985 71.3621 108.001 73.7118C103.758 83.8448 106.247 103.614 106.247 103.614L77.4326 102.383L79.821 63.6452L80.4862 57.7067L109.184 60.8035Z" fill="#FF5B7E"/>
<path d="M135.946 153.539L125.986 143.805C125.678 143.504 125.656 142.993 125.937 142.664C126.217 142.334 126.695 142.31 127.002 142.611L136.963 152.345C137.27 152.646 137.292 153.157 137.011 153.487C136.731 153.817 136.253 153.84 135.946 153.539Z" fill="#122F5B"/>
<path d="M130.04 138.934L126.846 141.897C126.452 142.262 126.349 142.843 126.63 143.117L136.389 152.655C136.643 152.903 137.037 152.978 137.442 152.79C137.857 152.596 138.303 152.131 138.43 151.042C138.68 148.887 136.14 145.801 135.658 143.312C135.649 143.261 135.625 143.216 135.589 143.181L131.098 138.792C130.844 138.544 130.396 138.604 130.04 138.934Z" fill="#55769F"/>
<path d="M133.312 144.489C133.281 144.373 133.364 144.221 133.487 144.164C134.066 143.896 135.608 143.374 136.633 144.792C136.693 144.874 136.655 145.021 136.555 145.113L136.552 145.116C136.455 145.204 136.336 145.208 136.278 145.129C135.356 143.862 134.016 144.341 133.536 144.57C133.434 144.619 133.338 144.585 133.312 144.489Z" fill="white"/>
<path d="M133.962 145.906C133.931 145.791 134.013 145.639 134.137 145.582C134.716 145.314 136.258 144.791 137.283 146.21C137.342 146.292 137.304 146.439 137.204 146.531L137.201 146.533C137.104 146.622 136.985 146.626 136.928 146.547C136.006 145.28 134.665 145.758 134.185 145.988C134.083 146.037 133.988 146.002 133.962 145.906Z" fill="white"/>
<path d="M134.565 147.227C134.534 147.111 134.617 146.959 134.74 146.902C135.319 146.634 136.861 146.112 137.886 147.53C137.945 147.612 137.908 147.759 137.808 147.851L137.804 147.854C137.708 147.942 137.588 147.946 137.531 147.867C136.609 146.6 135.268 147.079 134.788 147.309C134.686 147.357 134.591 147.323 134.565 147.227Z" fill="white"/>
<path d="M35.712 162.253C36.3906 162.959 36.9598 164.357 37.5626 165.836C38.0517 167.037 38.5777 168.325 39.2786 169.597H57.0843C56.6013 169.274 56.1071 168.968 55.5985 168.69C54.4483 168.062 53.2796 167.574 52.2484 167.143C50.7268 166.507 49.2896 165.907 48.5535 165.118C47.883 164.399 47.3198 163.017 46.7237 161.553C45.8507 159.41 44.7642 156.742 42.6724 154.568C39.848 151.632 36.2558 150.651 33.3693 149.862C31.3502 149.311 29.4431 148.79 28.5513 147.83C28.0707 147.312 27.5863 146.345 27.0736 145.32C26.7504 144.675 26.4162 144.007 26.0197 143.311C22.7447 137.561 17.0782 133.528 10.8618 132.521C10.5092 132.464 10.1805 132.42 9.86231 132.378C9.35106 132.309 4.64075 131.28 3.07043 132.436C0.118532 134.608 0.224184 139.357 3.30657 141.31C3.66096 141.535 4.03533 141.742 4.43123 141.927C5.97842 142.651 7.44599 142.847 8.62518 143.004C8.8917 143.04 9.14349 143.074 9.36815 143.11C12.6484 143.641 15.7594 145.856 17.4875 148.889C17.7391 149.331 17.9948 149.842 18.2653 150.382C18.3505 150.553 18.4385 150.728 18.5291 150.907L22.9287 151.065L19.7523 153.115C20.2321 153.883 20.7911 154.656 21.465 155.382C24.3017 158.438 27.9605 159.437 30.9004 160.24C32.9052 160.787 34.7988 161.304 35.712 162.253Z" fill="#479C5A"/>
<path d="M38.2062 145.736C38.8975 146.827 39.2791 148.768 39.6832 150.824C40.285 153.887 40.9671 157.357 42.9954 160.665C45.2389 164.323 48.4309 166.542 50.9956 168.325C51.6215 168.761 52.2256 169.181 52.783 169.597H69.3192C67.6169 165.716 65.1023 162.247 61.965 159.554C60.6539 158.428 59.2846 157.476 58.0764 156.636C56.2938 155.396 54.61 154.225 53.8659 153.012C53.1883 151.907 52.8108 149.986 52.411 147.953C51.8258 144.975 51.0973 141.269 48.9665 137.907C46.0894 133.368 41.7531 131.103 38.2687 129.284C35.8312 128.011 33.529 126.809 32.6288 125.333C32.1436 124.538 31.7644 123.169 31.363 121.719C31.1098 120.804 30.8482 119.859 30.5141 118.86C28.9781 114.267 26.366 110.143 23.0288 106.864L20.0508 111.903L21.3625 105.349C19.099 103.445 16.5665 101.905 13.8517 100.83C13.4166 100.658 13.0083 100.509 12.6135 100.365C11.9788 100.134 6.22931 97.4924 3.94392 98.5218C0.79586 99.9398 -0.59719 103.583 0.237993 106.752L6.15548 107.287L1.6655 109.472C1.79122 109.617 1.92155 109.76 2.06216 109.897C2.45857 110.284 2.88467 110.654 3.3436 111.001C5.13732 112.36 6.95927 113.024 8.42318 113.558C8.75409 113.679 9.06662 113.793 9.34403 113.902C13.3936 115.505 16.8134 119.206 18.2693 123.56C18.4813 124.194 18.6814 124.917 18.8933 125.682C19.2231 126.873 19.5985 128.228 20.1328 129.629L26.8318 131.009L21.2351 132.069C21.3938 132.366 21.5615 132.663 21.7409 132.957C24.6043 137.652 29.0212 139.958 32.5702 141.811C34.9901 143.075 37.276 144.269 38.2062 145.736Z" fill="#6AE284"/>
<path opacity="0.2" d="M19.7415 114.027C32.4848 133.103 27.9626 130.602 41.2005 140.896C51.2741 148.729 48.0533 163.1 56.5296 169.597H52.7829C52.2256 169.181 51.6214 168.761 50.9956 168.326C48.4309 166.543 45.239 164.323 42.9954 160.665C40.9671 157.357 40.2851 153.887 39.6832 150.825C39.2792 148.769 38.8975 146.827 38.2063 145.736C37.2761 144.269 34.9902 143.075 32.5702 141.811C29.0212 139.958 24.6043 137.652 21.741 132.957C21.5615 132.663 21.3937 132.367 21.2352 132.069L26.8319 131.01L20.1328 129.629C19.5985 128.228 19.2232 126.874 18.8933 125.682C18.6815 124.917 18.4813 124.194 18.2693 123.56C16.8134 119.206 13.3937 115.506 9.34407 113.903C9.06667 113.793 8.75414 113.679 8.42323 113.558C6.95932 113.025 5.13736 112.36 3.34365 111.001C2.88472 110.654 2.45853 110.284 2.06221 109.898C1.92159 109.761 1.79127 109.618 1.66554 109.472L6.15553 107.287L0.238043 106.752C-0.329691 104.598 0.133241 102.226 1.47602 100.481C6.76554 101.238 13.382 104.507 19.7415 114.027Z" fill="#55B76B"/>
<path d="M33.1969 104.946C33.0688 107.229 32.9144 110.006 33.392 112.963C36.8342 115.039 43.5566 119.097 42.7901 118.66C42.0719 118.251 37.1154 117.019 34.2121 116.318C35.9413 121.55 39.3789 125.359 42.2072 128.491C44.3932 130.911 46.458 133.198 46.933 135.205C47.2859 136.698 46.9824 138.992 46.6608 141.421C46.1821 145.039 45.6395 149.14 46.6351 153.636C47.7364 158.61 50.414 162.409 52.5655 165.462C53.442 166.705 54.2698 167.88 54.895 168.981C55.0099 169.183 55.1191 169.389 55.2255 169.597H71.3966C70.6522 166.41 69.4707 163.338 67.8689 160.519C66.8488 158.723 65.7002 157.094 64.6868 155.656C63.1912 153.534 61.7788 151.53 61.4135 149.88C61.081 148.378 61.3813 146.108 61.6992 143.706C62.165 140.187 62.7443 135.808 61.6564 131.208C60.1874 124.998 56.2704 120.66 53.123 117.175C50.9212 114.737 48.8417 112.434 48.4026 110.43C48.1661 109.35 48.2594 107.685 48.3583 105.922C48.4206 104.81 48.4852 103.661 48.4901 102.422C48.5294 92.8536 44.7485 83.4413 38.2982 76.8536L35.3297 78.2568L36.7951 75.4128C36.4239 75.0792 36.0683 74.7726 35.7242 74.4765C35.1136 73.9515 29.786 68.5965 26.8946 68.7503C21.4593 69.0395 18.0626 75.2723 20.5965 80.4322C20.8878 81.0256 21.218 81.6135 21.5924 82.1909C23.0555 84.4486 24.8081 85.9559 26.2163 87.1669C26.5344 87.4408 26.8351 87.6994 27.0988 87.9383C30.9471 91.4272 33.3238 96.9494 33.3017 102.35C33.2984 103.137 33.2491 104.016 33.1969 104.946Z" fill="#55B76B"/>
<path opacity="0.2" d="M39.8025 93.7989C45.8821 114.492 40.2443 113.329 47.4057 124.495C54.5671 135.662 56.8323 134.731 54.8312 147.293C53.8964 153.162 58.0103 161.925 62.6593 169.597H55.2251C55.1188 169.389 55.0095 169.183 54.8947 168.981C54.2695 167.88 53.4416 166.706 52.5652 165.462C50.4137 162.409 47.7361 158.61 46.6348 153.636C45.6392 149.14 46.1818 145.039 46.6606 141.422C46.9821 138.992 47.2857 136.698 46.9328 135.206C46.4578 133.198 44.3931 130.911 42.207 128.491C39.3786 125.359 35.9411 121.55 34.2119 116.318C37.1152 117.019 42.0718 118.251 42.7899 118.66C43.5563 119.097 36.834 115.04 33.3918 112.963C32.9142 110.006 33.0687 107.229 33.1967 104.946C33.2488 104.016 33.2982 103.137 33.3014 102.35C33.3234 96.9494 30.9468 91.4272 27.0985 87.9383C26.8348 87.6994 26.5342 87.4408 26.2161 87.1669C24.8078 85.9559 23.0552 84.4487 21.5921 82.1909C21.2177 81.6135 20.8876 81.0255 20.5962 80.4322C19.1882 77.5648 19.6122 74.3667 21.1989 72.0408C27.8067 75.4183 36.3111 81.9143 39.8025 93.7989Z" fill="#55B76B"/>
<path d="M35.712 162.253C36.3906 162.959 36.9598 164.357 37.5626 165.836C38.0517 167.037 38.5777 168.325 39.2786 169.597H57.0843C56.6013 169.274 56.1071 168.968 55.5985 168.69C54.4483 168.062 53.2796 167.574 52.2484 167.143C50.7268 166.507 49.2896 165.907 48.5535 165.118C47.883 164.399 47.3198 163.017 46.7237 161.553C45.8507 159.41 44.7642 156.742 42.6724 154.568C39.848 151.632 36.2558 150.651 33.3693 149.862C31.3502 149.311 29.4431 148.79 28.5513 147.83C28.0707 147.312 27.5863 146.345 27.0736 145.32C26.7504 144.675 26.4162 144.007 26.0197 143.311C22.7447 137.561 17.0782 133.528 10.8618 132.521C10.5092 132.464 10.1805 132.42 9.86231 132.378C9.35106 132.309 4.64075 131.28 3.07043 132.436C0.118532 134.608 0.224184 139.357 3.30657 141.31C3.66096 141.535 4.03533 141.742 4.43123 141.927C5.97842 142.651 7.44599 142.847 8.62518 143.004C8.8917 143.04 9.14349 143.074 9.36815 143.11C12.6484 143.641 15.7594 145.856 17.4875 148.889C17.7391 149.331 17.9948 149.842 18.2653 150.382C18.3505 150.553 18.4385 150.728 18.5291 150.907L22.9287 151.065L19.7523 153.115C20.2321 153.883 20.7911 154.656 21.465 155.382C24.3017 158.438 27.9605 159.437 30.9004 160.24C32.9052 160.787 34.7988 161.304 35.712 162.253Z" fill="#479C5A"/>
<path opacity="0.2" d="M18.904 142.989C29.326 152.76 30.6076 154.49 36.3284 157.36C40.3764 159.39 43.995 165.94 45.7654 169.597H39.2781C38.5772 168.326 38.0512 167.038 37.5621 165.837C36.9593 164.357 36.3901 162.959 35.7115 162.254C34.7984 161.305 32.9047 160.787 30.9001 160.24C27.9601 159.437 24.3012 158.438 21.4646 155.383C20.7907 154.657 20.2317 153.883 19.752 153.115L22.9283 151.065L18.5286 150.907C18.4381 150.728 18.3502 150.553 18.2648 150.383C17.9942 149.842 17.7387 149.331 17.4871 148.89C15.759 145.856 12.648 143.641 9.36772 143.11C9.14298 143.074 8.89118 143.04 8.62475 143.004C7.44556 142.847 5.97799 142.651 4.43072 141.927C4.0349 141.742 3.66053 141.535 3.30605 141.31C1.62352 140.244 0.830193 138.345 0.934655 136.487C6.74614 136.724 13.7722 138.178 18.904 142.989Z" fill="#55B76B"/>
<path d="M239.296 162.624C238.656 163.29 238.119 164.609 237.55 166.005C237.088 167.139 236.592 168.354 235.93 169.554H219.126C219.582 169.249 220.048 168.961 220.528 168.699C221.614 168.105 222.717 167.645 223.69 167.238C225.126 166.638 226.482 166.072 227.177 165.327C227.81 164.649 228.341 163.344 228.904 161.963C229.728 159.94 230.753 157.423 232.728 155.37C235.393 152.599 238.783 151.673 241.507 150.929C243.413 150.409 245.213 149.917 246.055 149.011C246.508 148.523 246.965 147.61 247.449 146.643C247.754 146.033 248.07 145.403 248.444 144.746C251.535 139.32 256.882 135.513 262.749 134.563C263.082 134.509 263.392 134.468 263.693 134.428C264.175 134.363 268.62 133.392 270.103 134.483C272.888 136.533 272.789 141.014 269.88 142.858C269.545 143.07 269.192 143.266 268.818 143.44C267.358 144.123 265.973 144.308 264.86 144.457C264.609 144.491 264.371 144.522 264.159 144.557C261.063 145.058 258.127 147.148 256.496 150.011C256.259 150.428 256.017 150.91 255.762 151.42C255.682 151.581 255.599 151.747 255.513 151.915L251.361 152.065L254.359 153.999C253.906 154.724 253.378 155.454 252.742 156.139C250.065 159.023 246.612 159.966 243.837 160.723C241.945 161.24 240.158 161.728 239.296 162.624Z" fill="#479C5A"/>
<path d="M236.942 147.035C236.29 148.064 235.93 149.897 235.548 151.838C234.98 154.727 234.336 158.003 232.422 161.124C230.305 164.577 227.292 166.671 224.872 168.354C224.281 168.765 223.711 169.162 223.185 169.554H207.579C209.185 165.892 211.558 162.618 214.519 160.076C215.757 159.013 217.049 158.115 218.189 157.322C219.872 156.152 221.461 155.047 222.163 153.902C222.803 152.859 223.159 151.046 223.536 149.127C224.088 146.317 224.776 142.819 226.787 139.646C229.502 135.363 233.595 133.225 236.883 131.508C239.184 130.307 241.356 129.173 242.206 127.78C242.664 127.029 243.022 125.737 243.401 124.368C243.64 123.505 243.887 122.613 244.202 121.671C245.651 117.335 248.117 113.443 251.266 110.349L254.077 115.104L252.839 108.919C254.975 107.122 257.365 105.669 259.927 104.655C260.338 104.492 260.723 104.352 261.096 104.216C261.695 103.997 267.121 101.504 269.278 102.476C272.249 103.814 273.564 107.253 272.775 110.243L267.191 110.748L271.428 112.81C271.31 112.948 271.187 113.083 271.054 113.212C270.68 113.576 270.278 113.925 269.845 114.253C268.152 115.536 266.432 116.163 265.051 116.667C264.738 116.781 264.443 116.888 264.182 116.992C260.36 118.505 257.132 121.997 255.758 126.106C255.558 126.704 255.369 127.387 255.169 128.109C254.858 129.233 254.504 130.512 254 131.834L247.677 133.137L252.959 134.137C252.81 134.417 252.651 134.697 252.482 134.975C249.779 139.405 245.611 141.582 242.262 143.331C239.977 144.524 237.82 145.65 236.942 147.035Z" fill="#6FEC8B"/>
<path opacity="0.2" d="M254.368 117.109C242.342 135.112 246.61 132.752 234.116 142.467C224.609 149.86 227.649 163.422 219.649 169.554H223.185C223.711 169.162 224.281 168.765 224.872 168.354C227.292 166.671 230.305 164.577 232.422 161.124C234.336 158.003 234.98 154.727 235.548 151.838C235.929 149.897 236.29 148.064 236.942 147.035C237.82 145.65 239.977 144.524 242.261 143.331C245.611 141.582 249.779 139.405 252.482 134.975C252.651 134.697 252.809 134.417 252.959 134.137L247.677 133.137L253.999 131.834C254.504 130.512 254.858 129.233 255.169 128.109C255.369 127.387 255.558 126.704 255.758 126.106C257.132 121.997 260.359 118.504 264.181 116.992C264.443 116.888 264.738 116.781 265.05 116.667C266.432 116.163 268.151 115.536 269.844 114.253C270.277 113.925 270.68 113.576 271.054 113.212C271.186 113.082 271.309 112.947 271.428 112.81L267.19 110.748L272.775 110.243C273.311 108.21 272.874 105.971 271.607 104.325C266.615 105.039 260.37 108.124 254.368 117.109Z" fill="#55B76B"/>
<path d="M241.67 108.538C241.791 110.693 241.937 113.314 241.486 116.105C238.237 118.064 231.893 121.894 232.616 121.482C233.294 121.095 237.972 119.933 240.712 119.271C239.08 124.209 235.836 127.803 233.166 130.759C231.103 133.044 229.155 135.202 228.706 137.097C228.373 138.505 228.66 140.67 228.963 142.963C229.415 146.377 229.927 150.247 228.988 154.491C227.948 159.185 225.421 162.77 223.391 165.651C222.563 166.825 221.782 167.934 221.192 168.972C221.084 169.163 220.981 169.358 220.88 169.554H205.618C206.321 166.546 207.436 163.647 208.948 160.987C209.91 159.292 210.995 157.754 211.951 156.397C213.363 154.394 214.695 152.503 215.04 150.946C215.354 149.528 215.071 147.386 214.771 145.119C214.331 141.798 213.784 137.665 214.811 133.324C216.197 127.463 219.894 123.369 222.865 120.08C224.943 117.779 226.905 115.606 227.319 113.714C227.543 112.695 227.455 111.123 227.361 109.459C227.303 108.41 227.242 107.326 227.237 106.156C227.2 97.1262 230.768 88.2432 236.856 82.0259L239.657 83.3502L238.274 80.6661C238.625 80.3512 238.96 80.0619 239.285 79.7825C239.861 79.287 244.889 74.2331 247.618 74.3783C252.748 74.6512 255.953 80.5335 253.562 85.4034C253.287 85.9633 252.975 86.5181 252.622 87.0631C251.241 89.1939 249.587 90.6164 248.258 91.7593C247.958 92.0177 247.674 92.2619 247.425 92.4873C243.793 95.7799 241.55 100.992 241.571 106.089C241.574 106.831 241.621 107.661 241.67 108.538Z" fill="#55B76B"/>
<path opacity="0.2" d="M235.435 98.0183C229.698 117.548 235.018 116.45 228.26 126.989C221.501 137.527 219.363 136.649 221.252 148.504C222.134 154.043 218.251 162.314 213.864 169.554H220.88C220.98 169.358 221.083 169.163 221.192 168.972C221.782 167.934 222.563 166.825 223.39 165.651C225.421 162.77 227.948 159.185 228.987 154.491C229.927 150.247 229.415 146.377 228.963 142.963C228.66 140.67 228.373 138.505 228.706 137.096C229.154 135.201 231.103 133.044 233.166 130.759C235.835 127.803 239.08 124.209 240.712 119.271C237.972 119.933 233.294 121.095 232.616 121.482C231.893 121.894 238.237 118.064 241.486 116.105C241.936 113.314 241.791 110.693 241.67 108.538C241.62 107.66 241.574 106.831 241.571 106.089C241.55 100.992 243.793 95.7798 247.425 92.4872C247.674 92.2616 247.958 92.0176 248.258 91.7592C249.587 90.6162 251.241 89.1938 252.622 87.063C252.975 86.5181 253.287 85.9632 253.562 85.4032C254.891 82.6971 254.49 79.6788 252.993 77.4836C246.757 80.6712 238.73 86.8021 235.435 98.0183Z" fill="#55B76B"/>
<path d="M239.296 162.624C238.656 163.29 238.119 164.609 237.55 166.005C237.088 167.139 236.592 168.354 235.93 169.554H219.126C219.582 169.249 220.048 168.961 220.528 168.699C221.614 168.105 222.717 167.645 223.69 167.238C225.126 166.638 226.482 166.072 227.177 165.327C227.81 164.649 228.341 163.344 228.904 161.963C229.728 159.94 230.753 157.423 232.728 155.37C235.393 152.599 238.783 151.673 241.507 150.929C243.413 150.409 245.213 149.917 246.055 149.011C246.508 148.523 246.965 147.61 247.449 146.643C247.754 146.033 248.07 145.403 248.444 144.746C251.535 139.32 256.882 135.513 262.749 134.563C263.082 134.509 263.392 134.468 263.693 134.428C264.175 134.363 268.62 133.392 270.103 134.483C272.888 136.533 272.789 141.014 269.88 142.858C269.545 143.07 269.192 143.266 268.818 143.44C267.358 144.123 265.973 144.308 264.86 144.457C264.609 144.491 264.371 144.522 264.159 144.557C261.063 145.058 258.127 147.148 256.496 150.011C256.259 150.428 256.017 150.91 255.762 151.42C255.682 151.581 255.599 151.747 255.513 151.915L251.361 152.065L254.359 153.999C253.906 154.724 253.378 155.454 252.742 156.139C250.065 159.023 246.612 159.966 243.837 160.723C241.945 161.24 240.158 161.728 239.296 162.624Z" fill="#479C5A"/>
<path opacity="0.2" d="M255.159 144.443C245.323 153.664 244.113 155.297 238.714 158.005C234.894 159.921 231.479 166.103 229.808 169.554H235.93C236.592 168.354 237.088 167.139 237.55 166.005C238.119 164.609 238.656 163.29 239.296 162.624C240.158 161.728 241.945 161.24 243.837 160.723C246.612 159.966 250.065 159.022 252.742 156.139C253.378 155.454 253.906 154.724 254.359 153.999L251.361 152.065L255.513 151.915C255.598 151.747 255.682 151.581 255.762 151.42C256.017 150.91 256.259 150.428 256.496 150.011C258.127 147.148 261.063 145.058 264.159 144.557C264.371 144.522 264.609 144.491 264.86 144.457C265.973 144.308 267.358 144.123 268.818 143.44C269.192 143.266 269.545 143.07 269.88 142.858C271.468 141.852 272.216 140.06 272.118 138.306C266.633 138.53 260.002 139.902 255.159 144.443Z" fill="#55B76B"/>
<path d="M111.735 95.1486H71.373V126.233H111.735V95.1486Z" fill="#FEE4CB"/>
<path opacity="0.5" d="M111.735 95.1486H99.533V126.233H111.735V95.1486Z" fill="#DDAC87"/>
<path d="M112.599 95.1484H70.51V102.373H112.599V95.1484Z" fill="#F2D1B6"/>
<path opacity="0.5" d="M82.6057 95.1486V108.462L83.373 107.569L83.8046 108.237L84.3321 107.518L85.4421 108.462L86.7828 107.398L88.5519 108.462V95.1486H82.6057Z" fill="white"/>
<path opacity="0.5" d="M112.598 95.1486H99.533V102.373H112.598V95.1486Z" fill="#D69B74"/>
<path d="M116.249 126.126H60.4233V169.119H116.249V126.126Z" fill="#DDAC87"/>
<path d="M117.442 126.126H60.4233V136.118H117.442V126.126Z" fill="#D69B74"/>
<path opacity="0.5" d="M74.74 126.126V144.54L75.8011 143.304L76.398 144.228L77.1276 143.233L78.6629 144.54L80.8418 143.02L81.3724 143.589L82.1683 142.807L82.9641 144.54V126.126H74.74Z" fill="#F2D1B6"/>
<path opacity="0.5" d="M116.248 136.219H94.9653V169.119H116.248V136.219Z" fill="#DDAC87"/>
<path opacity="0.5" d="M117.442 126.124H94.9653V136.118H117.442V126.124Z" fill="#DDAC87"/>
<path d="M220.748 131.258H171.256V169.374H220.748V131.258Z" fill="#DDAC87"/>
<path opacity="0.5" d="M220.749 131.258H205.786V169.374H220.749V131.258Z" fill="#DDAC87"/>
<path d="M221.807 131.258H170.197V140.117H221.807V131.258Z" fill="#D69B74"/>
<path opacity="0.5" d="M185.029 131.258V147.583L185.97 146.488L186.499 147.307L187.146 146.425L188.507 147.583L190.151 146.279L192.321 147.583V131.258H185.029Z" fill="#F2D1B6"/>
<path opacity="0.5" d="M221.807 131.258H205.786V140.117H221.807V131.258Z" fill="#D69B74"/>
<path d="M162.768 100.13C162.768 100.13 167.805 108.001 168.605 113.432C169.264 117.905 168.551 117.876 168.551 117.876C168.551 117.876 166.414 119.442 161.689 109.878L161.376 108.739C161.376 108.739 165.52 116.816 167.65 117.272C169.779 117.728 161.205 101.46 161.205 101.46L162.268 99.5337L162.768 100.13Z" fill="#07085B"/>
<path d="M162.991 99.6634C163.019 100.144 162.678 100.557 162.23 100.586C161.781 100.616 161.396 100.25 161.368 99.7704C161.341 99.2904 161.682 98.8772 162.13 98.8476C162.578 98.818 162.964 99.1833 162.991 99.6634Z" fill="#07085B"/>
<path d="M161.438 99.1244L149.176 99.9329C148.787 99.9585 148.491 100.317 148.515 100.734L148.52 100.83C148.544 101.247 148.879 101.564 149.268 101.538L161.531 100.73C161.92 100.704 162.216 100.345 162.192 99.9286L162.186 99.8327C162.162 99.4159 161.828 99.0988 161.438 99.1244Z" fill="#57ACE5"/>
<path d="M164.146 144.317L151.661 145.14C151.112 145.177 150.641 144.73 150.607 144.142L148.206 102.348C148.173 101.76 148.59 101.254 149.138 101.218L161.623 100.395C162.172 100.359 162.643 100.806 162.677 101.393L165.078 143.188C165.112 143.776 164.694 144.281 164.146 144.317Z" fill="#8BCDF2"/>
<path opacity="0.3" d="M161.309 118.306C160.682 118.348 160.143 117.836 160.104 117.165L159.305 103.248C159.266 102.576 159.743 101.998 160.37 101.956C160.998 101.915 161.537 102.426 161.576 103.098L162.375 117.015C162.414 117.687 161.937 118.265 161.309 118.306Z" fill="white"/>
<path opacity="0.5" d="M151.882 101.037L148.698 101.247C148.392 101.267 148.16 101.549 148.179 101.876L150.634 144.614C150.653 144.941 150.915 145.19 151.22 145.17L164.586 144.288C164.891 144.268 165.123 143.987 165.105 143.66L163.882 122.376C156.135 123.203 153.084 110.775 151.882 101.037Z" fill="#8BCDF2"/>
<path d="M157.996 93.2747L151.923 93.6752C151.458 93.7058 151.105 94.134 151.134 94.6315L151.138 94.7078C151.148 94.8738 151.281 95.0002 151.436 94.9901L158.63 94.5157C158.785 94.5055 158.903 94.3625 158.893 94.1965L158.889 94.1202C158.86 93.6226 158.461 93.2441 157.996 93.2747Z" fill="#FF5B7E"/>
<path d="M160.293 94.4059L149.773 95.0995C148.682 95.1714 147.852 96.1774 147.919 97.3462L147.977 98.3512C148.044 99.5201 148.983 100.409 150.074 100.337L160.594 99.6439C161.685 99.572 162.515 98.5661 162.448 97.3972L162.39 96.3922C162.323 95.2233 161.384 94.3339 160.293 94.4059Z" fill="#026EAF"/>
<path d="M179.175 110.954C179.175 110.954 176.444 110.695 174.923 112.361C173.402 114.028 170.499 118.621 169.669 123.435C168.839 128.25 158.377 120.979 158.377 120.979C158.377 120.979 162.341 107.646 170.406 105.917C170.406 105.917 172.538 105.436 174.232 106.251C175.926 107.065 177.066 108.028 178.898 107.436C178.898 107.436 178.61 109.473 179.175 110.954Z" fill="#FEB546"/>
<path d="M179.175 110.954C179.175 110.954 181.261 110.88 182.252 109.621C182.252 109.621 182.62 106.263 182.113 106.164C181.606 106.065 181.24 106.337 180.778 106.51C180.316 106.683 178.95 106.883 178.898 107.436C178.898 107.436 178.656 109.25 179.175 110.954Z" fill="#E28810"/>
<path opacity="0.3" d="M173.216 108.315C175.409 108.572 177.512 108.731 178.831 109.007C178.8 108.132 178.898 107.436 178.898 107.436C177.066 108.029 175.926 107.066 174.232 106.251C172.538 105.436 170.406 105.917 170.406 105.917C162.341 107.646 158.377 120.979 158.377 120.979C158.377 120.979 159.735 121.923 161.512 122.905C164.614 110.8 170.337 107.979 173.216 108.315Z" fill="#FEB546"/>
<path d="M179.175 110.954C179.045 110.612 178.96 110.241 178.907 109.871C178.158 109.733 175.981 109.495 174.17 110.927C171.962 112.673 168.243 114.309 164.822 124.47C167.155 125.34 169.31 125.515 169.669 123.435C170.498 118.621 173.402 114.028 174.923 112.362C176.444 110.695 179.175 110.954 179.175 110.954Z" fill="#F9C27A"/>
<path d="M119.007 103.614C119.007 103.614 115.405 96.1398 109.67 98.663C104.008 101.371 106.574 109.321 106.574 109.321C106.574 109.321 115.512 133.973 118.508 139.167C121.38 144.144 126.359 141.719 126.769 141.508C126.787 141.499 126.806 141.49 126.824 141.483C127.25 141.31 132.323 139.121 130.941 133.46C129.499 127.553 119.007 103.614 119.007 103.614Z" fill="#FEB546"/>
<path d="M114.005 101.037C110.831 103.957 109.94 108.435 109.704 111.187C109.624 112.12 110.691 112.635 111.29 111.951C113.055 109.937 115.592 106.252 115.525 101.769C115.512 100.935 114.596 100.493 114.005 101.037Z" fill="#F9C27A"/>
<path d="M117.791 110.292C114.616 113.212 113.726 117.691 113.489 120.442C113.409 121.376 114.477 121.891 115.076 121.207C116.841 119.192 119.378 115.507 119.311 111.025C119.298 110.19 118.382 109.749 117.791 110.292Z" fill="#F9C27A"/>
<path d="M120.829 116.488C122.845 114.635 115.442 139.292 116.528 126.638C116.448 127.572 117.515 128.087 118.114 127.403C119.879 125.388 122.416 121.703 122.349 117.221C122.337 116.386 121.42 115.945 120.829 116.488Z" fill="#F9C27A"/>
<g opacity="0.8">
<path d="M140.546 109.307V109.715C140.546 110.203 140.369 110.662 140.047 111.007L139.336 111.768C138.728 112.42 138.393 113.287 138.393 114.208V134.01C138.393 136.299 140.131 138.162 142.267 138.162H150.493C152.629 138.162 154.367 136.299 154.367 134.01V114.208C154.367 113.287 154.032 112.42 153.424 111.769L152.713 111.007C152.391 110.662 152.214 110.203 152.214 109.715V109.307H140.546Z" fill="#CFF3FF"/>
</g>
<path d="M153.502 116.883V133.039C153.502 135.185 151.908 136.926 149.942 136.926H147.372H145.438H142.867C140.902 136.926 139.308 135.185 139.308 133.039V116.757L153.502 116.883Z" fill="#FEB546"/>
<path d="M140.447 115.569C141.943 115.512 145.498 116.743 146.914 116.8C148.331 116.858 149.854 115.769 151.832 115.941C153.231 116.063 153.486 116.585 153.516 116.881C153.528 117.003 153.47 117.121 153.371 117.183C153.117 117.341 152.464 117.629 151.164 117.545C149.4 117.43 146.647 118.919 145.15 119.063C143.764 119.195 141.085 118.91 139.629 117.454C139.317 117.143 139.193 116.662 139.351 116.238C139.475 115.905 139.773 115.595 140.447 115.569Z" fill="#F4A640"/>
<path d="M137.969 133.908V114.306C137.969 113.243 138.355 112.244 139.057 111.492L139.761 110.738C139.98 110.503 140.101 110.19 140.101 109.858V108.89H152.709V109.858C152.709 110.19 152.83 110.503 153.049 110.738L153.753 111.492C154.455 112.244 154.841 113.243 154.841 114.306V133.908C154.841 136.485 152.884 138.582 150.478 138.582H142.331C139.926 138.582 137.969 136.485 137.969 133.908ZM140.627 109.454V109.858C140.627 110.341 140.452 110.795 140.133 111.137L139.429 111.891C138.827 112.536 138.495 113.394 138.495 114.306V133.908C138.495 136.174 140.216 138.018 142.332 138.018H150.478C152.593 138.018 154.314 136.174 154.314 133.908V114.306C154.314 113.394 153.983 112.536 153.381 111.891L152.677 111.137C152.358 110.795 152.182 110.341 152.182 109.858V109.454H140.627Z" fill="white"/>
<g opacity="0.5">
<path d="M152.064 125.72C152.319 125.722 152.527 125.503 152.528 125.23C152.543 123.102 152.593 114.967 152.523 114.118C152.453 113.271 151.721 112.763 151.204 112.508C150.949 112.382 150.65 112.531 150.571 112.82L150.571 112.821C150.507 113.055 150.613 113.303 150.819 113.407C151.176 113.585 151.578 113.876 151.605 114.205C151.663 114.902 151.633 121.45 151.607 125.223C151.605 125.496 151.81 125.718 152.064 125.72Z" fill="white"/>
</g>
<path d="M149.158 133.837C149.158 134.391 149.577 134.84 150.094 134.84C150.611 134.84 151.03 134.391 151.03 133.837C151.03 133.283 150.611 132.834 150.094 132.834C149.577 132.834 149.158 133.283 149.158 133.837Z" fill="#F4A640"/>
<path d="M148.3 130.87C148.3 131.158 148.519 131.392 148.788 131.392C149.057 131.392 149.275 131.158 149.275 130.87C149.275 130.581 149.057 130.347 148.788 130.347C148.519 130.347 148.3 130.581 148.3 130.87Z" fill="#F4A640"/>
<path d="M145.012 134.129C145.012 134.418 145.23 134.652 145.499 134.652C145.769 134.652 145.987 134.418 145.987 134.129C145.987 133.841 145.769 133.607 145.499 133.607C145.23 133.607 145.012 133.841 145.012 134.129Z" fill="#F4A640"/>
<path d="M149.88 130.707C149.88 130.781 149.936 130.84 150.005 130.84C150.074 130.84 150.129 130.781 150.129 130.707C150.129 130.633 150.074 130.573 150.005 130.573C149.936 130.573 149.88 130.633 149.88 130.707Z" fill="#F4A640"/>
<path d="M142.847 132.128C142.847 132.224 142.92 132.302 143.01 132.302C143.1 132.302 143.173 132.224 143.173 132.128C143.173 132.031 143.1 131.953 143.01 131.953C142.92 131.953 142.847 132.031 142.847 132.128Z" fill="#F4A640"/>
<path d="M144.224 129.198C144.224 129.371 144.355 129.512 144.517 129.512C144.678 129.512 144.809 129.371 144.809 129.198C144.809 129.025 144.678 128.885 144.517 128.885C144.355 128.885 144.224 129.025 144.224 129.198Z" fill="#F4A640"/>
<path d="M149.712 127.155C149.712 127.328 149.843 127.468 150.005 127.468C150.166 127.468 150.297 127.328 150.297 127.155C150.297 126.982 150.166 126.842 150.005 126.842C149.843 126.842 149.712 126.982 149.712 127.155Z" fill="#F4A640"/>
<path d="M149.096 127.783C149.096 127.85 149.146 127.903 149.207 127.903C149.269 127.903 149.319 127.85 149.319 127.783C149.319 127.717 149.269 127.664 149.207 127.664C149.146 127.664 149.096 127.717 149.096 127.783Z" fill="#F4A640"/>
<path d="M150.277 128.495C150.277 128.68 150.417 128.83 150.59 128.83C150.763 128.83 150.903 128.68 150.903 128.495C150.903 128.31 150.763 128.16 150.59 128.16C150.417 128.16 150.277 128.31 150.277 128.495Z" fill="#F4A640"/>
<path d="M140.552 131.837C140.552 132.388 140.969 132.834 141.482 132.834C141.996 132.834 142.413 132.388 142.413 131.837C142.413 131.287 141.996 130.84 141.482 130.84C140.969 130.84 140.552 131.287 140.552 131.837Z" fill="#F4A640"/>
<path d="M142.656 130.151C142.656 130.392 142.838 130.587 143.062 130.587C143.287 130.587 143.469 130.392 143.469 130.151C143.469 129.911 143.287 129.716 143.062 129.716C142.838 129.716 142.656 129.911 142.656 130.151Z" fill="#F4A640"/>
<path d="M140.552 127.912C140.552 128.301 140.847 128.617 141.21 128.617C141.573 128.617 141.868 128.301 141.868 127.912C141.868 127.523 141.573 127.207 141.21 127.207C140.847 127.207 140.552 127.523 140.552 127.912Z" fill="#F4A640"/>
<path d="M139.94 109.454H152.975C153.574 109.454 154.06 108.933 154.06 108.291V108.143C154.06 107.501 153.574 106.98 152.975 106.98H139.94C139.341 106.98 138.855 107.501 138.855 108.143V108.291C138.855 108.933 139.341 109.454 139.94 109.454Z" fill="#9CDEDC"/>
<path opacity="0.2" d="M139.641 108.757H153.274C153.708 108.757 154.06 108.38 154.06 107.915V108.611C154.06 109.077 153.708 109.454 153.274 109.454H139.641C139.207 109.454 138.855 109.077 138.855 108.611V107.915C138.855 108.38 139.207 108.757 139.641 108.757Z" fill="#74BDC1"/>
<g opacity="0.3">
<path opacity="0.5" d="M153.059 109.454H153.273V106.98H153.059V109.454Z" fill="#74BDC1"/>
<path opacity="0.5" d="M151.837 109.454H152.052V106.98H151.837V109.454Z" fill="#74BDC1"/>
<path opacity="0.5" d="M150.615 109.454H150.83V106.98H150.615V109.454Z" fill="#74BDC1"/>
<path opacity="0.5" d="M149.393 109.454H149.607V106.98H149.393V109.454Z" fill="#74BDC1"/>
<path opacity="0.5" d="M148.17 109.454H148.385V106.98H148.17V109.454Z" fill="#74BDC1"/>
<path opacity="0.5" d="M146.948 109.454H147.163V106.98H146.948V109.454Z" fill="#74BDC1"/>
<path opacity="0.5" d="M145.726 109.454H145.941V106.98H145.726V109.454Z" fill="#74BDC1"/>
<path opacity="0.5" d="M144.504 109.454H144.719V106.98H144.504V109.454Z" fill="#74BDC1"/>
<path opacity="0.5" d="M143.282 109.454H143.497V106.98H143.282V109.454Z" fill="#74BDC1"/>
<path d="M142.06 109.454H142.274V106.98H142.06V109.454Z" fill="#F4A640"/>
<path d="M140.838 109.454H141.052V106.98H140.838V109.454Z" fill="#F4A640"/>
<path d="M139.616 109.454H139.83V106.98H139.616V109.454Z" fill="#F4A640"/>
</g>
<g opacity="0.8">
<path d="M123.87 99.785V100.326C123.87 100.973 123.635 101.581 123.209 102.038L122.267 103.048C121.461 103.911 121.017 105.06 121.017 106.281V132.523C121.017 135.557 123.32 138.025 126.151 138.025H137.052C139.883 138.025 142.186 135.557 142.186 132.523V106.281C142.186 105.06 141.742 103.911 140.936 103.048L139.994 102.038C139.568 101.581 139.333 100.973 139.333 100.326V99.785H123.87Z" fill="#CFF3FF"/>
</g>
<path d="M122.164 109.827V131.236C122.164 134.081 124.277 136.387 126.882 136.387H130.288H132.851H136.257C138.863 136.387 140.975 134.081 140.975 131.236V109.66L122.164 109.827Z" fill="#FF5B7E"/>
<path d="M139.465 108.084C137.481 108.009 132.771 109.64 130.893 109.716C129.016 109.792 126.997 108.35 124.376 108.578C122.522 108.739 122.184 109.432 122.145 109.823C122.129 109.985 122.205 110.141 122.337 110.223C122.673 110.432 123.539 110.815 125.262 110.703C127.599 110.551 131.247 112.524 133.231 112.714C135.069 112.89 138.618 112.512 140.548 110.583C140.961 110.171 141.126 109.532 140.917 108.971C140.752 108.529 140.357 108.119 139.465 108.084Z" fill="#E03268"/>
<path d="M136.967 138.582H126.171C122.983 138.582 120.389 135.803 120.389 132.388V106.411C120.389 105.002 120.901 103.677 121.831 102.681L122.764 101.682C123.054 101.37 123.214 100.956 123.214 100.516V99.2325H139.923V100.516C139.923 100.956 140.083 101.37 140.374 101.682L141.307 102.681C142.237 103.677 142.748 105.002 142.748 106.411V132.388C142.749 135.803 140.155 138.582 136.967 138.582ZM123.912 99.9802V100.516C123.912 101.156 123.68 101.758 123.257 102.21L122.324 103.21C121.526 104.065 121.087 105.202 121.087 106.411V132.388C121.087 135.391 123.367 137.835 126.171 137.835H136.967C139.77 137.835 142.051 135.391 142.051 132.388V106.411C142.051 105.202 141.611 104.065 140.813 103.21H140.813L139.881 102.21C139.458 101.758 139.225 101.156 139.225 100.516V99.9802H123.912Z" fill="white"/>
<g opacity="0.5">
<path d="M124.069 121.537C123.732 121.54 123.456 121.25 123.454 120.888C123.435 118.067 123.368 107.286 123.461 106.161C123.553 105.039 124.524 104.366 125.209 104.028C125.547 103.861 125.944 104.058 126.048 104.441L126.048 104.443C126.133 104.753 125.992 105.082 125.719 105.219C125.246 105.455 124.713 105.84 124.677 106.276C124.601 107.2 124.64 115.878 124.675 120.878C124.677 121.24 124.406 121.534 124.069 121.537Z" fill="white"/>
</g>
<path d="M127.92 132.293C127.92 133.027 127.364 133.623 126.679 133.623C125.994 133.623 125.439 133.027 125.439 132.293C125.439 131.559 125.994 130.964 126.679 130.964C127.364 130.964 127.92 131.559 127.92 132.293Z" fill="#E03268"/>
<path d="M129.057 128.362C129.057 128.744 128.768 129.054 128.411 129.054C128.054 129.054 127.765 128.744 127.765 128.362C127.765 127.979 128.054 127.669 128.411 127.669C128.768 127.669 129.057 127.979 129.057 128.362Z" fill="#E03268"/>
<path d="M133.414 132.681C133.414 133.063 133.125 133.373 132.768 133.373C132.411 133.373 132.122 133.063 132.122 132.681C132.122 132.299 132.411 131.989 132.768 131.989C133.125 131.989 133.414 132.299 133.414 132.681Z" fill="#E03268"/>
<path d="M126.964 128.146C126.964 128.244 126.89 128.323 126.798 128.323C126.707 128.323 126.633 128.244 126.633 128.146C126.633 128.048 126.707 127.969 126.798 127.969C126.89 127.969 126.964 128.048 126.964 128.146Z" fill="#E03268"/>
<path d="M136.284 130.029C136.284 130.157 136.187 130.26 136.068 130.26C135.949 130.26 135.852 130.157 135.852 130.029C135.852 129.901 135.949 129.797 136.068 129.797C136.187 129.797 136.284 129.901 136.284 130.029Z" fill="#E03268"/>
<path d="M134.458 126.146C134.458 126.376 134.285 126.562 134.071 126.562C133.857 126.562 133.683 126.376 133.683 126.146C133.683 125.917 133.857 125.731 134.071 125.731C134.285 125.731 134.458 125.917 134.458 126.146Z" fill="#E03268"/>
<path d="M127.186 123.438C127.186 123.668 127.012 123.854 126.798 123.854C126.584 123.854 126.411 123.668 126.411 123.438C126.411 123.209 126.584 123.023 126.798 123.023C127.012 123.023 127.186 123.209 127.186 123.438Z" fill="#E03268"/>
<path d="M128.004 124.271C128.004 124.359 127.937 124.43 127.855 124.43C127.774 124.43 127.707 124.359 127.707 124.271C127.707 124.184 127.774 124.113 127.855 124.113C127.937 124.113 128.004 124.184 128.004 124.271Z" fill="#E03268"/>
<path d="M126.438 125.214C126.438 125.46 126.252 125.659 126.023 125.659C125.794 125.659 125.609 125.46 125.609 125.214C125.609 124.969 125.794 124.77 126.023 124.77C126.253 124.77 126.438 124.969 126.438 125.214Z" fill="#E03268"/>
<path d="M138.569 130.864C139.198 130.585 139.497 129.812 139.236 129.139C138.976 128.465 138.254 128.145 137.625 128.424C136.996 128.703 136.698 129.476 136.958 130.149C137.219 130.823 137.94 131.143 138.569 130.864Z" fill="#E03268"/>
<path d="M136.538 127.409C136.538 127.728 136.297 127.987 135.999 127.987C135.701 127.987 135.46 127.728 135.46 127.409C135.46 127.091 135.701 126.832 135.999 126.832C136.297 126.832 136.538 127.091 136.538 127.409Z" fill="#E03268"/>
<path d="M139.325 124.442C139.325 124.957 138.935 125.376 138.453 125.376C137.972 125.376 137.582 124.957 137.582 124.442C137.582 123.926 137.972 123.508 138.453 123.508C138.935 123.508 139.325 123.926 139.325 124.442Z" fill="#E03268"/>
<path d="M140.136 99.9802H122.862C122.068 99.9802 121.424 99.2902 121.424 98.4391V98.2435C121.424 97.3923 122.068 96.7024 122.862 96.7024H140.136C140.931 96.7024 141.575 97.3923 141.575 98.2435V98.4391C141.575 99.2902 140.931 99.9802 140.136 99.9802Z" fill="#FEB546"/>
<path d="M140.532 99.0572H122.466C121.89 99.0572 121.424 98.5572 121.424 97.9403V98.8634C121.424 99.4802 121.89 99.9802 122.466 99.9802H140.532C141.108 99.9802 141.575 99.4802 141.575 98.8634V97.9403C141.575 98.5572 141.108 99.0572 140.532 99.0572Z" fill="#F4A640"/>
<g opacity="0.3">
<path d="M122.751 96.7025H122.466V99.9803H122.751V96.7025Z" fill="#F4A640"/>
<path d="M124.371 96.7025H124.086V99.9803H124.371V96.7025Z" fill="#F4A640"/>
<path d="M125.99 96.7025H125.706V99.9803H125.99V96.7025Z" fill="#F4A640"/>
<path d="M127.61 96.7025H127.325V99.9803H127.61V96.7025Z" fill="#F4A640"/>
<path d="M129.229 96.7025H128.945V99.9803H129.229V96.7025Z" fill="#F4A640"/>
<path d="M130.849 96.7025H130.564V99.9803H130.849V96.7025Z" fill="#F4A640"/>
<path d="M132.469 96.7025H132.184V99.9803H132.469V96.7025Z" fill="#F4A640"/>
<path d="M134.088 96.7025H133.804V99.9803H134.088V96.7025Z" fill="#F4A640"/>
<path d="M135.707 96.7025H135.423V99.9803H135.707V96.7025Z" fill="#F4A640"/>
<path d="M137.327 96.7025H137.043V99.9803H137.327V96.7025Z" fill="#F4A640"/>
<path d="M138.947 96.7025H138.662V99.9803H138.947V96.7025Z" fill="#F4A640"/>
<path d="M140.567 96.7025H140.282V99.9803H140.567V96.7025Z" fill="#F4A640"/>
</g>
<path d="M158.832 112.486C158.832 112.486 157.735 113.314 157.458 115.593L157.939 115.744C157.939 115.744 158.345 114.351 159.66 113.16L158.832 112.486Z" fill="#B9704E"/>
<path d="M159.66 113.16C159.615 113.224 159.393 113.124 159.165 112.938C158.936 112.752 158.787 112.549 158.832 112.486C158.877 112.422 159.099 112.522 159.328 112.708C159.556 112.894 159.705 113.097 159.66 113.16Z" fill="#934A38"/>
<path d="M159.201 115.475C158.034 115.56 157.332 115.339 156.393 114.592C155.453 113.845 151.438 112.873 150.001 117.743C148.565 122.613 152.215 125.116 153.376 125.384C154.018 125.533 154.305 125.5 154.617 125.549C154.724 125.569 154.816 125.591 154.898 125.616C154.979 125.642 155.067 125.676 155.167 125.722C155.455 125.862 155.679 126.055 156.295 126.302C157.407 126.749 161.74 126.757 162.989 121.828C164.238 116.898 160.368 115.391 159.201 115.475Z" fill="#CF283C"/>
<path opacity="0.3" d="M161.176 116.108C161.164 116.619 161.088 117.18 160.933 117.794C159.684 122.724 155.351 122.715 154.239 122.269C153.623 122.022 153.399 121.829 153.111 121.688C153.012 121.643 152.923 121.609 152.842 121.582C152.76 121.557 152.668 121.535 152.562 121.516C152.249 121.467 151.962 121.5 151.32 121.351C150.949 121.265 150.325 120.951 149.694 120.406C149.942 123.532 152.45 125.17 153.376 125.384C154.019 125.533 154.305 125.5 154.618 125.549C154.724 125.569 154.816 125.591 154.898 125.616C154.979 125.642 155.067 125.677 155.167 125.722C155.455 125.862 155.679 126.055 156.295 126.302C157.407 126.749 161.74 126.757 162.989 121.828C163.782 118.695 162.509 116.946 161.176 116.108Z" fill="#CF283C"/>
<g opacity="0.3">
<path d="M153.538 115.273C152.536 115.755 151.905 116.58 152.13 117.115C152.354 117.65 153.348 117.692 154.35 117.209C155.353 116.726 155.983 115.902 155.759 115.367C155.534 114.832 154.54 114.79 153.538 115.273Z" fill="white"/>
</g>
<g opacity="0.1">
<path d="M150.422 118.295C151.858 113.424 155.874 114.397 156.814 115.144C157.753 115.891 158.455 116.111 159.622 116.027C160.229 115.983 161.566 116.371 162.534 117.445C161.578 115.95 159.902 115.424 159.201 115.475C158.034 115.56 157.332 115.339 156.393 114.592C155.453 113.845 151.438 112.872 150.001 117.743C149.183 120.518 150.016 122.523 151.099 123.785C150.243 122.519 149.714 120.695 150.422 118.295Z" fill="white"/>
</g>
<path d="M158.329 114.857C158.329 114.857 159.822 115.996 161.666 114.288C161.666 114.288 159.391 112.973 158.329 114.857Z" fill="#99C049"/>
<path opacity="0.3" d="M161.666 114.288C159.929 114.246 158.49 114.848 158.329 114.857C158.329 114.857 159.822 115.996 161.666 114.288Z" fill="#99C049"/>
<path d="M175.417 120.504H106.069V169.119H175.417V120.504Z" fill="#F9F5F2"/>
<path d="M175.417 120.504H151.972V169.119H175.417V120.504Z" fill="#F9EADE"/>
<path d="M106.125 120.504L99.929 134.702H145.874L152.029 120.504H106.125Z" fill="#F2D1B6"/>
<path d="M175.417 120.504L181.815 134.151H158.329L151.972 120.504H175.417Z" fill="#F2D1B6"/>
<path d="M135.999 120.437C135.999 120.437 134.551 119.151 130.565 119.476C126.578 119.802 122.979 117.75 121.829 119.476C119.229 123.378 120.396 132.681 120.629 138.873C120.882 145.627 121.616 155.753 121.474 161.068C121.448 162.027 122.158 162.824 123.053 162.841C124.863 162.874 128.283 162.89 133.847 162.748L134.408 156.55V143.104V130.707L134.459 123.104L135.999 120.437Z" fill="#02CCC0"/>
<path d="M122.272 167.618C122.033 167.622 121.856 167.381 121.917 167.133C121.948 167.002 121.988 166.878 122.026 166.761C122.058 166.662 122.088 166.569 122.112 166.478C122.185 166.192 122.201 165.887 122.157 165.595C122.129 165.404 122.075 165.211 122.018 165.007C121.99 164.907 121.962 164.807 121.937 164.707C121.736 163.908 121.695 163.067 121.816 162.251C121.849 162.028 122.05 161.881 122.255 161.932L122.288 161.94C122.472 161.986 122.596 162.176 122.566 162.376C122.462 163.08 122.497 163.805 122.67 164.495C122.694 164.588 122.72 164.681 122.746 164.774C122.807 164.994 122.871 165.222 122.907 165.467C122.968 165.873 122.946 166.298 122.844 166.694C122.814 166.81 122.778 166.921 122.744 167.027C122.71 167.132 122.677 167.234 122.653 167.332C122.612 167.5 122.468 167.615 122.306 167.618L122.272 167.618Z" fill="#02CCC0"/>
<path d="M134 167.618C133.761 167.622 133.585 167.381 133.645 167.133C133.677 167.002 133.717 166.878 133.755 166.761C133.786 166.662 133.817 166.569 133.84 166.478C133.914 166.192 133.929 165.887 133.886 165.595C133.858 165.404 133.804 165.211 133.747 165.007C133.719 164.907 133.691 164.807 133.665 164.707C133.464 163.908 133.424 163.067 133.544 162.251C133.577 162.028 133.779 161.881 133.984 161.932L134.016 161.94C134.2 161.986 134.324 162.176 134.295 162.376C134.19 163.08 134.225 163.805 134.399 164.495C134.422 164.588 134.448 164.681 134.474 164.774C134.536 164.994 134.599 165.222 134.636 165.467C134.696 165.873 134.674 166.298 134.572 166.694C134.542 166.81 134.507 166.921 134.472 167.027C134.438 167.132 134.406 167.234 134.381 167.332C134.34 167.5 134.196 167.615 134.034 167.618L134 167.618Z" fill="#06BFAD"/>
<path d="M132.175 167.854C131.952 167.858 131.781 167.647 131.812 167.411C131.874 166.949 132 166.406 132.042 166.242C132.115 165.957 132.131 165.652 132.088 165.359C132.059 165.168 132.005 164.975 131.948 164.771C131.92 164.671 131.892 164.571 131.867 164.471C131.666 163.672 131.625 162.831 131.746 162.015C131.779 161.792 131.98 161.646 132.185 161.697L132.218 161.705C132.402 161.751 132.526 161.94 132.496 162.14C132.392 162.844 132.427 163.57 132.6 164.259C132.624 164.352 132.65 164.445 132.676 164.538C132.737 164.758 132.801 164.987 132.837 165.231C132.898 165.637 132.876 166.062 132.774 166.459C132.701 166.74 132.609 167.188 132.564 167.521C132.539 167.71 132.39 167.85 132.213 167.853L132.175 167.854Z" fill="#02CCC0"/>
<path d="M123.954 167.906L123.923 167.883C123.772 167.773 123.725 167.561 123.806 167.387C124.057 166.842 124.121 166.2 123.972 165.612C123.914 165.38 123.823 165.153 123.727 164.912C123.625 164.654 123.52 164.388 123.447 164.1C123.245 163.292 123.34 162.47 123.466 161.716C123.502 161.504 123.692 161.364 123.89 161.405L123.926 161.412C124.12 161.452 124.249 161.651 124.214 161.859C124.102 162.527 124.019 163.244 124.181 163.889C124.239 164.122 124.33 164.351 124.426 164.593C124.528 164.849 124.633 165.114 124.705 165.4C124.902 166.18 124.818 167.031 124.484 167.752C124.385 167.965 124.137 168.039 123.954 167.906Z" fill="#02CCC0"/>
<path d="M130.307 168.08C130.109 168.026 129.986 167.814 130.03 167.601C130.149 167.019 130.34 165.928 130.217 165.439C130.158 165.207 130.068 164.979 129.972 164.738C129.87 164.481 129.764 164.215 129.692 163.927C129.489 163.119 129.584 162.297 129.711 161.543C129.747 161.331 129.937 161.191 130.134 161.231L130.171 161.239C130.365 161.279 130.494 161.478 130.459 161.686C130.347 162.354 130.264 163.071 130.425 163.716C130.484 163.949 130.575 164.178 130.671 164.42C130.772 164.676 130.877 164.94 130.95 165.226C131.112 165.868 130.901 167.122 130.771 167.771C130.726 167.997 130.516 168.137 130.307 168.08Z" fill="#02CCC0"/>
<path d="M126.14 168.089L126.11 168.071C125.983 167.991 125.916 167.838 125.934 167.682C125.993 167.186 125.935 166.121 125.574 165.194C125.285 164.454 125.326 163.341 125.432 162.283C125.453 162.069 125.635 161.915 125.834 161.941L125.871 161.946C126.067 161.972 126.207 162.161 126.186 162.372C126.111 163.108 126.032 164.258 126.274 164.88C126.662 165.873 126.78 167.067 126.68 167.809C126.643 168.082 126.362 168.228 126.14 168.089Z" fill="#02CCC0"/>
<path d="M128.397 167.862L128.363 167.843C128.202 167.751 128.129 167.545 128.195 167.362C128.464 166.623 128.31 166.058 128.121 165.363C127.99 164.884 127.842 164.341 127.832 163.694C127.829 163.451 127.802 163.085 127.774 162.698C127.747 162.33 127.72 161.954 127.709 161.636C127.7 161.412 127.872 161.228 128.081 161.235L128.119 161.236C128.308 161.243 128.46 161.406 128.468 161.609C128.479 161.915 128.506 162.291 128.531 162.635C128.56 163.035 128.587 163.413 128.592 163.68C128.6 164.218 128.727 164.685 128.85 165.136C129.055 165.888 129.266 166.662 128.904 167.657C128.825 167.873 128.589 167.97 128.397 167.862Z" fill="#02CCC0"/>
<path opacity="0.5" d="M134.408 156.55V154.686C132.021 155.288 130.08 154.82 127.623 154.225C127.177 154.117 126.717 154.005 126.24 153.898C124.433 153.489 122.737 153.673 121.358 154.037C121.396 155.002 121.428 155.936 121.452 156.824C122.605 156.451 124.123 156.191 125.718 156.551C126.177 156.655 126.628 156.764 127.065 156.87C129.4 157.435 131.644 157.977 134.325 157.466L134.408 156.55Z" fill="#02CCC0"/>
<path opacity="0.5" d="M134.408 146.192C132.021 146.793 130.08 146.325 127.623 145.73C127.178 145.622 126.717 145.511 126.24 145.403C124.251 144.953 122.395 145.222 120.951 145.657C120.999 146.58 121.048 147.515 121.096 148.45C122.283 148.019 123.953 147.658 125.718 148.056C126.177 148.16 126.628 148.269 127.065 148.375C129.424 148.946 131.69 149.494 134.408 148.956V146.192Z" fill="#02CCC0"/>
<path opacity="0.5" d="M134.408 137.697C132.021 138.299 130.081 137.83 127.623 137.235C127.178 137.127 126.717 137.016 126.24 136.908C124.064 136.416 122.048 136.784 120.555 137.288C120.584 137.834 120.61 138.364 120.629 138.873C120.644 139.276 120.661 139.692 120.679 140.118C121.872 139.625 123.736 139.114 125.718 139.562C126.177 139.665 126.629 139.775 127.065 139.881C129.424 140.452 131.691 140.999 134.408 140.461V137.697Z" fill="#02CCC0"/>
<path opacity="0.5" d="M134.408 130.707L134.418 129.199C132.027 129.805 130.084 129.336 127.623 128.74C127.177 128.633 126.717 128.521 126.24 128.413C123.87 127.878 121.691 128.361 120.169 128.931C120.178 129.882 120.209 130.848 120.252 131.811C121.392 131.278 123.479 130.561 125.718 131.067C126.177 131.171 126.628 131.28 127.065 131.386C129.424 131.957 131.69 132.505 134.408 131.966V130.707Z" fill="#02CCC0"/>
<path opacity="0.5" d="M134.459 123.104L135.999 120.437C135.999 120.437 135.922 120.369 135.756 120.268C132.708 121.475 130.526 120.948 127.623 120.246C127.177 120.138 126.717 120.026 126.24 119.918C124.498 119.525 122.86 119.682 121.509 120.019C121.05 120.896 120.735 121.977 120.527 123.192C121.709 122.681 123.649 122.104 125.718 122.572C126.177 122.676 126.628 122.785 127.065 122.891C129.438 123.465 131.717 124.017 134.456 123.462L134.459 123.104Z" fill="#02CCC0"/>
<path d="M133.624 162.721C133.234 162.612 132.981 162.209 133.034 161.781C133.476 158.233 133.222 147.726 133.015 139.152C132.862 132.856 132.731 127.418 132.885 125.582C133.102 122.989 133.566 121.64 133.997 120.931C134.326 120.391 134.947 120.147 135.53 120.308L135.999 120.437C135.999 120.437 134.799 121.954 134.482 125.736C134.336 127.473 134.473 133.124 134.617 139.108C134.835 148.1 135.078 158.183 134.618 162.004C134.557 162.515 134.09 162.851 133.624 162.721Z" fill="#06BFAD"/>
<path d="M166.077 169.119H139.254C137.735 169.119 136.503 167.8 136.503 166.172V165.798C136.503 164.171 137.735 162.851 139.254 162.851H166.077C167.596 162.851 168.827 164.171 168.827 165.798V166.172C168.827 167.8 167.596 169.119 166.077 169.119Z" fill="#FF5B7E"/>
<path d="M183.476 169.119H164.227C162.708 169.119 161.477 167.8 161.477 166.172V165.798C161.477 164.171 162.708 162.851 164.227 162.851H183.476C184.995 162.851 186.226 164.171 186.226 165.798V166.172C186.226 167.8 184.995 169.119 183.476 169.119Z" fill="#E03268"/>
<path d="M170.426 162.851H143.603C142.084 162.851 140.853 161.532 140.853 159.905V159.531C140.853 157.903 142.084 156.584 143.603 156.584H170.426C171.945 156.584 173.177 157.903 173.177 159.531V159.905C173.177 161.532 171.945 162.851 170.426 162.851Z" fill="#8BCDF2"/>
<path d="M187.826 162.851H168.577C167.058 162.851 165.827 161.532 165.827 159.905V159.531C165.827 157.903 167.058 156.584 168.577 156.584H187.826C189.345 156.584 190.576 157.903 190.576 159.531V159.905C190.576 161.532 189.345 162.851 187.826 162.851Z" fill="#026EAF"/>
<path d="M166.077 156.584H139.254C137.735 156.584 136.503 155.265 136.503 153.637V153.263C136.503 151.636 137.735 150.316 139.254 150.316H166.077C167.596 150.316 168.827 151.636 168.827 153.263V153.637C168.827 155.265 167.596 156.584 166.077 156.584Z" fill="#FEB546"/>
<path d="M183.476 156.584H164.227C162.708 156.584 161.477 155.265 161.477 153.637V153.263C161.477 151.636 162.708 150.316 164.227 150.316H183.476C184.995 150.316 186.226 151.636 186.226 153.263V153.637C186.226 155.265 184.995 156.584 183.476 156.584Z" fill="#E28810"/>
<path d="M189.33 159.401H167.749V160.034H189.33V159.401Z" fill="#026EAF"/>
<path d="M184.979 165.669H163.399V166.302H184.979V165.669Z" fill="#E03268"/>
<path d="M184.642 153.134H163.062V153.767H184.642V153.134Z" fill="#E28810"/>
<path d="M89.0957 40.9277C85.7381 38.4076 87.5206 37.3966 85.5483 35.2056C84.0119 33.499 83.5339 32.2231 83.5637 30.9736C83.5251 29.7243 83.9942 28.4447 85.5185 26.7258C87.4755 24.5191 85.6859 23.5225 89.0258 20.9755C92.3657 18.4287 95.9147 24.6037 95.9147 24.6037L99.5766 29.4527L98.8926 31.9654L100.327 36.8643C100.327 36.8642 92.4534 43.4477 89.0957 40.9277Z" fill="#333333"/>
<path d="M101.939 14.847C101.939 14.847 107.732 12.4797 111.153 17.6964C113.773 21.6915 113.226 27.1564 110.036 30.6445L108.746 32.0556C108.746 32.0556 103.475 25.9835 103.417 25.6907C103.36 25.3978 101.939 14.847 101.939 14.847Z" fill="#333333"/>
<path d="M109.241 29.5623C108.888 30.7429 109.317 31.9448 110.199 32.2472C111.081 32.5495 112.082 31.8377 112.435 30.6572C112.788 29.4767 112.359 28.2747 111.477 27.9724C110.595 27.67 109.594 28.3819 109.241 29.5623Z" fill="#F99893"/>
<path d="M109.418 36.2827C109.648 35.7671 109.835 35.2248 109.976 34.6619C110.381 33.1473 110.527 31.5629 110.552 30.1894C110.557 29.8947 110.579 29.6011 110.605 29.3077C110.712 28.1227 110.618 26.8839 110.27 25.6304C109.148 21.5979 105.619 18.7822 101.689 18.7955C96.394 18.8135 92.3634 23.6223 92.7607 29.123C92.1781 28.8369 91.5451 28.8121 91.012 29.122C89.9889 29.7165 89.7223 31.3083 90.4164 32.6773C91.1105 34.0464 92.5026 34.6743 93.5257 34.0798C93.6677 33.9972 93.7936 33.8938 93.906 33.776C94.6896 38.4196 98.5329 41.7357 102.824 41.304C104.922 41.0928 106.759 40.0212 108.084 38.4306C108.174 38.3368 108.267 38.228 108.364 38.1023C108.791 37.5511 109.136 36.9346 109.418 36.2827Z" fill="#FFC0BB"/>
<path d="M103.685 28.1241C103.567 28.6601 103.531 29.2097 103.556 29.763C103.569 30.0408 103.602 30.3178 103.665 30.5984C103.733 30.8766 103.823 31.1614 104.018 31.4245L104.102 31.5181L104.177 31.5981C104.208 31.6361 104.254 31.6661 104.277 31.7082C104.337 31.784 104.378 31.8691 104.399 31.9591C104.453 32.1396 104.391 32.3488 104.284 32.5416C104.048 32.9325 103.594 33.1837 103.11 33.3466C103.612 33.3955 104.191 33.2644 104.586 32.7902C104.778 32.5607 104.911 32.2156 104.852 31.8623C104.838 31.7751 104.817 31.6894 104.779 31.6117C104.749 31.5284 104.702 31.4597 104.656 31.39C104.612 31.3166 104.55 31.2682 104.497 31.2075C104.463 31.1741 104.457 31.1626 104.44 31.1431L104.393 31.0906C104.271 30.9322 104.183 30.7001 104.109 30.4644C104.029 30.227 103.988 29.9689 103.933 29.7135C103.84 29.1961 103.769 28.6654 103.685 28.1241Z" fill="#F99893"/>
<path d="M100.838 29.2884C100.879 29.7487 100.563 30.1568 100.133 30.2C99.7032 30.2433 99.322 29.9052 99.2816 29.445C99.2412 28.9848 99.5568 28.5767 99.9868 28.5334C100.417 28.4902 100.798 28.8281 100.838 29.2884Z" fill="#333333"/>
<path d="M107.564 29.0849C107.604 29.5452 107.288 29.9533 106.858 29.9966C106.429 30.0399 106.047 29.7019 106.007 29.2417C105.966 28.7814 106.282 28.3733 106.712 28.33C107.142 28.2867 107.523 28.6248 107.564 29.0849Z" fill="#333333"/>
<path opacity="0.3" d="M101.318 35.6335C101.318 35.6335 102.389 35.0829 103.507 35.7002C103.507 35.7002 104.564 34.816 105.526 35.4405C105.526 35.4405 105.288 37.2901 103.417 37.3759C101.547 37.4618 101.318 35.6335 101.318 35.6335Z" fill="#F99893"/>
<path d="M100.281 35.0959C100.51 35.2546 100.745 35.3982 100.99 35.5193C101.232 35.6453 101.481 35.7551 101.736 35.8422C102.245 36.0165 102.774 36.1201 103.303 36.1087C103.833 36.1003 104.356 35.9714 104.846 35.7495C105.334 35.5198 105.785 35.1962 106.204 34.8243C106.022 35.0412 105.824 35.2437 105.609 35.427C105.394 35.6107 105.157 35.7628 104.913 35.9026C104.665 36.0346 104.404 36.14 104.134 36.2124C103.863 36.2811 103.585 36.3196 103.307 36.3283C102.749 36.3349 102.195 36.2189 101.682 36.0005C101.171 35.7827 100.688 35.486 100.281 35.0959Z" fill="#F99893"/>
<path d="M101.563 27.2698C101.152 27.1991 100.768 27.1559 100.393 27.1504C100.018 27.1454 99.6581 27.1893 99.3143 27.2878C98.9731 27.3905 98.6337 27.5234 98.3189 27.738C98.1483 27.8245 98.0075 27.9614 97.8374 28.0695C97.6755 28.1889 97.5297 28.3314 97.3467 28.4524C97.4187 28.2455 97.5075 28.0402 97.6174 27.8476C97.7427 27.6695 97.8592 27.4719 98.0259 27.3255C98.3295 26.9967 98.7364 26.7729 99.1601 26.6499C99.587 26.5284 100.04 26.529 100.456 26.6384C100.871 26.7513 101.263 26.953 101.563 27.2698Z" fill="#333333"/>
<path d="M105.027 27.1645C105.301 26.8214 105.676 26.5845 106.08 26.434C106.486 26.287 106.937 26.2449 107.372 26.3269C107.804 26.4106 108.227 26.5965 108.556 26.8962C108.734 27.0269 108.865 27.213 109.005 27.379C109.129 27.5608 109.234 27.7572 109.322 27.9569C109.13 27.853 108.974 27.7243 108.803 27.6203C108.625 27.5281 108.474 27.4046 108.297 27.3341C107.966 27.1491 107.617 27.0477 107.269 26.9766C106.919 26.9099 106.556 26.8993 106.183 26.9385C105.81 26.9781 105.431 27.0563 105.027 27.1645Z" fill="#333333"/>
<path d="M92.7606 29.1232C92.7606 29.1232 101.992 25.6215 105.845 18.2286C105.845 18.2286 105.589 11.7417 97.105 14.4071C91.2267 16.2539 89.1742 24.7777 92.7606 29.1232Z" fill="#333333"/>
<path d="M97.1008 83.1615L79.2432 72.4727L84.6621 58.0273C83.1205 57.9645 79.85 57.2013 76.3846 54.8259C76.3846 54.8259 68.5747 71.7809 69.9677 76.3847C70.9822 79.7376 94.2378 86.8652 95.3674 87.2096L97.1008 83.1615Z" fill="#FFC0BB"/>
<path d="M105.299 44.4035C105.156 47.5189 101.085 52.7113 101.085 52.7113C100.347 50.9749 93.2397 42.5289 93.1506 42.4231C90.2235 42.4718 84.0107 42.9359 80.2141 45.8246C75.1147 49.7044 72.0613 58.4193 72.0613 58.4193C72.0613 58.4193 81.2993 63.4077 83.5903 63.6452H109.235C109.235 63.6452 113.152 63.3285 116.921 61.2698C116.921 61.2698 116.314 48.3597 105.299 44.4035Z" fill="#FF5B7E"/>
<path d="M87.6967 53.2249C87.4326 54.0716 87.1988 54.9277 86.9622 55.7835C86.7243 56.6389 86.5101 57.5013 86.2976 58.3647C86.0945 59.2304 85.8894 60.0963 85.7128 60.9701C85.5375 61.8441 85.3654 62.7202 85.2346 63.607L85.4298 63.3971C85.178 63.425 84.8683 63.4152 84.5829 63.3907C84.2917 63.3702 83.9998 63.3241 83.7086 63.2792C83.1278 63.1684 82.5452 63.0498 81.9726 62.8773L81.5419 62.7552L81.1151 62.615C80.8312 62.519 80.545 62.4318 80.2643 62.3233L79.4187 62.0101L78.5831 61.6641C78.0238 61.4391 77.4781 61.175 76.9242 60.9322L75.2888 60.134L73.6685 59.2941C73.1353 58.9986 72.6009 58.7047 72.061 58.4192C72.5691 58.7635 73.0825 59.0995 73.5973 59.4339C74.1164 59.7599 74.6408 60.0777 75.1679 60.3904C75.6998 60.6931 76.237 60.9868 76.7764 61.2758L77.5977 61.6838C77.8711 61.8207 78.1445 61.9583 78.4258 62.0768C79.535 62.5899 80.6788 63.0251 81.85 63.3697L82.2899 63.4967L82.7353 63.6051C83.0305 63.6844 83.3335 63.733 83.6341 63.7896C83.9376 63.834 84.241 63.8795 84.5497 63.8989C84.8627 63.9203 85.1565 63.9347 85.5025 63.8932L85.6708 63.8729L85.6978 63.6832C85.9468 61.9328 86.2788 60.1879 86.6248 58.4471L87.153 55.8356L87.6967 53.2249Z" fill="#DAEEF7"/>
<path d="M108.001 57.36C108.363 58.3735 108.691 59.3907 108.984 60.4165C109.272 61.4434 109.527 62.4786 109.697 63.5275C109.792 64.0502 109.852 64.5779 109.894 65.106C109.944 65.6339 109.949 66.164 109.931 66.6924C109.894 67.7501 108.431 72.7269 108.001 73.7119C108.608 72.838 110.201 67.8193 110.309 66.7249C110.432 65.6256 110.348 64.5155 110.175 63.4363C110.079 62.8975 109.967 62.3629 109.827 61.8371C109.682 61.3132 109.527 60.7929 109.341 60.2854C108.976 59.2687 108.543 58.279 108.001 57.36Z" fill="#DAEEF7"/>
<path d="M113.858 75.9503L117.263 76.9626L114.023 75.453L113.858 75.9503Z" fill="#EAF5F9"/>
<path d="M116.631 76.7231C116.566 76.9192 116.662 77.1345 116.845 77.2039C117.028 77.2734 117.229 77.1708 117.294 76.9746C117.359 76.7785 117.263 76.5632 117.08 76.4938C116.897 76.4243 116.696 76.5269 116.631 76.7231Z" fill="#02CCC0"/>
<path d="M113.99 76.8234C114.51 77.0207 115.08 76.7293 115.264 76.1726C115.448 75.6159 115.176 75.0047 114.657 74.8075L113.99 76.8234Z" fill="#294A5C"/>
<path d="M103.95 72.1898L100.71 70.6802L104.115 71.6926L103.95 72.1898Z" fill="#294A5C"/>
<path d="M101.342 70.9197C101.277 71.1158 101.076 71.2184 100.893 71.149C100.71 71.0794 100.614 70.8642 100.679 70.668C100.744 70.4719 100.945 70.3693 101.128 70.4387C101.311 70.5082 101.406 70.7235 101.342 70.9197Z" fill="#02CCC0"/>
<path d="M103.335 72.7792C102.815 72.5819 102.543 71.9708 102.727 71.4141C102.911 70.8575 103.482 70.566 104.001 70.7632L103.335 72.7792Z" fill="#294A5C"/>
<path d="M113.858 75.9503L117.263 76.9626L114.023 75.453L113.858 75.9503Z" fill="#294A5C"/>
<path d="M116.631 76.7231C116.566 76.9192 116.662 77.1345 116.845 77.2039C117.028 77.2734 117.229 77.1708 117.294 76.9746C117.359 76.7785 117.263 76.5632 117.08 76.4938C116.897 76.4243 116.696 76.5269 116.631 76.7231Z" fill="#02CCC0"/>
<path d="M113.99 76.8234C114.51 77.0207 115.08 76.7293 115.264 76.1726C115.448 75.6159 115.176 75.0047 114.657 74.8075L113.99 76.8234Z" fill="#294A5C"/>
<path d="M110.573 85.3237L110.779 84.077C113.956 84.679 117.112 82.9041 118.454 79.7604L118.951 78.5958L120.026 79.1224L119.528 80.2869C117.963 83.955 114.28 86.0262 110.573 85.3237Z" fill="#294A5C"/>
<path d="M121.083 78.4981C121.185 78.1886 121.151 77.8573 121.012 77.5604L121.372 76.4696C121.418 76.3329 121.351 76.1828 121.223 76.1344C121.096 76.086 120.956 76.1576 120.91 76.2942L120.653 77.0731C120.499 76.9314 120.315 76.8143 120.105 76.7349C119.894 76.6546 119.679 76.6209 119.475 76.6285L119.733 75.8474C119.779 75.7107 119.712 75.5607 119.584 75.5122C119.457 75.4638 119.317 75.5354 119.271 75.6721L118.909 76.7685C118.63 76.906 118.412 77.1389 118.31 77.4458C118.192 77.8032 118.256 78.1897 118.453 78.5186C118.364 78.5607 118.29 78.6402 118.255 78.7465C118.187 78.951 118.287 79.1755 118.478 79.248L119.888 79.7832C120.079 79.8556 120.288 79.7485 120.356 79.5441C120.391 79.4392 120.381 79.3292 120.338 79.2369C120.686 79.1146 120.964 78.8568 121.083 78.4981Z" fill="#02CCC0"/>
<path d="M101.315 81.8099L101.888 80.7024C99.0657 79.0274 97.6564 75.5196 98.4608 72.172L98.7588 70.9318L97.6144 70.6162L97.3164 71.8564C96.3778 75.7623 98.0223 79.8554 101.315 81.8099Z" fill="#294A5C"/>
<path d="M97.16 69.4184C97.2623 69.1089 97.4836 68.8746 97.7658 68.7375L98.1265 67.6468C98.1718 67.5101 98.3118 67.4385 98.4394 67.4869C98.567 67.5353 98.6338 67.6854 98.5885 67.8221L98.331 68.601C98.5335 68.5944 98.7457 68.628 98.9552 68.7075C99.1667 68.7878 99.353 68.9063 99.5074 69.05L99.7657 68.2689C99.8108 68.1322 99.951 68.0607 100.079 68.1091C100.206 68.1575 100.273 68.3076 100.228 68.4443L99.8652 69.5407C100.001 69.8356 100.034 70.1637 99.9322 70.4706C99.8141 70.828 99.5376 71.0853 99.1914 71.208C99.236 71.3009 99.2463 71.4124 99.2112 71.5186C99.1436 71.7232 98.9341 71.8302 98.7432 71.7577L97.3332 71.2225C97.1423 71.1501 97.0424 70.9256 97.11 70.7211C97.1447 70.6162 97.2168 70.5372 97.3045 70.4947C97.1059 70.165 97.0414 69.7771 97.16 69.4184Z" fill="#02CCC0"/>
<path d="M105.458 93.9039L104.214 93.4315L101.747 100.892L102.992 101.365L105.458 93.9039Z" fill="#294A5C"/>
<path d="M102.884 99.3874C102.085 99.0841 101.227 99.3452 100.69 99.977C100.415 100.3 100.542 100.821 100.927 100.967L103.476 101.934C103.861 102.08 104.266 101.762 104.242 101.325C104.196 100.472 103.683 99.6906 102.884 99.3874Z" fill="#02CCC0"/>
<path d="M104.864 96.9509C104.67 97.5367 104.07 97.8433 103.523 97.6359C102.976 97.4284 102.69 96.7851 102.884 96.1993C103.078 95.6134 103.678 95.3067 104.225 95.5142C104.772 95.7218 105.058 96.3649 104.864 96.9509Z" fill="#02CCC0"/>
<path d="M100.86 92.16L99.6157 91.6876L97.149 99.1484L98.3935 99.6208L100.86 92.16Z" fill="#294A5C"/>
<path d="M109.774 79.4666C109.82 79.3266 109.752 79.1729 109.621 79.1233C109.752 79.1729 109.895 79.0996 109.941 78.9596C109.988 78.8197 109.919 78.666 109.789 78.6164L105.509 76.9922C105.379 76.9426 105.235 77.0159 105.189 77.1558C105.143 77.2957 105.211 77.4494 105.342 77.4989C105.211 77.4494 105.068 77.5226 105.021 77.6625C104.975 77.8025 105.044 77.9561 105.174 78.0057C105.044 77.9561 104.9 78.0294 104.854 78.1694C104.808 78.3094 104.876 78.4629 105.007 78.5125L109.286 80.1367C109.417 80.1863 109.56 80.113 109.606 79.9731C109.653 79.8331 109.584 79.6795 109.453 79.6299C109.584 79.6798 109.728 79.6065 109.774 79.4666Z" fill="#294A5C"/>
<path d="M106.785 69.7193L109.413 63.2457L107.651 70.0478L106.785 69.7193Z" fill="#294A5C"/>
<path d="M112.242 71.7905L114.869 65.3169L113.107 72.1189L112.242 71.7905Z" fill="#294A5C"/>
<path d="M113.654 73.0324L105.787 70.0467L105.813 69.968C106.245 68.664 107.581 67.9815 108.798 68.4434L112.257 69.7562C113.474 70.2181 114.111 71.6496 113.68 72.9537L113.654 73.0324Z" fill="#294A5C"/>
<path d="M100.237 82.1334C99.2684 81.7658 98.7615 80.6267 99.1046 79.5891C99.4477 78.5516 100.511 78.0085 101.479 78.3761L100.237 82.1334Z" fill="#294A5C"/>
<path d="M110.897 86.1794C111.865 86.5469 112.928 86.0038 113.271 84.9662C113.614 83.9287 113.107 82.7897 112.139 82.4221L110.897 86.1794Z" fill="#294A5C"/>
<path d="M110.731 79.1533L104.493 76.7856C103.272 76.3221 102.633 74.8858 103.065 73.5775L104.165 70.2532C104.597 68.945 105.938 68.2601 107.159 68.7235L113.397 71.0912C114.618 71.5546 115.257 72.9909 114.825 74.2993L113.725 77.6235C113.293 78.9318 111.952 79.6167 110.731 79.1533Z" fill="#02CCC0"/>
<path d="M106.757 72.1139C106.562 72.7034 105.958 73.0119 105.408 72.8031C104.858 72.5944 104.57 71.9472 104.765 71.3579C104.959 70.7685 105.563 70.46 106.113 70.6688C106.664 70.8776 106.952 71.5246 106.757 72.1139Z" fill="#EAF5F9"/>
<path d="M113.71 74.7533C113.515 75.3427 112.911 75.6512 112.361 75.4423C111.811 75.2336 111.523 74.5865 111.718 73.9972C111.913 73.4079 112.517 73.0993 113.067 73.3081C113.617 73.5169 113.905 74.1639 113.71 74.7533Z" fill="#EAF5F9"/>
<path d="M108.348 75.7449C107.274 75.3374 106.92 74.5665 106.812 73.9914C106.772 73.7749 106.763 73.5719 106.769 73.3986C106.779 73.1081 107.044 72.9068 107.303 72.9912L107.303 72.9913C107.485 73.0502 107.604 73.2332 107.597 73.436C107.593 73.5553 107.599 73.6971 107.63 73.8453C107.732 74.3392 108.067 74.697 108.624 74.9086C109.182 75.1202 109.652 75.0679 110.022 74.7531C110.133 74.6587 110.221 74.5528 110.288 74.4573C110.401 74.295 110.602 74.2333 110.777 74.3097L110.777 74.3098C111.029 74.4194 111.115 74.7539 110.953 74.9865C110.856 75.1254 110.73 75.2772 110.571 75.418C110.149 75.792 109.421 76.1523 108.348 75.7449Z" fill="#EAF5F9"/>
<path d="M108.453 75.4251C107.952 75.2347 107.581 74.9389 107.351 74.546C107.198 74.284 107.11 73.9852 107.089 73.6562C107.085 73.5966 107.129 73.5455 107.184 73.5443C107.236 73.5432 107.28 73.5857 107.283 73.6411C107.318 74.1861 107.572 74.869 108.519 75.2283C109.465 75.5877 110.063 75.2279 110.411 74.8281C110.446 74.7874 110.505 74.7838 110.545 74.8197C110.587 74.8582 110.591 74.9271 110.553 74.9709C110.343 75.2123 110.099 75.3852 109.826 75.4855C109.417 75.6358 108.955 75.6155 108.453 75.4251Z" fill="#294A5C"/>
<path d="M106.474 72.0068C106.335 72.4293 105.902 72.6504 105.507 72.5008C105.113 72.3511 104.907 71.8873 105.046 71.4648C105.186 71.0422 105.619 70.821 106.013 70.9708C106.408 71.1204 106.614 71.5843 106.474 72.0068Z" fill="#294A5C"/>
<path d="M113.428 74.6462C113.289 75.0687 112.856 75.2899 112.461 75.1402C112.067 74.9905 111.86 74.5267 112 74.1042C112.14 73.6816 112.573 73.4604 112.967 73.6102C113.362 73.7598 113.568 74.2237 113.428 74.6462Z" fill="#294A5C"/>
<path d="M113.275 74.0109C113.382 74.2098 113.346 74.4464 113.196 74.5393C113.045 74.6324 112.836 74.5466 112.729 74.3477C112.622 74.1489 112.658 73.9123 112.809 73.8193C112.96 73.7263 113.168 73.812 113.275 74.0109Z" fill="#E3EEF4"/>
<path d="M106.35 71.3825C106.457 71.5814 106.421 71.8179 106.27 71.9109C106.119 72.0039 105.911 71.9181 105.804 71.7193C105.697 71.5204 105.733 71.2838 105.883 71.1908C106.034 71.0979 106.243 71.1836 106.35 71.3825Z" fill="#E3EEF4"/>
<path d="M111.98 78.6334L103.829 75.5395C103.136 75.2766 102.773 74.4619 103.019 73.7198L102.727 74.6027C102.482 75.3448 102.844 76.1595 103.537 76.4224L111.688 79.5163C112.381 79.7792 113.141 79.3907 113.387 78.6487L113.679 77.7658C113.433 78.5078 112.673 78.8964 111.98 78.6334Z" fill="#06BFAD"/>
<path d="M106.018 94.4L99.198 91.8117C98.1375 91.4091 97.5823 90.1617 97.9581 89.0256L101.228 79.1352C101.604 77.9991 102.768 77.4043 103.829 77.8068L110.648 80.3951C111.709 80.7976 112.264 82.045 111.888 83.1812L108.618 93.0715C108.242 94.2077 107.078 94.8025 106.018 94.4Z" fill="#02CCC0"/>
<path d="M106.975 93.77L98.8235 90.676C98.1309 90.4131 97.7684 89.5985 98.0137 88.8563L97.7217 89.7393C97.4764 90.4814 97.839 91.2961 98.5316 91.5589L106.683 94.6529C107.376 94.9158 108.136 94.5274 108.382 93.7852L108.674 92.9023C108.428 93.6445 107.668 94.0329 106.975 93.77Z" fill="#06BFAD"/>
<path opacity="0.3" d="M102.558 88.2767L101.209 87.7647C100.292 87.4165 99.8113 86.3375 100.136 85.3547L101.508 81.2052C101.833 80.2223 102.84 79.7078 103.758 80.0561L105.107 80.5681C106.024 80.9162 106.504 81.9952 106.179 82.978L104.807 87.1276C104.482 88.1104 103.475 88.6249 102.558 88.2767Z" fill="#294A5C"/>
<path opacity="0.3" d="M107.096 89.9991L106.407 89.7376C105.49 89.3894 105.01 88.3105 105.335 87.3277L106.707 83.1781C107.032 82.1953 108.039 81.6807 108.956 82.029L109.645 82.2904C110.562 82.6386 111.042 83.7176 110.717 84.7004L109.345 88.85C109.02 89.8328 108.013 90.3473 107.096 89.9991Z" fill="#294A5C"/>
<path d="M103.835 87.6514C103.726 87.61 103.669 87.4814 103.707 87.3641L105.464 82.053C105.502 81.9358 105.622 81.8744 105.732 81.9159C105.841 81.9575 105.898 82.0861 105.86 82.2032L104.103 87.5144C104.065 87.6315 103.945 87.693 103.835 87.6514Z" fill="#294A5C"/>
<path d="M109.073 82.8483C108.148 82.4971 107.124 83.039 106.787 84.0586L110.137 85.3302C110.474 84.3106 109.998 83.1994 109.073 82.8483Z" fill="#294A5C"/>
<path d="M108.987 83.1075C108.28 82.8391 107.511 83.2125 107.27 83.9416L109.831 84.9137C110.072 84.1847 109.694 83.376 108.987 83.1075Z" fill="#EAF5F9"/>
<path d="M106.902 85.9875C106.849 86.1487 106.684 86.2329 106.534 86.1758C106.383 86.1188 106.304 85.942 106.358 85.7807C106.411 85.6196 106.576 85.5354 106.726 85.5924C106.877 85.6495 106.955 85.8263 106.902 85.9875Z" fill="#294A5C"/>
<path d="M109.564 86.9979C109.511 87.1592 109.346 87.2434 109.196 87.1863C109.045 87.1293 108.967 86.9524 109.02 86.7912C109.073 86.6301 109.238 86.5459 109.389 86.6029C109.539 86.66 109.618 86.8368 109.564 86.9979Z" fill="#294A5C"/>
<path d="M105.992 88.7396C105.939 88.9007 105.774 88.985 105.624 88.9279C105.473 88.8708 105.395 88.694 105.448 88.5329C105.501 88.3718 105.666 88.2874 105.816 88.3445C105.967 88.4016 106.046 88.5785 105.992 88.7396Z" fill="#294A5C"/>
<path d="M108.654 89.7502C108.601 89.9114 108.436 89.9956 108.286 89.9385C108.135 89.8815 108.057 89.7047 108.11 89.5435C108.163 89.3823 108.328 89.2981 108.479 89.3551C108.629 89.4122 108.708 89.5891 108.654 89.7502Z" fill="#294A5C"/>
<path d="M108.004 92.0899L99.3421 88.8023C99.2095 88.752 99.14 88.5959 99.1871 88.4539C99.234 88.3118 99.3797 88.2375 99.5122 88.2879L108.174 91.5754C108.307 91.6258 108.376 91.7818 108.329 91.9238C108.282 92.0658 108.137 92.1402 108.004 92.0899Z" fill="#294A5C"/>
<path d="M107.67 93.1004L99.0081 89.8128C98.8755 89.7625 98.8061 89.6064 98.8531 89.4644C98.9 89.3223 99.0456 89.248 99.1782 89.2984L107.84 92.5859C107.973 92.6363 108.042 92.7923 107.995 92.9343C107.948 93.0764 107.802 93.1507 107.67 93.1004Z" fill="#294A5C"/>
<path opacity="0.3" d="M108.53 84.2322L109.343 83.4514L108.742 84.342L108.53 84.2322Z" fill="#294A5C"/>
<path d="M108.797 84.5214C108.799 84.5161 108.802 84.511 108.803 84.5054C108.852 84.3591 108.78 84.1982 108.643 84.1463C108.507 84.0945 108.357 84.1711 108.308 84.3176C108.307 84.3232 108.305 84.3286 108.304 84.3342L108.797 84.5214Z" fill="#02CCC0"/>
<path d="M98.2876 97.6427C97.4887 97.3395 96.6311 97.6005 96.0939 98.2323C95.819 98.5557 95.946 99.0764 96.3309 99.2224L98.8798 100.19C99.2647 100.336 99.6693 100.017 99.6456 99.5803C99.5994 98.7272 99.0865 97.946 98.2876 97.6427Z" fill="#02CCC0"/>
<path d="M100.268 95.2061C100.074 95.792 99.4738 96.0987 98.9269 95.8912C98.3801 95.6836 98.094 95.0405 98.2876 94.4545C98.4813 93.8687 99.0816 93.562 99.6284 93.7695C100.175 93.9771 100.461 94.6203 100.268 95.2061Z" fill="#02CCC0"/>
<path d="M109.783 63.9043C109.681 64.2134 109.365 64.3752 109.076 64.2656C108.788 64.1562 108.637 63.8168 108.739 63.5077C108.841 63.1986 109.158 63.0368 109.446 63.1463C109.735 63.2559 109.886 63.5952 109.783 63.9043Z" fill="#02CCC0"/>
<path d="M115.24 65.9752C115.138 66.2844 114.821 66.4462 114.532 66.3366C114.244 66.2271 114.093 65.8877 114.195 65.5787C114.297 65.2695 114.614 65.1077 114.902 65.2172C115.191 65.3268 115.342 65.6661 115.24 65.9752Z" fill="#02CCC0"/>
<path d="M100.905 83.7679C100.768 83.862 100.781 84.0818 100.93 84.1526C102.081 84.7004 105.693 86.4493 105.629 86.7947C105.552 87.2053 102.289 85.7268 102.044 86.0136C101.798 86.3002 105.015 87.656 104.867 88.0812C104.719 88.5062 101.825 87.1644 101.704 87.3205C101.584 87.4766 104.228 89.0796 104.281 89.385C104.334 89.6907 101.317 88.3473 101.12 88.4922C100.924 88.6373 102.717 90.3058 102.601 90.4874C102.484 90.6689 102.435 90.8106 97.3901 88.2938L95.4435 87.2122L94.3013 85.41L95.672 83.2365C95.672 83.2365 102.686 81.6409 102.897 81.8621C103.099 82.0729 103.014 82.3172 100.905 83.7679Z" fill="#FFC0BB"/>
<path d="M185.232 20.609C185.232 20.609 184.184 25.6319 187.445 25.1458C187.445 25.1458 188.514 27.7382 191.501 26.037C191.501 26.037 193.883 29.6016 198.155 28.0623C198.155 28.0623 197.612 33.7601 201.683 33.8075L204.167 29.6421C204.167 29.6421 201.029 23.4851 200.915 23.3635C200.802 23.2419 198.231 20.3659 196.832 19.7989C195.433 19.2318 194.526 18.4621 192.295 18.2191C190.064 17.976 188.098 17.814 187.909 18.2596C187.72 18.7052 185.232 20.609 185.232 20.609Z" fill="#F46C0F"/>
<path d="M192.766 37.8671C192.455 38.9945 191.36 39.7723 190.124 39.6649C188.889 39.5575 187.927 38.601 187.792 37.4348L192.766 37.8671Z" fill="white"/>
<path d="M239.309 169.193H34.2417V170.736H239.309V169.193Z" fill="#333333"/>
<path d="M95.274 169.193H113.833C115.462 169.193 116.782 167.778 116.782 166.033C116.782 164.288 115.462 162.874 113.833 162.874H95.274C93.6453 162.874 92.325 164.288 92.325 166.033C92.325 167.778 93.6454 169.193 95.274 169.193Z" fill="#FEB546"/>
<path d="M82.1092 169.193H94.9371C96.5658 169.193 97.8861 167.778 97.8861 166.033C97.8861 164.288 96.5658 162.874 94.9371 162.874H82.1092C80.4805 162.874 79.1602 164.288 79.1602 166.033C79.1602 167.778 80.4805 169.193 82.1092 169.193Z" fill="#E28810"/>
<path d="M91.9827 162.874H110.542C112.171 162.874 113.491 161.459 113.491 159.714C113.491 157.969 112.171 156.554 110.542 156.554H91.9827C90.354 156.554 89.0337 157.969 89.0337 159.714C89.0338 161.459 90.3541 162.874 91.9827 162.874Z" fill="#02CCC0"/>
<path d="M78.8178 162.874H91.6458C93.2744 162.874 94.5948 161.459 94.5948 159.714C94.5948 157.969 93.2744 156.554 91.6458 156.554H78.8178C77.1891 156.554 75.8689 157.969 75.8689 159.714C75.8689 161.459 77.1891 162.874 78.8178 162.874Z" fill="#55B76B"/>
<path d="M95.274 156.554H113.833C115.462 156.554 116.782 155.14 116.782 153.395C116.782 151.65 115.462 150.235 113.833 150.235H95.274C93.6453 150.235 92.325 151.65 92.325 153.395C92.325 155.14 93.6454 156.554 95.274 156.554Z" fill="#434444"/>
<path d="M82.1092 156.554H94.9371C96.5658 156.554 97.8861 155.14 97.8861 153.395C97.8861 151.65 96.5658 150.235 94.9371 150.235H82.1092C80.4805 150.235 79.1602 151.65 79.1602 153.395C79.1602 155.14 80.4805 156.554 82.1092 156.554Z" fill="#333333"/>
<path d="M93.1406 159.395H76.8123V160.033H93.1406V159.395Z" fill="#026EAF"/>
<path d="M96.4316 165.714H80.1033V166.352H96.4316V165.714Z" fill="#E28810"/>
<path d="M95.274 150.235H113.833C115.462 150.235 116.782 148.821 116.782 147.076C116.782 145.331 115.462 143.916 113.833 143.916H95.274C93.6453 143.916 92.325 145.331 92.325 147.076C92.325 148.821 93.6454 150.235 95.274 150.235Z" fill="#FF5B7E"/>
<path d="M82.1092 150.235H94.9371C96.5658 150.235 97.8861 148.821 97.8861 147.076C97.8861 145.331 96.5658 143.916 94.9371 143.916H82.1092C80.4805 143.916 79.1602 145.331 79.1602 147.076C79.1602 148.821 80.4805 150.235 82.1092 150.235Z" fill="#E03268"/>
<path d="M96.4316 146.757H80.1033V147.395H96.4316V146.757Z" fill="#E03268"/>
<path d="M91.8977 143.916H110.457C112.086 143.916 113.406 142.502 113.406 140.757C113.406 139.012 112.086 137.597 110.457 137.597H91.8977C90.269 137.597 88.9487 139.012 88.9487 140.757C88.9487 142.502 90.269 143.916 91.8977 143.916Z" fill="#AFDBFE"/>
<path d="M78.7327 143.916H91.5606C93.1893 143.916 94.5096 142.502 94.5096 140.757C94.5096 139.012 93.1893 137.597 91.5606 137.597H78.7327C77.104 137.597 75.7837 139.012 75.7837 140.757C75.7837 142.502 77.104 143.916 78.7327 143.916Z" fill="#D7EFFF"/>
<path d="M93.0554 140.438H76.7271V141.076H93.0554V140.438Z" fill="#026EAF"/>
<path d="M96.6872 153.076H80.3589V153.714H96.6872V153.076Z" fill="#E28810"/>
</svg>
