<svg width="24" height="25" viewBox="0 0 24 25" fill="none" xmlns="http://www.w3.org/2000/svg">
<path d="M12.0005 0.255615C18.6348 0.255615 24.0005 5.68095 24.0005 12.3889C24.0005 19.0969 18.6348 24.5223 12.0005 24.5223C5.3662 24.5223 0.000488281 19.0969 0.000488281 12.3889C0.000488281 5.68095 5.3662 0.255615 12.0005 0.255615ZM9.8062 18.7849C15.1205 18.7849 18.0348 14.3303 18.0348 10.4649V10.0836C18.6005 9.66762 19.0976 9.14762 19.4748 8.55828C18.9605 8.78362 18.3948 8.93962 17.8119 9.02628C18.4119 8.66228 18.8748 8.09028 19.0805 7.41428C18.5148 7.74362 17.8976 7.98628 17.2462 8.12495C16.7148 7.55295 15.9605 7.20628 15.1376 7.20628C13.5433 7.20628 12.2405 8.52361 12.2405 10.1356C12.2405 10.3609 12.2576 10.5863 12.3262 10.7943C9.9262 10.6729 7.78335 9.51162 6.36049 7.74362C6.12049 8.17695 5.9662 8.67962 5.9662 9.21695C5.9662 10.2223 6.48049 11.1236 7.25192 11.6436C6.77192 11.6436 6.3262 11.5049 5.94906 11.2796V11.3143C5.94906 12.7356 6.94335 13.9143 8.26335 14.1916C8.02335 14.2609 7.7662 14.2956 7.50906 14.2956C7.32049 14.2956 7.14906 14.2783 6.96049 14.2436C7.32049 15.4049 8.40049 16.2543 9.65192 16.2716C8.65763 17.0516 7.4062 17.5196 6.05192 17.5196C5.81192 17.5196 5.58906 17.5196 5.3662 17.4849C6.63477 18.3169 8.16049 18.8023 9.78906 18.8023" fill="white"/>
</svg>
