<svg width="62" height="62" viewBox="0 0 62 62" fill="none" xmlns="http://www.w3.org/2000/svg">
<g clip-path="url(#clip0_114_2923)">
<path d="M53.4773 42.4341L42.0092 14.9108C41.4552 13.5812 39.5716 13.5812 39.0176 14.9108L27.5495 42.4341C23.6951 51.6849 30.4918 61.88 40.5135 61.88C50.5351 61.88 57.3319 51.6849 53.4773 42.4341Z" fill="#9BE8FD"/>
<path d="M35.1016 42.4341L44.2895 20.3833L42.0092 14.9108C41.4552 13.5812 39.5716 13.5812 39.0176 14.9108L27.5495 42.4341C23.6951 51.6849 30.4917 61.88 40.5135 61.88C41.8341 61.88 43.0979 61.7014 44.2895 61.3729C36.4383 59.2079 31.755 50.466 35.1016 42.4341Z" fill="#62DDFC"/>
<path d="M23.3378 30.8317L16.535 14.5051C16.2064 13.7164 15.089 13.7164 14.7604 14.5051L7.95759 30.8317C5.67118 36.3192 9.70292 42.3669 15.6476 42.3669C21.5923 42.3669 25.6243 36.3192 23.3378 30.8317Z" fill="#9BE8FD"/>
<path d="M13.1382 30.6315L18.1963 18.4921L16.5351 14.5051C16.2065 13.7164 15.0891 13.7164 14.7604 14.5051L7.95759 30.8319C5.67118 36.3194 9.70292 42.367 15.6477 42.367C16.6798 42.367 17.654 42.1844 18.5476 41.8545C13.915 40.5512 11.1589 35.382 13.1382 30.6315Z" fill="#62DDFC"/>
<path d="M31.7119 9.74216L27.7946 0.340642C27.6054 -0.113547 26.962 -0.113547 26.7728 0.340642L22.8555 9.74204C21.5388 12.9019 23.8604 16.3843 27.2836 16.3843C30.7068 16.3843 33.0285 12.902 31.7119 9.74216Z" fill="#9BE8FD"/>
<path d="M27.8358 9.74216L29.7739 5.09077L27.7946 0.340642C27.6054 -0.113547 26.962 -0.113547 26.7728 0.340642L22.8555 9.74204C21.5388 12.9019 23.8604 16.3843 27.2836 16.3843C28.2119 16.3843 29.0581 16.1267 29.7738 15.6904C27.8503 14.5178 26.8762 12.0451 27.8358 9.74216Z" fill="#62DDFC"/>
<path d="M45.2404 56.2584C45.1696 56.1583 45.1191 56.0453 45.092 55.9257C45.0648 55.8061 45.0615 55.6823 45.0822 55.5615C45.1029 55.4406 45.1472 55.325 45.2125 55.2212C45.2779 55.1175 45.3631 55.0276 45.4632 54.9568C48.5349 52.7827 50.2223 48.5515 48.5028 44.4245C48.4109 44.1965 48.4126 43.9415 48.5075 43.7148C48.6024 43.4881 48.7829 43.308 49.0098 43.2134C49.2366 43.1189 49.4916 43.1176 49.7194 43.2098C49.9472 43.3021 50.1295 43.4804 50.2267 43.7061C52.3113 48.7091 50.2717 53.8415 46.5422 56.481C46.34 56.6241 46.0893 56.6811 45.8452 56.6393C45.6011 56.5976 45.3835 56.4606 45.2404 56.2584ZM17.1457 38.31C17.0749 38.2099 17.0244 38.0968 16.9973 37.9772C16.9701 37.8577 16.9668 37.7339 16.9875 37.613C17.0082 37.4921 17.0525 37.3765 17.1178 37.2728C17.1832 37.169 17.2684 37.0792 17.3685 37.0083C18.7392 36.0381 19.4958 34.1478 18.727 32.3029C18.6352 32.075 18.6369 31.82 18.7318 31.5933C18.8267 31.3666 19.0072 31.1864 19.234 31.0919C19.4609 30.9973 19.7159 30.996 19.9437 31.0883C20.1715 31.1805 20.3538 31.3588 20.451 31.5845C21.5668 34.2626 20.5162 37.0684 18.4474 38.5327C18.2452 38.6757 17.9945 38.7326 17.7504 38.6908C17.5063 38.6491 17.2888 38.5121 17.1457 38.31Z" fill="#C9F0FE"/>
</g>
<defs>
<clipPath id="clip0_114_2923">
<rect width="61.88" height="61.88" fill="white"/>
</clipPath>
</defs>
</svg>
